<?xml version="1.0" encoding="UTF-8" standalone="no"?>
<!DOCTYPE svg PUBLIC "-//W3C//DTD SVG 1.1//EN" "http://www.w3.org/Graphics/SVG/1.1/DTD/svg11.dtd">
<svg width="100%" height="100%" viewBox="0 0 14211 8483" version="1.1" xmlns="http://www.w3.org/2000/svg" xmlns:xlink="http://www.w3.org/1999/xlink" xml:space="preserve" xmlns:serif="http://www.serif.com/" style="fill-rule:evenodd;clip-rule:evenodd;stroke-linejoin:round;stroke-miterlimit:2;" opacity="0.15">
    <g transform="matrix(1,0,0,1,570.492,61.8835)">
        <g transform="matrix(4.16667,0,0,4.16667,0,0)">
            <path d="M3270.31,1960.38L3169.33,2017.18L3169.33,1903.63L3172.99,1901.57L3270.31,1846.83L3270.31,1960.38ZM3168.22,1901.69L3163.81,1899.21L3067.28,1844.91L3168.22,1788.14L3269.15,1844.91L3168.22,1901.69ZM3167.1,2017.18L3066.12,1960.38L3066.12,1846.83L3073.67,1851.07L3167.1,1903.63L3167.1,2017.18ZM3063.89,1960.38L2962.91,2017.18L2962.91,1903.63L3063.89,1846.83L3063.89,1960.38ZM2961.79,1901.69L2952.43,1896.42L2860.86,1844.92L2961.79,1788.14L3062.72,1844.91L2961.79,1901.69ZM2960.67,2017.18L2859.69,1960.38L2859.69,1846.83L2869.66,1852.43L2960.67,1903.63L2960.67,2017.18ZM2859.69,1730.71L2959.51,1786.86L2859.69,1843L2859.69,1730.71ZM2857.46,1843L2756.48,1786.2L2756.48,1672.65L2857.46,1729.45L2857.46,1843ZM2755.36,1553.34L2750.96,1550.87L2654.43,1496.57L2705.85,1467.64L2755.36,1439.79L2856.3,1496.57L2807.35,1524.1L2755.36,1553.34ZM2754.24,1668.83L2653.26,1612.03L2653.26,1498.48L2660.82,1502.73L2753.08,1554.63L2754.24,1555.28L2754.24,1668.83ZM2754.24,1784.95L2653.26,1728.15L2653.26,1614.59L2703.75,1642.99L2754.24,1671.39L2754.24,1784.95ZM2647.74,1260.57L2551.21,1206.28L2652.15,1149.5L2656.55,1151.98L2753.08,1206.28L2652.15,1263.05L2647.74,1260.57ZM2651.03,1378.54L2648.17,1376.93L2550.05,1321.74L2550.05,1208.19L2557.6,1212.44L2651.03,1264.99L2651.03,1378.54ZM2651.03,1494.66L2644.16,1490.79L2551.21,1438.51L2600.17,1410.97L2651.03,1382.36L2651.03,1494.66ZM2651.03,1498.48L2651.03,1612.03L2550.05,1668.83L2550.05,1555.28L2553.7,1553.22L2651.03,1498.48ZM2651.03,1728.15L2550.05,1784.95L2550.05,1671.39L2651.03,1614.59L2651.03,1728.15ZM2448,1496.57L2499.42,1467.64L2548.93,1439.79L2598.44,1467.64L2649.87,1496.57L2548.93,1553.34L2448,1496.57ZM2446.84,1382.36L2453.71,1386.23L2546.65,1438.51L2497.7,1466.04L2446.84,1494.66L2446.84,1382.36ZM2344.78,1206.28L2445.72,1149.5L2450.12,1151.98L2546.65,1206.28L2445.72,1263.05L2344.78,1206.28ZM2444.6,1378.54L2341.39,1320.48L2341.39,1437.85L2240.41,1494.66L2240.41,1381.1L2241.57,1380.45L2240.41,1379.8L2240.41,1378.54L2239.29,1379.17L2136.62,1321.42L2136.08,1321.11L2032.86,1379.17L2031.74,1378.54L2031.74,1379.8L2030.58,1380.45L2031.74,1381.1L2031.74,1494.66L1930.76,1437.85L1930.76,1323.05L1931.93,1322.39L1930.76,1321.74L1930.76,1320.48L1929.65,1321.11L1826.98,1263.36L1826.43,1263.05L1724.34,1320.48L1724.34,1206.93L1725.5,1206.28L1724.34,1205.62L1724.34,1204.37L1723.22,1204.99L1622.28,1148.22L1723.77,1091.13L1724.34,1090.81L1724.34,972.134L1621.12,1030.19L1620,1030.82L1517.91,973.391L1517.91,856.018L1413.58,914.704L1309.24,856.018L1309.24,973.391L1208.26,1030.19L1208.26,915.333L1106.21,857.929L1206.03,801.781L1207.15,801.152L1208.26,801.781L1208.26,800.524L1309.24,743.723L1310.3,743.131L1311.48,742.466L1413.58,685.036L1413.58,685.037L1413.58,685.036L1517.91,743.723L1517.91,626.35L1622.28,567.638L1517.91,508.927L1517.91,394.118L1618.89,337.317L1618.89,452.176L1720.94,509.581L1722.1,510.234L1722.1,511.491L1723.22,510.863L1826.43,568.92L1929.65,510.863L1930.76,511.491L1930.76,510.234L1931.93,509.581L1930.76,508.927L1930.76,394.118L2032.86,336.688L2033.98,337.317L2033.98,336.06L2035.14,335.406L2136.08,278.631L2237.01,335.406L2238.17,336.06L2238.17,337.317L2239.29,336.688L2340.22,393.464L2237.01,451.522L2341.39,510.234L2341.39,625.042L2340.22,625.696L2341.39,626.35L2341.39,627.607L2342.5,626.979L2444.6,684.408L2444.6,799.216L2443.44,799.87L2444.6,800.524L2444.6,916.64L2546.65,974.044L2445.72,1030.82L2444.6,1030.19L2444.6,1031.45L2443.44,1032.1L2444.6,1032.76L2444.6,1147.56L2340.22,1206.28L2444.6,1264.99L2444.6,1378.54ZM2444.6,1381.1L2444.6,1494.66L2437.05,1490.41L2343.62,1437.85L2343.62,1324.3L2443.44,1380.45L2444.6,1381.1ZM2343.24,1552.93L2342.5,1553.34L2335.05,1549.15L2241.57,1496.57L2342.5,1439.79L2346.91,1442.27L2443.44,1496.57L2343.24,1552.93ZM2444.6,1613.34L2444.6,1726.89L2344.78,1670.74L2343.62,1670.09L2343.62,1556.54L2444.6,1613.34ZM2341.39,1668.83L2334.52,1664.96L2241.57,1612.68L2296.16,1581.97L2341.39,1556.54L2341.39,1668.83ZM2341.39,1786.2L2240.41,1843L2240.41,1729.45L2244.06,1727.4L2341.39,1672.65L2341.39,1786.2ZM2138.36,1670.74L2239.29,1613.96L2288.8,1641.81L2340.22,1670.74L2239.29,1727.52L2138.36,1670.74ZM2138.36,1554.63L2188.82,1526.24L2239.29,1497.85L2246.75,1502.04L2340.22,1554.63L2294.42,1580.39L2239.29,1611.4L2138.36,1554.63ZM2035.14,1496.57L2136.08,1439.79L2229.1,1492.12L2237.01,1496.57L2186.54,1524.96L2136.08,1553.34L2035.14,1496.57ZM2036.51,1383.79L2133.79,1438.51L2041.78,1490.27L2033.98,1494.66L2033.98,1382.36L2036.51,1383.79ZM2238.17,1382.36L2238.17,1494.66L2208.46,1477.94L2138.35,1438.51L2238.17,1382.36ZM2229.1,1384.9L2136.08,1437.23L2035.14,1380.45L2136.08,1323.68L2237.01,1380.45L2229.1,1384.9ZM2033.98,1610.77L2033.98,1498.48L2036.51,1499.9L2133.79,1554.63L2033.98,1610.77ZM2031.74,1497.22L2031.74,1610.77L1930.76,1553.97L1930.76,1440.42L2030.58,1496.57L2031.74,1497.22ZM1928.53,1324.3L1928.53,1437.85L1827.55,1494.66L1827.55,1381.1L1928.53,1324.3ZM1826.43,1379.17L1725.5,1322.39L1826.43,1265.62L1927.37,1322.39L1826.43,1379.17ZM1825.31,1494.66L1774.83,1466.26L1725.5,1438.51L1724.34,1437.85L1724.34,1324.3L1727.19,1325.91L1825.31,1381.1L1825.31,1494.66ZM1825.31,1497.22L1825.31,1610.77L1724.34,1553.97L1724.34,1440.42L1774.83,1468.82L1825.31,1497.22ZM1722.1,1208.19L1722.1,1321.74L1720.94,1322.39L1621.12,1378.54L1621.12,1264.99L1624.77,1262.93L1722.1,1208.19ZM1722.1,1436.6L1715.23,1432.73L1622.28,1380.45L1722.1,1324.3L1722.1,1436.6ZM1722.1,1553.97L1621.12,1610.77L1621.12,1497.22L1624.77,1495.17L1722.1,1440.42L1722.1,1553.97ZM1620,1495.28L1519.07,1438.51L1618.89,1382.36L1620,1381.73L1669.51,1409.58L1720.94,1438.51L1620,1495.28ZM1618.89,1610.77L1519.07,1554.63L1618.89,1498.48L1618.89,1610.77ZM1517.91,1321.74L1517.91,1208.19L1618.89,1264.99L1618.89,1378.54L1517.91,1321.74ZM1415.85,1148.22L1430.64,1139.9L1516.79,1091.44L1617.72,1148.22L1516.79,1204.99L1415.85,1148.22ZM1515.67,973.391L1414.69,1030.19L1414.69,916.64L1515.67,859.839L1515.67,973.391ZM1516.79,1088.88L1415.85,1032.1L1516.79,975.327L1617.72,1032.1L1516.79,1088.88ZM1620,1149.5L1620.74,1149.91L1720.94,1206.28L1620,1263.05L1519.07,1206.28L1620,1149.5ZM1618.89,1146.31L1616.6,1145.02L1519.07,1090.16L1615.18,1036.1L1618.89,1034.01L1618.89,1146.31ZM1622.28,1032.1L1722.1,975.956L1722.1,1089.51L1621.12,1146.31L1621.12,1032.76L1622.28,1032.1ZM1413.58,1146.94L1312.64,1090.16L1363.11,1061.77L1412.46,1034.01L1413.3,1033.54L1413.58,1033.38L1413.85,1033.54L1414.69,1034.01L1514.51,1090.16L1464.04,1118.55L1413.58,1146.94ZM1412.46,1262.42L1311.48,1205.62L1311.48,1092.07L1412.46,1148.87L1412.46,1262.42ZM1412.46,1379.8L1311.48,1436.6L1311.48,1323.05L1412.46,1266.25L1412.46,1379.8ZM1209.43,1264.33L1233.76,1250.64L1310.36,1207.56L1411.3,1264.33L1387.78,1277.56L1310.36,1321.11L1209.43,1264.33ZM1208.26,1148.87L1309.24,1092.07L1309.24,1205.62L1208.26,1262.42L1208.26,1148.87ZM1311.48,973.391L1311.48,859.839L1412.46,916.64L1412.46,1030.19L1311.48,973.391ZM1411.3,1032.1L1360.83,1060.49L1311.48,1088.25L1310.82,1088.62L1310.36,1088.88L1310.14,1088.75L1309.24,1088.25L1209.43,1032.1L1310.36,975.327L1411.3,1032.1ZM1207.15,1146.94L1106.21,1090.16L1207.15,1033.38L1207.37,1033.51L1208.26,1034.01L1308.08,1090.16L1283.74,1103.85L1207.15,1146.94ZM382.55,1379.8L382.55,1266.25L483.529,1323.05L483.529,1436.6L382.55,1379.8ZM1206.03,1262.42L1104.48,1205.3L1103.93,1204.99L1000.72,1263.05L999.601,1262.42L999.601,1263.68L998.439,1264.33L999.601,1264.99L999.601,1379.8L897.505,1437.23L793.172,1378.54L793.172,1495.91L691.076,1553.34L690.858,1553.22L586.744,1494.66L586.744,1610.77L485.194,1553.65L484.646,1553.34L381.433,1611.4L380.315,1610.77L380.315,1612.03L379.153,1612.68L380.315,1613.34L380.315,1726.89L279.336,1670.09L279.336,1555.28L383.712,1496.57L280.498,1438.51L381.432,1381.73L485.764,1440.42L485.764,1321.74L382.55,1263.68L382.55,1262.42L381.433,1263.05L380.315,1262.42L280.498,1206.28L383.712,1148.22L280.497,1090.16L280.498,1090.16L278.412,1088.99L278.218,1088.88L177.283,1032.1L279.336,974.698L279.336,856.018L176.122,914.075L176.122,800.524L278.218,743.095L278.219,743.095L381.433,801.152L483.529,858.582L483.529,859.839L484.646,859.211L485.764,859.839L485.764,858.582L588.979,800.524L588.979,684.408L689.958,627.607L690.796,627.136L691.076,626.979L792.01,683.754L688.796,741.813L794.29,801.152L897.504,743.095L897.658,743.181L898.622,743.723L998.438,799.87L897.504,856.646L896.387,856.018L896.387,857.275L895.225,857.929L896.387,858.582L896.387,973.391L895.225,974.044L896.387,974.698L896.387,975.956L897.504,975.327L1000.17,1033.08L1000.72,1033.38L1103.93,975.327L1204.87,1032.1L1101.65,1090.16L1206.03,1148.87L1206.03,1262.42ZM1206.03,1379.8L1105.05,1436.6L1105.05,1323.05L1206.03,1266.25L1206.03,1379.8ZM1204.87,1496.57L1155.09,1524.57L1103.93,1553.34L1003,1496.57L1052.78,1468.57L1103.93,1439.79L1204.87,1496.57ZM1206.03,1610.77L1106.21,1554.63L1136.19,1537.76L1206.03,1498.48L1206.03,1610.77ZM1051.74,1410.43L1101.65,1438.51L1051.06,1466.97L1001.84,1494.66L1001.84,1382.36L1051.74,1410.43ZM1102.81,1324.3L1102.81,1436.6L1052.91,1408.52L1003,1380.45L1052.91,1352.38L1102.81,1324.3ZM1003,1264.33L1103.93,1207.56L1204.87,1264.33L1181.35,1277.56L1104.85,1320.59L1103.93,1321.11L1052.78,1292.34L1003,1264.33ZM1101.65,1322.39L1051.74,1350.47L1001.84,1378.54L1001.84,1266.25L1101.65,1322.39ZM999.601,1495.91L898.622,1552.71L898.622,1439.16L999.601,1382.36L999.601,1495.91ZM999.601,1613.34L999.601,1726.89L898.622,1670.09L898.622,1556.54L999.601,1613.34ZM896.387,1552.71L795.407,1495.91L795.407,1382.36L896.387,1439.16L896.387,1552.71ZM896.387,1670.09L795.407,1726.89L795.407,1613.34L798.605,1611.54L896.387,1556.54L896.387,1670.09ZM794.622,1611.21L794.29,1611.4L744.358,1583.31L693.355,1554.63L794.29,1497.85L895.225,1554.63L868.14,1569.86L795.407,1610.77L794.622,1611.21ZM692.193,1668.83L692.193,1556.54L792.01,1612.68L742.102,1640.76L692.193,1668.83ZM793.172,1726.89L693.355,1670.74L743.263,1642.67L793.172,1614.59L793.172,1726.89ZM793.172,1843L693.355,1786.86L743.95,1758.4L793.172,1730.71L793.172,1843ZM793.172,1959.12L693.355,1902.97L743.95,1874.51L793.172,1846.83L793.172,1959.12ZM691.075,1901.69L590.141,1844.91L641.144,1816.23L691.075,1788.14L741.007,1816.23L792.01,1844.91L742.229,1872.92L691.075,1901.69ZM689.958,2017.18L588.979,1960.38L588.979,1846.83L689.958,1903.63L689.958,2017.18ZM689.958,1668.83L588.979,1612.03L588.979,1498.48L689.958,1555.28L689.958,1668.83ZM688.796,1786.86L674.112,1795.12L588.979,1843L588.979,1730.71L688.796,1786.86ZM639.921,1756.8L590.141,1728.8L640.608,1700.41L691.075,1672.02L742.229,1700.8L792.01,1728.8L742.229,1756.8L691.075,1785.58L639.921,1756.8ZM486.926,1670.74L537.394,1642.35L587.861,1613.96L688.796,1670.74L638.329,1699.13L587.861,1727.52L486.926,1670.74ZM586.744,1843L485.764,1786.2L485.764,1672.65L586.744,1729.45L586.744,1843ZM586.744,1960.38L485.764,2017.18L485.765,1903.63L487.864,1902.45L586.744,1846.83L586.744,1960.38ZM484.979,1901.5L484.646,1901.69L383.712,1844.91L484.646,1788.14L585.582,1844.92L565.815,1856.03L485.764,1901.06L484.979,1901.5ZM483.529,2017.18L383.712,1961.03L483.529,1904.88L483.529,2017.18ZM483.529,1672.65L483.529,1786.2L382.55,1843L382.55,1729.45L483.529,1672.65ZM383.712,1612.68L484.646,1555.91L585.582,1612.68L535.114,1641.07L484.646,1669.46L433.492,1640.68L383.712,1612.68ZM482.368,1670.74L382.55,1726.89L382.55,1614.59L482.368,1670.74ZM380.315,1729.45L380.315,1843L283.411,1788.5L279.336,1786.2L279.336,1672.65L380.315,1729.45ZM279.336,1901.06L279.336,1788.77L285.029,1791.97L379.153,1844.91L279.336,1901.06ZM278.218,1553.34L177.284,1496.57L227.751,1468.18L278.218,1439.79L379.153,1496.57L279.141,1552.82L278.218,1553.34ZM277.101,1668.83L177.284,1612.68L226.657,1584.91L277.101,1556.54L277.101,1668.83ZM277.101,1672.65L277.101,1786.2L176.122,1843L176.122,1729.45L277.101,1672.65ZM175.004,1727.52L74.069,1670.74L103.572,1654.14L175.004,1613.96L226.159,1642.74L275.939,1670.74L252.42,1683.97L175.004,1727.52ZM173.886,1843L72.907,1786.2L72.907,1672.65L173.887,1729.45L173.886,1843ZM-29.145,1264.33L-5.626,1251.11L71.789,1207.56L72.313,1207.85L172.725,1264.33L149.206,1277.56L71.789,1321.11L-29.145,1264.33ZM70.672,1436.6L-30.307,1379.8L-30.307,1266.25L70.672,1323.05L70.672,1436.6ZM-30.307,1262.42L-30.307,1148.87L-26.231,1146.58L70.672,1092.07L70.672,1205.62L-30.307,1262.42ZM-30.307,1034.01L69.51,1090.16L43.485,1104.8L-30.307,1146.31L-30.307,1034.01ZM71.789,975.327L172.725,1032.1L122.257,1060.49L72.907,1088.25L71.789,1088.88L70.774,1088.31L20.635,1060.1L-29.145,1032.1L71.789,975.327ZM-29.145,799.87L70.905,743.592L71.789,743.095L73.889,744.276L172.725,799.87L122.569,828.083L71.789,856.646L71.055,856.233L-29.145,799.87ZM-30.307,684.408L70.672,627.607L70.672,741.159L-30.307,797.959L-30.307,684.408ZM-30.54,681.975L-31.424,682.472L-32.308,681.975L-132.359,625.696L-31.424,568.92L19.729,597.695L69.51,625.696L-30.54,681.975ZM-32.542,797.959L-133.521,741.159L-133.521,627.607L-32.542,684.408L-32.542,797.959ZM70.672,511.491L70.672,623.786L21.45,596.098L-29.145,567.638L20.801,539.543L70.672,511.491ZM-132.359,509.581L-31.424,452.805L69.51,509.58L19.081,537.947L-31.424,566.356L-132.359,509.581ZM72.907,627.607L173.887,684.408L173.887,797.959L74.072,741.814L72.907,741.159L72.907,627.607ZM74.069,857.929L124.29,829.68L173.887,801.781L173.887,914.076L74.069,857.929ZM171.605,915.356L173.887,916.64L173.887,1030.19L72.907,973.391L72.907,859.839L171.605,915.356ZM227.064,1176.22L177.284,1148.22L227.751,1119.83L278.218,1091.44L379.153,1148.22L278.218,1204.99L227.064,1176.22ZM176.122,1262.42L176.122,1150.13L275.939,1206.28L225.344,1234.74L176.122,1262.42ZM176.122,1379.8L176.122,1266.25L277.101,1323.05L277.101,1436.6L176.122,1379.8ZM124.225,1466.72L74.069,1438.51L98.406,1424.82L175.004,1381.73L275.939,1438.51L225.472,1466.9L175.004,1495.28L124.225,1466.72ZM72.907,1552.71L72.907,1440.42L172.725,1496.57L122.504,1524.82L72.907,1552.71ZM172.725,1612.68L122.129,1641.14L72.907,1668.83L72.907,1556.54L172.725,1612.68ZM125.072,1583.31L74.069,1554.63L124.225,1526.41L175.004,1497.85L275.939,1554.63L244.224,1572.46L175.004,1611.4L125.072,1583.31ZM173.886,1262.42L72.907,1205.62L72.907,1092.07L173.887,1148.87L173.886,1262.42ZM173.887,1266.25L173.887,1379.8L72.907,1436.6L72.907,1323.05L173.887,1266.25ZM380.315,1266.25L380.315,1379.8L279.336,1436.6L279.336,1323.05L380.315,1266.25ZM355.634,1277.56L278.218,1321.11L177.284,1264.33L227.064,1236.33L278.218,1207.56L379.153,1264.33L355.634,1277.56ZM174.317,1033.77L175.004,1033.38L275.939,1090.16L225.472,1118.55L175.004,1146.94L174.672,1146.75L173.887,1146.31L171.022,1144.7L74.069,1090.16L124.537,1061.77L173.887,1034.01L174.317,1033.77ZM176.122,1030.19L176.122,916.64L277.101,859.839L277.101,973.391L176.122,1030.19ZM176.122,685.665L225.344,713.353L275.939,741.813L176.122,797.959L176.122,685.665ZM278.218,626.979L379.153,683.754L328.686,712.142L278.218,740.53L227.064,711.756L177.284,683.754L278.218,626.979ZM483.529,743.723L483.529,856.018L383.712,799.87L433.658,771.775L483.529,743.723ZM381.433,685.037L431.9,713.424L482.367,741.813L431.938,770.179L381.433,798.588L280.498,741.813L330.965,713.424L381.433,685.037ZM586.744,685.665L586.744,799.216L485.764,856.018L485.764,742.466L586.744,685.665ZM484.646,626.979L486.746,628.16L585.582,683.754L484.646,740.53L434.179,712.142L383.712,683.754L484.646,626.979ZM485.764,511.491L536.254,539.892L586.744,568.292L586.744,681.843L486.93,625.698L485.764,625.043L485.764,511.491ZM485.765,395.375L586.744,452.176L586.744,565.728L536.254,537.327L485.764,508.927L485.765,395.375ZM588.979,681.843L588.979,568.292L689.958,511.491L689.958,625.043L588.979,681.843ZM692.193,510.234L793.172,453.433L793.172,566.984L692.193,623.786L692.193,510.234ZM692.193,395.375L742.063,423.427L792.01,451.522L692.193,507.669L692.193,395.375ZM794.29,336.688L795.407,337.317L844.757,365.077L895.225,393.464L844.757,421.852L795.407,449.611L794.628,450.049L794.29,450.24L794.213,450.197L793.172,449.611L743.784,421.831L693.355,393.464L794.29,336.688ZM692.193,276.695L692.193,163.143L793.172,219.944L793.172,333.495L692.193,276.695ZM795.407,219.944L896.387,163.143L896.387,276.694L795.407,333.495L795.407,219.944ZM998.439,335.406L948.658,363.408L897.504,392.182L847.037,363.794L796.569,335.406L897.504,278.63L998.439,335.406ZM999.601,449.611L949.73,421.559L899.784,393.464L950.379,365.004L999.601,337.317L999.601,449.611ZM1000.72,568.92L1051.87,597.695L1101.65,625.696L1001.6,681.975L1000.72,682.472L999.834,681.975L899.784,625.696L1000.72,568.92ZM1001.84,453.433L1101.65,509.581L1051.74,537.654L1001.84,565.728L1001.84,453.433ZM1001.84,450.869L1001.84,337.317L1102.81,394.118L1102.81,507.669L1001.84,450.869ZM1053.59,596.098L1003,567.638L1052.91,539.565L1102.81,511.491L1102.81,623.786L1053.59,596.098ZM1001.84,797.959L1001.84,684.408L1102.81,627.607L1102.81,741.159L1001.84,797.959ZM1053.59,944.446L1003,915.986L1052.94,887.892L1102.81,859.839L1102.81,972.134L1053.59,944.446ZM949.564,946.043L1000.72,917.269L1051.87,946.043L1101.65,974.044L1000.72,1030.82L899.784,974.044L949.564,946.043ZM948.493,887.892L998.438,915.986L947.844,944.446L898.622,972.134L898.622,859.839L948.493,887.892ZM999.984,801.565L1000.72,801.152L1001.45,801.565L1051.19,829.541L1101.65,857.929L1051.22,886.295L1000.72,914.704L950.213,886.295L899.784,857.928L999.984,801.565ZM898.622,627.607L999.601,684.408L999.601,797.959L898.622,741.159L898.622,627.607ZM999.601,453.433L999.601,566.984L898.622,623.786L898.622,510.234L999.601,453.433ZM796.569,451.522L847.037,423.134L897.504,394.747L948.01,423.156L998.438,451.522L897.504,508.298L796.569,451.522ZM795.407,566.984L795.407,453.433L896.387,510.234L896.387,623.786L795.407,566.984ZM846.79,712.003L796.569,683.754L846.185,655.846L896.387,627.607L896.387,739.901L846.79,712.003ZM693.355,625.697L794.29,568.92L895.225,625.696L844.464,654.249L794.29,682.472L693.355,625.697ZM845.069,713.6L895.225,741.813L794.29,798.588L693.354,741.813L794.29,685.037L845.069,713.6ZM1105.05,859.839L1206.03,916.64L1206.03,1030.19L1105.05,973.391L1105.05,859.839ZM1103.93,743.095L1104.82,743.592L1204.87,799.87L1103.93,856.646L1103.2,856.233L1053.46,828.258L1003,799.87L1103.05,743.592L1103.93,743.095ZM1105.05,627.607L1206.03,684.408L1206.03,797.959L1105.05,741.159L1105.05,627.607ZM1105.05,511.491L1154.92,539.543L1204.87,567.638L1154.27,596.098L1105.05,623.786L1105.05,511.491ZM1105.05,395.375L1135.36,412.425L1204.87,451.522L1134.21,491.265L1105.05,507.669L1105.05,395.375ZM1207.15,336.688L1308.08,393.464L1277.43,410.705L1207.15,450.24L1106.21,393.464L1207.15,336.688ZM1309.24,507.669L1209.43,451.522L1309.24,395.375L1309.24,507.669ZM1208.26,684.408L1209.43,683.752L1309.24,627.607L1309.24,741.159L1208.26,797.959L1208.26,684.408ZM1156.64,537.947L1106.21,509.581L1207.15,452.805L1278.58,492.985L1308.08,509.581L1257.61,537.968L1207.15,566.356L1156.64,537.947ZM1257.61,597.309L1308.08,625.696L1209.25,681.291L1207.15,682.472L1206.26,681.975L1106.21,625.696L1155.99,597.695L1207.15,568.92L1257.61,597.309ZM1310.36,510.863L1310.98,511.21L1311.48,511.491L1411.3,567.638L1360.83,596.026L1311.29,623.894L1310.36,624.414L1310.21,624.329L1309.24,623.786L1259.89,596.026L1209.43,567.638L1259.89,539.25L1310.36,510.863ZM1311.48,395.375L1412.46,452.176L1412.46,565.728L1311.48,508.927L1311.48,395.375ZM1413.58,336.688L1414.31,337.102L1514.51,393.464L1414.46,449.742L1413.58,450.24L1412.69,449.742L1312.64,393.464L1413.58,336.688ZM1311.48,276.695L1311.48,163.143L1412.46,219.944L1412.46,333.495L1311.48,276.695ZM1515.67,508.927L1414.69,565.728L1414.69,452.176L1515.67,395.375L1515.67,508.927ZM1465.8,655.659L1515.67,627.607L1515.67,739.901L1415.85,683.754L1465.8,655.659ZM1411.3,683.754L1311.48,739.901L1311.48,627.607L1361.35,655.659L1411.3,683.754ZM1363.07,654.063L1312.64,625.696L1363.11,597.309L1412.84,569.333L1413.58,568.92L1414.31,569.333L1464.04,597.309L1514.51,625.696L1464.08,654.063L1413.58,682.472L1363.07,654.063ZM1515.91,511.36L1516.79,510.863L1617.72,567.638L1516.79,624.414L1466.32,596.026L1415.85,567.638L1515.91,511.36ZM1517.91,278.001L1618.89,221.201L1618.89,334.752L1617.72,335.406L1517.91,391.554L1517.91,278.001ZM1621.12,337.317L1718.45,392.063L1722.1,394.118L1722.1,507.669L1621.12,450.869L1621.12,337.317ZM1621.12,221.201L1720.94,277.349L1669.84,306.088L1621.12,333.495L1621.12,221.201ZM1723.22,278.631L1824.15,335.406L1727.62,389.704L1723.22,392.182L1718.81,389.704L1622.28,335.406L1671.57,307.685L1723.22,278.631ZM1724.34,163.143L1818.32,216.012L1825.31,219.944L1825.31,333.495L1725.5,277.349L1724.34,276.695L1724.34,163.143ZM1825.31,105.085L1825.31,217.379L1816.97,212.683L1725.5,161.232L1825.31,105.085ZM1724.34,507.669L1724.34,394.118L1727.99,392.063L1825.31,337.317L1825.31,450.869L1821.66,452.923L1724.34,507.669ZM1830.84,455.282L1927.37,509.581L1826.43,566.356L1725.5,509.581L1822.03,455.282L1826.43,452.805L1830.84,455.282ZM1827.55,337.317L1924.88,392.063L1928.53,394.118L1928.53,507.669L1831.2,452.923L1827.55,450.869L1827.55,337.317ZM1827.55,333.495L1827.55,219.944L1928.53,163.143L1928.53,276.695L1827.55,333.495ZM1929.65,278.631L2030.58,335.406L1929.65,392.182L1925.24,389.704L1828.71,335.406L1929.65,278.631ZM1930.76,163.143L2028.09,217.889L2031.74,219.944L2031.74,333.495L2021.78,327.891L1930.76,276.694L1930.76,163.143ZM2134.96,163.143L2134.96,276.695L2033.98,333.495L2033.98,219.944L2134.96,163.143ZM2032.86,104.457L2133.8,161.232L2032.86,218.008L2028.46,215.53L1931.93,161.232L2032.86,104.457ZM2137.19,163.143L2234.52,217.889L2238.17,219.944L2238.17,333.495L2137.19,276.695L2137.19,163.143ZM2137.19,45.77L2238.17,-11.03L2238.17,102.521L2137.19,159.321L2137.19,45.77ZM2340.22,161.232L2243.7,215.53L2239.29,218.008L2234.88,215.53L2138.36,161.232L2239.29,104.457L2340.22,161.232ZM2341.39,276.695L2240.41,333.495L2240.41,219.944L2244.06,217.889L2341.39,163.143L2341.39,276.695ZM2443.44,335.406L2342.5,392.182L2241.57,335.406L2342.5,278.631L2443.44,335.406ZM2343.62,163.143L2444.6,219.944L2444.6,333.495L2434.64,327.891L2343.62,276.694L2343.62,163.143ZM2443.44,451.522L2346.91,505.82L2342.5,508.298L2241.57,451.522L2342.5,394.747L2443.44,451.522ZM2444.6,566.984L2440.95,569.04L2343.62,623.786L2343.62,510.234L2347.27,508.179L2444.6,453.433L2444.6,566.984ZM2450.12,571.398L2546.65,625.696L2445.72,682.472L2344.78,625.696L2441.31,571.398L2445.72,568.92L2450.12,571.398ZM2446.84,453.433L2547.81,510.234L2547.81,623.786L2450.49,569.04L2446.84,566.984L2446.84,453.433ZM2446.84,797.959L2446.84,684.408L2547.81,627.607L2547.81,741.159L2446.84,797.959ZM2649.87,799.87L2553.34,854.168L2548.93,856.646L2544.53,854.168L2448,799.87L2548.93,743.095L2649.87,799.87ZM2651.03,915.333L2649.87,915.986L2647.38,917.388L2550.05,972.134L2550.05,858.582L2553.7,856.527L2651.03,801.781L2651.03,915.333ZM2550.05,1090.81L2553.7,1088.76L2651.03,1034.01L2651.03,1147.56L2647.38,1149.62L2550.05,1204.37L2550.05,1090.81ZM2547.81,972.134L2446.84,915.333L2446.84,801.781L2544.16,856.527L2547.81,858.582L2547.81,972.134ZM2448,1032.1L2548.93,975.327L2556.39,979.521L2649.87,1032.1L2548.93,1088.88L2448,1032.1ZM2540.26,1200.12L2446.84,1147.56L2446.84,1034.01L2454.39,1038.26L2547.81,1090.81L2547.81,1204.37L2540.26,1200.12ZM2446.84,1378.54L2446.84,1264.99L2450.49,1262.93L2547.81,1208.19L2547.81,1321.74L2446.84,1378.54ZM2548.93,1323.68L2649.87,1380.45L2598.44,1409.38L2548.93,1437.23L2499.42,1409.38L2448,1380.45L2548.93,1323.68ZM2652.15,917.269L2702.61,945.657L2753.08,974.044L2702.61,1002.43L2652.15,1030.82L2601.68,1002.43L2551.21,974.044L2647.74,919.747L2652.15,917.269ZM2653.26,801.781L2661.61,806.477L2753.08,857.929L2701.99,886.668L2653.26,914.075L2653.26,801.781ZM2653.26,799.216L2653.26,685.665L2754.24,742.466L2754.24,856.018L2660.25,803.149L2654.43,799.87L2653.26,799.216ZM2755.7,859.401L2756.48,859.839L2856.3,915.986L2807.35,943.516L2755.36,972.762L2704.89,944.374L2654.43,915.986L2703.71,888.265L2755.36,859.211L2755.7,859.401ZM2857.46,1030.19L2809.08,1002.98L2757.64,974.044L2809.08,945.112L2857.46,917.897L2857.46,1030.19ZM2859.69,1034.01L2959.51,1090.16L2858.58,1146.94L2757.64,1090.16L2808.11,1061.77L2858.58,1033.38L2859.69,1034.01ZM2960.67,1092.07L2960.67,1205.62L2959.51,1206.28L2859.69,1262.42L2859.69,1148.87L2868.63,1143.85L2960.67,1092.07ZM2857.46,1262.42L2806.97,1234.02L2757.64,1206.28L2756.48,1205.62L2756.48,1092.07L2761.46,1094.87L2857.46,1148.87L2857.46,1262.42ZM2857.46,1264.99L2857.46,1378.54L2756.48,1321.74L2756.48,1208.19L2806.97,1236.59L2857.46,1264.99ZM2653.26,1378.54L2653.26,1264.99L2656.92,1262.93L2754.24,1208.19L2754.24,1321.74L2653.26,1378.54ZM2753.08,1438.51L2704.13,1466.04L2653.26,1494.66L2653.26,1382.36L2660.13,1386.23L2753.08,1438.51ZM2654.43,1032.1L2704.89,1003.71L2755.36,975.327L2807.35,1004.57L2856.3,1032.1L2755.36,1088.88L2754.24,1088.25L2654.43,1032.1ZM2656.12,1035.62L2753.08,1090.16L2754.24,1090.81L2754.24,1204.37L2746.69,1200.12L2653.26,1147.56L2653.26,1034.01L2656.12,1035.62ZM2755.36,1437.23L2705.85,1409.38L2654.43,1380.45L2755.36,1323.68L2856.3,1380.45L2755.36,1437.23ZM2857.46,1610.77L2757.64,1554.63L2809.08,1525.69L2857.46,1498.48L2857.46,1610.77ZM70.672,1556.54L70.672,1670.09L-30.307,1726.89L-30.307,1613.34L-28.207,1612.16L70.672,1556.54ZM-31.424,1611.4L-34.387,1609.73L-132.359,1554.63L-31.424,1497.85L69.51,1554.63L43.173,1569.44L-31.424,1611.4ZM-32.542,1726.89L-133.521,1670.09L-133.521,1556.54L-32.542,1613.34L-32.542,1726.89ZM-32.542,1146.31L-133.521,1089.51L-133.521,975.956L-32.542,1032.76L-32.542,1146.31ZM-32.542,1378.54L-132.359,1322.39L-32.542,1266.25L-32.542,1378.54ZM689.958,276.695L588.979,333.495L588.979,219.944L689.958,163.143L689.958,276.695ZM587.861,218.008L486.926,161.232L587.861,104.457L688.796,161.232L587.861,218.008ZM586.744,333.495L486.926,277.349L586.744,221.201L586.744,333.495ZM2550.05,510.234L2651.03,453.433L2651.03,566.984L2550.05,623.786L2550.05,510.234ZM2962.91,1208.19L2967.88,1210.99L3063.89,1264.99L3063.89,1378.54L2962.91,1321.74L2962.91,1208.19ZM2962.91,1089.51L2962.91,975.956L2967.88,978.756L3062.72,1032.1L3063.89,1032.76L3063.89,1146.31L3055.42,1141.54L2964.07,1090.16L2962.91,1089.51ZM3065,917.269L3165.94,974.044L3114.51,1002.97L3065,1030.82L2964.07,974.044L3065,917.269ZM3167.1,1088.25L3067.28,1032.1L3116.24,1004.57L3167.1,975.956L3167.1,1088.25ZM2962.91,1204.37L2962.91,1092.07L3062.72,1148.22L3054.43,1152.88L2962.91,1204.37ZM3165.94,1206.28L3065,1263.05L2964.07,1206.28L3065,1149.5L3065.44,1149.75L3165.94,1206.28ZM3167.1,1321.74L3066.12,1378.54L3066.12,1264.99L3069.77,1262.93L3167.1,1208.19L3167.1,1321.74ZM3169.33,974.698L3170.5,974.044L3270.31,917.897L3270.31,1031.45L3169.33,1088.25L3169.33,974.698ZM3169.33,1208.19L3270.31,1264.99L3270.31,1378.54L3169.33,1321.74L3169.33,1208.19ZM3272.55,1844.26L3272.55,1843L3271.43,1843.63L3168.77,1785.88L3168.22,1785.58L3065,1843.63L2964.07,1786.86L2859.69,1728.15L2858.58,1727.52L2857.46,1726.89L2756.48,1670.09L2756.48,1556.54L2859.69,1614.59L2859.69,1497.22L2860.86,1496.57L2859.69,1495.91L2859.69,1494.66L2858.58,1495.28L2757.64,1438.51L2858.58,1381.73L2859.69,1382.36L2859.69,1381.1L2860.86,1380.45L2859.69,1379.8L2859.69,1264.99L2960.67,1208.19L2960.67,1323.05L3063.89,1381.1L3063.89,1382.36L3065,1381.73L3066.12,1382.36L3066.12,1381.1L3168.22,1323.67L3272.55,1382.36L3272.55,1263.68L3170.5,1206.28L3169.33,1205.62L3169.33,1204.37L3168.22,1204.99L3067.28,1148.22L3066.12,1147.56L3066.12,1034.01L3167.1,1090.81L3167.1,1092.07L3168.22,1091.44L3169.33,1092.07L3169.33,1090.81L3271.98,1033.08L3272.55,1032.76L3272.55,914.075L3168.22,972.762L3065,914.704L2961.79,972.762L2960.67,972.134L2960.67,973.391L2959.51,974.044L2960.67,974.698L2960.67,1088.25L2860.85,1032.1L2860.86,1032.1L2859.69,1031.45L2859.69,916.64L2860.86,915.986L2859.69,915.333L2859.69,914.075L2858.58,914.704L2757.64,857.929L2756.48,857.275L2756.48,741.159L2651.03,681.843L2651.03,797.959L2550.05,741.159L2550.05,626.35L2551.21,625.696L2653.26,568.292L2653.26,449.611L2548.93,508.298L2448,451.522L2446.84,450.869L2446.84,449.611L2445.72,450.24L2344.78,393.464L2445.72,336.688L2446.84,337.317L2446.84,336.06L2448,335.406L2446.84,334.752L2446.84,218.636L2344.78,161.232L2343.62,160.578L2343.62,159.321L2342.5,159.95L2240.41,102.521L2240.41,-14.852L2134.96,44.463L2134.96,159.321L2032.86,101.892L1929.65,159.95L1928.53,159.321L1928.53,160.578L1927.37,161.232L1827.55,217.379L1827.55,101.263L1723.22,159.95L1722.1,159.321L1722.1,160.578L1720.94,161.232L1722.1,161.886L1722.1,275.438L1621.12,218.636L1621.12,217.379L1620,218.008L1618.89,217.379L1618.89,218.636L1516.24,276.374L1515.67,276.695L1515.67,391.554L1414.69,334.752L1414.69,218.636L1309.24,159.321L1309.24,278.002L1411.3,335.406L1311.48,391.554L1310.36,392.182L1309.24,391.554L1207.15,334.124L1103.93,392.182L1001.84,334.752L1001.84,333.495L1000.72,334.124L999.601,333.495L999.601,333.496L898.622,276.694L898.622,159.321L794.29,218.008L692.193,160.578L692.193,159.321L691.075,159.95L689.958,159.321L587.861,101.892L482.368,161.232L585.582,219.29L482.368,277.349L586.744,336.06L586.744,337.317L587.861,336.688L588.979,337.317L588.979,336.06L691.075,278.631L792.01,335.406L691.076,392.182L689.958,391.554L689.958,392.811L688.796,393.464L689.958,394.118L689.958,508.927L588.979,565.728L588.979,450.869L483.529,391.554L483.529,625.043L381.433,682.472L381.432,682.472L278.218,624.414L175.004,682.472L173.887,681.843L173.887,681.844L72.907,625.043L72.907,510.234L74.068,509.581L72.907,508.927L72.907,507.669L71.789,508.298L-31.424,450.24L-136.918,509.581L-33.704,567.638L-134.638,624.415L-135.756,623.786L-135.756,625.043L-136.918,625.696L-135.756,626.35L-135.756,742.466L-32.542,800.524L-32.542,801.781L-31.424,801.152L-30.307,801.781L70.672,858.582L70.672,973.391L-31.424,1030.82L-135.756,972.134L-135.756,1090.81L-32.542,1148.87L-32.542,1263.68L-136.918,1322.39L-31.206,1381.85L70.672,1439.16L70.672,1552.71L-30.876,1495.59L-31.424,1495.28L-134.638,1553.34L-135.756,1552.71L-135.756,1553.97L-136.918,1554.63L-135.756,1555.28L-135.756,1671.39L-32.542,1729.45L-32.542,1730.71L-31.424,1730.08L-30.307,1730.71L-30.307,1729.45L70.672,1672.65L70.672,1787.51L173.887,1845.57L173.887,1846.83L175.004,1846.2L176.122,1846.83L176.122,1845.57L277.101,1788.77L277.101,1904.88L381.432,1846.2L382.55,1846.83L482.368,1902.97L379.153,1961.03L483.529,2019.74L483.529,2021L484.646,2020.37L485.764,2021L485.764,2019.74L587.861,1962.31L692.193,2021L692.193,1904.88L795.407,1962.94L795.407,1845.57L796.569,1844.91L795.407,1844.26L795.407,1729.45L897.503,1672.02L1001.84,1730.71L1001.84,1612.03L899.784,1554.63L999.601,1498.48L1000.72,1497.85L1101.65,1554.63L1103.73,1555.79L1103.93,1555.91L1208.26,1614.59L1208.26,1497.22L1209.43,1496.57L1208.26,1495.91L1208.26,1494.66L1207.15,1495.29L1106.21,1438.51L1207.69,1381.42L1208.26,1381.1L1208.26,1266.25L1309.24,1323.05L1309.24,1440.42L1414.12,1381.42L1414.69,1381.1L1414.69,1264.99L1415.85,1264.33L1414.69,1263.68L1414.69,1150.13L1514.51,1206.28L1515.67,1206.93L1515.67,1323.05L1617.72,1380.45L1514.51,1438.51L1617.72,1496.57L1514.51,1554.63L1618.89,1613.34L1618.89,1614.59L1620,1613.96L1621.12,1614.59L1621.12,1613.34L1723.22,1555.91L1827.55,1614.59L1827.55,1497.22L1928.53,1440.42L1928.53,1555.28L2031.74,1613.34L2031.74,1614.59L2032.86,1613.96L2033.98,1614.59L2033.98,1613.34L2136.08,1555.91L2237.01,1612.68L2133.8,1670.74L2238.17,1729.45L2238.17,1846.83L2343.05,1787.83L2343.62,1787.51L2343.62,1672.65L2446.84,1730.71L2446.84,1612.03L2344.78,1554.63L2445.72,1497.85L2547.81,1555.28L2547.81,1788.77L2652.15,1730.08L2754.24,1787.51L2754.69,1787.76L2756.48,1788.77L2856.3,1844.91L2857.46,1845.57L2857.46,1961.68L2960.67,2019.74L2960.67,2021L2961.79,2020.37L2962.91,2021L2962.91,2019.74L3065,1962.31L3167.1,2019.74L3167.1,2021L3168.22,2020.37L3169.33,2021L3169.33,2019.74L3271.98,1962L3272.55,1961.68L3272.55,1845.57L3273.71,1844.91L3272.55,1844.26Z" style="fill:url(#_Linear1);"/>
        </g>
    </g>
    <defs>
        <linearGradient id="_Linear1" x1="0" y1="0" x2="1" y2="0" gradientUnits="userSpaceOnUse" gradientTransform="matrix(2.34683e-11,2281.4,-2281.4,2.34683e-11,1568.4,29.5542)"><stop offset="0" style="stop-color:rgb(243,243,245);stop-opacity:0"/><stop offset="1" style="stop-color:white;stop-opacity:1"/></linearGradient>
    </defs>
</svg>
