<svg width="85" height="86" viewBox="0 0 85 86" fill="none" xmlns="http://www.w3.org/2000/svg">
<path fill-rule="evenodd" clip-rule="evenodd" d="M45.0421 16.5944V17.1871C45.1209 16.9885 45.2015 16.7917 45.2862 16.5944H45.0421Z" fill="#0B0B09"/>
<path fill-rule="evenodd" clip-rule="evenodd" d="M30.391 68.7484L32.0036 61.0454C31.9797 61.0442 31.9585 61.0438 31.9404 61.0438C31.3175 61.0438 30.3787 62.2538 29.6329 64.1656L29.6653 68.4121C29.9122 68.5213 30.148 68.6372 30.391 68.7484Z" fill="#1A1919"/>
<path fill-rule="evenodd" clip-rule="evenodd" d="M42.6714 73.7205C43.0791 74.2906 43.8784 74.675 45.4195 74.675C45.8197 74.675 46.2989 74.5015 46.82 74.2129C45.1173 73.7678 44.7356 72.4569 44.6594 71.7117C44.0028 72.3989 43.3391 73.0774 42.6714 73.7205Z" fill="#1A1919"/>
<path fill-rule="evenodd" clip-rule="evenodd" d="M55.8099 57.8659L55.5865 59.1114C55.4169 60.0605 55.1411 61.4319 54.8488 62.8839C54.5689 64.2761 54.2232 65.9962 53.9319 67.5631H55.9096C56.0172 66.9827 56.1467 66.2949 56.3026 65.4778L56.2344 55.7099L55.8099 57.8659Z" fill="#1A1919"/>
<path fill-rule="evenodd" clip-rule="evenodd" d="M35.0962 71.0897C35.0962 70.6351 35.1756 70.1702 35.2527 69.7209L35.2625 69.67L37.3375 59.2659H35.3126L35.1742 59.9025L35.1981 59.9248L33.1889 70.01C33.8384 70.369 34.4746 70.7377 35.0972 71.119C35.0969 71.109 35.0962 71.0997 35.0962 71.0897Z" fill="#1A1919"/>
<path fill-rule="evenodd" clip-rule="evenodd" d="M45.3571 67.5631L48.598 52.154L46.4504 52.4479L43.2641 67.5631H45.3571Z" fill="#1A1919"/>
<path fill-rule="evenodd" clip-rule="evenodd" d="M27.5922 62.3878C27.6773 62.1941 27.7652 62.0087 27.855 61.8264L27.8445 60.4512C26.3092 61.6558 24.8746 63.7835 24.299 67.5201C24.9003 67.7245 25.5039 67.9354 26.1106 68.1557C26.3321 66.1297 26.851 64.0781 27.5922 62.3878Z" fill="#1A1919"/>
<path fill-rule="evenodd" clip-rule="evenodd" d="M22.9308 54.6324C22.9308 56.5946 22.096 58.5161 20.6544 60.0329C21.6108 60.7175 22.3446 61.6645 22.826 62.8218C22.9895 62.4609 23.1633 62.1137 23.3482 61.7824C24.4849 59.7444 26.0108 58.272 27.8549 57.3952L27.6201 27.2623C25.553 27.4177 23.2556 27.8654 21.0085 29.2919C17.988 31.2101 15.625 34.5628 14.2238 36.4309L14.6023 38.4639L14.7312 47.3429C20.378 47.9002 22.9308 51.2794 22.9308 54.6324Z" fill="#1A1919"/>
<path fill-rule="evenodd" clip-rule="evenodd" d="M20.1504 66.0127C20.1504 64.3306 19.6563 62.2295 17.3045 61.774L16.5944 61.6365C17.5616 62.5436 18.131 63.9759 18.2087 65.793C18.8482 65.9829 19.4932 66.1782 20.1424 66.3778C20.1468 66.2564 20.1504 66.1347 20.1504 66.0127Z" fill="#1A1919"/>
<path fill-rule="evenodd" clip-rule="evenodd" d="M19.5577 54.2628C19.5577 53.1866 19.158 52.2686 18.4339 51.5613C18.7049 52.2543 18.8499 53.0532 18.8499 53.938C18.8499 55.3465 18.4637 56.8197 17.7798 58.0805C18.8936 57.0619 19.5577 55.6654 19.5577 54.2628Z" fill="#1A1919"/>
<path fill-rule="evenodd" clip-rule="evenodd" d="M16.0018 53.8882C16.0018 53.0989 15.7724 52.5228 15.3063 52.154L14.8165 54.3054L14.8551 56.8952C15.5663 56.0514 16.0018 54.9262 16.0018 53.8882Z" fill="#1A1919"/>
<path fill-rule="evenodd" clip-rule="evenodd" d="M67.5631 59.2659H65.5456L64.0071 66.9704C64.7339 66.7159 65.4561 66.4699 66.1716 66.2333L67.5631 59.2659Z" fill="#1A1919"/>
<path fill-rule="evenodd" clip-rule="evenodd" d="M62.1131 52.3691C62.1087 52.3891 61.761 53.9946 61.2759 56.3026H64.9966C64.0909 55.4951 63.5184 54.311 63.5184 52.9929C63.5184 50.546 65.4597 48.5556 67.8458 48.5556C69.0307 48.5556 70.1054 49.0398 70.8923 49.8215L70.73 38.3825L71.119 36.3524C69.6773 34.4869 67.2484 31.139 64.1408 29.2236C62.0953 27.9622 60.0077 27.4671 58.0805 27.2623L58.2603 50.8447L62.5721 50.2522L62.1131 52.3691Z" fill="#1A1919"/>
<path fill-rule="evenodd" clip-rule="evenodd" d="M58.6732 68.7484C59.342 68.4738 60.0077 68.2144 60.6709 67.9641L62.2292 60.4512H60.4018C59.5056 64.6555 58.9805 67.2036 58.6732 68.7484Z" fill="#1A1919"/>
<path fill-rule="evenodd" clip-rule="evenodd" d="M70.3197 64.9102C70.5331 64.1246 70.8001 63.3631 71.119 62.6355L71.0419 57.4879L69.3411 65.1924C69.6697 65.0978 69.9947 65.0044 70.3197 64.9102Z" fill="#1A1919"/>
<path fill-rule="evenodd" clip-rule="evenodd" d="M58.6732 53.9319L58.0805 54.0031L58.1003 56.3026C58.3133 55.4165 58.5074 54.6133 58.6732 53.9319Z" fill="#1A1919"/>
<mask id="mask0" mask-type="alpha" maskUnits="userSpaceOnUse" x="0" y="51" width="70" height="35">
<path fill-rule="evenodd" clip-rule="evenodd" d="M0.0225525 51.278H69.5656V85.2699H0.0225525V51.278Z" fill="white"/>
</mask>
<g mask="url(#mask0)">
<path fill-rule="evenodd" clip-rule="evenodd" d="M68.1658 54.0533C68.9377 54.0533 69.5656 53.4391 69.5656 52.684C69.5656 51.9088 68.9377 51.278 68.1658 51.278C67.4142 51.278 66.8029 51.9088 66.8029 52.684C66.8029 53.4523 67.4018 54.0533 68.1658 54.0533Z" fill="#1A1919"/>
<path fill-rule="evenodd" clip-rule="evenodd" d="M3.07032 83.3442L2.27209 81.2077H2.20705L1.40883 83.3442H3.07032ZM4.51486 85.2699H3.78206L3.2444 83.8326H1.22647L0.697081 85.2699H0L1.87279 80.5365H2.68643L4.51486 85.2699Z" fill="#1A1919"/>
</g>
<path fill-rule="evenodd" clip-rule="evenodd" d="M14.2238 81.098H12.5316V85.3428H11.775V81.098H10.0752V80.6016H14.2238V81.098Z" fill="#1A1919"/>
<path fill-rule="evenodd" clip-rule="evenodd" d="M25.4843 85.3428H24.7376V83.1434H22.0824V85.3428H21.3357V80.6016H22.0824V82.647H24.7376V80.6016H25.4843V85.3428Z" fill="#1A1919"/>
<path fill-rule="evenodd" clip-rule="evenodd" d="M35.5595 85.3428H32.5962V80.6016H33.2872V84.8453H35.5595V85.3428Z" fill="#1A1919"/>
<path fill-rule="evenodd" clip-rule="evenodd" d="M45.6347 85.3428H42.6714V80.6016H45.5679V81.0987H43.316V82.647H45.3491V83.1434H43.316V84.8453H45.6347V85.3428Z" fill="#1A1919"/>
<path fill-rule="evenodd" clip-rule="evenodd" d="M56.3026 81.098H54.611V85.3428H53.8539V81.098H52.154V80.6016H56.3026V81.098Z" fill="#1A1919"/>
<mask id="mask1" mask-type="alpha" maskUnits="userSpaceOnUse" x="62" y="80" width="23" height="6">
<path fill-rule="evenodd" clip-rule="evenodd" d="M62.942 80.6245H84.5419V85.321H62.942V80.6245Z" fill="white"/>
</mask>
<g mask="url(#mask1)">
<path fill-rule="evenodd" clip-rule="evenodd" d="M62.942 85.2725H63.6502V80.7022H62.942V85.2725Z" fill="#1A1919"/>
<path fill-rule="evenodd" clip-rule="evenodd" d="M74.2563 85.209C73.8333 85.298 73.3901 85.3428 72.9278 85.3428C71.5992 85.3428 70.9353 84.9296 70.9353 84.1035V81.9346C70.9353 81.0611 71.5992 80.6245 72.9278 80.6245C73.3709 80.6245 73.8041 80.6694 74.2272 80.7584V81.2657C73.7599 81.153 73.3315 81.0969 72.9425 81.0969C72.7572 81.0969 72.5947 81.1074 72.4537 81.1282C72.3126 81.1494 72.1739 81.1873 72.0378 81.2413C71.9013 81.2949 71.7966 81.3795 71.7232 81.4944C71.6502 81.6096 71.6139 81.7537 71.6139 81.9273V84.0678C71.6139 84.5937 72.0669 84.857 72.972 84.857C73.361 84.857 73.7894 84.8001 74.2563 84.6875V85.209Z" fill="#1A1919"/>
<path fill-rule="evenodd" clip-rule="evenodd" d="M84.5419 83.7231V84.0536C84.5419 84.5423 84.3978 84.8793 84.1105 85.0646C83.8231 85.2495 83.3759 85.3428 82.7672 85.3428C82.3781 85.3428 81.8968 85.3045 81.3222 85.2305V84.6597C81.8968 84.7775 82.3929 84.8359 82.8118 84.8359C83.1468 84.8359 83.4039 84.7994 83.5819 84.7261C83.7589 84.6543 83.8485 84.5073 83.8485 84.2866V83.6954C83.8485 83.5021 83.7906 83.3654 83.6764 83.2829C83.5619 83.2009 83.3566 83.1597 83.0598 83.1597H82.5044C82.028 83.1597 81.6957 83.067 81.5082 82.8818C81.3207 82.6958 81.2269 82.4229 81.2269 82.0612V81.695C81.2269 81.3339 81.36 81.0662 81.625 80.8922C81.89 80.7186 82.3781 80.6315 83.0885 80.6315C83.4296 80.6315 83.836 80.6581 84.3078 80.7092V81.2234C83.7679 81.1439 83.3449 81.1038 83.0375 81.1038C82.5849 81.1038 82.2844 81.1472 82.1358 81.2343C81.9876 81.3204 81.9139 81.467 81.9139 81.6746V82.195C81.9139 82.3547 81.9721 82.4707 82.0885 82.5437C82.2054 82.617 82.4122 82.6524 82.709 82.6524H83.2783C83.7702 82.6524 84.1041 82.7388 84.2787 82.9095C84.4538 83.0813 84.5419 83.3519 84.5419 83.7231Z" fill="#1A1919"/>
</g>
<path fill-rule="evenodd" clip-rule="evenodd" d="M52.8767 25.7459C52.0836 25.7459 51.4411 25.0989 51.4411 24.3007C51.4411 23.5025 52.0836 22.8555 52.8767 22.8555C53.6694 22.8555 54.3123 23.5025 54.3123 24.3007C54.3123 25.0989 53.6694 25.7459 52.8767 25.7459ZM47.9883 25.7459C47.1949 25.7459 46.5527 25.0989 46.5527 24.3007C46.5527 23.5025 47.1949 22.8555 47.9883 22.8555C48.781 22.8555 49.4232 23.5025 49.4232 24.3007C49.4232 25.0989 48.781 25.7459 47.9883 25.7459ZM42.9723 25.7459C42.1796 25.7459 41.5366 25.0989 41.5366 24.3007C41.5366 23.5025 42.1796 22.8555 42.9723 22.8555C43.7653 22.8555 44.4079 23.5025 44.4079 24.3007C44.4079 25.0989 43.7653 25.7459 42.9723 25.7459ZM39.0773 40.6092H36.4285V38.9028C36.4285 38.0537 37.0908 37.6288 37.7529 37.6288C38.4149 37.6288 39.0773 38.0537 39.0773 38.9028V40.6092ZM37.511 22.8555C38.3037 22.8555 38.9462 23.5025 38.9462 24.3007C38.9462 25.0989 38.3037 25.7459 37.511 25.7459C36.7179 25.7459 36.0754 25.0989 36.0754 24.3007C36.0754 23.5025 36.7179 22.8555 37.511 22.8555ZM32.6934 25.7459C31.9007 25.7459 31.2577 25.0989 31.2577 24.3007C31.2577 23.5025 31.9007 22.8555 32.6934 22.8555C33.4861 22.8555 34.129 23.5025 34.129 24.3007C34.129 25.0989 33.4861 25.7459 32.6934 25.7459ZM56.8952 19.5214C51.8672 17.4757 44.4858 14.8165 42.9723 14.8165C41.3434 14.8165 34.7704 17.1748 29.0403 19.526L29.7791 21.8873L30.0449 56.4532C30.6893 56.3311 31.3611 56.2681 32.0602 56.2681C32.5189 56.2681 32.9911 56.3398 33.452 56.474L33.5074 56.2323H41.7519L38.7717 70.4064C38.7272 70.6526 38.6804 70.9139 38.6624 71.1043C38.7388 71.1126 38.8376 71.119 38.9638 71.119C39.1574 71.119 39.4581 70.9637 39.7988 70.7345C39.8385 70.4347 39.8891 70.1263 39.9561 69.8051L44.1896 49.8371L52.6921 48.6792L48.0625 70.5795C48.0216 70.7831 47.9846 70.969 47.9632 71.1055C48.0385 71.1126 48.1344 71.1183 48.2538 71.1183C48.7024 71.1183 49.7261 70.2884 50.5027 69.6162C50.8015 67.88 51.3205 65.4817 51.9567 62.5962C52.102 61.9368 52.2435 61.2943 52.3716 60.7043H51.1984L52.0855 56.2323H53.2998L54.3505 51.3641L56.3564 51.0915L56.1317 21.8915L56.8952 19.5214Z" fill="#1A1919"/>
<path fill-rule="evenodd" clip-rule="evenodd" d="M43.2641 13.9268C43.2641 14.4178 42.8657 14.8165 42.3747 14.8165C41.8841 14.8165 41.4861 14.4178 41.4861 13.9268C41.4861 13.4363 41.8841 13.0385 42.3747 13.0385C42.8657 13.0385 43.2641 13.4363 43.2641 13.9268Z" fill="#1A1919"/>
<path fill-rule="evenodd" clip-rule="evenodd" d="M42.1092 7.97103C42.1119 8.04197 42.1296 18.7636 42.1423 18.9651L42.6703 18.9345C42.6703 18.4655 42.6714 7.4624 42.6714 6.99377C42.6454 6.44099 42.6371 5.88746 42.6283 5.33393H42.0788C42.0882 6.21309 42.0981 7.09225 42.1092 7.97103Z" fill="#1A1919"/>
<path fill-rule="evenodd" clip-rule="evenodd" d="M41.9671 0.655743C41.736 0.726991 41.4394 0.881362 41.2459 1.01161C40.9958 1.18045 40.6638 1.23797 40.4167 1.32963C40.2348 1.52742 39.8883 1.59607 39.6438 1.76714C38.936 2.26179 37.9691 2.59131 37.3849 3.12938C37.1627 3.34016 36.9409 3.55205 36.7183 3.76319C36.5628 3.87118 36.408 3.97953 36.2524 4.08715C35.8702 4.41185 35.4843 4.77848 35.1512 5.13175C35.0001 5.27944 34.8498 5.42676 34.6976 5.57445C34.4252 5.901 34.2171 6.30511 33.9477 6.62053C33.7914 6.78158 33.6351 6.94226 33.4795 7.10368C33.273 7.34266 33.1286 7.60724 32.8305 7.8195C32.4796 8.06813 31.9939 8.11377 31.6668 8.19541C31.4234 8.31564 31.1797 8.43624 30.9363 8.55647C30.7431 8.60879 30.5809 8.59581 30.4246 8.62067C30.3163 8.66149 30.208 8.70156 30.0997 8.74238C30.0052 8.74981 29.9106 8.7576 29.8169 8.76502C29.5943 8.81066 29.4592 8.91939 29.2356 8.96466C29.0726 8.99695 28.8917 9.01847 28.7101 9.04667C28.3305 9.10567 27.4403 9.18694 27.063 9.47416C26.9104 9.59068 26.8159 9.74357 26.7009 9.8727C26.1181 10.531 25.775 11.0772 25.4851 11.8283C25.4843 11.8365 25.4843 11.8435 25.4843 11.8513C25.5219 11.8521 25.5606 11.8524 25.5982 11.8532C25.5881 11.5752 25.7809 11.3878 25.9328 11.1633C26.0306 11.019 26.1341 10.8075 26.2461 10.6872C26.3622 10.6015 26.4798 10.515 26.5963 10.4297C26.6305 10.3751 26.6651 10.3217 26.6994 10.2675C26.9502 10.2111 27.2025 10.1551 27.4541 10.0983C28.0287 9.95397 28.6852 9.69384 29.2244 9.34168C29.4469 9.51758 29.7986 9.52648 30.0532 9.63187C30.2582 9.71685 30.5031 9.92057 30.7268 9.92911C31.0081 9.9395 31.9749 9.38324 32.2381 9.19548C32.7475 8.82885 33.2674 8.53977 33.7441 8.17055C34.3176 7.72673 34.8643 7.28032 35.4973 6.83613C35.7872 6.63278 36.1303 6.47692 36.4947 6.30326C36.632 6.23757 36.7701 6.17152 36.9074 6.1051C37.8422 5.83792 38.7652 5.50543 39.6717 5.36924C40.4573 5.25086 41.2764 5.29651 42.0788 5.13434V0.592659C42.0468 0.617522 42.0114 0.642013 41.9671 0.655743Z" fill="#4A7CB2"/>
<path fill-rule="evenodd" clip-rule="evenodd" d="M42.3937 5.23713V5.85389H42.4194C42.4178 5.64725 42.4154 5.44061 42.4138 5.23397C42.4071 5.23555 42.4 5.23555 42.3937 5.23713Z" fill="#009949"/>
<path fill-rule="evenodd" clip-rule="evenodd" d="M42.8243 2.82817C42.8307 2.22484 42.8374 1.6223 42.8445 1.01937C42.8492 0.833673 42.92 0.462273 42.8074 0.293168C42.7912 0.293168 42.5545 0.293563 42.5383 0.293168C42.4972 0.305416 42.4518 0.355595 42.3937 0.401032V5.23673C42.4 5.23555 42.4071 5.23515 42.4138 5.23397C42.4154 5.441 42.4178 5.64685 42.4194 5.85389H42.8121C42.7998 4.84084 42.7998 3.82976 42.8243 2.82817Z" fill="#1A1919"/>
<path fill-rule="evenodd" clip-rule="evenodd" d="M13.3842 52.0117L11.6574 60.0739H11.9094C14.8956 60.0739 17.0182 56.8415 17.0182 54.0816C17.0182 52.0479 15.8672 50.2684 13.0603 50.2684C7.23142 50.2684 3.34624 53.5734 3.34624 59.0931C3.34624 60.946 3.81362 61.2364 3.8494 61.5633C1.36712 61.5633 0 60.6552 0 58.0401C0 53.2103 6.62017 48.598 12.6287 48.598C18.2776 48.598 20.7964 51.4305 20.7964 54.4086C20.7964 56.5515 19.5012 58.8027 17.1986 60.1465C20.1494 60.7278 21.3357 63.2333 21.3357 66.0662C21.3357 70.7511 18.1341 76.453 14.1762 76.453C12.0171 76.453 9.93062 76.2355 9.93062 73.9474C9.93062 73.33 10.0741 72.5675 10.398 71.6593C11.0816 72.7849 12.3056 72.9674 12.8084 72.9674C14.7878 72.9674 16.3704 69.3712 16.3704 66.2844C16.3704 63.924 15.4714 61.8176 13.0968 61.8176C12.6287 61.8176 11.9452 61.8538 11.2977 61.9264L8.34733 75.836H3.16584L8.05922 52.7378L13.3842 52.0117Z" fill="#4A7CB2"/>
<path fill-rule="evenodd" clip-rule="evenodd" d="M27.4326 70.2688C27.4326 72.4477 28.6337 72.8468 29.5427 72.8468C30.3798 72.8468 31.1799 72.0482 31.8711 71.0316C31.9081 70.6686 31.9808 70.2688 32.0897 69.8332L34.1271 60.2111C33.5449 59.7029 32.8537 59.5573 32.3445 59.5573C29.6159 59.5573 27.4326 65.3309 27.4326 70.2688ZM39.9485 57.4879L37.3291 69.8332C37.2564 70.233 37.1829 70.6317 37.1829 70.9586C37.1829 71.7579 37.547 72.339 39.0025 72.339C40.4576 72.339 42.3496 70.3056 43.8047 69.1434H45.0421C43.3683 70.8134 39.2573 75.6429 36.4193 75.6429C34.0544 75.6429 32.4534 74.7714 31.9808 72.8836C30.889 74.372 29.2522 75.8603 27.0327 75.8603C23.5397 75.8603 22.521 73.3918 22.521 71.249C22.521 65.0037 24.7767 57.524 32.0535 57.524C32.9268 57.524 33.8358 57.8873 34.4908 58.432L34.7094 57.4879H39.9485Z" fill="#4A7CB2"/>
<path fill-rule="evenodd" clip-rule="evenodd" d="M50.465 50.376L46.3115 70.0352C46.2034 70.5809 46.1308 70.909 46.1308 71.1998C46.1308 72.0012 46.5286 72.5469 47.9365 72.5469C49.3815 72.5469 51.2593 70.5081 52.7043 69.3436H53.9319C52.2707 71.0188 48.1894 75.8603 45.3717 75.8603C42.591 75.8603 40.8934 74.6226 40.8934 71.8914C40.8934 71.3457 40.966 70.7269 41.1097 70.0352L45.1195 51.1046L50.465 50.376Z" fill="#4A7CB2"/>
<path fill-rule="evenodd" clip-rule="evenodd" d="M60.7708 51.5613C60.7708 51.5613 60.2294 54.0103 59.5433 57.2535H61.7098L61.4214 58.6945H59.2541C56.7622 70.0796 56.7981 70.4398 56.7981 70.6197C56.7981 71.4486 57.1591 71.9894 58.6043 71.9894C60.0491 71.9894 61.9268 69.9718 63.3712 68.8186H64.5998C62.938 70.4756 58.8572 75.2676 56.0405 75.2676C53.2594 75.2676 51.5613 74.0428 51.5613 71.3407C51.5613 69.431 53.4401 61.7932 54.0536 58.6945H52.8621L53.1505 57.2535H54.3432L55.4259 52.2816L60.7708 51.5613Z" fill="#4A7CB2"/>
<path fill-rule="evenodd" clip-rule="evenodd" d="M67.9754 49.7833C69.5603 49.7833 70.8568 51.1017 70.8568 52.7134C70.8568 54.3243 69.5603 55.6063 67.9754 55.6063C66.3905 55.6063 65.1305 54.3243 65.1305 52.7134C65.1305 51.1017 66.3905 49.7833 67.9754 49.7833ZM69.6323 57.5477L67.0389 70.0002C66.9669 70.4027 66.8945 70.8056 66.8945 71.1353C66.8945 71.9415 67.2545 72.5277 68.6962 72.5277C70.1367 72.5277 72.0092 70.4767 73.4501 69.3044H74.675C73.0181 70.9889 68.9473 75.8603 66.139 75.8603C63.3647 75.8603 61.6365 74.6151 61.6365 71.8683C61.6365 71.3186 61.7085 70.696 61.8529 70.0002L64.4455 57.5477H69.6323Z" fill="#4A7CB2"/>
<path fill-rule="evenodd" clip-rule="evenodd" d="M71.119 69.8696C71.119 64.5373 73.3572 57.4879 80.2496 57.4879C82.1681 57.4879 84.1575 57.9991 84.1575 60.0078C84.1575 60.41 84.1214 60.7388 83.979 61.2133H81.9543C82.061 60.8111 82.132 60.4823 82.132 60.1902C82.132 59.3139 81.5995 58.9488 80.8175 58.9488C77.8329 58.9488 75.9145 64.9024 75.9145 68.8469C75.9145 70.6369 76.3057 72.7554 78.4729 72.7554C80.391 72.7554 82.061 71.842 83.4465 70.6006C83.4465 73.7785 80.8175 75.8603 76.3418 75.8603C73.3926 75.8603 71.119 74.1796 71.119 69.8696Z" fill="#4A7CB2"/>
</svg>
