<svg width="538" height="81" viewBox="0 0 538 81" fill="none" xmlns="http://www.w3.org/2000/svg">
<path d="M73.2406 27.2808C74.3319 30.1907 74.8775 33.4644 74.8775 37.1019C74.8775 40.3236 74.4618 43.3375 73.6304 46.1435C72.4872 49.8329 70.5385 52.7428 67.7845 54.8733C65.0824 57.0038 61.9646 58.0691 58.4311 58.0691C54.4819 58.0691 51.468 56.6141 49.3894 53.7042C49.2855 53.5483 49.1816 53.4963 49.0777 53.5483C48.9737 53.6002 48.9218 53.7042 48.9218 53.8601V56.5102C48.9218 56.77 48.8179 57.0038 48.61 57.2117C48.4541 57.3676 48.2463 57.4455 47.9864 57.4455H36.9182C36.6584 57.4455 36.4246 57.3676 36.2167 57.2117C36.0608 57.0038 35.9829 56.77 35.9829 56.5102V3.81931C35.9829 3.55949 36.0608 3.35164 36.2167 3.19575C36.4246 2.9879 36.6584 2.88397 36.9182 2.88397H47.9864C48.2463 2.88397 48.4541 2.9879 48.61 3.19575C48.8179 3.35164 48.9218 3.55949 48.9218 3.81931V20.1098C48.9218 20.2657 48.9737 20.3696 49.0777 20.4216C49.1816 20.4216 49.2855 20.3696 49.3894 20.2657C51.3121 17.7715 54.1701 16.5244 57.9634 16.5244C61.7048 16.5244 64.8745 17.5117 67.4727 19.4863C70.1228 21.4609 72.0455 24.0591 73.2406 27.2808ZM59.99 44.039C60.9253 42.3242 61.393 40.0898 61.393 37.3357C61.393 34.4777 60.8734 32.1653 59.8341 30.3986C58.7948 28.5279 57.2099 27.5926 55.0794 27.5926C53.1048 27.5926 51.5719 28.5019 50.4807 30.3206C49.4934 31.9835 48.9997 34.3218 48.9997 37.3357C48.9997 40.0898 49.4414 42.2982 50.3248 43.961C51.416 45.9876 53.0009 47.0009 55.0794 47.0009C57.2619 47.0009 58.8988 46.0136 59.99 44.039Z" fill="black"/>
<path d="M97.3446 16.5244C100.826 16.5244 103.97 17.1219 106.776 18.3171C109.582 19.4603 111.79 21.0712 113.401 23.1497C115.012 25.1763 115.818 27.4367 115.818 29.9309V56.5102C115.818 56.77 115.714 57.0038 115.506 57.2117C115.35 57.3676 115.142 57.4455 114.882 57.4455H103.814C103.554 57.4455 103.32 57.3676 103.112 57.2117C102.957 57.0038 102.879 56.77 102.879 56.5102V53.7821C102.879 53.5743 102.827 53.4703 102.723 53.4703C102.619 53.4184 102.515 53.4963 102.411 53.7042C100.436 56.6141 97.0588 58.0691 92.2781 58.0691C88.121 58.0691 84.7954 57.1078 82.3012 55.1851C79.8589 53.2105 78.6377 50.3265 78.6377 46.5332C78.6377 42.532 80.0148 39.4402 82.7688 37.2578C85.5748 35.0753 89.628 33.9841 94.9283 33.9841H102.489C102.749 33.9841 102.879 33.8542 102.879 33.5943V32.1134C102.879 30.7104 102.411 29.6191 101.476 28.8397C100.54 28.0083 99.2412 27.5926 97.5784 27.5926C96.3313 27.5926 95.24 27.8264 94.3047 28.2941C93.4213 28.7617 92.8497 29.3593 92.5899 30.0868C92.3301 30.6584 91.9663 30.9182 91.4987 30.8663L80.2746 29.3853C79.651 29.2814 79.3392 29.0475 79.3392 28.6838C79.5471 26.3974 80.4305 24.3448 81.9894 22.5261C83.6002 20.6554 85.7307 19.2005 88.3809 18.1612C91.083 17.07 94.0709 16.5244 97.3446 16.5244ZM96.0974 48.7936C98.072 48.7936 99.6829 48.3 100.93 47.3127C102.229 46.2734 102.879 44.9224 102.879 43.2595V41.3888C102.879 41.129 102.749 40.9991 102.489 40.9991H97.8122C95.8376 40.9991 94.3047 41.3369 93.2135 42.0124C92.1742 42.6879 91.6546 43.7012 91.6546 45.0523C91.6546 46.1955 92.0443 47.1048 92.8237 47.7803C93.6032 48.4559 94.6944 48.7936 96.0974 48.7936Z" fill="black"/>
<path d="M143.656 16.6023C145.527 16.6023 146.982 16.9401 148.021 17.6156C148.437 17.8754 148.593 18.2651 148.489 18.7848L146.696 29.6191C146.644 30.2427 146.28 30.4246 145.605 30.1647C144.669 29.9569 143.786 29.853 142.955 29.853C142.071 29.853 141.396 29.9049 140.928 30.0089C139.317 30.2167 137.94 30.8403 136.797 31.8795C135.706 32.9188 135.16 34.2958 135.16 36.0106V56.5102C135.16 56.77 135.056 57.0038 134.848 57.2117C134.692 57.3676 134.485 57.4455 134.225 57.4455H123.157C122.897 57.4455 122.663 57.3676 122.455 57.2117C122.299 57.0038 122.221 56.77 122.221 56.5102V18.0833C122.221 17.8234 122.299 17.6156 122.455 17.4597C122.663 17.2518 122.897 17.1479 123.157 17.1479H134.225C134.485 17.1479 134.692 17.2518 134.848 17.4597C135.056 17.6156 135.16 17.8234 135.16 18.0833V20.5775C135.16 20.7334 135.212 20.8373 135.316 20.8893C135.42 20.9412 135.498 20.8893 135.55 20.7334C137.628 17.9793 140.33 16.6023 143.656 16.6023Z" fill="black"/>
<path d="M174.936 18.0833C174.936 17.8234 175.014 17.6156 175.17 17.4597C175.378 17.2518 175.611 17.1479 175.871 17.1479H186.939C187.199 17.1479 187.407 17.2518 187.563 17.4597C187.771 17.6156 187.875 17.8234 187.875 18.0833V52.9247C187.875 60.0437 185.822 65.1361 181.717 68.202C177.612 71.2678 172.416 72.8007 166.128 72.8007C163.79 72.8007 161.321 72.5929 158.723 72.1771C158.204 72.1252 157.944 71.7874 157.944 71.1639L158.334 61.4987C158.334 61.1349 158.437 60.8751 158.645 60.7192C158.853 60.6153 159.113 60.6153 159.425 60.7192C161.555 61.1869 163.53 61.4207 165.349 61.4207C168.311 61.4207 170.649 60.7452 172.364 59.3942C174.078 58.0431 174.936 55.9126 174.936 53.0027L174.39 53.5483C172.52 55.419 169.817 56.3543 166.284 56.3543C162.854 56.3543 159.711 55.6008 156.853 54.0939C153.995 52.587 151.942 49.9368 150.695 46.1435C149.864 43.6493 149.448 40.5834 149.448 36.946C149.448 32.9448 149.941 29.6711 150.929 27.1249C152.124 23.9032 154.021 21.331 156.619 19.4083C159.269 17.4857 162.335 16.5244 165.816 16.5244C169.558 16.5244 172.442 17.6676 174.468 19.9539C174.572 20.0579 174.676 20.1098 174.78 20.1098C174.884 20.0579 174.936 19.9539 174.936 19.7981V18.0833ZM174.234 42.7139C174.702 41.5188 174.936 39.5701 174.936 36.868C174.936 35.465 174.884 34.3738 174.78 33.5943C174.676 32.7629 174.468 31.9835 174.156 31.256C173.741 30.1128 173.065 29.2294 172.13 28.6058C171.246 27.9303 170.155 27.5926 168.856 27.5926C166.414 27.5926 164.673 28.8137 163.634 31.256C162.854 32.711 162.465 34.6336 162.465 37.0239C162.465 39.5701 162.802 41.4408 163.478 42.636C163.946 43.7272 164.647 44.6106 165.582 45.2861C166.518 45.9616 167.635 46.2994 168.934 46.2994C171.584 46.2994 173.351 45.1042 174.234 42.7139Z" fill="black"/>
<path d="M211.217 16.5244C214.699 16.5244 217.843 17.1219 220.649 18.3171C223.455 19.4603 225.663 21.0712 227.274 23.1497C228.885 25.1763 229.69 27.4367 229.69 29.9309V56.5102C229.69 56.77 229.587 57.0038 229.379 57.2117C229.223 57.3676 229.015 57.4455 228.755 57.4455H217.687C217.427 57.4455 217.193 57.3676 216.985 57.2117C216.829 57.0038 216.752 56.77 216.752 56.5102V53.7821C216.752 53.5743 216.7 53.4703 216.596 53.4703C216.492 53.4184 216.388 53.4963 216.284 53.7042C214.309 56.6141 210.932 58.0691 206.151 58.0691C201.994 58.0691 198.668 57.1078 196.174 55.1851C193.732 53.2105 192.511 50.3265 192.511 46.5332C192.511 42.532 193.888 39.4402 196.642 37.2578C199.448 35.0753 203.501 33.9841 208.801 33.9841H216.362C216.622 33.9841 216.752 33.8542 216.752 33.5943V32.1134C216.752 30.7104 216.284 29.6191 215.349 28.8397C214.413 28.0083 213.114 27.5926 211.451 27.5926C210.204 27.5926 209.113 27.8264 208.178 28.2941C207.294 28.7617 206.723 29.3593 206.463 30.0868C206.203 30.6584 205.839 30.9182 205.372 30.8663L194.147 29.3853C193.524 29.2814 193.212 29.0475 193.212 28.6838C193.42 26.3974 194.303 24.3448 195.862 22.5261C197.473 20.6554 199.604 19.2005 202.254 18.1612C204.956 17.07 207.944 16.5244 211.217 16.5244ZM209.97 48.7936C211.945 48.7936 213.556 48.3 214.803 47.3127C216.102 46.2734 216.752 44.9224 216.752 43.2595V41.3888C216.752 41.129 216.622 40.9991 216.362 40.9991H211.685C209.71 40.9991 208.178 41.3369 207.086 42.0124C206.047 42.6879 205.527 43.7012 205.527 45.0523C205.527 46.1955 205.917 47.1048 206.697 47.7803C207.476 48.4559 208.567 48.7936 209.97 48.7936Z" fill="black"/>
<path d="M242.797 13.5624C240.823 13.5624 239.186 12.9389 237.887 11.6918C236.64 10.3927 236.016 8.75583 236.016 6.78122C236.016 4.75465 236.64 3.1178 237.887 1.87068C239.186 0.62356 240.823 0 242.797 0C244.772 0 246.383 0.62356 247.63 1.87068C248.929 3.1178 249.579 4.75465 249.579 6.78122C249.579 8.70387 248.929 10.3147 247.63 11.6138C246.383 12.9129 244.772 13.5624 242.797 13.5624ZM237.185 57.4455C236.926 57.4455 236.692 57.3676 236.484 57.2117C236.328 57.0038 236.25 56.77 236.25 56.5102V18.0833C236.25 17.8234 236.328 17.6156 236.484 17.4597C236.692 17.2518 236.926 17.1479 237.185 17.1479H248.254C248.513 17.1479 248.721 17.2518 248.877 17.4597C249.085 17.6156 249.189 17.8234 249.189 18.0833V56.5102C249.189 56.77 249.085 57.0038 248.877 57.2117C248.721 57.3676 248.513 57.4455 248.254 57.4455H237.185Z" fill="black"/>
<path d="M278.567 16.5244C282.62 16.5244 285.946 17.8234 288.544 20.4216C291.142 22.9678 292.441 26.4494 292.441 30.8663V56.5102C292.441 56.77 292.337 57.0038 292.129 57.2117C291.973 57.3676 291.766 57.4455 291.506 57.4455H280.438C280.178 57.4455 279.944 57.3676 279.736 57.2117C279.58 57.0038 279.502 56.77 279.502 56.5102V33.6723C279.502 31.9055 279.009 30.4505 278.021 29.3074C277.034 28.1642 275.761 27.5926 274.202 27.5926C272.591 27.5926 271.292 28.1642 270.305 29.3074C269.317 30.3986 268.824 31.8536 268.824 33.6723V56.5102C268.824 56.77 268.72 57.0038 268.512 57.2117C268.356 57.3676 268.148 57.4455 267.888 57.4455H256.82C256.56 57.4455 256.327 57.3676 256.119 57.2117C255.963 57.0038 255.885 56.77 255.885 56.5102V18.0833C255.885 17.8234 255.963 17.6156 256.119 17.4597C256.327 17.2518 256.56 17.1479 256.82 17.1479H267.888C268.148 17.1479 268.356 17.2518 268.512 17.4597C268.72 17.6156 268.824 17.8234 268.824 18.0833V20.9672C268.824 21.1751 268.85 21.305 268.902 21.357C269.006 21.357 269.11 21.279 269.213 21.1231C271.188 18.0573 274.306 16.5244 278.567 16.5244Z" fill="black"/>
<path d="M12.5505 46.8416C12.6881 46.8416 12.812 46.8958 12.922 47.0041C13.0046 47.0853 13.0459 47.1937 13.0459 47.3291L13.0459 51.0255C13.0459 51.1609 13.1147 51.2286 13.2523 51.2286L20.7661 51.2286C22.3349 51.2286 23.1193 50.6058 23.1193 49.3601L23.1193 47.8571C23.1193 47.7217 23.1744 47.6134 23.2844 47.5322C23.367 47.4238 23.4771 47.3697 23.6147 47.3697L28.4037 47.3697C28.7065 47.3697 28.8854 47.5322 28.9404 47.8571C28.9955 49.157 29.023 50.1048 29.023 50.7006C29.023 53.0566 28.6514 54.8033 27.9083 55.9406C27.1377 57.078 25.6927 57.6602 23.5734 57.6873L13.2523 57.6873C13.1147 57.6873 13.0459 57.755 13.0459 57.8904L13.0459 60.2058C13.0459 60.3412 13.0046 60.4631 12.922 60.5714C12.812 60.6526 12.6881 60.6932 12.5505 60.6932L8.05048 60.6932C7.91286 60.6932 7.80277 60.6526 7.7202 60.5714C7.61011 60.4631 7.55506 60.3412 7.55506 60.2058L7.55506 57.8904C7.55506 57.755 7.48625 57.6873 7.34864 57.6873L2.35322 57.6873C2.2156 57.6873 2.10551 57.6467 2.02294 57.5655C1.91285 57.4571 1.8578 57.3353 1.8578 57.1999L1.8578 51.7161C1.8578 51.5807 1.91285 51.4724 2.02294 51.3911C2.10551 51.2828 2.2156 51.2286 2.35322 51.2286L7.34864 51.2286C7.48625 51.2286 7.55506 51.1609 7.55506 51.0255L7.55506 47.3291C7.55506 47.1937 7.61011 47.0853 7.7202 47.0041C7.80277 46.8958 7.91286 46.8416 8.05047 46.8416L12.5505 46.8416Z" fill="#F4C845"/>
<path d="M7.22478 32.3099C7.22478 30.1976 7.91286 28.4645 9.28901 27.1105C10.6376 25.7565 12.4817 25.0794 14.8211 25.0794L28.4037 25.0794C28.5413 25.0794 28.6652 25.1336 28.7753 25.2419C28.8578 25.3232 28.8991 25.4315 28.8991 25.5669L28.8991 31.335C28.8991 31.4704 28.8578 31.5923 28.7753 31.7006C28.6652 31.7818 28.5413 31.8225 28.4037 31.8225L16.3074 31.8225C15.3716 31.8225 14.6009 32.0797 13.9954 32.5943C13.3899 33.1088 13.0872 33.7723 13.0872 34.5847C13.0872 35.4242 13.3899 36.1012 13.9954 36.6157C14.5734 37.1302 15.3441 37.3875 16.3074 37.3875L28.4037 37.3875C28.5413 37.3875 28.6652 37.4416 28.7753 37.55C28.8578 37.6312 28.8991 37.7395 28.8991 37.8749L28.8991 43.6431C28.8991 43.7785 28.8578 43.9003 28.7753 44.0086C28.6652 44.0899 28.5413 44.1305 28.4037 44.1305L0.495414 44.1305C0.357799 44.1305 0.247707 44.0899 0.165138 44.0086C0.0550453 43.9003 -7.39369e-07 43.7785 -7.45287e-07 43.6431L-9.9742e-07 37.8749C-1.00334e-06 37.7395 0.0550451 37.6312 0.165137 37.55C0.247707 37.4416 0.357799 37.3875 0.495414 37.3875L9.578 37.3875C9.68809 37.3875 9.7569 37.3739 9.78442 37.3469C9.78442 37.2927 9.74314 37.2385 9.66057 37.1844C8.03671 36.1553 7.22478 34.5305 7.22478 32.3099Z" fill="#F4C845"/>
<path d="M16.3486 2.3795C17.1743 2.2441 18.2615 2.20348 19.6101 2.25764C19.9404 2.28472 20.1055 2.46075 20.1055 2.78571L20.1055 15.175C20.1055 15.2292 20.1331 15.2833 20.1881 15.3375C20.2156 15.3916 20.2569 15.4052 20.312 15.3781C20.6147 15.3239 21.0138 15.1885 21.5092 14.9719C22.0872 14.6469 22.5551 14.1595 22.9129 13.5096C23.2707 12.8596 23.4496 12.0607 23.4496 11.1129C23.4496 9.40687 22.8854 8.06639 21.7569 7.09149C21.6193 6.98317 21.5505 6.86131 21.5505 6.72591C21.5505 6.5905 21.6055 6.48218 21.7156 6.40094L25.3487 3.27315C25.4312 3.16483 25.5413 3.11067 25.6789 3.11067C25.789 3.11067 25.8991 3.16483 26.0092 3.27315C27.0551 4.22097 27.8533 5.39897 28.4037 6.80715C28.9542 8.18825 29.2294 9.70475 29.2294 11.3567C29.2294 13.821 28.6927 15.9197 27.6193 17.6529C26.5184 19.3589 24.9909 20.5911 23.0367 21.3493C21.6606 21.918 19.9404 22.2024 17.8762 22.2024C16.445 22.2024 15.0688 21.9857 13.7477 21.5524C11.711 20.8483 10.1147 19.6974 8.95873 18.0997C7.77524 16.4749 7.1835 14.5521 7.1835 12.3316C7.1835 10.5442 7.58258 8.9465 8.38075 7.53832C9.15139 6.13014 10.2385 4.99276 11.6422 4.12619C13.0184 3.23254 14.5872 2.6503 16.3486 2.3795ZM13.0872 12.3316C13.0872 13.7397 13.7615 14.674 15.1101 15.1344C15.4129 15.2427 15.7019 15.3104 15.9771 15.3375C16.1147 15.3916 16.1835 15.3375 16.1835 15.175L16.1835 9.40687C16.1835 9.29855 16.1285 9.24438 16.0184 9.24438C15.7982 9.24438 15.523 9.29855 15.1927 9.40687C14.5046 9.59643 13.9817 9.94847 13.6239 10.463C13.2661 10.9505 13.0872 11.5733 13.0872 12.3316Z" fill="#F4C845"/>
<path d="M337.891 27.2808C338.982 30.1907 339.528 33.4644 339.528 37.1019C339.528 40.3236 339.112 43.3375 338.281 46.1435C337.138 49.8329 335.189 52.7428 332.435 54.8733C329.733 57.0038 326.615 58.0691 323.081 58.0691C319.132 58.0691 316.118 56.6141 314.04 53.7042C313.936 53.5483 313.832 53.4963 313.728 53.5483C313.624 53.6002 313.572 53.7042 313.572 53.8601V56.5102C313.572 56.77 313.468 57.0038 313.26 57.2117C313.104 57.3676 312.897 57.4455 312.637 57.4455H301.569C301.309 57.4455 301.075 57.3676 300.867 57.2117C300.711 57.0038 300.633 56.77 300.633 56.5102V3.81931C300.633 3.55949 300.711 3.35164 300.867 3.19575C301.075 2.9879 301.309 2.88397 301.569 2.88397H312.637C312.897 2.88397 313.104 2.9879 313.26 3.19575C313.468 3.35164 313.572 3.55949 313.572 3.81931V20.1098C313.572 20.2657 313.624 20.3697 313.728 20.4216C313.832 20.4216 313.936 20.3696 314.04 20.2657C315.962 17.7715 318.82 16.5244 322.614 16.5244C326.355 16.5244 329.525 17.5117 332.123 19.4863C334.773 21.4609 336.696 24.0591 337.891 27.2808ZM324.64 44.039C325.576 42.3242 326.043 40.0898 326.043 37.3357C326.043 34.4777 325.524 32.1653 324.484 30.3986C323.445 28.5279 321.86 27.5926 319.73 27.5926C317.755 27.5926 316.222 28.5019 315.131 30.3206C314.144 31.9835 313.65 34.3218 313.65 37.3357C313.65 40.0898 314.092 42.2982 314.975 43.961C316.066 45.9876 317.651 47.0009 319.73 47.0009C321.912 47.0009 323.549 46.0136 324.64 44.039Z" fill="#F4C845"/>
<path d="M368.464 18.0833C368.464 17.8234 368.542 17.6156 368.698 17.4597C368.906 17.2518 369.14 17.1479 369.4 17.1479H380.468C380.728 17.1479 380.936 17.2518 381.091 17.4597C381.299 17.6156 381.403 17.8234 381.403 18.0833V56.5102C381.403 56.77 381.299 57.0038 381.091 57.2117C380.936 57.3676 380.728 57.4455 380.468 57.4455H369.4C369.14 57.4455 368.906 57.3676 368.698 57.2117C368.542 57.0038 368.464 56.77 368.464 56.5102V53.7821C368.464 53.6262 368.412 53.5223 368.308 53.4703C368.205 53.4184 368.101 53.4703 367.997 53.6262C365.918 56.5881 362.644 58.0691 358.176 58.0691C354.226 58.0691 351.031 56.822 348.588 54.3277C346.146 51.8335 344.925 48.3519 344.925 43.8831V18.0833C344.925 17.8234 345.003 17.6156 345.159 17.4597C345.367 17.2518 345.6 17.1479 345.86 17.1479H356.929C357.188 17.1479 357.396 17.2518 357.552 17.4597C357.76 17.6156 357.864 17.8234 357.864 18.0833V40.9212C357.864 42.7399 358.332 44.1949 359.267 45.2861C360.202 46.3773 361.475 46.9229 363.086 46.9229C364.541 46.9229 365.736 46.4813 366.672 45.5979C367.659 44.7145 368.257 43.5453 368.464 42.0903V18.0833Z" fill="#F4C845"/>
<path d="M409.372 16.6023C411.243 16.6023 412.698 16.9401 413.737 17.6156C414.153 17.8754 414.309 18.2651 414.205 18.7848L412.412 29.6191C412.36 30.2427 411.996 30.4246 411.321 30.1648C410.385 29.9569 409.502 29.853 408.671 29.853C407.787 29.853 407.112 29.9049 406.644 30.0089C405.033 30.2167 403.656 30.8403 402.513 31.8795C401.422 32.9188 400.876 34.2958 400.876 36.0106V56.5102C400.876 56.77 400.772 57.0038 400.564 57.2117C400.408 57.3676 400.201 57.4455 399.941 57.4455H388.873C388.613 57.4455 388.379 57.3676 388.171 57.2117C388.015 57.0038 387.937 56.77 387.937 56.5102V18.0833C387.937 17.8234 388.015 17.6156 388.171 17.4597C388.379 17.2518 388.613 17.1479 388.873 17.1479H399.941C400.201 17.1479 400.408 17.2518 400.564 17.4597C400.772 17.6156 400.876 17.8234 400.876 18.0833V20.5775C400.876 20.7334 400.928 20.8373 401.032 20.8893C401.136 20.9412 401.214 20.8893 401.266 20.7334C403.344 17.9793 406.046 16.6023 409.372 16.6023Z" fill="#F4C845"/>
<path d="M454.426 33.7502C454.686 35.3091 454.764 37.3617 454.66 39.9079C454.608 40.5314 454.27 40.8432 453.647 40.8432H429.874C429.77 40.8432 429.666 40.8952 429.562 40.9991C429.458 41.0511 429.432 41.129 429.484 41.233C429.588 41.8046 429.848 42.558 430.263 43.4934C430.887 44.5846 431.822 45.468 433.069 46.1435C434.316 46.819 435.849 47.1568 437.668 47.1568C440.942 47.1568 443.514 46.0915 445.385 43.961C445.592 43.7012 445.826 43.5713 446.086 43.5713C446.346 43.5713 446.554 43.6752 446.71 43.8831L452.711 50.7423C452.919 50.8981 453.023 51.106 453.023 51.3658C453.023 51.5737 452.919 51.7815 452.711 51.9894C450.893 53.964 448.632 55.4709 445.93 56.5102C443.28 57.5495 440.37 58.0691 437.2 58.0691C432.472 58.0691 428.445 57.0558 425.119 55.0292C421.845 52.9507 419.481 50.0667 418.026 46.3773C416.935 43.7792 416.389 40.5314 416.389 36.6342C416.389 33.9321 416.805 31.3339 417.636 28.8397C418.987 24.9944 421.196 21.9805 424.261 19.7981C427.379 17.5636 431.069 16.4464 435.33 16.4464C438.759 16.4464 441.825 17.1999 444.527 18.7068C447.229 20.1618 449.412 22.2144 451.075 24.8645C452.789 27.4627 453.907 30.4246 454.426 33.7502ZM435.33 27.5926C432.628 27.5926 430.835 28.8657 429.951 31.4119C429.744 31.9835 429.614 32.5291 429.562 33.0487C429.458 33.3085 429.562 33.4384 429.874 33.4384H440.942C441.15 33.4384 441.254 33.3345 441.254 33.1267C441.254 32.711 441.15 32.1913 440.942 31.5678C440.578 30.2687 439.902 29.2814 438.915 28.6059C437.98 27.9303 436.785 27.5926 435.33 27.5926Z" fill="#F4C845"/>
<path d="M476.325 16.5244C479.806 16.5244 482.95 17.1219 485.756 18.3171C488.562 19.4603 490.77 21.0712 492.381 23.1497C493.992 25.1763 494.798 27.4367 494.798 29.9309V56.5102C494.798 56.77 494.694 57.0038 494.486 57.2117C494.33 57.3676 494.122 57.4455 493.862 57.4455H482.794C482.534 57.4455 482.3 57.3676 482.092 57.2117C481.937 57.0038 481.859 56.77 481.859 56.5102V53.7821C481.859 53.5743 481.807 53.4703 481.703 53.4703C481.599 53.4184 481.495 53.4963 481.391 53.7042C479.416 56.6141 476.039 58.0691 471.258 58.0691C467.101 58.0691 463.775 57.1078 461.281 55.1851C458.839 53.2105 457.618 50.3265 457.618 46.5332C457.618 42.532 458.995 39.4402 461.749 37.2578C464.555 35.0753 468.608 33.9841 473.908 33.9841H481.469C481.729 33.9841 481.859 33.8542 481.859 33.5943V32.1134C481.859 30.7104 481.391 29.6191 480.456 28.8397C479.52 28.0083 478.221 27.5926 476.558 27.5926C475.311 27.5926 474.22 27.8264 473.285 28.2941C472.401 28.7617 471.83 29.3593 471.57 30.0868C471.31 30.6584 470.946 30.9182 470.479 30.8663L459.255 29.3853C458.631 29.2814 458.319 29.0475 458.319 28.6838C458.527 26.3974 459.41 24.3448 460.969 22.5261C462.58 20.6554 464.711 19.2005 467.361 18.1612C470.063 17.07 473.051 16.5244 476.325 16.5244ZM475.077 48.7936C477.052 48.7936 478.663 48.3 479.91 47.3127C481.209 46.2734 481.859 44.9224 481.859 43.2595V41.3888C481.859 41.129 481.729 40.9991 481.469 40.9991H476.792C474.818 40.9991 473.285 41.3369 472.193 42.0124C471.154 42.6879 470.635 43.7012 470.635 45.0523C470.635 46.1955 471.024 47.1048 471.804 47.7803C472.583 48.4559 473.674 48.7936 475.077 48.7936Z" fill="#F4C845"/>
<path d="M524.507 18.0833C524.507 17.8234 524.585 17.6156 524.741 17.4597C524.948 17.2518 525.182 17.1479 525.442 17.1479H536.51C536.77 17.1479 536.978 17.2518 537.134 17.4597C537.342 17.6156 537.446 17.8234 537.446 18.0833V56.5102C537.446 56.77 537.342 57.0038 537.134 57.2117C536.978 57.3676 536.77 57.4455 536.51 57.4455H525.442C525.182 57.4455 524.948 57.3676 524.741 57.2117C524.585 57.0038 524.507 56.77 524.507 56.5102V53.7821C524.507 53.6262 524.455 53.5223 524.351 53.4703C524.247 53.4184 524.143 53.4703 524.039 53.6262C521.961 56.5881 518.687 58.0691 514.218 58.0691C510.269 58.0691 507.073 56.822 504.631 54.3277C502.189 51.8335 500.967 48.3519 500.967 43.8831V18.0833C500.967 17.8234 501.045 17.6156 501.201 17.4597C501.409 17.2518 501.643 17.1479 501.903 17.1479H512.971C513.231 17.1479 513.439 17.2518 513.594 17.4597C513.802 17.6156 513.906 17.8234 513.906 18.0833V40.9212C513.906 42.7399 514.374 44.1949 515.309 45.2861C516.245 46.3773 517.518 46.9229 519.129 46.9229C520.584 46.9229 521.779 46.4813 522.714 45.5979C523.701 44.7145 524.299 43.5453 524.507 42.0903V18.0833Z" fill="#F4C845"/>
<path d="M198.811 75.0173C198.811 75.9104 199.061 76.6189 199.561 77.1429C200.073 77.655 200.752 77.911 201.597 77.911C202.419 77.911 203.074 77.655 203.562 77.1429C204.05 76.6308 204.295 75.9223 204.295 75.0173V67.6758H207.117V75.0173C207.117 76.1128 206.891 77.0655 206.438 77.8753C205.997 78.6731 205.36 79.2923 204.527 79.733C203.693 80.1617 202.711 80.376 201.579 80.376C200.448 80.376 199.46 80.1617 198.614 79.733C197.769 79.2923 197.12 78.6731 196.667 77.8753C196.215 77.0655 195.989 76.1128 195.989 75.0173V67.6758H198.811V75.0173Z" fill="black"/>
<path d="M223.513 71.159C222.87 70.766 222.186 70.4564 221.459 70.2301C220.745 69.992 220.131 69.8729 219.619 69.8729C219.131 69.8729 218.744 69.9622 218.458 70.1408C218.172 70.3195 218.03 70.5814 218.03 70.9268C218.03 71.3674 218.232 71.7068 218.637 71.9449C219.054 72.1712 219.691 72.4094 220.548 72.6594C221.406 72.9095 222.108 73.1596 222.656 73.4097C223.216 73.6597 223.692 74.0348 224.085 74.535C224.478 75.0351 224.674 75.696 224.674 76.5177C224.674 77.3156 224.46 78.0063 224.031 78.5898C223.615 79.1614 223.037 79.596 222.299 79.8937C221.56 80.1914 220.721 80.3403 219.78 80.3403C218.768 80.3403 217.773 80.1617 216.797 79.8044C215.821 79.4472 214.975 78.9589 214.261 78.3397L215.386 76.0354C216.017 76.607 216.743 77.0655 217.565 77.4108C218.387 77.7562 219.137 77.9288 219.816 77.9288C220.399 77.9288 220.852 77.8217 221.173 77.6073C221.507 77.393 221.673 77.0834 221.673 76.6785C221.673 76.357 221.56 76.095 221.334 75.8925C221.12 75.6782 220.84 75.5055 220.495 75.3745C220.161 75.2435 219.697 75.0947 219.101 74.928C218.244 74.6898 217.541 74.4516 216.993 74.2135C216.458 73.9753 215.993 73.6121 215.6 73.1239C215.207 72.6356 215.011 71.9866 215.011 71.1769C215.011 70.4266 215.213 69.7717 215.618 69.212C216.023 68.6404 216.589 68.2057 217.315 67.908C218.041 67.5984 218.887 67.4436 219.851 67.4436C220.709 67.4436 221.554 67.5686 222.388 67.8187C223.222 68.0688 223.96 68.4022 224.603 68.819L223.513 71.159Z" fill="black"/>
<path d="M232.279 67.6758H241.799V70.0158H235.101V72.7309H241.121V75.0709H235.101V77.8395H241.996V80.1795H232.279V67.6758Z" fill="black"/>
<path d="M255.142 67.6758C256.416 67.6758 257.553 67.9438 258.554 68.4796C259.554 69.0036 260.328 69.7419 260.876 70.6946C261.436 71.6353 261.715 72.713 261.715 73.9277C261.715 75.1423 261.43 76.226 260.858 77.1786C260.298 78.1194 259.512 78.8577 258.5 79.3936C257.488 79.9175 256.333 80.1795 255.035 80.1795H249.837V67.6758H255.142ZM255.213 77.8038C255.904 77.8038 256.523 77.6431 257.071 77.3215C257.631 76.9881 258.066 76.5296 258.375 75.9461C258.685 75.3626 258.84 74.6958 258.84 73.9455C258.84 73.1953 258.673 72.5225 258.339 71.9271C258.018 71.3317 257.571 70.8732 257 70.5517C256.44 70.2182 255.803 70.0515 255.088 70.0515H252.659V77.8038H255.213Z" fill="black"/>
<path d="M284.828 67.4793C286.078 67.4793 287.216 67.7592 288.24 68.3189C289.264 68.8786 290.068 69.6526 290.651 70.641C291.247 71.6175 291.544 72.7071 291.544 73.9098C291.544 75.1125 291.247 76.2081 290.651 77.1965C290.068 78.1849 289.264 78.9649 288.24 79.5365C287.216 80.0962 286.078 80.376 284.828 80.376C283.578 80.376 282.441 80.0962 281.416 79.5365C280.392 78.9649 279.583 78.1908 278.987 77.2144C278.404 76.226 278.112 75.1245 278.112 73.9098C278.112 72.7071 278.404 71.6175 278.987 70.641C279.583 69.6526 280.386 68.8786 281.399 68.3189C282.423 67.7592 283.566 67.4793 284.828 67.4793ZM284.864 69.9443C284.173 69.9443 283.53 70.123 282.935 70.4802C282.339 70.8256 281.869 71.3019 281.524 71.9092C281.178 72.5165 281.006 73.1834 281.006 73.9098C281.006 74.6481 281.178 75.3209 281.524 75.9283C281.881 76.5356 282.351 77.0179 282.935 77.3751C283.53 77.7324 284.173 77.911 284.864 77.911C285.555 77.911 286.186 77.7383 286.757 77.393C287.341 77.0357 287.799 76.5534 288.133 75.9461C288.478 75.3269 288.651 74.6481 288.651 73.9098C288.651 73.1834 288.478 72.5165 288.133 71.9092C287.799 71.3019 287.341 70.8256 286.757 70.4802C286.186 70.123 285.555 69.9443 284.864 69.9443Z" fill="black"/>
<path d="M299.023 67.6758H308.008L307.99 70.0158H301.845V73.0881H307.49V75.446H301.845V80.1795H299.023V67.6758Z" fill="black"/>
<path d="M315.273 67.6758H324.257L324.24 70.0158H318.095V73.0881H323.739V75.446H318.095V80.1795H315.273V67.6758Z" fill="black"/>
<path d="M331.523 67.6758H334.345V80.1795H331.523V67.6758Z" fill="black"/>
<path d="M351.805 71.5877C351.376 71.0756 350.87 70.6767 350.287 70.3909C349.715 70.0932 349.137 69.9443 348.554 69.9443C347.851 69.9443 347.208 70.117 346.625 70.4624C346.041 70.8077 345.583 71.2781 345.249 71.8735C344.916 72.4689 344.749 73.1298 344.749 73.8562C344.749 74.5826 344.916 75.2495 345.249 75.8568C345.583 76.4522 346.041 76.9286 346.625 77.2858C347.208 77.6311 347.851 77.8038 348.554 77.8038C349.114 77.8038 349.679 77.6728 350.251 77.4108C350.834 77.1369 351.352 76.7737 351.805 76.3212L353.466 78.1253C352.799 78.816 352.013 79.3638 351.108 79.7687C350.215 80.1736 349.316 80.376 348.411 80.376C347.184 80.376 346.071 80.0962 345.071 79.5365C344.07 78.9649 343.285 78.1849 342.713 77.1965C342.141 76.2081 341.856 75.1066 341.856 73.8919C341.856 72.6892 342.147 71.5996 342.731 70.6231C343.314 69.6466 344.112 68.8786 345.124 68.3189C346.148 67.7592 347.28 67.4793 348.518 67.4793C349.423 67.4793 350.316 67.6699 351.198 68.0509C352.079 68.4201 352.829 68.9262 353.448 69.5692L351.805 71.5877Z" fill="black"/>
<path d="M360.778 67.6758H370.299V70.0158H363.6V72.7309H369.62V75.0709H363.6V77.8395H370.495V80.1795H360.778V67.6758Z" fill="black"/>
<path d="M388.149 67.6758H397.134L397.116 70.0158H390.971V73.0881H396.616V75.446H390.971V80.1795H388.149V67.6758Z" fill="black"/>
<path d="M407.007 75.0173C407.007 75.9104 407.257 76.6189 407.757 77.1429C408.269 77.655 408.948 77.911 409.794 77.911C410.615 77.911 411.27 77.655 411.758 77.1429C412.247 76.6308 412.491 75.9223 412.491 75.0173V67.6758H415.313V75.0173C415.313 76.1128 415.087 77.0655 414.634 77.8753C414.194 78.6731 413.557 79.2923 412.723 79.733C411.889 80.1617 410.907 80.376 409.776 80.376C408.644 80.376 407.656 80.1617 406.811 79.733C405.965 79.2923 405.316 78.6731 404.864 77.8753C404.411 77.0655 404.185 76.1128 404.185 75.0173V67.6758H407.007V75.0173Z" fill="black"/>
<path d="M431.156 80.1795L429.173 76.607H428.905H426.297V80.1795H423.475V67.6758H428.905C430.537 67.6758 431.799 68.0569 432.692 68.819C433.585 69.5692 434.032 70.635 434.032 72.0164C434.032 72.981 433.829 73.8086 433.424 74.4993C433.031 75.178 432.454 75.696 431.692 76.0533L434.353 80.1795H431.156ZM426.297 74.2492H428.905C429.691 74.2492 430.292 74.0706 430.709 73.7133C431.138 73.3442 431.352 72.8083 431.352 72.1057C431.352 71.415 431.138 70.897 430.709 70.5517C430.292 70.1944 429.691 70.0158 428.905 70.0158H426.297V74.2492Z" fill="black"/>
<path d="M450.673 67.6758H453.352V80.1795H450.78L444.725 72.1414V80.1795H442.027V67.6758H444.6L450.673 75.7496V67.6758Z" fill="black"/>
<path d="M461.731 67.6758H464.553V80.1795H461.731V67.6758Z" fill="black"/>
<path d="M471.725 67.6758H482.174V70.0694H478.352V80.1795H475.529V70.0694H471.725V67.6758Z" fill="black"/>
<path d="M491.92 75.0173C491.92 75.9104 492.17 76.6189 492.67 77.1429C493.182 77.655 493.861 77.911 494.706 77.911C495.528 77.911 496.183 77.655 496.671 77.1429C497.159 76.6308 497.404 75.9223 497.404 75.0173V67.6758H500.226V75.0173C500.226 76.1128 500 77.0655 499.547 77.8753C499.106 78.6731 498.469 79.2923 497.636 79.733C496.802 80.1617 495.82 80.376 494.688 80.376C493.557 80.376 492.569 80.1617 491.723 79.733C490.878 79.2923 490.229 78.6731 489.776 77.8753C489.324 77.0655 489.098 76.1128 489.098 75.0173V67.6758H491.92V75.0173Z" fill="black"/>
<path d="M516.068 80.1795L514.086 76.607H513.818H511.21V80.1795H508.388V67.6758H513.818C515.449 67.6758 516.712 68.0569 517.605 68.819C518.498 69.5692 518.944 70.635 518.944 72.0164C518.944 72.981 518.742 73.8086 518.337 74.4993C517.944 75.178 517.366 75.696 516.604 76.0533L519.266 80.1795H516.068ZM511.21 74.2492H513.818C514.604 74.2492 515.205 74.0706 515.622 73.7133C516.051 73.3442 516.265 72.8083 516.265 72.1057C516.265 71.415 516.051 70.897 515.622 70.5517C515.205 70.1944 514.604 70.0158 513.818 70.0158H511.21V74.2492Z" fill="black"/>
<path d="M526.94 67.6758H536.461V70.0158H529.762V72.7309H535.782V75.0709H529.762V77.8395H536.657V80.1795H526.94V67.6758Z" fill="black"/>
</svg>
