<svg width="300" height="62" viewBox="0 0 300 62" fill="none" xmlns="http://www.w3.org/2000/svg">
<path d="M147.639 2.65267L148.256 0.75616C148.402 0.304706 148.822 0 149.296 0C149.77 0 150.191 0.304706 150.337 0.75616L150.953 2.65267L152.323 3.22947C152.728 3.40068 152.992 3.79812 152.992 4.23836C152.992 4.67759 152.728 5.07605 152.323 5.24623L150.953 5.82405L150.337 7.72057C150.19 8.17202 149.77 8.47673 149.296 8.47673C148.822 8.47673 148.402 8.171 148.256 7.72057L147.639 5.82405L146.269 5.24623C145.864 5.07605 145.6 4.67861 145.6 4.23836C145.6 3.79812 145.864 3.40068 146.269 3.22947L147.639 2.65267Z" fill="url(#paint0_linear_353_1446)"/>
<path d="M129.953 6.17756C129.953 7.15588 129.155 7.9528 128.176 7.9528C127.197 7.9528 126.4 7.15588 126.4 6.17756C126.4 5.1972 127.197 4.40028 128.176 4.40028C129.156 4.40028 129.953 5.1972 129.953 6.17756Z" fill="url(#paint1_linear_353_1446)"/>
<path d="M170.176 17.5539C169.197 17.5539 168.4 16.757 168.4 15.7786C168.4 14.7983 169.197 14.0003 170.176 14.0003C171.156 14.0003 171.953 14.7983 171.953 15.7786C171.953 16.757 171.155 17.5539 170.176 17.5539Z" fill="url(#paint2_linear_353_1446)"/>
<path d="M144.553 58.6245L143.936 60.521C143.789 60.9725 143.369 61.2772 142.896 61.2772C142.422 61.2772 142.001 60.9725 141.855 60.521L141.239 58.6245L139.869 58.0477C139.463 57.8765 139.199 57.4791 139.199 57.0388C139.199 56.5996 139.463 56.2011 139.869 56.031L141.239 55.4531L141.855 53.5566C142.002 53.1052 142.422 52.8005 142.896 52.8005C143.369 52.8005 143.789 53.1062 143.936 53.5566L144.553 55.4531L145.922 56.031C146.328 56.2011 146.592 56.5986 146.592 57.0388C146.592 57.4791 146.328 57.8765 145.922 58.0477L144.553 58.6245Z" fill="url(#paint3_linear_353_1446)"/>
<path d="M161.6 54.5757C161.6 53.5974 162.398 52.8005 163.377 52.8005C164.356 52.8005 165.153 53.5974 165.153 54.5757C165.153 55.5561 164.356 56.353 163.377 56.353C162.397 56.353 161.6 55.5561 161.6 54.5757Z" fill="url(#paint4_linear_353_1446)"/>
<path d="M125.776 42.0002C126.756 42.0002 127.553 42.7971 127.553 43.7754C127.553 44.7558 126.756 45.5537 125.776 45.5537C124.796 45.5537 123.999 44.7558 123.999 43.7754C123.999 42.7971 124.797 42.0002 125.776 42.0002Z" fill="url(#paint5_linear_353_1446)"/>
<path fill-rule="evenodd" clip-rule="evenodd" d="M158.955 18.8052C169.547 26.0321 174.698 36.2839 170.787 43.2427C168.627 47.0887 164.124 49.2104 158.108 49.2145H158.088C152.711 49.2145 146.633 47.513 140.896 44.4117L137.302 49.5027C136.326 50.885 134.414 51.2144 133.032 50.2384C131.65 49.2625 131.32 47.3507 132.296 45.9684L135.705 41.1401C125.896 33.9735 121.258 24.2184 125.025 17.5159C127.186 13.6699 131.689 11.5482 137.705 11.5441H137.724C142.71 11.5441 148.296 13.0053 153.654 15.6895L158.712 8.52586C159.688 7.14357 161.599 6.81419 162.982 7.79016C164.364 8.76614 164.693 10.6779 163.717 12.0602L158.955 18.8052ZM140.509 18.061C142.272 18.2167 144.172 18.629 146.121 19.2684C143.653 19.5328 141.411 20.5515 139.636 22.0858C139.417 22.0745 139.204 22.069 138.997 22.069C137.136 22.069 135.773 22.5164 135.329 23.3092C134.638 24.5388 135.762 27.2574 138.68 30.1875C138.752 25.4432 142.783 21.6003 147.721 21.6003C148.287 21.6003 148.84 21.6506 149.377 21.7469L151.274 19.0604C146.653 16.8305 141.919 15.6204 137.724 15.6204H137.707C133.227 15.6235 129.985 17.0054 128.578 19.5123C125.498 24.994 131.748 34.6008 142.225 40.4911C147.557 43.4883 153.189 45.1392 158.088 45.1392H158.106C162.585 45.1361 165.826 43.7532 167.234 41.2463C170.005 36.3142 165.222 28.0406 156.6 22.1403L154.718 24.8064C155.993 26.3095 156.759 28.2289 156.759 30.3166C156.759 33.6052 154.866 36.4734 152.078 37.9606C152.344 38.0346 152.607 38.1034 152.868 38.1666C153.835 38.4006 154.772 38.5598 155.661 38.6386C155.827 38.653 155.99 38.6641 156.15 38.6725C158.346 38.7874 159.987 38.3344 160.483 37.451C160.995 36.5398 160.511 34.8112 159.038 32.7845C159.144 32.1564 159.199 31.5112 159.199 30.8532C159.199 29.0913 158.802 27.4194 158.09 25.9207C163.585 30.5199 166.083 35.8035 164.038 39.4464C162.821 41.613 160.289 42.7679 156.824 42.7679C156.336 42.7679 155.828 42.7445 155.303 42.6986C152.709 42.4695 149.82 41.6851 146.912 40.439C146.719 40.3559 146.525 40.2708 146.331 40.1837C145.306 39.7231 144.281 39.2061 143.268 38.6365C142.412 38.1549 141.592 37.6536 140.812 37.1365L140.813 37.1377C133.218 32.1048 129.378 25.5819 131.775 21.3128C133.162 18.8416 136.264 17.688 140.509 18.061Z" fill="url(#paint6_linear_353_1446)"/>
<path d="M210.692 15.4216L229.679 15.4684C232.008 15.4997 233.18 16.7108 233.195 19.1017C233.195 21.6489 231.929 22.9459 229.398 22.9928H214.466V37.9242H229.374C231.89 37.9399 233.148 39.2056 233.148 41.7216C233.148 44.175 231.914 45.4173 229.445 45.4486H210.692C208.208 45.4486 206.958 44.2375 206.942 41.8153V19.2189C206.958 16.7342 208.208 15.4684 210.692 15.4216Z" fill="url(#paint7_linear_353_1446)"/>
<path d="M216.271 30.5405C216.287 28.0402 217.521 26.7745 219.975 26.7432H227.523C230.023 26.7588 231.289 28.009 231.32 30.4937C231.273 32.994 230.007 34.2441 227.523 34.2441H219.998C217.514 34.2597 216.271 33.0252 216.271 30.5405Z" fill="url(#paint8_linear_353_1446)"/>
<path fill-rule="evenodd" clip-rule="evenodd" d="M181.111 15.4684H194.237C196.722 15.4684 198.918 16.406 200.824 18.2813C202.684 20.1252 203.613 22.2739 203.613 24.7273V24.8446C203.582 27.3605 202.934 29.2123 201.668 30.3999C202.981 31.6969 203.637 33.5409 203.637 35.9318V36.0725C203.606 38.5415 202.645 40.7215 200.754 42.6123C198.879 44.5032 196.785 45.4486 194.472 45.4486H181.017C178.579 45.4486 177.36 44.1984 177.36 41.6981V19.2189C177.36 16.7342 178.611 15.4841 181.111 15.4684ZM184.885 22.9928V37.9242H194.19C195.456 37.9242 196.089 37.307 196.089 36.0725C196.089 34.8067 195.472 34.1738 194.237 34.1738L192.386 34.1504C189.854 34.1504 188.596 32.8377 188.612 30.2124C188.612 27.8371 189.862 26.6651 192.362 26.6963L194.237 26.7198C195.488 26.7198 196.097 26.0322 196.066 24.657C196.097 23.5475 195.488 22.9928 194.237 22.9928H184.885Z" fill="url(#paint9_linear_353_1446)"/>
<path fill-rule="evenodd" clip-rule="evenodd" d="M238.446 45.0032C239.04 45.3157 239.657 45.472 240.298 45.472H262.777C263.402 45.472 264.011 45.3157 264.605 45.0032C265.215 44.675 265.683 44.2141 266.012 43.6202C266.355 43.0108 266.527 42.3779 266.527 41.7216C266.527 41.0652 264.644 36.9866 260.878 29.4857C257.128 21.9692 255.088 17.914 254.76 17.3202C254.432 16.7264 253.971 16.2654 253.377 15.9372C252.783 15.5934 252.158 15.4216 251.502 15.4216C250.861 15.4216 250.236 15.5934 249.627 15.9372C249.033 16.2654 248.572 16.7264 248.244 17.3202C247.916 17.914 245.884 21.9692 242.149 29.4857C238.415 36.9866 236.547 41.0652 236.547 41.7216C236.547 42.3779 236.711 43.0108 237.039 43.6202C237.383 44.2141 237.852 44.675 238.446 45.0032ZM251.502 27.3527L256.659 37.9242H246.345L251.502 27.3527Z" fill="url(#paint10_linear_353_1446)"/>
<path d="M273.7 15.4684C274.966 15.4997 275.896 15.82 276.489 16.4295C277.099 17.0389 279.935 19.8674 284.998 24.9149C289.999 19.9143 292.812 17.0936 293.437 16.4529C294.062 15.7966 294.992 15.4684 296.226 15.4684C298.711 15.4841 299.961 16.7264 299.977 19.1954L300 41.6981C300 44.1984 298.734 45.4642 296.203 45.4955C293.734 45.4798 292.476 44.2141 292.429 41.6981V28.4544L287.717 33.2831C287.108 33.9081 286.186 34.2207 284.951 34.2207C283.748 34.2207 282.826 33.9003 282.185 33.2596C281.545 32.6033 279.974 31.025 277.474 28.5247V41.6981C277.458 44.1828 276.208 45.433 273.723 45.4486C271.208 45.4642 269.957 44.2141 269.973 41.6981V19.1954C269.973 16.7108 271.215 15.4684 273.7 15.4684Z" fill="url(#paint11_linear_353_1446)"/>
<path fill-rule="evenodd" clip-rule="evenodd" d="M3.75045 45.4837C3.10975 45.4837 2.49249 45.3275 1.89866 45.0149C1.30484 44.6868 0.836037 44.2258 0.492246 43.632C0.164082 43.0225 0 42.3896 0 41.7333C0 41.077 1.86741 36.9983 5.60223 29.4975C9.33705 21.9809 11.3685 17.9258 11.6967 17.3319C12.0249 16.7381 12.4859 16.2771 13.0797 15.949C13.6891 15.6052 14.3142 15.4333 14.9549 15.4333C15.6112 15.4333 16.2363 15.6052 16.8301 15.949C17.424 16.2771 17.8849 16.7381 18.2131 17.3319C18.5413 17.9258 20.5806 21.9809 24.331 29.4975C28.0971 36.9983 29.9801 41.077 29.9801 41.7333C29.9801 42.3896 29.8083 43.0225 29.4645 43.632C29.1363 44.2258 28.6675 44.6868 28.058 45.0149C27.4642 45.3275 26.8548 45.4837 26.2297 45.4837H3.75045ZM20.1118 37.936L14.9549 27.3644L9.79805 37.936H20.1118Z" fill="url(#paint12_linear_353_1446)"/>
<path d="M59.7024 19.2072C59.7024 21.7075 58.4992 22.9654 56.0926 22.981L44.6772 22.9576C42.1457 22.9889 40.8721 23.6296 40.8564 24.8797C40.8877 26.0674 42.1691 26.6534 44.7007 26.6377H48.3808C55.9286 26.669 59.7181 29.8412 59.7493 36.1545C59.7493 42.2959 55.9676 45.3822 48.4042 45.4134H37.1294C34.6448 45.3978 33.4024 44.1711 33.4024 41.7333C33.4181 39.2486 34.6526 38.0219 37.106 38.0532L48.4042 37.9828C50.9358 37.9672 52.2016 37.3265 52.2016 36.0607C52.2016 34.7793 50.9201 34.1464 48.3573 34.1621H44.6772C37.1607 34.1464 33.4024 31.0523 33.4024 24.8797V24.7625C33.4024 18.5743 37.1607 15.4723 44.6772 15.4567H55.952C58.4367 15.4723 59.6868 16.7225 59.7024 19.2072Z" fill="url(#paint13_linear_353_1446)"/>
<path d="M85.4165 15.4802L66.4298 15.4333C63.9451 15.4801 62.695 16.7459 62.6794 19.2306C62.6794 21.7465 63.9295 23.0045 66.4298 23.0045H72.0555L72.032 41.827C72.032 44.2492 73.2822 45.4603 75.7825 45.4603C78.2672 45.429 79.5251 44.1867 79.5564 41.7333L79.5329 23.0045H85.1352C87.6667 22.9576 88.9325 21.6606 88.9325 19.1134C88.9169 16.7225 87.7449 15.5114 85.4165 15.4802Z" fill="url(#paint14_linear_353_1446)"/>
<path d="M95.7536 15.4802H108.927C111.365 15.4802 113.529 16.4256 115.42 18.3164C117.311 20.2073 118.249 22.3716 118.233 24.8094C118.233 27.4034 117.756 29.5912 116.803 31.3727C115.865 33.1541 114.451 34.0761 112.56 34.1386L117.178 38.8267C117.928 39.5612 118.303 40.53 118.303 41.7333C118.256 44.218 117.006 45.4603 114.553 45.4603H114.459C113.209 45.4603 111.982 44.8508 110.779 43.632L103.278 34.3261C102.012 32.9822 101.371 31.693 101.356 30.4585C101.356 27.9269 102.622 26.669 105.153 26.6846L107.802 26.6612C109.787 26.6924 110.763 26.0908 110.732 24.8563C110.732 23.6217 109.755 23.0045 107.802 23.0045H99.5275V41.7098C99.5432 44.2101 98.2852 45.4603 95.7536 45.4603C93.2533 45.4603 92.0032 44.2258 92.0032 41.7567V19.1837C92.0188 16.7303 93.269 15.4958 95.7536 15.4802Z" fill="url(#paint15_linear_353_1446)"/>
<defs>
<linearGradient id="paint0_linear_353_1446" x1="144.385" y1="15.5001" x2="144.385" y2="45.5002" gradientUnits="userSpaceOnUse">
<stop stop-color="#BF6EF0"/>
<stop offset="1" stop-color="#060672"/>
</linearGradient>
<linearGradient id="paint1_linear_353_1446" x1="144.385" y1="15.5001" x2="144.385" y2="45.5002" gradientUnits="userSpaceOnUse">
<stop stop-color="#BF6EF0"/>
<stop offset="1" stop-color="#060672"/>
</linearGradient>
<linearGradient id="paint2_linear_353_1446" x1="144.385" y1="15.5001" x2="144.385" y2="45.5002" gradientUnits="userSpaceOnUse">
<stop stop-color="#BF6EF0"/>
<stop offset="1" stop-color="#060672"/>
</linearGradient>
<linearGradient id="paint3_linear_353_1446" x1="144.385" y1="15.5001" x2="144.385" y2="45.5002" gradientUnits="userSpaceOnUse">
<stop stop-color="#BF6EF0"/>
<stop offset="1" stop-color="#060672"/>
</linearGradient>
<linearGradient id="paint4_linear_353_1446" x1="144.385" y1="15.5001" x2="144.385" y2="45.5002" gradientUnits="userSpaceOnUse">
<stop stop-color="#BF6EF0"/>
<stop offset="1" stop-color="#060672"/>
</linearGradient>
<linearGradient id="paint5_linear_353_1446" x1="144.385" y1="15.5001" x2="144.385" y2="45.5002" gradientUnits="userSpaceOnUse">
<stop stop-color="#BF6EF0"/>
<stop offset="1" stop-color="#060672"/>
</linearGradient>
<linearGradient id="paint6_linear_353_1446" x1="144.385" y1="15.5001" x2="144.385" y2="45.5002" gradientUnits="userSpaceOnUse">
<stop stop-color="#BF6EF0"/>
<stop offset="1" stop-color="#060672"/>
</linearGradient>
<linearGradient id="paint7_linear_353_1446" x1="144.385" y1="15.5001" x2="144.385" y2="45.5002" gradientUnits="userSpaceOnUse">
<stop stop-color="#BF6EF0"/>
<stop offset="1" stop-color="#060672"/>
</linearGradient>
<linearGradient id="paint8_linear_353_1446" x1="144.385" y1="15.5001" x2="144.385" y2="45.5002" gradientUnits="userSpaceOnUse">
<stop stop-color="#BF6EF0"/>
<stop offset="1" stop-color="#060672"/>
</linearGradient>
<linearGradient id="paint9_linear_353_1446" x1="144.385" y1="15.5001" x2="144.385" y2="45.5002" gradientUnits="userSpaceOnUse">
<stop stop-color="#BF6EF0"/>
<stop offset="1" stop-color="#060672"/>
</linearGradient>
<linearGradient id="paint10_linear_353_1446" x1="144.385" y1="15.5001" x2="144.385" y2="45.5002" gradientUnits="userSpaceOnUse">
<stop stop-color="#BF6EF0"/>
<stop offset="1" stop-color="#060672"/>
</linearGradient>
<linearGradient id="paint11_linear_353_1446" x1="144.385" y1="15.5001" x2="144.385" y2="45.5002" gradientUnits="userSpaceOnUse">
<stop stop-color="#BF6EF0"/>
<stop offset="1" stop-color="#060672"/>
</linearGradient>
<linearGradient id="paint12_linear_353_1446" x1="144.385" y1="15.5001" x2="144.385" y2="45.5002" gradientUnits="userSpaceOnUse">
<stop stop-color="#BF6EF0"/>
<stop offset="1" stop-color="#060672"/>
</linearGradient>
<linearGradient id="paint13_linear_353_1446" x1="144.385" y1="15.5001" x2="144.385" y2="45.5002" gradientUnits="userSpaceOnUse">
<stop stop-color="#BF6EF0"/>
<stop offset="1" stop-color="#060672"/>
</linearGradient>
<linearGradient id="paint14_linear_353_1446" x1="144.385" y1="15.5001" x2="144.385" y2="45.5002" gradientUnits="userSpaceOnUse">
<stop stop-color="#BF6EF0"/>
<stop offset="1" stop-color="#060672"/>
</linearGradient>
<linearGradient id="paint15_linear_353_1446" x1="144.385" y1="15.5001" x2="144.385" y2="45.5002" gradientUnits="userSpaceOnUse">
<stop stop-color="#BF6EF0"/>
<stop offset="1" stop-color="#060672"/>
</linearGradient>
</defs>
</svg>
