<svg width="750" height="531" viewBox="0 0 750 531" fill="none" xmlns="http://www.w3.org/2000/svg">
<g clip-path="url(#clip0_353_1447)">
<path d="M34.79 444.69C39.689 444.69 44.167 445.449 48.224 446.967C52.357 448.405 55.917 450.283 58.902 452.6C61.887 454.916 64.222 457.473 65.906 460.269C67.59 463.065 68.47 465.742 68.547 468.298C68.547 469.017 68.279 469.657 67.743 470.216C67.284 470.695 66.748 470.935 66.136 470.935H51.094C50.023 470.935 49.142 470.775 48.454 470.455C47.841 470.136 47.191 469.657 46.502 469.017C46.272 468.778 45.889 468.378 45.353 467.819C44.894 467.26 44.205 466.701 43.287 466.141C42.368 465.502 41.22 464.983 39.842 464.583C38.464 464.104 36.78 463.864 34.79 463.864C33.336 463.864 31.92 463.984 30.542 464.224C29.241 464.384 28.054 464.703 26.982 465.183C25.987 465.582 25.145 466.181 24.456 466.98C23.844 467.779 23.538 468.778 23.538 469.976C23.538 471.174 23.882 472.173 24.571 472.972C25.337 473.771 26.561 474.53 28.245 475.249C30.006 475.888 32.302 476.527 35.135 477.166C37.967 477.805 41.488 478.564 45.698 479.443C49.908 480.322 53.582 481.441 56.72 482.799C59.859 484.157 62.461 485.875 64.528 487.952C66.671 489.949 68.241 492.346 69.236 495.142C70.307 497.858 70.843 501.094 70.843 504.849C70.843 508.923 69.963 512.558 68.202 515.754C66.442 518.95 63.954 521.706 60.739 524.023C57.601 526.26 53.85 527.978 49.487 529.176C45.2 530.374 40.493 530.973 35.364 530.973C30.159 530.973 25.413 530.254 21.127 528.816C16.84 527.378 13.128 525.501 9.989 523.184C6.927 520.787 4.516 518.111 2.756 515.155C0.995 512.199 0.077 509.203 0 506.167C0 505.448 0.23 504.849 0.689 504.37C1.225 503.81 1.799 503.531 2.411 503.531H17.452C18.524 503.531 19.366 503.69 19.978 504.01C20.591 504.25 21.203 504.649 21.816 505.208C22.122 505.528 22.581 506.047 23.193 506.766C23.806 507.485 24.61 508.244 25.605 509.043C26.676 509.762 27.978 510.401 29.508 510.961C31.116 511.52 33.068 511.799 35.364 511.799C39.421 511.799 42.789 511.36 45.468 510.481C48.224 509.523 49.602 507.845 49.602 505.448C49.602 504.25 49.104 503.251 48.109 502.452C47.114 501.653 45.621 500.934 43.631 500.295C41.641 499.576 39.077 498.897 35.938 498.258C32.876 497.619 29.241 496.82 25.031 495.861C17.146 494.103 11.367 491.187 7.693 487.113C4.095 482.958 2.296 477.446 2.296 470.575C2.296 467.14 3.024 463.864 4.478 460.749C6.009 457.633 8.19 454.877 11.023 452.48C13.855 450.083 17.261 448.206 21.241 446.847C25.298 445.409 29.815 444.69 34.79 444.69Z" fill="black"/>
<path d="M147.178 445.889C148.02 445.889 148.747 446.208 149.359 446.847C149.972 447.487 150.278 448.245 150.278 449.124V526.539C150.278 527.418 149.972 528.177 149.359 528.816C148.747 529.456 148.02 529.775 147.178 529.775H132.137C131.295 529.775 130.567 529.456 129.955 528.816C129.343 528.177 129.036 527.418 129.036 526.539V497.179H103.547V526.539C103.547 527.418 103.241 528.177 102.628 528.816C102.016 529.456 101.289 529.775 100.447 529.775H85.4047C84.5627 529.775 83.8357 529.495 83.2237 528.936C82.6107 528.297 82.3047 527.498 82.3047 526.539V449.124C82.3047 448.245 82.6107 447.487 83.2237 446.847C83.8357 446.208 84.5627 445.889 85.4047 445.889H100.447C101.289 445.889 102.016 446.208 102.628 446.847C103.241 447.487 103.547 448.245 103.547 449.124V478.005H129.036V449.124C129.036 448.245 129.343 447.487 129.955 446.847C130.567 446.208 131.295 445.889 132.137 445.889H147.178Z" fill="black"/>
<path d="M163.759 477.166C163.989 472.692 164.907 468.498 166.515 464.583C168.199 460.589 170.533 457.153 173.519 454.277C176.581 451.321 180.255 449.004 184.541 447.327C188.904 445.569 193.918 444.69 199.583 444.69C205.17 444.69 210.146 445.569 214.509 447.327C218.872 449.004 222.546 451.321 225.532 454.277C228.593 457.153 230.928 460.589 232.536 464.583C234.22 468.498 235.176 472.692 235.406 477.166C235.559 480.602 235.636 484.197 235.636 487.952C235.636 491.707 235.559 495.222 235.406 498.497C235.176 502.971 234.22 507.206 232.536 511.2C230.928 515.115 228.593 518.55 225.532 521.506C222.546 524.462 218.872 526.779 214.509 528.457C210.146 530.135 205.17 530.973 199.583 530.973C193.918 530.973 188.904 530.135 184.541 528.457C180.255 526.779 176.581 524.462 173.519 521.506C170.533 518.55 168.199 515.115 166.515 511.2C164.907 507.206 163.989 502.971 163.759 498.497C163.606 495.222 163.529 491.707 163.529 487.952C163.529 484.197 163.606 480.602 163.759 477.166ZM214.165 497.898C214.241 496.46 214.318 494.862 214.394 493.105C214.471 491.347 214.509 489.55 214.509 487.712C214.509 485.875 214.471 484.117 214.394 482.439C214.318 480.682 214.241 479.124 214.165 477.766C214.011 475.768 213.59 473.931 212.902 472.253C212.289 470.575 211.371 469.137 210.146 467.939C208.998 466.661 207.543 465.662 205.783 464.943C204.022 464.224 201.955 463.864 199.583 463.864C197.21 463.864 195.143 464.224 193.382 464.943C191.622 465.662 190.129 466.661 188.904 467.939C187.756 469.137 186.838 470.575 186.149 472.253C185.536 473.931 185.154 475.768 185.001 477.766C184.847 479.124 184.733 480.682 184.656 482.439V493.105C184.733 494.862 184.847 496.46 185.001 497.898C185.307 501.893 186.608 505.208 188.904 507.845C191.277 510.481 194.837 511.799 199.583 511.799C204.328 511.799 207.849 510.481 210.146 507.845C212.442 505.208 213.782 501.893 214.165 497.898Z" fill="black"/>
<path d="M283.03 445.889C288.082 445.889 292.598 446.448 296.578 447.566C300.559 448.685 303.927 450.363 306.682 452.6C309.515 454.837 311.658 457.713 313.112 461.228C314.643 464.663 315.409 468.698 315.409 473.332C315.409 479.323 314.222 484.317 311.849 488.311C309.476 492.226 306.108 495.222 301.745 497.299L315.983 525.82C316.212 526.3 316.327 526.739 316.327 527.139C316.327 527.858 316.059 528.497 315.523 529.056C315.064 529.535 314.49 529.775 313.801 529.775H298.186C296.655 529.775 295.545 529.416 294.856 528.697C294.244 527.978 293.746 527.259 293.363 526.539L280.618 500.894H270.055V526.539C270.055 527.418 269.749 528.177 269.137 528.816C268.524 529.456 267.797 529.775 266.955 529.775H251.914C251.072 529.775 250.345 529.456 249.732 528.816C249.12 528.177 248.814 527.418 248.814 526.539V449.124C248.814 448.245 249.12 447.487 249.732 446.847C250.345 446.208 251.072 445.889 251.914 445.889H283.03ZM270.055 482.2H283.03C286.245 482.2 288.885 481.56 290.952 480.282C293.095 479.004 294.167 476.687 294.167 473.332C294.167 469.976 293.095 467.659 290.952 466.381C288.885 465.103 286.245 464.464 283.03 464.464H270.055V482.2Z" fill="black"/>
<path d="M386.994 445.889C387.836 445.889 388.563 446.208 389.175 446.847C389.788 447.487 390.094 448.245 390.094 449.124V461.827C390.094 462.706 389.788 463.465 389.175 464.104C388.563 464.743 387.836 465.063 386.994 465.063H366.786V526.539C366.786 527.418 366.479 528.177 365.867 528.816C365.255 529.456 364.527 529.775 363.685 529.775H348.644C347.802 529.775 347.075 529.456 346.463 528.816C345.85 528.177 345.544 527.418 345.544 526.539V465.063H325.336C324.494 465.063 323.767 464.743 323.154 464.104C322.542 463.465 322.236 462.706 322.236 461.827V449.124C322.236 448.245 322.542 447.487 323.154 446.847C323.767 446.208 324.494 445.889 325.336 445.889H386.994Z" fill="black"/>
<path d="M465.283 445.889C466.125 445.889 466.852 446.208 467.464 446.847C468.077 447.487 468.383 448.245 468.383 449.124V526.539C468.383 527.418 468.077 528.177 467.464 528.816C466.852 529.456 466.125 529.775 465.283 529.775H450.242C449.4 529.775 448.672 529.456 448.06 528.816C447.448 528.177 447.141 527.418 447.141 526.539V497.179H421.652V526.539C421.652 527.418 421.346 528.177 420.733 528.816C420.121 529.456 419.394 529.775 418.552 529.775H403.51C402.668 529.775 401.941 529.495 401.329 528.936C400.716 528.297 400.41 527.498 400.41 526.539V449.124C400.41 448.245 400.716 447.487 401.329 446.847C401.941 446.208 402.668 445.889 403.51 445.889H418.552C419.394 445.889 420.121 446.208 420.733 446.847C421.346 447.487 421.652 448.245 421.652 449.124V478.005H447.141V449.124C447.141 448.245 447.448 447.487 448.06 446.847C448.672 446.208 449.4 445.889 450.242 445.889H465.283Z" fill="black"/>
<path d="M526.989 445.889C528.52 445.889 529.668 446.328 530.433 447.207C531.275 448.086 531.85 448.965 532.156 449.843L557.186 525.341C557.492 526.14 557.645 526.739 557.645 527.139C557.645 527.858 557.378 528.497 556.842 529.056C556.382 529.535 555.808 529.775 555.119 529.775H540.652C539.121 529.775 538.011 529.456 537.323 528.816C536.71 528.097 536.327 527.418 536.174 526.779L532.959 516.833H502.418L499.203 526.779C499.05 527.418 498.629 528.097 497.94 528.816C497.327 529.456 496.256 529.775 494.725 529.775H480.258C479.569 529.775 478.956 529.535 478.421 529.056C477.961 528.497 477.732 527.858 477.732 527.139C477.732 526.739 477.885 526.14 478.191 525.341L503.221 449.843C503.528 448.965 504.063 448.086 504.829 447.207C505.671 446.328 506.857 445.889 508.388 445.889H526.989ZM508.388 498.258H526.989L517.689 469.497L508.388 498.258Z" fill="black"/>
<path d="M570.022 529.775C569.18 529.775 568.453 529.456 567.84 528.816C567.228 528.177 566.922 527.418 566.922 526.539V449.124C566.922 448.245 567.228 447.487 567.84 446.847C568.453 446.208 569.18 445.889 570.022 445.889H585.063C585.905 445.889 586.632 446.208 587.245 446.847C587.857 447.487 588.163 448.245 588.163 449.124V526.539C588.163 527.418 587.857 528.177 587.245 528.816C586.632 529.456 585.905 529.775 585.063 529.775H570.022Z" fill="black"/>
<path d="M638.476 445.889C643.528 445.889 648.044 446.448 652.025 447.566C656.005 448.685 659.373 450.363 662.129 452.6C664.961 454.837 667.104 457.713 668.559 461.228C670.09 464.663 670.855 468.698 670.855 473.332C670.855 479.323 669.669 484.317 667.296 488.311C664.923 492.226 661.555 495.222 657.192 497.299L671.429 525.82C671.659 526.3 671.774 526.739 671.774 527.139C671.774 527.858 671.506 528.497 670.97 529.056C670.511 529.535 669.936 529.775 669.248 529.775H653.632C652.101 529.775 650.991 529.416 650.302 528.697C649.69 527.978 649.193 527.259 648.81 526.539L636.065 500.894H625.502V526.539C625.502 527.418 625.196 528.177 624.583 528.816C623.971 529.456 623.244 529.775 622.402 529.775H607.36C606.518 529.775 605.791 529.456 605.179 528.816C604.566 528.177 604.26 527.418 604.26 526.539V449.124C604.26 448.245 604.566 447.487 605.179 446.847C605.791 446.208 606.518 445.889 607.36 445.889H638.476ZM625.502 482.2H638.476C641.691 482.2 644.332 481.56 646.399 480.282C648.542 479.004 649.614 476.687 649.614 473.332C649.614 469.976 648.542 467.659 646.399 466.381C644.332 465.103 641.691 464.464 638.476 464.464H625.502V482.2Z" fill="black"/>
<path d="M713.946 444.69C718.845 444.69 723.323 445.449 727.38 446.967C731.513 448.405 735.073 450.283 738.058 452.6C741.043 454.916 743.378 457.473 745.062 460.269C746.746 463.065 747.626 465.742 747.703 468.298C747.703 469.017 747.435 469.657 746.899 470.216C746.44 470.695 745.904 470.935 745.291 470.935H730.25C729.179 470.935 728.298 470.775 727.609 470.455C726.997 470.136 726.346 469.657 725.657 469.017C725.428 468.778 725.045 468.378 724.509 467.819C724.05 467.26 723.361 466.701 722.443 466.141C721.524 465.502 720.376 464.983 718.998 464.583C717.62 464.104 715.936 463.864 713.946 463.864C712.492 463.864 711.075 463.984 709.698 464.224C708.396 464.384 707.21 464.703 706.138 465.183C705.143 465.582 704.301 466.181 703.612 466.98C703 467.779 702.694 468.778 702.694 469.976C702.694 471.174 703.038 472.173 703.727 472.972C704.493 473.771 705.717 474.53 707.401 475.249C709.162 475.888 711.458 476.527 714.29 477.166C717.123 477.805 720.644 478.564 724.854 479.443C729.064 480.322 732.738 481.441 735.876 482.799C739.015 484.157 741.617 485.875 743.684 487.952C745.827 489.949 747.396 492.346 748.392 495.142C749.463 497.858 749.999 501.094 749.999 504.849C749.999 508.923 749.119 512.558 747.358 515.754C745.598 518.95 743.11 521.706 739.895 524.023C736.757 526.26 733.006 527.978 728.643 529.176C724.356 530.374 719.649 530.973 714.52 530.973C709.315 530.973 704.569 530.254 700.282 528.816C695.996 527.378 692.283 525.501 689.145 523.184C686.083 520.787 683.672 518.111 681.912 515.155C680.151 512.199 679.232 509.203 679.156 506.167C679.156 505.448 679.386 504.849 679.845 504.37C680.381 503.81 680.955 503.531 681.567 503.531H696.608C697.68 503.531 698.522 503.69 699.134 504.01C699.747 504.25 700.359 504.649 700.971 505.208C701.278 505.528 701.737 506.047 702.349 506.766C702.962 507.485 703.765 508.244 704.76 509.043C705.832 509.762 707.133 510.401 708.664 510.961C710.272 511.52 712.224 511.799 714.52 511.799C718.577 511.799 721.945 511.36 724.624 510.481C727.38 509.523 728.758 507.845 728.758 505.448C728.758 504.25 728.26 503.251 727.265 502.452C726.27 501.653 724.777 500.934 722.787 500.295C720.797 499.576 718.233 498.897 715.094 498.258C712.032 497.619 708.396 496.82 704.186 495.861C696.302 494.103 690.523 491.187 686.849 487.113C683.251 482.958 681.452 477.446 681.452 470.575C681.452 467.14 682.179 463.864 683.634 460.749C685.165 457.633 687.346 454.877 690.178 452.48C693.011 450.083 696.417 448.206 700.397 446.847C704.454 445.409 708.97 444.69 713.946 444.69Z" fill="black"/>
<path d="M20.0806 375C18.0896 375 16.2756 375.266 14.6386 375.797C13.0456 376.283 11.6516 377.102 10.4566 378.252C9.30656 379.359 8.37656 380.797 7.66956 382.566C7.00556 384.336 6.62956 386.46 6.54056 388.938C6.40756 392.92 6.40756 396.903 6.54056 400.885C6.62956 403.363 7.00556 405.487 7.66956 407.257C8.37656 409.027 9.30656 410.487 10.4566 411.637C11.6516 412.743 13.0456 413.562 14.6386 414.093C16.2756 414.58 18.0896 414.823 20.0806 414.823C22.0276 414.823 23.8416 414.558 25.5226 414.027C27.2046 413.451 28.6426 412.611 29.8376 411.505C31.0766 410.354 32.0496 408.894 32.7576 407.124C33.4656 405.354 33.8196 403.274 33.8196 400.885V397.5H22.2706C21.2976 397.5 20.8106 396.991 20.8106 395.974V395.044C20.8106 394.027 21.2976 393.518 22.2706 393.518H36.4746C37.4926 393.518 38.0006 394.027 38.0006 395.044V400.885C38.0006 403.54 37.6026 405.974 36.8066 408.186C36.0096 410.354 34.8376 412.235 33.2886 413.828C31.7846 415.42 29.9036 416.659 27.6466 417.544C25.4346 418.385 22.9126 418.805 20.0806 418.805C17.2046 418.805 14.6826 418.385 12.5146 417.544C10.3466 416.659 8.50956 415.443 7.00556 413.894C5.54556 412.345 4.41656 410.509 3.62056 408.385C2.86856 406.217 2.44756 403.828 2.35956 401.217C2.27056 399.226 2.22656 397.124 2.22656 394.912C2.22656 392.699 2.27056 390.597 2.35956 388.606C2.44756 385.996 2.89056 383.628 3.68656 381.505C4.48356 379.336 5.61156 377.478 7.07156 375.929C8.57656 374.381 10.4126 373.186 12.5806 372.345C14.7486 371.46 17.2486 371.018 20.0806 371.018C23.1336 371.018 25.7446 371.482 27.9126 372.412C30.0806 373.341 31.8506 374.447 33.2226 375.73C34.5936 377.013 35.6116 378.363 36.2756 379.779C36.9386 381.195 37.2926 382.367 37.3376 383.297C37.3816 383.695 37.2706 384.027 37.0056 384.292C36.7396 384.513 36.3856 384.624 35.9436 384.624H34.4836C34.0856 384.624 33.7976 384.536 33.6206 384.359C33.4436 384.137 33.2666 383.783 33.0896 383.297C32.7356 382.279 32.2266 381.283 31.5626 380.31C30.9436 379.292 30.1026 378.407 29.0406 377.655C27.9786 376.859 26.7176 376.217 25.2576 375.73C23.7976 375.243 22.0716 375 20.0806 375Z" fill="black"/>
<path d="M91.7004 371.682C96.3464 371.682 100.041 372.788 102.784 375C105.572 377.213 106.966 380.575 106.966 385.089C106.966 388.673 106.081 391.527 104.311 393.651C102.585 395.73 100.129 397.146 96.9444 397.898L107.629 416.084C107.762 416.35 107.829 416.593 107.829 416.814C107.829 417.168 107.696 417.478 107.43 417.743C107.165 418.009 106.855 418.142 106.501 418.142H105.705C104.952 418.142 104.399 417.965 104.045 417.611C103.736 417.257 103.448 416.836 103.183 416.35L92.6294 398.496H78.9574V416.682C78.9574 417.655 78.4484 418.142 77.4304 418.142H76.2364C75.2624 418.142 74.7754 417.655 74.7754 416.682V373.208C74.7754 372.19 75.2624 371.682 76.2364 371.682H91.7004ZM78.9574 394.513H91.3684C98.9794 394.513 102.784 391.372 102.784 385.089C102.784 378.805 98.9794 375.664 91.3684 375.664H78.9574V394.513Z" fill="black"/>
<path d="M159.509 371.018C162.075 371.018 164.42 371.394 166.544 372.146C168.668 372.898 170.482 374.049 171.987 375.597C173.535 377.102 174.73 379.005 175.571 381.305C176.456 383.562 176.942 386.239 177.031 389.336C177.119 391.328 177.164 393.186 177.164 394.912C177.164 396.637 177.119 398.496 177.031 400.487C176.854 406.77 175.261 411.394 172.252 414.359C169.243 417.323 164.995 418.805 159.509 418.805C153.978 418.805 149.708 417.323 146.699 414.359C143.734 411.394 142.164 406.77 141.987 400.487C141.898 398.496 141.854 396.637 141.854 394.912C141.854 393.186 141.898 391.328 141.987 389.336C142.075 386.239 142.54 383.562 143.38 381.305C144.265 379.005 145.46 377.102 146.965 375.597C148.513 374.049 150.327 372.898 152.407 372.146C154.531 371.394 156.898 371.018 159.509 371.018ZM159.509 375C157.65 375 155.925 375.288 154.332 375.863C152.739 376.394 151.345 377.257 150.15 378.451C148.956 379.646 148.004 381.173 147.296 383.031C146.633 384.89 146.257 387.102 146.168 389.668C146.124 390.686 146.08 391.615 146.035 392.456V397.434C146.08 398.274 146.124 399.182 146.168 400.155C146.257 402.766 146.633 405 147.296 406.859C148.004 408.673 148.934 410.177 150.084 411.372C151.279 412.566 152.672 413.451 154.265 414.027C155.858 414.558 157.606 414.823 159.509 414.823C161.411 414.823 163.159 414.558 164.752 414.027C166.345 413.451 167.717 412.566 168.867 411.372C170.062 410.177 170.991 408.673 171.655 406.859C172.363 405 172.761 402.766 172.849 400.155C172.894 399.182 172.916 398.274 172.916 397.434V392.456C172.916 391.615 172.894 390.686 172.849 389.668C172.761 387.102 172.363 384.89 171.655 383.031C170.991 381.173 170.062 379.646 168.867 378.451C167.672 377.257 166.279 376.394 164.686 375.863C163.093 375.288 161.367 375 159.509 375Z" fill="black"/>
<path d="M243.873 373.208C243.873 372.19 244.382 371.682 245.4 371.682H246.595C247.568 371.682 248.055 372.19 248.055 373.208V400.155C248.055 406.615 246.573 411.35 243.608 414.359C240.643 417.323 236.44 418.805 230.997 418.805C228.298 418.805 225.887 418.451 223.763 417.743C221.639 416.991 219.847 415.863 218.387 414.359C216.927 412.81 215.798 410.863 215.002 408.518C214.25 406.173 213.873 403.385 213.873 400.155V373.208C213.873 372.19 214.36 371.682 215.334 371.682H216.528C217.546 371.682 218.055 372.19 218.055 373.208V400.354C218.055 405.354 219.205 409.027 221.506 411.372C223.851 413.673 227.015 414.823 230.997 414.823C234.98 414.823 238.121 413.673 240.422 411.372C242.723 409.027 243.873 405.354 243.873 400.354V373.208Z" fill="black"/>
<path d="M300.317 371.018C302.928 371.018 305.207 371.394 307.154 372.146C309.101 372.854 310.716 373.783 311.999 374.934C313.282 376.04 314.255 377.279 314.919 378.651C315.583 380.022 315.937 381.35 315.981 382.633C315.981 382.987 315.87 383.297 315.649 383.562C315.428 383.828 315.074 383.96 314.587 383.96H313.26C313.039 383.96 312.751 383.872 312.397 383.695C312.087 383.518 311.888 383.164 311.8 382.633C311.534 380.42 310.362 378.606 308.282 377.19C306.247 375.73 303.592 375 300.317 375C298.68 375 297.176 375.155 295.804 375.465C294.432 375.774 293.26 376.261 292.286 376.925C291.313 377.589 290.539 378.429 289.963 379.447C289.432 380.42 289.167 381.593 289.167 382.965C289.167 384.292 289.41 385.42 289.897 386.35C290.428 387.279 291.247 388.12 292.353 388.872C293.459 389.624 294.853 390.332 296.534 390.996C298.216 391.659 300.251 392.367 302.64 393.12C305.118 393.916 307.264 394.713 309.078 395.509C310.937 396.261 312.463 397.124 313.658 398.097C314.897 399.071 315.804 400.199 316.379 401.482C316.999 402.766 317.308 404.314 317.308 406.128C317.308 410.155 315.826 413.274 312.862 415.487C309.897 417.699 305.826 418.805 300.649 418.805C297.95 418.805 295.561 418.474 293.481 417.81C291.401 417.102 289.631 416.195 288.171 415.089C286.755 413.982 285.649 412.721 284.853 411.305C284.1 409.845 283.702 408.363 283.658 406.859C283.658 406.505 283.791 406.195 284.056 405.929C284.322 405.664 284.654 405.531 285.052 405.531H286.379C286.822 405.531 287.154 405.664 287.375 405.929C287.596 406.195 287.751 406.505 287.839 406.859C287.972 407.788 288.304 408.739 288.835 409.713C289.366 410.642 290.14 411.482 291.158 412.235C292.22 412.987 293.525 413.606 295.074 414.093C296.623 414.58 298.481 414.823 300.649 414.823C304.985 414.823 308.149 414.049 310.14 412.5C312.131 410.907 313.127 408.783 313.127 406.128C313.127 404.801 312.839 403.695 312.264 402.81C311.689 401.881 310.804 401.062 309.609 400.354C308.415 399.602 306.91 398.894 305.096 398.23C303.282 397.566 301.136 396.836 298.658 396.04C296.269 395.288 294.211 394.536 292.485 393.783C290.804 392.987 289.388 392.102 288.238 391.128C287.131 390.111 286.313 388.96 285.782 387.677C285.251 386.35 284.985 384.779 284.985 382.965C284.985 381.283 285.317 379.713 285.981 378.252C286.689 376.792 287.685 375.531 288.968 374.469C290.251 373.407 291.844 372.566 293.747 371.947C295.649 371.328 297.839 371.018 300.317 371.018Z" fill="black"/>
<path d="M381.321 414.159C382.339 414.159 382.847 414.668 382.847 415.686V416.682C382.847 417.655 382.339 418.142 381.321 418.142H354.905C353.931 418.142 353.445 417.655 353.445 416.682V373.208C353.445 372.19 353.931 371.682 354.905 371.682H380.79C381.808 371.682 382.316 372.19 382.316 373.208V374.204C382.316 375.177 381.808 375.664 380.79 375.664H357.626V392.589H379.33C380.347 392.589 380.856 393.097 380.856 394.115V395.111C380.856 396.084 380.347 396.571 379.33 396.571H357.626V414.159H381.321Z" fill="black"/>
<path d="M488.595 371.682C489.612 371.682 490.121 372.19 490.121 373.208V374.204C490.121 375.177 489.612 375.664 488.595 375.664H475.519V416.682C475.519 417.655 475.011 418.142 473.993 418.142H472.798C471.825 418.142 471.338 417.655 471.338 416.682V375.664H458.196C457.223 375.664 456.736 375.177 456.736 374.204V373.208C456.736 372.19 457.223 371.682 458.196 371.682H488.595Z" fill="black"/>
<path d="M546.765 406.527H523.269L519.154 417.146C519.066 417.323 518.911 417.544 518.69 417.81C518.468 418.031 518.136 418.142 517.694 418.142H516.367C516.013 418.142 515.703 418.009 515.437 417.743C515.172 417.478 515.039 417.168 515.039 416.814C515.039 416.593 515.083 416.35 515.172 416.084L531.964 373.009C532.141 372.566 532.362 372.235 532.628 372.013C532.937 371.792 533.358 371.682 533.889 371.682H536.145C536.676 371.682 537.074 371.792 537.34 372.013C537.65 372.235 537.893 372.566 538.07 373.009L554.862 416.084C554.951 416.35 554.995 416.593 554.995 416.814C554.995 417.168 554.862 417.478 554.597 417.743C554.331 418.009 554.021 418.142 553.667 418.142H552.34C551.897 418.142 551.566 418.031 551.344 417.81C551.123 417.544 550.968 417.323 550.88 417.146L546.765 406.527ZM524.862 402.544H545.172L535.017 376.394L524.862 402.544Z" fill="black"/>
<path d="M593.584 414.159H616.482C617.5 414.159 618.008 414.668 618.008 415.686V416.682C618.008 417.655 617.5 418.142 616.482 418.142H590.862C589.889 418.142 589.402 417.655 589.402 416.682V373.142C589.402 372.168 589.889 371.682 590.862 371.682H592.124C593.097 371.682 593.584 372.168 593.584 373.142V414.159Z" fill="black"/>
<path d="M680.189 414.159C681.207 414.159 681.715 414.668 681.715 415.686V416.682C681.715 417.655 681.207 418.142 680.189 418.142H653.773C652.8 418.142 652.312 417.655 652.312 416.682V373.208C652.312 372.19 652.8 371.682 653.773 371.682H679.658C680.676 371.682 681.184 372.19 681.184 373.208V374.204C681.184 375.177 680.676 375.664 679.658 375.664H656.494V392.589H678.198C679.215 392.589 679.724 393.097 679.724 394.115V395.111C679.724 396.084 679.215 396.571 678.198 396.571H656.494V414.159H680.189Z" fill="black"/>
<path d="M731.747 371.018C734.358 371.018 736.637 371.394 738.583 372.146C740.53 372.854 742.145 373.783 743.429 374.934C744.712 376.04 745.685 377.279 746.349 378.651C747.013 380.022 747.367 381.35 747.411 382.633C747.411 382.987 747.3 383.297 747.079 383.562C746.858 383.828 746.504 383.96 746.017 383.96H744.69C744.468 383.96 744.181 383.872 743.827 383.695C743.517 383.518 743.318 383.164 743.23 382.633C742.964 380.42 741.791 378.606 739.712 377.19C737.676 375.73 735.022 375 731.747 375C730.11 375 728.606 375.155 727.234 375.465C725.862 375.774 724.69 376.261 723.716 376.925C722.743 377.589 721.968 378.429 721.393 379.447C720.862 380.42 720.597 381.593 720.597 382.965C720.597 384.292 720.84 385.42 721.327 386.35C721.858 387.279 722.676 388.12 723.783 388.872C724.889 389.624 726.283 390.332 727.964 390.996C729.645 391.659 731.681 392.367 734.07 393.12C736.548 393.916 738.694 394.713 740.508 395.509C742.367 396.261 743.893 397.124 745.088 398.097C746.327 399.071 747.234 400.199 747.809 401.482C748.429 402.766 748.738 404.314 748.738 406.128C748.738 410.155 747.256 413.274 744.291 415.487C741.327 417.699 737.256 418.805 732.079 418.805C729.38 418.805 726.991 418.474 724.911 417.81C722.831 417.102 721.061 416.195 719.601 415.089C718.185 413.982 717.079 412.721 716.283 411.305C715.53 409.845 715.132 408.363 715.088 406.859C715.088 406.505 715.221 406.195 715.486 405.929C715.752 405.664 716.084 405.531 716.482 405.531H717.809C718.252 405.531 718.584 405.664 718.805 405.929C719.026 406.195 719.181 406.505 719.269 406.859C719.402 407.788 719.734 408.739 720.265 409.713C720.796 410.642 721.57 411.482 722.588 412.235C723.65 412.987 724.955 413.606 726.504 414.093C728.053 414.58 729.911 414.823 732.079 414.823C736.415 414.823 739.579 414.049 741.57 412.5C743.561 410.907 744.557 408.783 744.557 406.128C744.557 404.801 744.269 403.695 743.694 402.81C743.119 401.881 742.234 401.062 741.039 400.354C739.845 399.602 738.34 398.894 736.526 398.23C734.712 397.566 732.566 396.836 730.088 396.04C727.699 395.288 725.641 394.536 723.915 393.783C722.234 392.987 720.818 392.102 719.668 391.128C718.561 390.111 717.743 388.96 717.212 387.677C716.681 386.35 716.415 384.779 716.415 382.965C716.415 381.283 716.747 379.713 717.411 378.252C718.119 376.792 719.114 375.531 720.398 374.469C721.681 373.407 723.274 372.566 725.176 371.947C727.079 371.328 729.269 371.018 731.747 371.018Z" fill="black"/>
<path d="M190.936 79.1721C183.247 61.9051 181.448 52.3161 177.806 21.5811C177.396 18.1151 177.066 15.7151 176.736 13.8391C175.544 7.9931 177.831 2.9841 182.729 0.911096C186.098 -0.515904 190.277 -0.219904 193.168 1.4721C194.774 2.4131 195.399 3.3371 196.042 4.7011C196.252 5.1461 196.431 5.6101 196.615 6.1511C196.873 6.9101 197.156 7.8711 197.517 9.1921C197.873 10.4971 199.529 16.8281 199.937 18.3551C202.631 28.4491 205.174 36.8001 208.237 44.9451C215.308 63.7541 223.467 76.1751 231.966 79.7111C266.5 94.0771 283.133 95.1051 381.443 90.1151C410.888 90.1151 445.243 88.9931 460.15 86.8631C474.453 84.8201 502.222 72.9361 524.046 61.1931C543.778 49.3541 571.515 47.6641 591.437 65.0981C592.78 66.2151 597.015 71.0311 598.104 72.0371C600.307 74.0721 602.721 75.5581 605.887 76.6141C605.687 76.5471 621.413 78.2711 630.62 79.2381C636.699 79.8761 640.842 85.8271 639.035 91.7781C632.534 113.184 617.508 129.938 597.151 129.938H527.995C507.609 133.438 475.638 162.14 450.258 212.877C443.699 224.355 434.265 254.924 427.837 293.48L421.921 335.196C421.34 339.287 417.838 342.327 413.707 342.327H396.49C391.721 342.327 387.895 338.324 388.209 333.514C391.115 288.889 392.093 243.924 389.649 229.331C358.287 227.452 319.424 209.886 293.439 177.399C289.872 173.237 275.275 179.223 254.308 195.792C236.162 210.132 214.608 231.13 196.832 250.921C196.609 251.132 196.609 251.132 196.385 251.341C173.61 272.679 167.97 279.327 155.752 304.414C152.225 311.595 149.401 323.735 147.616 335.281C146.99 339.332 143.505 342.327 139.4 342.327H127.765C122.821 342.327 118.974 338.029 119.52 333.114L129.208 245.92C129.602 242.373 132.504 239.609 136.111 239.433C157.372 238.418 171.232 226.554 179.126 185.112C187.857 139.277 193.323 124.204 207.421 105.594C200.619 97.5341 195.187 88.7191 190.936 79.1721Z" fill="white"/>
<path fill-rule="evenodd" clip-rule="evenodd" d="M190.936 79.1721C183.247 61.9051 181.448 52.3161 177.806 21.5811C177.396 18.1151 177.066 15.7151 176.736 13.8391C175.544 7.9931 177.831 2.9841 182.729 0.911096C186.098 -0.515904 190.277 -0.219904 193.168 1.4721C194.774 2.4131 195.399 3.3371 196.042 4.7011C196.252 5.1461 196.431 5.6101 196.615 6.1511C196.873 6.9101 197.156 7.8711 197.517 9.1921C197.726 9.95627 198.38 12.4438 198.969 14.681L198.972 14.6929C199.387 16.2716 199.769 17.7238 199.937 18.3551C202.631 28.4491 205.174 36.8001 208.237 44.9451C215.308 63.7541 223.467 76.1751 231.966 79.7111C266.5 94.0771 283.133 95.1051 381.443 90.1151C410.888 90.1151 445.243 88.9931 460.15 86.8631C474.453 84.8201 502.222 72.9361 524.046 61.1931C543.778 49.3541 571.515 47.6641 591.437 65.0981C592.221 65.7494 593.987 67.6583 595.539 69.3362L595.54 69.3373C596.65 70.5366 597.651 71.6178 598.104 72.0371C600.307 74.0721 602.721 75.5581 605.887 76.6141C605.771 76.5751 611.063 77.1442 617.322 77.8174L617.336 77.8189C621.813 78.3005 626.783 78.8351 630.62 79.2381C636.699 79.8761 640.842 85.8271 639.035 91.7781C632.534 113.184 617.508 129.938 597.151 129.938H580.708C577.147 139.643 570.67 145.963 560.648 145.963C550.626 145.963 544.149 139.643 540.587 129.938H527.995C509.568 133.102 481.676 156.856 457.742 198.863C463.796 203.489 468.453 207.818 472.892 213.005C484.625 226.719 488.739 241.721 482.772 257.794C474.941 278.887 466.621 286.388 456.638 286.388C450.427 286.388 448.718 282.747 446.641 274.428C445.823 271.15 445.176 267.48 444.692 264.022C444.426 262.111 444.732 260.203 445.51 258.482C447.165 254.816 448.887 249.883 450.155 244.105C450.75 241.393 448.344 237.703 442.108 232.857C437.139 248.033 431.891 269.169 427.837 293.48L421.921 335.196C421.34 339.287 417.838 342.327 413.707 342.327H396.49C391.721 342.327 387.895 338.324 388.209 333.514C391.115 288.889 392.093 243.924 389.649 229.331C358.455 227.462 319.839 210.073 293.856 177.917C294.59 204.688 263.119 244.429 221.815 280.66L215.64 334.417C215.158 338.604 211.614 341.766 207.398 341.766H194.102C189.222 341.766 185.395 337.575 185.84 332.715L192.258 262.4C192.505 259.669 194.192 257.314 196.626 256.167C204.074 252.669 209.409 244.505 212.638 234.039C207.176 239.644 201.853 245.331 196.832 250.921L196.829 250.924C196.609 251.132 196.608 251.133 196.385 251.341C173.61 272.679 167.97 279.327 155.752 304.414C152.225 311.595 149.401 323.735 147.616 335.281C146.99 339.332 143.505 342.327 139.4 342.327H127.765C122.821 342.327 118.974 338.029 119.52 333.114L129.208 245.92C129.602 242.373 132.504 239.609 136.111 239.433C157.372 238.418 171.232 226.554 179.126 185.112C187.857 139.277 193.323 124.204 207.421 105.594C200.619 97.5341 195.187 88.7191 190.936 79.1721ZM462.027 100.004C468.914 99.0204 477.999 96.2694 487.96 92.4716C489.764 94.9058 492.862 98.1073 498.058 102.27C507.214 109.604 513.501 115.443 517.297 119.204C493.138 128.27 462.57 158.593 438.559 206.615C431.281 219.332 421.408 251.323 414.719 291.457L409.385 329.053H401.794C404.911 278.862 405.567 233.213 401.35 221.53C400.163 218.246 397.121 216.272 393.83 216.213C365.57 215.707 328.252 199.672 303.661 168.933C292.61 156.035 273.069 164.047 246.077 185.377C227.263 200.245 205.191 221.749 187.341 241.657C187.43 241.557 187.476 241.507 187.473 241.505C187.471 241.502 187.418 241.552 187.311 241.653L187.309 241.654C163.446 264.011 156.914 271.71 143.827 298.582C139.986 306.405 137.162 317.597 135.184 329.053H133.327L141.86 252.258C166.471 249.192 183.691 232.087 192.166 187.595C201.199 140.172 206.005 128.482 221.236 109.466C223.3 106.889 223.156 103.187 220.898 100.778C213.334 92.7091 207.489 83.7151 203.062 73.7721C198.787 64.1711 196.517 57.1331 194.591 46.2901C194.989 47.4031 195.396 48.5111 195.811 49.6171C204.099 71.6591 213.893 86.5691 226.867 91.9671C263.84 107.348 281.858 108.461 381.78 103.381C411.545 103.389 446.271 102.255 462.027 100.004Z" fill="black"/>
</g>
<defs>
<clipPath id="clip0_353_1447">
<rect width="750" height="531" fill="white"/>
</clipPath>
</defs>
</svg>
