<svg width="280" height="81" viewBox="0 0 280 81" fill="none" xmlns="http://www.w3.org/2000/svg">
<path d="M11.3428 9.95C11.3428 3.9 11.9928 2.55 16.2928 2.4V0.5H1.09277V2.4C5.39277 2.6 6.09277 3.95 6.09277 9.6V29.9C6.09277 36.1 5.29277 36.95 0.592773 37.1V39H16.7928V37.1C12.0928 36.95 11.3428 36.15 11.3428 29.55V9.95Z" fill="#333333"/>
<path d="M54.9576 39.5C58.5076 39.5 61.6576 38.6 63.9576 37.3C67.7576 35.15 69.0576 34.85 71.6076 34.85V29.25C71.6076 25.8 72.4576 24.8 75.7076 24.8V22.9H61.5076V24.8C65.0576 24.8 66.5076 25.85 66.5076 29.75C66.5076 33.45 62.7576 36.8 56.3076 36.8C47.9076 36.8 43.2576 30.8 43.2576 20.1C43.2576 9.2 48.0576 2.6 56.1576 2.6C61.5576 2.6 66.8576 5.5 66.8576 12H69.2576L69.9076 0.5H68.1576L67.1076 3.6C63.0076 1.05 59.7076 0 55.7076 0C44.3576 0 36.5576 8.3 36.5576 20.4C36.5576 32.05 43.6576 39.5 54.9576 39.5Z" fill="#333333"/>
<path d="M129.763 39.5V9.6C129.763 3.4 130.563 2.55 135.263 2.4V0.5H121.813V2.4C126.063 2.55 126.763 3.35 126.763 9.95V29.65H126.563L104.713 0.5H94.8135V2.4C99.1135 2.6 99.8135 3.95 99.8135 9.6V29.9C99.8135 36.1 99.0135 36.95 94.3135 37.1V39H107.763V37.1C103.513 36.95 102.813 36.15 102.813 29.55V8.2H103.013L126.763 39.5H129.763Z" fill="#333333"/>
<path d="M165.181 9.95C165.181 3.9 165.831 2.55 170.131 2.4V0.5H154.931V2.4C159.231 2.6 159.931 3.95 159.931 9.6V29.9C159.931 36.1 159.131 36.95 154.431 37.1V39H170.631V37.1C165.931 36.95 165.181 36.15 165.181 29.55V9.95Z" fill="#333333"/>
<path d="M226.733 0.5H188.983V10.05H190.833C191.033 2.95 194.933 2.65 200.133 2.65C204.383 2.65 205.033 3.05 205.033 4.2V30.95C205.033 35.25 204.183 36.9 198.533 37.1V39H217.433V37.1C211.783 36.9 210.983 35.25 210.983 30.95V4.2C210.983 3.05 211.683 2.65 216.633 2.65C222.433 2.65 224.733 4.25 225.183 10.05H227.233L226.733 0.5Z" fill="#333333"/>
<path d="M256.069 3.5C256.069 3 256.369 2.65 256.919 2.65H263.269C270.069 2.65 272.619 4 273.419 9.3H275.169L274.719 0.5H245.819V2.4C250.119 2.6 250.819 3.45 250.819 8.1V31.4C250.819 36.1 250.019 36.95 245.319 37.1V39H276.369L277.119 29.15H275.219C273.919 35.05 271.419 36.85 264.369 36.85C258.069 36.85 256.069 35.5 256.069 31.15V19.85C263.569 19.9 265.519 21.75 265.519 25.75H267.269V12.1H265.519C265.519 16.15 263.269 17.85 256.069 17.85V3.5Z" fill="#333333"/>
<path d="M8.016 70.136L3.984 60.68H0.16V61.288C1.536 61.352 1.76 61.784 1.76 63.592V70.088C1.76 72.072 1.504 72.344 0 72.392V73H4.464V72.392C2.96 72.344 2.72 72.088 2.72 69.976V62.664H2.784L7.376 73.16H7.728L12.4 62.664H12.56V70.088C12.56 72.072 12.304 72.344 10.8 72.392V73H15.984V72.392C14.48 72.344 14.24 72.088 14.24 69.976V63.704C14.24 61.768 14.448 61.336 15.824 61.288V60.68H12.24L8.08 70.136H8.016Z" fill="#333333"/>
<path d="M29.9815 70.264C30.2695 71 30.3495 71.272 30.3495 71.688C30.3495 72.184 29.9975 72.376 28.8615 72.376V73H34.0775V72.376C32.9735 72.376 32.6215 72.104 31.6455 69.704L28.0135 60.68H27.3255L23.1655 71.096C22.7975 72.008 22.3975 72.28 21.4215 72.392V73H25.3095V72.392C24.4295 72.392 24.0615 72.2 24.0615 71.608C24.0615 71.176 24.3175 70.296 25.0535 68.536H29.3255L29.9815 70.264ZM27.2455 63.016L29.0215 67.736H25.3735L27.2455 63.016Z" fill="#333333"/>
<path d="M39.8449 72.824H40.2129L40.6609 72.04C41.6529 72.84 42.5649 73.16 43.7809 73.16C46.3569 73.16 48.1329 71.672 48.1329 69.528C48.1329 67.848 47.2369 66.968 44.0689 65.544C42.2449 64.728 41.6209 64.12 41.6209 63.112C41.6209 62.04 42.4529 61.336 43.7489 61.336C45.1089 61.336 46.1009 62.184 46.6129 63.928H47.2049L47.0289 60.744H46.6609L46.2449 61.464C45.4129 60.808 44.6289 60.52 43.7009 60.52C41.6049 60.52 40.1169 61.928 40.1169 63.912C40.1169 65.56 40.9329 66.44 43.5889 67.608C45.7489 68.552 46.3889 69.176 46.3889 70.264C46.3889 71.528 45.3969 72.344 43.8289 72.344C41.9089 72.344 40.5009 71.176 40.1969 69.24H39.6049L39.8449 72.824Z" fill="#333333"/>
<path d="M54.9574 72.824H55.3254L55.7734 72.04C56.7654 72.84 57.6774 73.16 58.8934 73.16C61.4694 73.16 63.2454 71.672 63.2454 69.528C63.2454 67.848 62.3494 66.968 59.1814 65.544C57.3574 64.728 56.7334 64.12 56.7334 63.112C56.7334 62.04 57.5654 61.336 58.8614 61.336C60.2214 61.336 61.2134 62.184 61.7254 63.928H62.3174L62.1414 60.744H61.7734L61.3574 61.464C60.5254 60.808 59.7414 60.52 58.8134 60.52C56.7174 60.52 55.2294 61.928 55.2294 63.912C55.2294 65.56 56.0454 66.44 58.7014 67.608C60.8614 68.552 61.5014 69.176 61.5014 70.264C61.5014 71.528 60.5094 72.344 58.9414 72.344C57.0214 72.344 55.6134 71.176 55.3094 69.24H54.7174L54.9574 72.824Z" fill="#333333"/>
<path d="M77.1315 70.264C77.4195 71 77.4995 71.272 77.4995 71.688C77.4995 72.184 77.1475 72.376 76.0115 72.376V73H81.2275V72.376C80.1235 72.376 79.7715 72.104 78.7955 69.704L75.1635 60.68H74.4755L70.3155 71.096C69.9475 72.008 69.5475 72.28 68.5715 72.392V73H72.4595V72.392C71.5795 72.392 71.2115 72.2 71.2115 71.608C71.2115 71.176 71.4675 70.296 72.2035 68.536H76.4755L77.1315 70.264ZM74.3955 63.016L76.1715 67.736H72.5235L74.3955 63.016Z" fill="#333333"/>
<path d="M92.3624 73.16C93.4984 73.16 94.5064 72.872 95.2424 72.456C96.4584 71.768 96.8744 71.672 97.6904 71.672V69.88C97.6904 68.776 97.9624 68.456 99.0024 68.456V67.848H94.4584V68.456C95.5944 68.456 96.0584 68.792 96.0584 70.04C96.0584 71.224 94.8584 72.296 92.7944 72.296C90.1064 72.296 88.6184 70.376 88.6184 66.952C88.6184 63.464 90.1544 61.352 92.7464 61.352C94.4744 61.352 96.1704 62.28 96.1704 64.36H96.9384L97.1464 60.68H96.5864L96.2504 61.672C94.9384 60.856 93.8824 60.52 92.6024 60.52C88.9704 60.52 86.4744 63.176 86.4744 67.048C86.4744 70.776 88.7464 73.16 92.3624 73.16Z" fill="#333333"/>
<path d="M108.396 61.64C108.396 61.48 108.492 61.368 108.668 61.368H110.7C112.876 61.368 113.692 61.8 113.948 63.496H114.508L114.364 60.68H105.116V61.288C106.492 61.352 106.716 61.624 106.716 63.112V70.568C106.716 72.072 106.46 72.344 104.956 72.392V73H114.892L115.132 69.848H114.524C114.108 71.736 113.308 72.312 111.052 72.312C109.036 72.312 108.396 71.88 108.396 70.488V66.872C110.796 66.888 111.42 67.48 111.42 68.76H111.98V64.392H111.42C111.42 65.688 110.7 66.232 108.396 66.232V61.64Z" fill="#333333"/>
<path d="M176.262 60.68H164.182V63.736H164.774C164.838 61.464 166.086 61.368 167.75 61.368C169.11 61.368 169.318 61.496 169.318 61.864V70.424C169.318 71.8 169.046 72.328 167.238 72.392V73H173.286V72.392C171.478 72.328 171.222 71.8 171.222 70.424V61.864C171.222 61.496 171.446 61.368 173.03 61.368C174.886 61.368 175.622 61.88 175.766 63.736H176.422L176.262 60.68Z" fill="#333333"/>
<path d="M193.809 63.224C193.809 61.608 194.017 61.336 195.393 61.288V60.68H190.529V61.288C191.905 61.352 192.129 61.624 192.129 63.112V66.296H185.649V63.224C185.649 61.608 185.857 61.336 187.233 61.288V60.68H182.369V61.288C183.745 61.352 183.969 61.624 183.969 63.112V70.568C183.969 72.072 183.713 72.344 182.209 72.392V73H187.393V72.392C185.889 72.344 185.649 72.088 185.649 70.456V67.096H192.129V70.568C192.129 72.072 191.873 72.344 190.369 72.392V73H195.553V72.392C194.049 72.344 193.809 72.088 193.809 70.456V63.224Z" fill="#333333"/>
<path d="M205.246 61.64C205.246 61.48 205.342 61.368 205.518 61.368H207.55C209.726 61.368 210.542 61.8 210.798 63.496H211.358L211.214 60.68H201.966V61.288C203.342 61.352 203.566 61.624 203.566 63.112V70.568C203.566 72.072 203.31 72.344 201.806 72.392V73H211.742L211.982 69.848H211.374C210.958 71.736 210.158 72.312 207.902 72.312C205.886 72.312 205.246 71.88 205.246 70.488V66.872C207.646 66.888 208.27 67.48 208.27 68.76H208.83V64.392H208.27C208.27 65.688 207.55 66.232 205.246 66.232V61.64Z" fill="#333333"/>
<path d="M228.024 63.768C228.024 61.832 226.328 60.68 223.4 60.68H218.376V61.288C219.752 61.352 219.976 61.624 219.976 63.112V70.568C219.976 72.072 219.72 72.344 218.216 72.392V73H223.864V72.392C221.928 72.392 221.656 72.072 221.656 70.488V67.16C222.648 67.16 222.968 67.24 223.528 67.976L227.448 73H230.536V72.392C229.592 72.248 228.92 71.992 228.344 71.288L224.808 67.032C227.048 66.648 228.024 65.464 228.024 63.768ZM221.656 61.704C221.656 61.544 221.752 61.432 221.928 61.432H223.4C225.144 61.432 225.944 62.136 225.944 63.848C225.944 65.624 224.904 66.36 222.792 66.36H221.656V61.704Z" fill="#333333"/>
<path d="M243.369 70.264C243.657 71 243.737 71.272 243.737 71.688C243.737 72.184 243.385 72.376 242.249 72.376V73H247.465V72.376C246.361 72.376 246.009 72.104 245.033 69.704L241.401 60.68H240.713L236.553 71.096C236.185 72.008 235.785 72.28 234.809 72.392V73H238.697V72.392C237.817 72.392 237.449 72.2 237.449 71.608C237.449 71.176 237.705 70.296 238.441 68.536H242.713L243.369 70.264ZM240.633 63.016L242.409 67.736H238.761L240.633 63.016Z" fill="#333333"/>
<path d="M262.592 63.768C262.592 61.832 260.896 60.68 257.968 60.68H252.944V61.288C254.32 61.352 254.544 61.624 254.544 63.112V70.568C254.544 72.072 254.288 72.344 252.784 72.392V73H258.432V72.392C256.496 72.392 256.224 72.072 256.224 70.488V67.4H257.664C261.232 67.4 262.592 66.008 262.592 63.768ZM256.224 61.704C256.224 61.544 256.32 61.432 256.496 61.432H257.968C259.712 61.432 260.512 62.168 260.512 63.96C260.512 65.832 259.472 66.6 257.36 66.6H256.224V61.704Z" fill="#333333"/>
<path d="M272.873 68.136V70.088C272.873 72.04 272.633 72.392 271.113 72.392V73H276.297V72.392C274.761 72.392 274.553 72.056 274.553 69.976V68.072L277.017 63.912C278.329 61.704 278.745 61.288 279.641 61.288V60.68H275.977V61.288C276.745 61.288 277.017 61.432 277.017 61.832C277.017 62.232 276.745 62.856 276.073 63.992L274.265 67.032H274.201L271.721 62.792C271.465 62.36 271.353 62.04 271.353 61.832C271.353 61.432 271.753 61.288 272.809 61.288V60.68H267.769V61.288C268.649 61.288 269.017 61.56 269.673 62.664L272.873 68.136Z" fill="#333333"/>
<path fill-rule="evenodd" clip-rule="evenodd" d="M140.976 69.4118C139.553 72.2159 137.081 75.3362 137.135 78.2715L137.118 78.2585C134.722 76.4878 134.228 71.5264 136.636 65.7315C139.384 59.1172 137.883 53 137.883 53C137.891 53.0086 137.898 53.0155 137.906 53.024C142.453 57.6437 143.967 63.5184 140.976 69.4118Z" fill="url(#paint0_linear)"/>
<path fill-rule="evenodd" clip-rule="evenodd" d="M140.968 69.4097C139.544 72.2138 137.073 75.3341 137.126 78.2695L137.11 78.2564C136.931 77.7388 136.761 77.015 136.651 76.0074C136.194 71.8887 140.458 65.2693 140.22 61.0656C140.064 58.3032 138.768 54.9776 137.897 53.0219C142.444 57.6416 143.958 63.5163 140.968 69.4097Z" fill="url(#paint1_linear)"/>
<path fill-rule="evenodd" clip-rule="evenodd" d="M144.92 76.9408C143.859 77.9836 142.304 78.9842 141.845 80.3534L141.841 80.3444C141.119 79.0933 141.724 76.7065 143.691 74.4556C145.936 71.8863 146.305 68.7831 146.305 68.7831C146.307 68.7885 146.309 68.7929 146.311 68.7983C147.473 71.7557 147.149 74.7489 144.92 76.9408Z" fill="url(#paint2_linear)"/>
<path fill-rule="evenodd" clip-rule="evenodd" d="M144.917 76.9382C143.856 77.9809 142.301 78.9816 141.842 80.3508L141.837 80.3418C141.847 80.0699 141.894 79.7042 142.012 79.2177C142.495 77.2279 145.38 74.9287 145.969 72.9389C146.356 71.6315 146.354 69.8581 146.307 68.7957C147.47 71.7531 147.146 74.7463 144.917 76.9382Z" fill="url(#paint3_linear)"/>
<path fill-rule="evenodd" clip-rule="evenodd" d="M143.377 73.7268C142.177 75.408 140.29 77.1506 139.992 79.1334L139.983 79.1223C138.695 77.5846 138.949 74.1748 141.098 70.6234C143.551 66.5698 143.31 62.2368 143.31 62.2368C143.314 62.2437 143.318 62.2493 143.321 62.2562C145.622 66.0216 145.899 70.1932 143.377 73.7268Z" fill="url(#paint4_linear)"/>
<path fill-rule="evenodd" clip-rule="evenodd" d="M143.372 73.7242C142.172 75.4054 140.285 77.1479 139.986 79.1308L139.978 79.1197C139.925 78.7455 139.902 78.234 139.947 77.5401C140.129 74.7027 143.523 70.8645 143.85 68.0015C144.065 66.1203 143.636 63.6953 143.316 62.2536C145.617 66.0189 145.893 70.1906 143.372 73.7242Z" fill="url(#paint5_linear)"/>
<path fill-rule="evenodd" clip-rule="evenodd" d="M138.254 79.803C138.234 79.956 138.202 80.1044 138.157 80.2475C138.145 80.2868 138.133 80.3262 138.119 80.3655L138.116 80.3736C138.07 80.2761 138.018 80.1822 137.962 80.0892C137.571 79.4534 136.928 78.9078 136.251 78.4026C135.468 77.8186 134.639 77.2865 134.094 76.7285C131.811 74.3873 131.451 70.8709 132.741 67.7973L132.742 67.7955C132.742 67.7955 132.981 70.0178 134.211 72.2982C134.606 73.0306 135.103 73.7684 135.728 74.4409C136.756 75.5454 137.463 76.5916 137.867 77.545C138.221 78.3766 138.346 79.1377 138.254 79.803Z" fill="url(#paint6_linear)"/>
<path fill-rule="evenodd" clip-rule="evenodd" d="M138.119 80.3638L138.116 80.3718C138.07 80.2743 138.018 80.1805 137.962 80.0874C137.571 79.4516 136.928 78.9061 136.251 78.4008C135.468 77.8168 134.639 77.2848 134.094 76.7267C131.811 74.3855 131.451 70.8692 132.741 67.7955C132.61 69.1602 132.812 71.3145 133.042 72.3572C133.693 75.3159 137.933 77.5292 138.119 80.3638Z" fill="url(#paint7_linear)"/>
<path fill-rule="evenodd" clip-rule="evenodd" d="M141.324 76.8331C141.218 77.5709 140.96 78.2372 140.605 78.8328V78.8336C140.387 79.1994 140.132 79.5383 139.853 79.8505C139.712 80.0069 139.565 80.1589 139.413 80.3021L139.404 80.311C139.39 79.7986 139.315 79.2817 139.191 78.7657C139.099 78.391 138.983 78.0181 138.844 77.6469C138.126 75.7171 136.826 73.848 135.58 72.3036C133.762 70.0509 132.702 64.5117 136.383 59.3749L136.382 59.3776C136.36 59.5261 135.356 66.04 139.004 70.5356C139.458 71.0954 139.839 71.6356 140.152 72.1569C141.23 73.9464 141.519 75.506 141.324 76.8331Z" fill="url(#paint8_linear)"/>
<path fill-rule="evenodd" clip-rule="evenodd" d="M139.413 80.3021L139.404 80.311C139.39 79.7986 139.315 79.2817 139.191 78.7657C139.099 78.391 138.983 78.0181 138.844 77.6469C138.126 75.7171 136.826 73.848 135.58 72.3036C133.762 70.0509 132.702 64.5117 136.383 59.3749L136.382 59.3776C135.951 60.4866 135.294 62.5121 135.294 64.5546C135.294 67.5952 136.644 69.9498 138.246 72.901C139.718 75.6151 140.348 77.8508 139.413 80.3021Z" fill="url(#paint9_linear)"/>
<defs>
<linearGradient id="paint0_linear" x1="132.271" y1="81.4021" x2="144.3" y2="54.99" gradientUnits="userSpaceOnUse">
<stop stop-color="#97D0F3"/>
<stop offset="1" stop-color="#1B83C3"/>
</linearGradient>
<linearGradient id="paint1_linear" x1="138.173" y1="72.3126" x2="142.056" y2="61.0181" gradientUnits="userSpaceOnUse">
<stop stop-color="#1B83C3"/>
<stop offset="1" stop-color="#97D0F3"/>
</linearGradient>
<linearGradient id="paint2_linear" x1="141.547" y1="74.5683" x2="146.969" y2="74.5683" gradientUnits="userSpaceOnUse">
<stop stop-color="#1B83C3"/>
<stop offset="1" stop-color="#97D0F3"/>
</linearGradient>
<linearGradient id="paint3_linear" x1="143.205" y1="74.4537" x2="148.35" y2="75.1608" gradientUnits="userSpaceOnUse">
<stop stop-color="#97D0F3"/>
<stop offset="1" stop-color="#1B83C3"/>
</linearGradient>
<linearGradient id="paint4_linear" x1="140.77" y1="73.1979" x2="143.367" y2="67.5316" gradientUnits="userSpaceOnUse">
<stop stop-color="#1B83C3"/>
<stop offset="1" stop-color="#97D0F3"/>
</linearGradient>
<linearGradient id="paint5_linear" x1="149.092" y1="62.1015" x2="141.656" y2="74.2603" gradientUnits="userSpaceOnUse">
<stop stop-color="#97D0F3"/>
<stop offset="1" stop-color="#1B83C3"/>
</linearGradient>
<linearGradient id="paint6_linear" x1="132" y1="74.0845" x2="138.283" y2="74.0845" gradientUnits="userSpaceOnUse">
<stop stop-color="#1B83C3"/>
<stop offset="1" stop-color="#97D0F3"/>
</linearGradient>
<linearGradient id="paint7_linear" x1="132" y1="74.0837" x2="138.119" y2="74.0837" gradientUnits="userSpaceOnUse">
<stop stop-color="#99EEBB"/>
<stop offset="0.0001" stop-color="#97D0F3"/>
<stop offset="1" stop-color="#1B83C3"/>
</linearGradient>
<linearGradient id="paint8_linear" x1="133.918" y1="69.843" x2="141.381" y2="69.843" gradientUnits="userSpaceOnUse">
<stop stop-color="#1B83C3"/>
<stop offset="1" stop-color="#97D0F3"/>
</linearGradient>
<linearGradient id="paint9_linear" x1="139.288" y1="68.7822" x2="134.239" y2="72.6243" gradientUnits="userSpaceOnUse">
<stop stop-color="#97D0F3"/>
<stop offset="1" stop-color="#1B83C3"/>
</linearGradient>
</defs>
</svg>
