<svg width="300" height="78" viewBox="0 0 300 78" fill="none" xmlns="http://www.w3.org/2000/svg">
<path d="M98.0253 19.9099H88.9258V21.2496H92.7361V32.002H94.215V21.2496H98.0253V19.9099Z" fill="#111111"/>
<path d="M104.861 22.6415C103.469 22.6415 102.391 23.2505 101.782 24.0508V19.2836H100.303V32.002H101.782V26.33C101.799 25.0947 102.913 23.9638 104.478 23.9638C106.114 23.9464 107.106 24.9556 107.106 26.6606V32.002H108.584V26.3996C108.584 24.1204 107.21 22.6415 104.861 22.6415Z" fill="#111111"/>
<path d="M112.661 27.9655H120.282C120.299 27.7915 120.317 27.4784 120.317 27.2174C120.317 24.799 118.56 22.6241 115.793 22.6241C113.201 22.6241 111.165 24.7642 111.165 27.4262C111.165 30.1577 113.079 32.2108 115.898 32.2108C118.072 32.2108 119.343 31.2713 120.021 29.9664L118.734 29.1834C118.281 30.2447 117.446 30.8189 115.95 30.8189C114.262 30.8189 112.922 29.6706 112.661 27.9655ZM112.679 26.678C112.957 24.9382 114.297 23.9116 115.845 23.9116C117.376 23.9116 118.577 24.9556 118.803 26.678H112.679Z" fill="#111111"/>
<path d="M134.781 32.002H136.469L132.172 26.6084H132.467C134.868 26.6084 136.399 25.2165 136.399 23.2505C136.399 21.2844 134.886 19.9099 132.467 19.9099H127.979V32.002H129.44V26.6084H130.554L134.781 32.002ZM129.44 21.2148H132.433C134.033 21.2148 134.938 22.1022 134.938 23.3723C134.938 24.6424 134.033 25.5123 132.433 25.5123H129.44V21.2148Z" fill="#111111"/>
<path d="M139.619 27.9655H147.24C147.257 27.7915 147.275 27.4784 147.275 27.2174C147.275 24.799 145.517 22.6241 142.751 22.6241C140.159 22.6241 138.123 24.7642 138.123 27.4262C138.123 30.1577 140.037 32.2108 142.855 32.2108C145.03 32.2108 146.3 31.2713 146.979 29.9664L145.691 29.1834C145.239 30.2447 144.404 30.8189 142.907 30.8189C141.22 30.8189 139.88 29.6706 139.619 27.9655ZM139.637 26.678C139.915 24.9382 141.255 23.9116 142.803 23.9116C144.334 23.9116 145.535 24.9556 145.761 26.678H139.637Z" fill="#111111"/>
<path d="M150.698 21.1453C151.359 21.1453 151.863 20.6755 151.863 20.0143C151.863 19.3358 151.359 18.8486 150.698 18.8486C150.037 18.8486 149.532 19.3358 149.532 20.0143C149.532 20.6755 150.037 21.1453 150.698 21.1453ZM149.967 32.002H151.446V22.8329H149.967V32.002Z" fill="#111111"/>
<path d="M165.566 22.6415C163.913 22.6415 162.783 23.5115 162.313 24.5032C161.808 23.3201 160.764 22.6415 159.181 22.6415C157.772 22.6415 156.71 23.3375 156.154 24.19V22.8329H154.762V32.002H156.241V26.2257C156.258 25.1643 157.232 23.9638 158.763 23.9638C160.295 23.9464 161.217 25.0425 161.217 26.6084V32.002H162.696V26.2257C162.73 25.1643 163.687 23.9638 165.236 23.9638C166.767 23.9464 167.689 25.0599 167.689 26.6084V32.002H169.168V26.3474C169.168 24.2074 167.863 22.6415 165.566 22.6415Z" fill="#111111"/>
<path d="M173.237 27.9655H180.858C180.875 27.7915 180.893 27.4784 180.893 27.2174C180.893 24.799 179.135 22.6241 176.369 22.6241C173.777 22.6241 171.741 24.7642 171.741 27.4262C171.741 30.1577 173.655 32.2108 176.473 32.2108C178.648 32.2108 179.918 31.2713 180.597 29.9664L179.309 29.1834C178.857 30.2447 178.022 30.8189 176.526 30.8189C174.838 30.8189 173.498 29.6706 173.237 27.9655ZM173.255 26.678C173.533 24.9382 174.873 23.9116 176.421 23.9116C177.952 23.9116 179.153 24.9556 179.379 26.678H173.255Z" fill="#111111"/>
<path d="M184.977 24.1726V22.8329H183.585V32.002H185.064V26.4692C185.064 25.1643 186.23 24.0334 187.9 24.016V22.6415C186.612 22.6415 185.569 23.3201 184.977 24.1726Z" fill="#111111"/>
<path d="M202.326 21.2148V19.9099H194.827V32.002H196.306V26.4518H201.735V25.1469H196.306V21.2148H202.326Z" fill="#111111"/>
<path d="M212.024 22.8329V24.6076C211.328 23.4245 210.128 22.7285 208.579 22.7285C205.987 22.7285 204.073 24.6946 204.073 27.4088C204.073 30.1577 205.97 32.1934 208.579 32.1934C210.128 32.1934 211.328 31.4626 212.024 30.2447V32.002H213.399V22.8329H212.024ZM208.753 30.8885C206.909 30.8885 205.535 29.4096 205.535 27.4088C205.535 25.4427 206.909 23.9464 208.753 23.9464C210.667 23.9464 211.972 25.3731 211.972 27.4088C211.972 29.4618 210.65 30.8885 208.753 30.8885Z" fill="#111111"/>
<path d="M227.552 22.6415C225.9 22.6415 224.769 23.5115 224.299 24.5032C223.794 23.3201 222.75 22.6415 221.167 22.6415C219.758 22.6415 218.696 23.3375 218.14 24.19V22.8329H216.748V32.002H218.227V26.2257C218.244 25.1643 219.218 23.9638 220.75 23.9638C222.281 23.9464 223.203 25.0425 223.203 26.6084V32.002H224.682V26.2257C224.716 25.1643 225.673 23.9638 227.222 23.9638C228.753 23.9464 229.675 25.0599 229.675 26.6084V32.002H231.154V26.3474C231.154 24.2074 229.849 22.6415 227.552 22.6415Z" fill="#111111"/>
<path d="M235.101 21.1453C235.763 21.1453 236.267 20.6755 236.267 20.0143C236.267 19.3358 235.763 18.8486 235.101 18.8486C234.44 18.8486 233.936 19.3358 233.936 20.0143C233.936 20.6755 234.44 21.1453 235.101 21.1453ZM234.371 32.002H235.85V22.8329H234.371V32.002Z" fill="#111111"/>
<path d="M239.166 32.002H240.644V19.2836H239.166V32.002Z" fill="#111111"/>
<path d="M250.485 22.8329L247.388 30.7493L244.43 22.8329H242.882L246.466 32.002H246.866L245.561 35.1164H247.023L252.033 22.8329H250.485Z" fill="#111111"/>
<path d="M96.2739 55.3514C99.974 55.3514 102.271 53.1824 103.121 50.5668L100.506 49.5248C99.9102 51.5237 98.528 52.7784 96.2314 52.7784C93.4882 52.7784 91.5105 50.7369 91.5105 47.7173C91.5105 44.6764 93.4882 42.635 96.2101 42.635C98.5067 42.635 99.9102 43.9109 100.506 45.8885L103.121 44.8465C102.292 42.2947 99.9953 40.0619 96.2739 40.0619C91.9784 40.0619 88.7461 43.2516 88.7461 47.7173C88.7461 52.1617 91.9784 55.3514 96.2739 55.3514Z" fill="#111111"/>
<path d="M105.852 55.0962H108.553V39.5515H105.852V55.0962Z" fill="#111111"/>
<path d="M113.489 42.1033C114.531 42.1033 115.339 41.3591 115.339 40.3171C115.339 39.2751 114.531 38.4883 113.489 38.4883C112.447 38.4883 111.639 39.2751 111.639 40.3171C111.639 41.3591 112.447 42.1033 113.489 42.1033ZM112.128 55.0962H114.828V43.8896H112.128V55.0962Z" fill="#111111"/>
<path d="M131.673 43.6344C129.78 43.6344 128.504 44.4212 127.888 45.4632C127.25 44.2936 126.123 43.6344 124.336 43.6344C122.827 43.6344 121.657 44.2724 120.955 45.123V43.8896H118.403V55.075H121.104V48.2914C121.125 47.2282 121.976 46.0586 123.507 46.0374C125.017 46.0374 125.846 47.1644 125.846 48.6317V55.075H128.547V48.2914C128.568 47.2495 129.397 46.0586 130.95 46.0374C132.46 46.0374 133.268 47.1857 133.268 48.6317V55.075H135.968V48.1426C135.968 45.6121 134.459 43.6344 131.673 43.6344Z" fill="#111111"/>
<path d="M148.1 43.8896V45.4845C147.27 44.3999 146.016 43.8045 144.399 43.8045C141.188 43.8045 138.849 46.1437 138.849 49.5035C138.849 52.8422 141.188 55.3514 144.399 55.3514C146.016 55.3514 147.27 54.6922 148.1 53.5864V55.0962H150.609V43.8896H148.1ZM144.761 52.9697C142.911 52.9697 141.55 51.5025 141.55 49.5035C141.55 47.5046 142.911 46.0374 144.761 46.0374C146.696 46.0374 148.014 47.4408 148.014 49.5035C148.014 51.545 146.696 52.9697 144.761 52.9697Z" fill="#111111"/>
<path d="M159.169 55.0962H160.934V52.7358H159.701C158.489 52.7358 157.829 52.0341 157.829 50.7369V46.2075H160.849V43.8896H157.914V40.9763H155.278V42.7413C155.278 43.5068 154.916 43.8896 154.172 43.8896H153.151V46.2075H155.107V51.0346C155.107 53.5014 156.49 55.0962 159.169 55.0962Z" fill="#111111"/>
<path d="M165.333 50.3541H174.031C174.073 50.1202 174.095 49.6949 174.095 49.2696C174.095 46.3989 171.947 43.6344 168.417 43.6344C165.206 43.6344 162.675 46.25 162.675 49.5035C162.675 52.8422 165.014 55.3727 168.587 55.3727C171.309 55.3727 172.797 54.2244 173.648 52.8422L171.522 51.4812C171.011 52.4806 170.203 53.0548 168.672 53.0548C166.992 53.0548 165.695 52.0341 165.333 50.3541ZM165.333 48.4616C165.674 46.7391 166.907 45.7609 168.481 45.7609C170.054 45.7609 171.203 46.7816 171.5 48.4616H165.333Z" fill="#111111"/>
<path d="M189.508 55.3514C193.208 55.3514 195.504 53.1824 196.355 50.5668L193.739 49.5248C193.144 51.5237 191.762 52.7784 189.465 52.7784C186.722 52.7784 184.744 50.7369 184.744 47.7173C184.744 44.6764 186.722 42.635 189.444 42.635C191.74 42.635 193.144 43.9109 193.739 45.8885L196.355 44.8465C195.526 42.2947 193.229 40.0619 189.508 40.0619C185.212 40.0619 181.98 43.2516 181.98 47.7173C181.98 52.1617 185.212 55.3514 189.508 55.3514Z" fill="#111111"/>
<path d="M201.638 45.1442V43.8896H199.086V55.0962H201.786V48.7167C201.786 47.2069 203.02 46.1649 204.976 46.1649V43.6344C203.573 43.6344 202.403 44.2511 201.638 45.1442Z" fill="#111111"/>
<path d="M208.965 42.1033C210.007 42.1033 210.815 41.3591 210.815 40.3171C210.815 39.2751 210.007 38.4883 208.965 38.4883C207.923 38.4883 207.115 39.2751 207.115 40.3171C207.115 41.3591 207.923 42.1033 208.965 42.1033ZM207.604 55.0962H210.305V43.8896H207.604V55.0962Z" fill="#111111"/>
<path d="M217.835 55.3514C220.642 55.3514 222.471 54.033 222.471 51.8002C222.471 47.696 216.325 48.8656 216.325 46.8242C216.325 46.1437 216.857 45.7184 217.857 45.7184C218.792 45.7184 219.451 46.1224 219.749 46.973L222.11 46.0586C221.642 44.5275 220.068 43.6344 217.899 43.6344C215.262 43.6344 213.561 44.9103 213.561 46.9517C213.561 50.8007 219.707 49.78 219.707 51.9916C219.707 52.7784 219.026 53.2249 217.942 53.2249C216.581 53.2249 215.709 52.6082 215.39 51.5663L213.029 52.4806C213.646 54.3732 215.411 55.3514 217.835 55.3514Z" fill="#111111"/>
<path d="M226.708 42.1033C227.75 42.1033 228.558 41.3591 228.558 40.3171C228.558 39.2751 227.75 38.4883 226.708 38.4883C225.666 38.4883 224.858 39.2751 224.858 40.3171C224.858 41.3591 225.666 42.1033 226.708 42.1033ZM225.347 55.0962H228.048V43.8896H225.347V55.0962Z" fill="#111111"/>
<path d="M235.578 55.3514C238.385 55.3514 240.214 54.033 240.214 51.8002C240.214 47.696 234.068 48.8656 234.068 46.8242C234.068 46.1437 234.6 45.7184 235.6 45.7184C236.535 45.7184 237.194 46.1224 237.492 46.973L239.852 46.0586C239.385 44.5275 237.811 43.6344 235.642 43.6344C233.005 43.6344 231.304 44.9103 231.304 46.9517C231.304 50.8007 237.45 49.78 237.45 51.9916C237.45 52.7784 236.769 53.2249 235.685 53.2249C234.324 53.2249 233.452 52.6082 233.133 51.5663L230.772 52.4806C231.389 54.3732 233.154 55.3514 235.578 55.3514Z" fill="#111111"/>
<path d="M258.381 42.6775V40.3171H248.769V55.0962H251.491V48.8443H257.615V46.4627H251.491V42.6775H258.381Z" fill="#111111"/>
<path d="M268.548 43.8896V50.6731C268.548 51.9065 267.57 52.9272 266.06 52.9485C264.55 52.9485 263.593 51.949 263.593 50.503V43.8896H260.893V50.8432C260.893 53.4376 262.424 55.3514 265.273 55.3514C266.719 55.3514 267.931 54.7347 268.718 53.8629V55.0962H271.249V43.8896H268.548Z" fill="#111111"/>
<path d="M280.895 43.6344C279.364 43.6344 278.131 44.2511 277.365 45.123V43.8896H274.813V55.0962H277.514V48.3552C277.535 47.1006 278.641 46.0586 280.108 46.0374C281.639 46.0374 282.639 46.9943 282.639 48.6104V55.0962H285.361V48.1001C285.361 45.4419 283.66 43.6344 280.895 43.6344Z" fill="#111111"/>
<path d="M297.299 39.5515V45.123C296.427 44.1873 295.215 43.6344 293.726 43.6344C290.515 43.6344 288.24 46.1437 288.24 49.5035C288.24 52.8422 290.579 55.3514 293.79 55.3514C295.364 55.3514 296.618 54.7347 297.49 53.6715V55.0962H300V39.5515H297.299ZM294.152 52.9697C292.302 52.9697 290.941 51.5025 290.941 49.5035C290.941 47.5046 292.302 46.0374 294.152 46.0374C296.087 46.0374 297.405 47.4408 297.405 49.5035C297.405 51.545 296.087 52.9697 294.152 52.9697Z" fill="#111111"/>
<path d="M37.2838 0.030585C36.6339 0.0841726 35.7437 0.0894798 35.0542 0.157223C29.4869 0.806848 25.2927 2.30731 22.7914 3.42583L22.0537 3.73447C21.0022 4.28956 21.0022 4.28956 20.4765 4.5671C19.3205 5.20435 19.3205 5.20435 18.7297 5.54989C15.595 7.52127 13.6869 9.05383 11.0041 11.6688C10.2125 12.5783 9.13536 13.8136 8.34375 14.723C13.1272 9.61196 35.4241 0.695884 51.5618 2.93016C53.8139 3.24284 54.5909 3.54642 56.2268 4.25849C54.7915 3.60886 52.8872 2.76914 51.4265 2.17335C48.5247 1.28789 46.9734 0.813936 43.8284 0.373349C43.868 0.359194 43.868 0.359194 43.8284 0.373349L43.4017 0.30232C43.2152 0.27957 42.9892 0.270976 42.8027 0.248226C40.6862 0.0659753 39.9543 0.0146615 38.7448 0C38.3464 0.0083413 37.9083 0.0308381 37.2838 0.030585Z" fill="url(#paint0_linear_353_1422)"/>
<path d="M9.82325 64.3543C9.84862 64.4398 9.98468 64.5855 10.0101 64.6711L11.6427 66.4192C14.5437 68.9996 14.6798 69.1453 16.5268 70.3638C19.6675 72.5002 19.8635 72.5349 21.9411 73.5914L23.4399 74.2619C20.35 72.2966 35.2694 64.6793 47.637 61.921C52.3452 60.889 60.8993 59.3615 64.3791 62.3281C68.0325 66.7986 54.6919 74.4381 52.8773 73.955C52.7666 73.8949 52.6559 73.8348 52.6305 73.7492C52.6397 73.4671 52.6143 73.3815 53.2806 72.8102C54.3573 71.744 52.8401 71.6378 52.1922 71.6448C48.0488 71.7633 38.8148 76.0081 40.2699 77.1573C40.4913 77.2775 40.8833 77.3469 41.4205 77.2797C42.1537 77.2472 43.0576 77.1639 43.6801 77.0713C45.4624 76.819 45.4624 76.819 46.4262 76.6246C47.9018 76.2775 47.9018 76.2775 48.5843 76.0739C49.8893 75.7777 49.8893 75.7777 50.4611 75.514C51.5701 75.1832 51.5701 75.1832 52.1419 74.9194C53.1656 74.614 53.1656 74.614 53.6521 74.3758C54.7103 73.8738 54.7103 73.8738 55.1968 73.6356C56.2551 73.1336 56.2551 73.1336 56.8269 72.8699C57.9451 72.2569 57.9451 72.2569 58.5768 71.8822C61.0783 70.2977 63.1279 68.7549 65.9474 66.0511C67.4944 64.3789 68.6909 63.0907 70.4614 60.6067C71.2913 59.3347 72.3355 57.533 73.0294 56.1153C73.8431 54.4756 75.8485 49.9658 70.8331 47.4573C67.9462 46.1765 64.3584 45.6636 60.5309 45.5947C39.6616 45.6738 9.15651 61.4798 9.82325 64.3543Z" fill="url(#paint1_linear_353_1422)"/>
<path d="M30.2576 52.6631C28.5648 53.3308 23.8691 54.8563 27.3879 52.4064C30.9344 50.0272 30.1704 48.2865 25.4699 50.6307C20.8122 52.8763 6.91534 61.0536 10.0332 64.6432L11.6136 66.3888C14.0079 68.5484 14.5119 69.0031 15.6611 69.8568C21.716 64.5277 54.2594 49.4854 69.4643 56.0676C70.6714 56.6534 71.4552 57.4061 71.8586 58.2272C72.2992 57.4816 72.7399 56.736 73.0672 56.1168C73.7947 54.4411 75.8615 49.95 70.8091 47.4502C67.9314 46.1347 64.4014 45.6483 60.4887 45.6396C51.1288 45.6557 39.8226 48.8085 30.2576 52.6631Z" fill="url(#paint2_linear_353_1422)"/>
<path d="M52.8505 73.9291C52.783 73.9084 52.6922 73.8433 52.613 73.8004C52.6168 73.4868 52.6258 73.397 53.2717 72.8554C54.317 71.7334 52.8859 71.6441 52.2165 71.66C48.0648 71.7137 38.7991 75.9868 40.2553 77.1391C40.4486 77.2913 40.8521 77.3601 41.4762 77.3117C42.1443 77.2399 43.0356 77.1627 43.6921 77.0688C45.5057 76.813 45.5057 76.813 46.4385 76.6006C47.8824 76.2864 47.8824 76.2864 48.6257 76.0896C49.8568 75.7469 49.8568 75.7469 50.4548 75.5423C51.5847 75.1684 51.5847 75.1684 52.1269 74.9652C53.1556 74.5601 53.1556 74.5601 53.6641 74.3465C54.7032 73.9076 54.7032 73.9076 55.222 73.6602C56.2481 73.1432 56.2701 73.1314 56.7994 72.8502C57.9344 72.2186 57.9564 72.2069 58.5401 71.8683C60.0473 70.9256 61.4209 69.9973 62.8554 68.81C62.7425 68.7567 62.6075 68.7151 62.4829 68.6396C59.251 71.7171 53.9625 74.2163 52.8505 73.9291Z" fill="url(#paint3_linear_353_1422)"/>
<path d="M0.796165 31.2099C0.585902 32.4408 0.302088 33.9874 0.259698 35.1553C-0.024959 39.0062 -0.0460137 39.2061 0.121015 41.4473C0.549677 45.4142 0.612559 45.5825 1.14677 47.7818L1.12572 47.9817C1.35873 41.9423 51.3124 20.3911 71.2098 29.3314C72.8251 30.0685 76.5068 31.4693 77.0405 35.2047C76.8103 33.5632 76.5383 31.5534 76.2556 30.0277C75.2079 26.1974 75.0821 25.8606 74.055 23.3666C73.2583 21.746 72.1576 19.5675 71.2769 17.9784C70.3228 16.7049 69.1064 15.242 64.8896 13.9462C61.7427 13.2086 58.2704 12.8811 54.7246 12.8693C31.3516 12.8186 1.69982 27.2225 0.796165 31.2099Z" fill="url(#paint4_linear_353_1422)"/>
<path d="M25.7138 18.2377C20.1341 19.8596 26.3556 15.9507 30.8481 14.7447C33.0841 14.109 35.0563 12.4071 30.7422 13.2692C23.5886 14.6706 0.888094 26.0935 0.783873 31.2284C0.591523 32.439 0.351088 33.9522 0.223897 35.1422C0.0792766 37.4156 0.0412876 38.4336 0.0273438 39.3003C7.74823 32.1864 45.5521 15.4812 69.3558 21.4581C71.7217 22.1466 73.1994 22.9725 74.2451 23.7913C74.204 23.6606 74.1629 23.5299 74.0566 23.4198C73.3061 21.7171 72.1304 19.5741 71.2701 17.978C70.3171 16.7706 69.1105 15.2122 64.917 13.9523C61.7521 13.2292 58.3436 12.8707 54.6915 12.8766C45.2922 12.8328 34.8601 15.1998 25.7138 18.2377Z" fill="url(#paint5_linear_353_1422)"/>
<path d="M22.0672 3.76192C21.5287 3.99905 21.5287 3.99905 20.4684 4.54863C19.8923 4.86513 19.8923 4.86513 18.744 5.55251C15.2532 7.72745 13.3983 9.32069 11.0329 11.6739C10.1844 12.5794 9.13079 13.8065 8.32808 14.7414C8.14828 14.9626 7.88464 15.376 8.04663 15.6483C9.23413 17.834 26.2593 10.283 28.3306 5.29445C29.0309 3.5689 26.8885 3.2043 23.9917 4.56931C22.0336 5.65629 19.8099 6.24918 19.3519 5.95538C19.2603 5.89662 18.611 5.37656 22.7726 3.4248L22.0672 3.76192Z" fill="url(#paint6_linear_353_1422)"/>
<path d="M13.2171 10.1016C13.1201 9.93284 13.1813 9.74014 13.2714 9.54574C12.5269 10.2007 11.7994 10.8983 11.0328 11.6709C10.1864 12.5645 9.11388 13.8061 8.34224 14.739C8.16718 14.9676 7.88676 15.3769 8.03302 15.6445C9.23549 17.8422 26.2637 10.2743 28.3197 5.29483C28.4488 5.02539 28.4777 4.77643 28.4522 4.58887C22.6727 8.39265 14.0471 11.6378 13.2171 10.1016Z" fill="url(#paint7_linear_353_1422)"/>
<path d="M38.5473 0.0964461C47.7183 0.822003 45.7011 6.7806 41.1923 11.7218C29.099 24.8499 0.869112 35.9119 0.78479 31.2396C-0.920235 38.8701 0.602888 46.4006 1.15157 47.915C1.71347 49.3636 5.58565 48.6066 8.60491 47.8481C31.6961 41.8053 72.9849 12.813 56.242 4.25765C51.7187 1.97349 46.4074 0.0433876 39.7808 0.0721255C39.3741 0.0583051 38.9279 0.0707414 38.5473 0.0964461Z" fill="url(#paint8_linear_353_1422)"/>
<path d="M72.1142 20.0538C76.0643 36.4351 18.8576 70.6435 9.98438 64.677C13.2642 68.8277 20.8688 73.6093 23.4207 74.2657C36.8727 77.6555 78.0848 53.7465 77.0982 35.7926C76.7408 28.1214 73.4875 21.2633 71.2115 18.0137C71.5719 18.597 71.9477 19.35 72.1142 20.0538Z" fill="url(#paint9_linear_353_1422)"/>
<path d="M41.4766 77.2948C42.1451 77.2482 43.0276 77.1435 43.6962 77.097C44.6881 76.9427 44.7746 76.9113 46.4265 76.6055C47.1911 76.4455 47.2548 76.4322 48.6205 76.093C49.2396 75.9367 49.2624 75.9186 50.4645 75.5603C51.0247 75.3763 51.0475 75.3582 52.1089 74.9627C52.6282 74.774 52.6282 74.774 53.6715 74.3555C54.1955 74.1258 54.1955 74.1258 55.2027 73.6616C55.7496 73.4137 55.7496 73.4137 56.7891 72.8494C57.3636 72.5424 57.3636 72.5424 58.5401 71.8693C62.0935 69.645 63.9892 67.9545 65.9268 66.0817C68.0204 63.9363 69.1515 62.4057 70.4386 60.6025C71.2634 59.3895 72.2272 57.6939 72.9616 56.3664C67.0449 66.9815 47.8862 76.5268 41.4766 77.2948Z" fill="url(#paint10_linear_353_1422)"/>
<path d="M49.3467 1.93204C63.6354 9.25377 30.6011 35.1558 6.29042 40.0002C3.55453 40.5302 1.46723 40.4333 0.0371094 40.1214C0.188672 44.0197 0.83242 47.0026 1.16196 47.9006C1.71389 49.3671 5.60823 48.6217 8.54932 47.836C17.693 45.462 29.5698 39.5414 39.6626 32.683C43.2513 30.2648 48.0319 28.274 41.4547 33.5302C37.3738 36.8637 41.5073 37.0082 48.9713 31.0094C61.5508 20.8107 61.0415 12.2645 60.0438 8.6555C59.92 8.00452 59.6564 7.38663 59.2532 6.80185C59.2532 6.80185 59.2532 6.80185 59.2121 6.75244C58.6114 5.82992 57.6409 4.96545 56.2433 4.29094C53.3247 2.79368 50.0694 1.49455 46.3545 0.748047C47.423 1.02726 48.3849 1.47965 49.3467 1.93204Z" fill="url(#paint11_linear_353_1422)"/>
<path d="M36.8641 36.8715C36.0388 37.1422 33.8058 38.2556 32.7349 39.3434C31.6171 40.4594 32.0187 41.0807 33.5237 40.7223C35.3897 40.2754 37.281 39.0156 38.0938 38.0822C38.8831 37.1628 38.5421 36.6968 37.783 36.7044C37.5253 36.6991 37.2112 36.7595 36.8641 36.8715Z" fill="url(#paint12_linear_353_1422)"/>
<path d="M75.0758 26.9992C76.1311 46.4242 32.6363 72.1885 16.3105 70.3113C19.121 72.3829 22.035 73.9181 23.4367 74.2779C24.8385 74.6377 26.5973 74.698 28.6315 74.4617C29.7317 74.3815 30.4019 74.8494 29.0205 75.0624C27.4787 75.3632 25.886 75.3789 23.5925 75.2147C23.0999 75.1503 22.788 75.5712 23.0502 76.0535C23.5236 76.7332 25.3872 77.4454 30.3753 76.4073C59.9777 70.1906 71.1697 51.6816 75.2559 43.6281C75.661 43.5318 74.6946 45.0822 74.4874 46.1549C74.0951 47.7669 76.1526 48.1853 77.1332 41.2668C77.8819 35.8725 76.2994 29.2501 75.0324 25.7715C75.0862 26.1383 75.0613 26.5899 75.0758 26.9992Z" fill="url(#paint13_linear_353_1422)"/>
<defs>
<linearGradient id="paint0_linear_353_1422" x1="9.59654" y1="14.4833" x2="49.1909" y2="0.402255" gradientUnits="userSpaceOnUse">
<stop stop-color="#E02E2E"/>
<stop offset="1" stop-color="#F99F9F"/>
</linearGradient>
<linearGradient id="paint1_linear_353_1422" x1="-2.42179" y1="76.6061" x2="82.9282" y2="51.2945" gradientUnits="userSpaceOnUse">
<stop stop-color="#A50E0E"/>
<stop offset="1" stop-color="#FD6565"/>
</linearGradient>
<linearGradient id="paint2_linear_353_1422" x1="65.542" y1="47.7264" x2="-5.04874" y2="75.4063" gradientUnits="userSpaceOnUse">
<stop stop-color="#E02E2E"/>
<stop offset="1" stop-color="#F99F9F"/>
</linearGradient>
<linearGradient id="paint3_linear_353_1422" x1="31.9958" y1="83.2097" x2="54.0757" y2="71.5439" gradientUnits="userSpaceOnUse">
<stop stop-color="#A50E0E"/>
<stop offset="1" stop-color="#FD6565"/>
</linearGradient>
<linearGradient id="paint4_linear_353_1422" x1="-5.79378" y1="48.1627" x2="78.2038" y2="16.7919" gradientUnits="userSpaceOnUse">
<stop stop-color="#A50E0E"/>
<stop offset="1" stop-color="#FD6565"/>
</linearGradient>
<linearGradient id="paint5_linear_353_1422" x1="60.6576" y1="15.8995" x2="-4.53659" y2="36.4074" gradientUnits="userSpaceOnUse">
<stop stop-color="#FD6565"/>
<stop offset="1" stop-color="#FFD7D7"/>
</linearGradient>
<linearGradient id="paint6_linear_353_1422" x1="7.11397" y1="16.1745" x2="28.0232" y2="3.73125" gradientUnits="userSpaceOnUse">
<stop stop-color="#9FDCF9"/>
<stop offset="1" stop-color="#D7F2FF"/>
</linearGradient>
<linearGradient id="paint7_linear_353_1422" x1="6.16389" y1="23.9217" x2="19.8063" y2="8.61249" gradientUnits="userSpaceOnUse">
<stop stop-color="#2EA8E0"/>
<stop offset="1" stop-color="#9FDCF9"/>
</linearGradient>
<linearGradient id="paint8_linear_353_1422" x1="7.85998" y1="37.2048" x2="47.3395" y2="11.0549" gradientUnits="userSpaceOnUse">
<stop stop-color="#65CDFD"/>
<stop offset="1" stop-color="#D7F2FF"/>
</linearGradient>
<linearGradient id="paint9_linear_353_1422" x1="11.3934" y1="72.8924" x2="76.1184" y2="32.9039" gradientUnits="userSpaceOnUse">
<stop stop-color="#2EA8E0"/>
<stop offset="1" stop-color="#9FDCF9"/>
</linearGradient>
<linearGradient id="paint10_linear_353_1422" x1="52.5578" y1="72.7557" x2="75.4377" y2="54.7057" gradientUnits="userSpaceOnUse">
<stop stop-color="#0E75A5"/>
<stop offset="1" stop-color="#65CDFD"/>
</linearGradient>
<linearGradient id="paint11_linear_353_1422" x1="4.05152" y1="52.3761" x2="53.4371" y2="11.2649" gradientUnits="userSpaceOnUse">
<stop stop-color="#2EA8E0"/>
<stop offset="1" stop-color="#9FDCF9"/>
</linearGradient>
<linearGradient id="paint12_linear_353_1422" x1="32.5238" y1="41.1361" x2="36.8323" y2="36.6805" gradientUnits="userSpaceOnUse">
<stop stop-color="#2EA8E0"/>
<stop offset="1" stop-color="#9FDCF9"/>
</linearGradient>
<linearGradient id="paint13_linear_353_1422" x1="28.2934" y1="77.5487" x2="67.771" y2="35.2904" gradientUnits="userSpaceOnUse">
<stop stop-color="#0E75A5"/>
<stop offset="1" stop-color="#65CDFD"/>
</linearGradient>
</defs>
</svg>
