<svg width="200" height="142" viewBox="0 0 200 142" fill="none" xmlns="http://www.w3.org/2000/svg">
<path d="M9.27735 118.584C10.5837 118.584 11.7778 118.786 12.8597 119.191C13.962 119.575 14.9111 120.075 15.7072 120.693C16.5033 121.311 17.1258 121.993 17.5749 122.738C18.024 123.484 18.2587 124.198 18.2791 124.88C18.2791 125.071 18.2077 125.242 18.0648 125.391C17.9423 125.519 17.7994 125.583 17.6361 125.583H13.6251C13.3394 125.583 13.1046 125.54 12.9209 125.455C12.7576 125.37 12.5841 125.242 12.4004 125.071C12.3392 125.007 12.2371 124.901 12.0942 124.752C11.9718 124.603 11.788 124.453 11.5431 124.304C11.2982 124.134 10.992 123.995 10.6246 123.889C10.2571 123.761 9.80807 123.697 9.27735 123.697C8.88952 123.697 8.51189 123.729 8.14447 123.793C7.79746 123.836 7.48107 123.921 7.1953 124.049C6.92994 124.155 6.70541 124.315 6.5217 124.528C6.3584 124.741 6.27675 125.007 6.27675 125.327C6.27675 125.647 6.36861 125.913 6.55232 126.126C6.75644 126.339 7.08304 126.541 7.5321 126.733C8.00159 126.904 8.61395 127.074 9.3692 127.244C10.1245 127.415 11.0634 127.617 12.1861 127.852C13.3088 128.086 14.2885 128.384 15.1254 128.746C15.9623 129.109 16.6564 129.567 17.2075 130.12C17.779 130.653 18.1975 131.292 18.4628 132.038C18.7486 132.762 18.8915 133.625 18.8915 134.626C18.8915 135.713 18.6568 136.682 18.1873 137.534C17.7178 138.387 17.0544 139.122 16.1971 139.739C15.3602 140.336 14.36 140.794 13.1965 141.114C12.0534 141.433 10.7981 141.593 9.43044 141.593C8.04241 141.593 6.77685 141.401 5.63377 141.018C4.49069 140.634 3.50069 140.134 2.66379 139.516C1.8473 138.877 1.20432 138.163 0.73484 137.375C0.265359 136.586 0.0204122 135.787 0 134.978C0 134.786 0.0612366 134.626 0.18371 134.499C0.326595 134.349 0.479687 134.275 0.642984 134.275H4.65398C4.93975 134.275 5.16429 134.317 5.32759 134.403C5.49088 134.467 5.65418 134.573 5.81748 134.722C5.89913 134.807 6.0216 134.946 6.1849 135.138C6.3482 135.329 6.56252 135.532 6.82788 135.745C7.11365 135.937 7.46066 136.107 7.86891 136.256C8.29756 136.405 8.81807 136.48 9.43044 136.48C10.5123 136.48 11.4104 136.363 12.1249 136.128C12.8597 135.873 13.2271 135.425 13.2271 134.786C13.2271 134.467 13.0944 134.2 12.8291 133.987C12.5637 133.774 12.1657 133.582 11.635 133.412C11.1042 133.22 10.4204 133.039 9.58353 132.869C8.76704 132.698 7.79746 132.485 6.67479 132.23C4.57233 131.761 3.03121 130.983 2.05143 129.897C1.09205 128.789 0.612366 127.319 0.612366 125.487C0.612366 124.571 0.806282 123.697 1.19411 122.866C1.60236 122.035 2.18411 121.3 2.93936 120.661C3.69461 120.022 4.60295 119.522 5.66439 119.159C6.74623 118.776 7.95055 118.584 9.27735 118.584Z" fill="black"/>
<path d="M39.2474 118.904C39.4719 118.904 39.6659 118.989 39.8292 119.159C39.9925 119.33 40.0741 119.532 40.0741 119.767V140.411C40.0741 140.645 39.9925 140.847 39.8292 141.018C39.6659 141.188 39.4719 141.273 39.2474 141.273H35.2364C35.0119 141.273 34.818 141.188 34.6547 141.018C34.4914 140.847 34.4097 140.645 34.4097 140.411V132.581H27.6125V140.411C27.6125 140.645 27.5308 140.847 27.3675 141.018C27.2042 141.188 27.0103 141.273 26.7858 141.273H22.7748C22.5502 141.273 22.3563 141.199 22.193 141.05C22.0297 140.879 21.9481 140.666 21.9481 140.411V119.767C21.9481 119.532 22.0297 119.33 22.193 119.159C22.3563 118.989 22.5502 118.904 22.7748 118.904H26.7858C27.0103 118.904 27.2042 118.989 27.3675 119.159C27.5308 119.33 27.6125 119.532 27.6125 119.767V127.468H34.4097V119.767C34.4097 119.532 34.4914 119.33 34.6547 119.159C34.818 118.989 35.0119 118.904 35.2364 118.904H39.2474Z" fill="black"/>
<path d="M43.6694 127.244C43.7306 126.051 43.9755 124.933 44.4042 123.889C44.8533 122.824 45.4758 121.908 46.2719 121.141C47.0884 120.352 48.0682 119.735 49.2113 119.287C50.3748 118.818 51.7118 118.584 53.2223 118.584C54.7124 118.584 56.0392 118.818 57.2027 119.287C58.3662 119.735 59.3459 120.352 60.142 121.141C60.9585 121.908 61.5811 122.824 62.0097 123.889C62.4588 124.933 62.714 126.051 62.7752 127.244C62.816 128.16 62.8364 129.119 62.8364 130.12C62.8364 131.122 62.816 132.059 62.7752 132.933C62.714 134.126 62.4588 135.255 62.0097 136.32C61.5811 137.364 60.9585 138.28 60.142 139.068C59.3459 139.857 58.3662 140.474 57.2027 140.922C56.0392 141.369 54.7124 141.593 53.2223 141.593C51.7118 141.593 50.3748 141.369 49.2113 140.922C48.0682 140.474 47.0884 139.857 46.2719 139.068C45.4758 138.28 44.8533 137.364 44.4042 136.32C43.9755 135.255 43.7306 134.126 43.6694 132.933C43.6285 132.059 43.6081 131.122 43.6081 130.12C43.6081 129.119 43.6285 128.16 43.6694 127.244ZM57.1108 132.773C57.1312 132.389 57.1516 131.963 57.172 131.495C57.1925 131.026 57.2027 130.547 57.2027 130.057C57.2027 129.567 57.1925 129.098 57.172 128.65C57.1516 128.182 57.1312 127.766 57.1108 127.404C57.07 126.872 56.9577 126.382 56.774 125.934C56.6107 125.487 56.3658 125.103 56.0392 124.784C55.733 124.443 55.3451 124.177 54.8757 123.985C54.4062 123.793 53.8551 123.697 53.2223 123.697C52.5895 123.697 52.0384 123.793 51.5689 123.985C51.0994 124.177 50.7014 124.443 50.3748 124.784C50.0686 125.103 49.8236 125.487 49.6399 125.934C49.4766 126.382 49.3746 126.872 49.3338 127.404C49.2929 127.766 49.2623 128.182 49.2419 128.65C49.2419 129.098 49.2419 129.567 49.2419 130.057C49.2419 130.547 49.2419 131.026 49.2419 131.495C49.2623 131.963 49.2929 132.389 49.3338 132.773C49.4154 133.838 49.7624 134.722 50.3748 135.425C51.0076 136.128 51.9567 136.48 53.2223 136.48C54.4878 136.48 55.4268 136.128 56.0392 135.425C56.6515 134.722 57.0087 133.838 57.1108 132.773Z" fill="black"/>
<path d="M75.4749 118.904C76.8221 118.904 78.0264 119.053 79.0878 119.351C80.1493 119.649 81.0474 120.097 81.7822 120.693C82.5375 121.29 83.109 122.057 83.4968 122.994C83.9051 123.91 84.1092 124.986 84.1092 126.222C84.1092 127.82 83.7928 129.151 83.16 130.216C82.5273 131.26 81.6291 132.059 80.4656 132.613L84.2623 140.219C84.3235 140.347 84.3542 140.464 84.3542 140.57C84.3542 140.762 84.2827 140.933 84.1398 141.082C84.0174 141.209 83.8643 141.273 83.6806 141.273H79.5165C79.1082 141.273 78.8122 141.178 78.6285 140.986C78.4652 140.794 78.3326 140.602 78.2305 140.411L74.8319 133.572H72.015V140.411C72.015 140.645 71.9333 140.847 71.77 141.018C71.6067 141.188 71.4128 141.273 71.1883 141.273H67.1773C66.9528 141.273 66.7588 141.188 66.5955 141.018C66.4322 140.847 66.3506 140.645 66.3506 140.411V119.767C66.3506 119.532 66.4322 119.33 66.5955 119.159C66.7588 118.989 66.9528 118.904 67.1773 118.904H75.4749ZM72.015 128.587H75.4749C76.3322 128.587 77.0364 128.416 77.5875 128.075C78.1591 127.734 78.4448 127.117 78.4448 126.222C78.4448 125.327 78.1591 124.709 77.5875 124.368C77.0364 124.027 76.3322 123.857 75.4749 123.857H72.015V128.587Z" fill="black"/>
<path d="M103.198 118.904C103.423 118.904 103.617 118.989 103.78 119.159C103.943 119.33 104.025 119.532 104.025 119.767V123.154C104.025 123.388 103.943 123.591 103.78 123.761C103.617 123.932 103.423 124.017 103.198 124.017H97.8095V140.411C97.8095 140.645 97.7278 140.847 97.5645 141.018C97.4012 141.188 97.2073 141.273 96.9828 141.273H92.9718C92.7472 141.273 92.5533 141.188 92.39 141.018C92.2267 140.847 92.1451 140.645 92.1451 140.411V124.017H86.7563C86.5317 124.017 86.3378 123.932 86.1745 123.761C86.0112 123.591 85.9296 123.388 85.9296 123.154V119.767C85.9296 119.532 86.0112 119.33 86.1745 119.159C86.3378 118.989 86.5317 118.904 86.7563 118.904H103.198Z" fill="black"/>
<path d="M124.076 118.904C124.3 118.904 124.494 118.989 124.657 119.159C124.821 119.33 124.902 119.532 124.902 119.767V140.411C124.902 140.645 124.821 140.847 124.657 141.018C124.494 141.188 124.3 141.273 124.076 141.273H120.065C119.84 141.273 119.646 141.188 119.483 141.018C119.32 140.847 119.238 140.645 119.238 140.411V132.581H112.441V140.411C112.441 140.645 112.359 140.847 112.196 141.018C112.032 141.188 111.839 141.273 111.614 141.273H107.603C107.378 141.273 107.185 141.199 107.021 141.05C106.858 140.879 106.776 140.666 106.776 140.411V119.767C106.776 119.532 106.858 119.33 107.021 119.159C107.185 118.989 107.378 118.904 107.603 118.904H111.614C111.839 118.904 112.032 118.989 112.196 119.159C112.359 119.33 112.441 119.532 112.441 119.767V127.468H119.238V119.767C119.238 119.532 119.32 119.33 119.483 119.159C119.646 118.989 119.84 118.904 120.065 118.904H124.076Z" fill="black"/>
<path d="M140.531 118.904C140.939 118.904 141.245 119.021 141.449 119.255C141.674 119.49 141.827 119.724 141.908 119.958L148.583 140.091C148.665 140.304 148.706 140.464 148.706 140.57C148.706 140.762 148.634 140.933 148.491 141.082C148.369 141.209 148.216 141.273 148.032 141.273H144.174C143.766 141.273 143.47 141.188 143.286 141.018C143.123 140.826 143.021 140.645 142.98 140.474L142.123 137.822H133.978L133.121 140.474C133.08 140.645 132.968 140.826 132.784 141.018C132.621 141.188 132.335 141.273 131.927 141.273H128.069C127.885 141.273 127.722 141.209 127.579 141.082C127.457 140.933 127.395 140.762 127.395 140.57C127.395 140.464 127.436 140.304 127.518 140.091L134.193 119.958C134.274 119.724 134.417 119.49 134.621 119.255C134.846 119.021 135.162 118.904 135.57 118.904H140.531ZM135.57 132.869H140.531L138.051 125.199L135.57 132.869Z" fill="black"/>
<path d="M152.006 141.273C151.781 141.273 151.587 141.188 151.424 141.018C151.261 140.847 151.179 140.645 151.179 140.411V119.767C151.179 119.532 151.261 119.33 151.424 119.159C151.587 118.989 151.781 118.904 152.006 118.904H156.017C156.241 118.904 156.435 118.989 156.598 119.159C156.762 119.33 156.843 119.532 156.843 119.767V140.411C156.843 140.645 156.762 140.847 156.598 141.018C156.435 141.188 156.241 141.273 156.017 141.273H152.006Z" fill="black"/>
<path d="M170.26 118.904C171.607 118.904 172.812 119.053 173.873 119.351C174.934 119.649 175.833 120.097 176.567 120.693C177.323 121.29 177.894 122.057 178.282 122.994C178.69 123.91 178.894 124.986 178.894 126.222C178.894 127.82 178.578 129.151 177.945 130.216C177.312 131.26 176.414 132.059 175.251 132.613L179.048 140.219C179.109 140.347 179.139 140.464 179.139 140.57C179.139 140.762 179.068 140.933 178.925 141.082C178.803 141.209 178.649 141.273 178.466 141.273H174.302C173.893 141.273 173.597 141.178 173.414 140.986C173.25 140.794 173.118 140.602 173.016 140.411L169.617 133.572H166.8V140.411C166.8 140.645 166.719 140.847 166.555 141.018C166.392 141.188 166.198 141.273 165.973 141.273H161.962C161.738 141.273 161.544 141.188 161.381 141.018C161.217 140.847 161.136 140.645 161.136 140.411V119.767C161.136 119.532 161.217 119.33 161.381 119.159C161.544 118.989 161.738 118.904 161.962 118.904H170.26ZM166.8 128.587H170.26C171.117 128.587 171.822 128.416 172.373 128.075C172.944 127.734 173.23 127.117 173.23 126.222C173.23 125.327 172.944 124.709 172.373 124.368C171.822 124.027 171.117 123.857 170.26 123.857H166.8V128.587Z" fill="black"/>
<path d="M190.386 118.584C191.692 118.584 192.886 118.786 193.968 119.191C195.07 119.575 196.02 120.075 196.816 120.693C197.612 121.311 198.234 121.993 198.683 122.738C199.132 123.484 199.367 124.198 199.388 124.88C199.388 125.071 199.316 125.242 199.173 125.391C199.051 125.519 198.908 125.583 198.745 125.583H194.734C194.448 125.583 194.213 125.54 194.029 125.455C193.866 125.37 193.693 125.242 193.509 125.071C193.448 125.007 193.346 124.901 193.203 124.752C193.08 124.603 192.897 124.453 192.652 124.304C192.407 124.134 192.1 123.995 191.733 123.889C191.366 123.761 190.917 123.697 190.386 123.697C189.998 123.697 189.62 123.729 189.253 123.793C188.906 123.836 188.59 123.921 188.304 124.049C188.038 124.155 187.814 124.315 187.63 124.528C187.467 124.741 187.385 125.007 187.385 125.327C187.385 125.647 187.477 125.913 187.661 126.126C187.865 126.339 188.192 126.541 188.641 126.733C189.11 126.904 189.722 127.074 190.478 127.244C191.233 127.415 192.172 127.617 193.295 127.852C194.417 128.086 195.397 128.384 196.234 128.746C197.071 129.109 197.765 129.567 198.316 130.12C198.888 130.653 199.306 131.292 199.571 132.038C199.857 132.762 200 133.625 200 134.626C200 135.713 199.765 136.682 199.296 137.534C198.826 138.387 198.163 139.122 197.306 139.739C196.469 140.336 195.468 140.794 194.305 141.114C193.162 141.433 191.907 141.593 190.539 141.593C189.151 141.593 187.885 141.401 186.742 141.018C185.599 140.634 184.609 140.134 183.772 139.516C182.956 138.877 182.313 138.163 181.843 137.375C181.374 136.586 181.129 135.787 181.109 134.978C181.109 134.786 181.17 134.626 181.292 134.499C181.435 134.349 181.588 134.275 181.751 134.275H185.762C186.048 134.275 186.273 134.317 186.436 134.403C186.599 134.467 186.763 134.573 186.926 134.722C187.008 134.807 187.13 134.946 187.293 135.138C187.457 135.329 187.671 135.532 187.936 135.745C188.222 135.937 188.569 136.107 188.977 136.256C189.406 136.405 189.927 136.48 190.539 136.48C191.621 136.48 192.519 136.363 193.233 136.128C193.968 135.873 194.336 135.425 194.336 134.786C194.336 134.467 194.203 134.2 193.938 133.987C193.672 133.774 193.274 133.582 192.743 133.412C192.213 133.22 191.529 133.039 190.692 132.869C189.876 132.698 188.906 132.485 187.783 132.23C185.681 131.761 184.14 130.983 183.16 129.897C182.201 128.789 181.721 127.319 181.721 125.487C181.721 124.571 181.915 123.697 182.303 122.866C182.711 122.035 183.293 121.3 184.048 120.661C184.803 120.022 185.711 119.522 186.773 119.159C187.855 118.776 189.059 118.584 190.386 118.584Z" fill="black"/>
<path d="M5.35493 100C4.82396 100 4.34018 100.071 3.90361 100.212C3.47883 100.342 3.10715 100.561 2.78856 100.867C2.48178 101.162 2.23399 101.546 2.0452 102.018C1.86821 102.49 1.76791 103.056 1.74431 103.717C1.70892 104.779 1.70892 105.841 1.74431 106.903C1.76791 107.563 1.86821 108.13 2.0452 108.602C2.23399 109.074 2.48178 109.463 2.78856 109.77C3.10715 110.065 3.47883 110.283 3.90361 110.425C4.34018 110.555 4.82396 110.62 5.35493 110.62C5.87411 110.62 6.35788 110.549 6.80626 110.407C7.25464 110.254 7.63812 110.03 7.9567 109.735C8.28709 109.428 8.54667 109.038 8.73547 108.566C8.92426 108.094 9.01865 107.54 9.01865 106.903V106H5.939C5.67942 106 5.54962 105.864 5.54962 105.593V105.345C5.54962 105.074 5.67942 104.938 5.939 104.938H9.72662C9.998 104.938 10.1337 105.074 10.1337 105.345V106.903C10.1337 107.611 10.0275 108.26 9.81511 108.85C9.60272 109.428 9.29004 109.929 8.87706 110.354C8.47588 110.779 7.9744 111.109 7.37263 111.345C6.78266 111.569 6.1101 111.681 5.35493 111.681C4.58797 111.681 3.91541 111.569 3.33723 111.345C2.75906 111.109 2.26939 110.785 1.86821 110.372C1.47883 109.959 1.17794 109.469 0.965553 108.903C0.764963 108.325 0.652869 107.687 0.62927 106.991C0.605671 106.46 0.593872 105.9 0.593872 105.31C0.593872 104.72 0.605671 104.159 0.62927 103.628C0.652869 102.932 0.770863 102.301 0.983252 101.735C1.19564 101.156 1.49653 100.661 1.88591 100.248C2.28709 99.8349 2.77676 99.5163 3.35493 99.2921C3.9331 99.0561 4.59977 98.9381 5.35493 98.9381C6.16909 98.9381 6.86526 99.062 7.44343 99.3098C8.0216 99.5576 8.49358 99.8526 8.85936 100.195C9.22514 100.537 9.49653 100.897 9.67352 101.274C9.85051 101.652 9.94491 101.965 9.9567 102.212C9.9685 102.319 9.939 102.407 9.86821 102.478C9.79741 102.537 9.70302 102.566 9.58502 102.566H9.19564C9.08945 102.566 9.01275 102.543 8.96555 102.496C8.91836 102.437 8.87116 102.342 8.82396 102.212C8.72956 101.941 8.59387 101.676 8.41688 101.416C8.25169 101.145 8.0275 100.909 7.74431 100.708C7.46113 100.496 7.12485 100.325 6.73547 100.195C6.34608 100.065 5.88591 100 5.35493 100Z" fill="black"/>
<path d="M24.4534 99.1151C25.6923 99.1151 26.6776 99.4101 27.4091 100C28.1525 100.59 28.5242 101.487 28.5242 102.69C28.5242 103.646 28.2882 104.407 27.8162 104.974C27.356 105.528 26.7012 105.906 25.8516 106.106L28.7012 110.956C28.7366 111.027 28.7543 111.092 28.7543 111.151C28.7543 111.245 28.7189 111.327 28.6481 111.398C28.5773 111.469 28.4947 111.504 28.4003 111.504H28.1879C27.9873 111.504 27.8398 111.457 27.7454 111.363C27.6628 111.268 27.5861 111.156 27.5153 111.027L24.7012 106.266H21.0552V111.115C21.0552 111.375 20.9195 111.504 20.6481 111.504H20.3295C20.0699 111.504 19.9401 111.375 19.9401 111.115V99.5222C19.9401 99.2508 20.0699 99.1151 20.3295 99.1151H24.4534ZM21.0552 105.204H24.3649C26.3944 105.204 27.4091 104.366 27.4091 102.69C27.4091 101.015 26.3944 100.177 24.3649 100.177H21.0552V105.204Z" fill="black"/>
<path d="M42.5357 98.9381C43.22 98.9381 43.8454 99.0384 44.4118 99.239C44.9781 99.4396 45.4619 99.7464 45.8631 100.159C46.2761 100.561 46.5947 101.068 46.8188 101.681C47.0548 102.283 47.1846 102.997 47.2082 103.823C47.2318 104.354 47.2436 104.85 47.2436 105.31C47.2436 105.77 47.2318 106.266 47.2082 106.797C47.161 108.472 46.7362 109.705 45.9339 110.496C45.1315 111.286 43.9988 111.681 42.5357 111.681C41.0607 111.681 39.9221 111.286 39.1197 110.496C38.3292 109.705 37.9103 108.472 37.8631 106.797C37.8395 106.266 37.8277 105.77 37.8277 105.31C37.8277 104.85 37.8395 104.354 37.8631 103.823C37.8867 102.997 38.0106 102.283 38.2348 101.681C38.4708 101.068 38.7893 100.561 39.1905 100.159C39.6035 99.7464 40.0873 99.4396 40.6418 99.239C41.2082 99.0384 41.8395 98.9381 42.5357 98.9381ZM42.5357 100C42.0401 100 41.5799 100.077 41.1551 100.23C40.7303 100.372 40.3587 100.602 40.0401 100.92C39.7215 101.239 39.4678 101.646 39.279 102.142C39.102 102.637 39.0017 103.227 38.9781 103.912C38.9663 104.183 38.9545 104.431 38.9427 104.655C38.9427 104.879 38.9427 105.097 38.9427 105.31C38.9427 105.522 38.9427 105.746 38.9427 105.982C38.9545 106.207 38.9663 106.448 38.9781 106.708C39.0017 107.404 39.102 108 39.279 108.496C39.4678 108.979 39.7156 109.381 40.0224 109.699C40.341 110.018 40.7127 110.254 41.1374 110.407C41.5622 110.549 42.0283 110.62 42.5357 110.62C43.043 110.62 43.5091 110.549 43.9339 110.407C44.3587 110.254 44.7244 110.018 45.0312 109.699C45.3498 109.381 45.5976 108.979 45.7746 108.496C45.9634 108 46.0696 107.404 46.0932 106.708C46.105 106.448 46.1109 106.207 46.1109 105.982C46.1109 105.746 46.1109 105.522 46.1109 105.31C46.1109 105.097 46.1109 104.879 46.1109 104.655C46.1109 104.431 46.105 104.183 46.0932 103.912C46.0696 103.227 45.9634 102.637 45.7746 102.142C45.5976 101.646 45.3498 101.239 45.0312 100.92C44.7127 100.602 44.341 100.372 43.9162 100.23C43.4914 100.077 43.0312 100 42.5357 100Z" fill="black"/>
<path d="M65.0332 99.5222C65.0332 99.2508 65.1689 99.1151 65.4402 99.1151H65.7588C66.0184 99.1151 66.1482 99.2508 66.1482 99.5222V106.708C66.1482 108.431 65.7529 109.693 64.9624 110.496C64.1718 111.286 63.0509 111.681 61.5995 111.681C60.8798 111.681 60.2367 111.587 59.6703 111.398C59.104 111.198 58.6261 110.897 58.2367 110.496C57.8473 110.083 57.5464 109.563 57.334 108.938C57.1335 108.313 57.0332 107.569 57.0332 106.708V99.5222C57.0332 99.2508 57.163 99.1151 57.4225 99.1151H57.7411C58.0125 99.1151 58.1482 99.2508 58.1482 99.5222V106.761C58.1482 108.094 58.455 109.074 59.0686 109.699C59.6939 110.313 60.5376 110.62 61.5995 110.62C62.6615 110.62 63.4992 110.313 64.1128 109.699C64.7264 109.074 65.0332 108.094 65.0332 106.761V99.5222Z" fill="black"/>
<path d="M80.0846 98.9381C80.7808 98.9381 81.3884 99.0384 81.9076 99.239C82.4268 99.4278 82.8575 99.6756 83.1996 99.9824C83.5418 100.277 83.8014 100.608 83.9784 100.974C84.1554 101.339 84.2498 101.693 84.2616 102.035C84.2616 102.13 84.2321 102.212 84.1731 102.283C84.1141 102.354 84.0197 102.389 83.8899 102.389H83.5359C83.4769 102.389 83.4002 102.366 83.3058 102.319C83.2232 102.271 83.1702 102.177 83.1466 102.035C83.0758 101.445 82.7631 100.962 82.2085 100.584C81.6657 100.195 80.9578 100 80.0846 100C79.648 100 79.2468 100.041 78.8811 100.124C78.5153 100.207 78.2026 100.336 77.943 100.513C77.6834 100.69 77.4769 100.915 77.3235 101.186C77.1819 101.445 77.1112 101.758 77.1112 102.124C77.1112 102.478 77.176 102.779 77.3058 103.027C77.4474 103.274 77.6657 103.499 77.9607 103.699C78.2557 103.9 78.6274 104.089 79.0758 104.266C79.5241 104.443 80.0669 104.631 80.7041 104.832C81.3648 105.044 81.9371 105.257 82.4209 105.469C82.9165 105.67 83.3235 105.9 83.6421 106.159C83.9725 106.419 84.2144 106.72 84.3678 107.062C84.533 107.404 84.6156 107.817 84.6156 108.301C84.6156 109.375 84.2203 110.207 83.4297 110.797C82.6392 111.386 81.5536 111.681 80.1731 111.681C79.4533 111.681 78.8162 111.593 78.2616 111.416C77.707 111.227 77.235 110.985 76.8457 110.69C76.4681 110.395 76.1731 110.059 75.9607 109.681C75.7601 109.292 75.6539 108.897 75.6421 108.496C75.6421 108.401 75.6775 108.319 75.7483 108.248C75.8191 108.177 75.9076 108.142 76.0138 108.142H76.3678C76.4858 108.142 76.5743 108.177 76.6333 108.248C76.6923 108.319 76.7336 108.401 76.7572 108.496C76.7926 108.743 76.8811 108.997 77.0227 109.257C77.1642 109.504 77.3707 109.729 77.6421 109.929C77.9253 110.13 78.2734 110.295 78.6864 110.425C79.0993 110.555 79.5949 110.62 80.1731 110.62C81.3294 110.62 82.1731 110.413 82.7041 110C83.235 109.575 83.5005 109.009 83.5005 108.301C83.5005 107.947 83.4238 107.652 83.2704 107.416C83.1171 107.168 82.8811 106.95 82.5625 106.761C82.2439 106.561 81.8427 106.372 81.3589 106.195C80.8752 106.018 80.3029 105.823 79.6421 105.611C79.005 105.41 78.4563 105.209 77.9961 105.009C77.5477 104.797 77.1701 104.561 76.8634 104.301C76.5684 104.03 76.3501 103.723 76.2085 103.381C76.0669 103.027 75.9961 102.608 75.9961 102.124C75.9961 101.676 76.0846 101.257 76.2616 100.867C76.4504 100.478 76.7159 100.142 77.0581 99.8585C77.4002 99.5753 77.825 99.3511 78.3324 99.1859C78.8398 99.0207 79.4238 98.9381 80.0846 98.9381Z" fill="black"/>
<path d="M101.686 110.443C101.957 110.443 102.093 110.578 102.093 110.85V111.115C102.093 111.375 101.957 111.504 101.686 111.504H94.6416C94.382 111.504 94.2522 111.375 94.2522 111.115V99.5222C94.2522 99.2508 94.382 99.1151 94.6416 99.1151H101.544C101.816 99.1151 101.951 99.2508 101.951 99.5222V99.7877C101.951 100.047 101.816 100.177 101.544 100.177H95.3672V104.69H101.155C101.426 104.69 101.562 104.826 101.562 105.097V105.363C101.562 105.622 101.426 105.752 101.155 105.752H95.3672V110.443H101.686Z" fill="black"/>
<path d="M130.292 99.1151C130.563 99.1151 130.699 99.2508 130.699 99.5222V99.7877C130.699 100.047 130.563 100.177 130.292 100.177H126.805V111.115C126.805 111.375 126.669 111.504 126.398 111.504H126.079C125.82 111.504 125.69 111.375 125.69 111.115V100.177H122.186C121.926 100.177 121.796 100.047 121.796 99.7877V99.5222C121.796 99.2508 121.926 99.1151 122.186 99.1151H130.292Z" fill="black"/>
<path d="M145.804 108.407H139.539L138.441 111.239C138.418 111.286 138.376 111.345 138.317 111.416C138.258 111.475 138.17 111.504 138.052 111.504H137.698C137.604 111.504 137.521 111.469 137.45 111.398C137.379 111.327 137.344 111.245 137.344 111.151C137.344 111.092 137.356 111.027 137.379 110.956L141.857 99.4691C141.904 99.3511 141.963 99.2626 142.034 99.2036C142.117 99.1446 142.229 99.1151 142.371 99.1151H142.972C143.114 99.1151 143.22 99.1446 143.291 99.2036C143.373 99.2626 143.438 99.3511 143.486 99.4691L147.963 110.956C147.987 111.027 147.999 111.092 147.999 111.151C147.999 111.245 147.963 111.327 147.893 111.398C147.822 111.469 147.739 111.504 147.645 111.504H147.291C147.173 111.504 147.084 111.475 147.025 111.416C146.966 111.345 146.925 111.286 146.902 111.239L145.804 108.407ZM139.963 107.345H145.379L142.671 100.372L139.963 107.345Z" fill="black"/>
<path d="M158.289 110.443H164.395C164.667 110.443 164.802 110.578 164.802 110.85V111.115C164.802 111.375 164.667 111.504 164.395 111.504H157.563C157.304 111.504 157.174 111.375 157.174 111.115V99.5045C157.174 99.2449 157.304 99.1151 157.563 99.1151H157.9C158.159 99.1151 158.289 99.2449 158.289 99.5045V110.443Z" fill="black"/>
<path d="M181.384 110.443C181.655 110.443 181.791 110.578 181.791 110.85V111.115C181.791 111.375 181.655 111.504 181.384 111.504H174.339C174.08 111.504 173.95 111.375 173.95 111.115V99.5222C173.95 99.2508 174.08 99.1151 174.339 99.1151H181.242C181.513 99.1151 181.649 99.2508 181.649 99.5222V99.7877C181.649 100.047 181.513 100.177 181.242 100.177H175.065V104.69H180.853C181.124 104.69 181.26 104.826 181.26 105.097V105.363C181.26 105.622 181.124 105.752 180.853 105.752H175.065V110.443H181.384Z" fill="black"/>
<path d="M195.132 98.9381C195.828 98.9381 196.436 99.0384 196.955 99.239C197.474 99.4278 197.905 99.6756 198.247 99.9824C198.59 100.277 198.849 100.608 199.026 100.974C199.203 101.339 199.297 101.693 199.309 102.035C199.309 102.13 199.28 102.212 199.221 102.283C199.162 102.354 199.067 102.389 198.938 102.389H198.584C198.525 102.389 198.448 102.366 198.354 102.319C198.271 102.271 198.218 102.177 198.194 102.035C198.123 101.445 197.811 100.962 197.256 100.584C196.713 100.195 196.005 100 195.132 100C194.696 100 194.295 100.041 193.929 100.124C193.563 100.207 193.25 100.336 192.991 100.513C192.731 100.69 192.525 100.915 192.371 101.186C192.23 101.445 192.159 101.758 192.159 102.124C192.159 102.478 192.224 102.779 192.354 103.027C192.495 103.274 192.713 103.499 193.008 103.699C193.303 103.9 193.675 104.089 194.123 104.266C194.572 104.443 195.115 104.631 195.752 104.832C196.413 105.044 196.985 105.257 197.469 105.469C197.964 105.67 198.371 105.9 198.69 106.159C199.02 106.419 199.262 106.72 199.415 107.062C199.581 107.404 199.663 107.817 199.663 108.301C199.663 109.375 199.268 110.207 198.477 110.797C197.687 111.386 196.601 111.681 195.221 111.681C194.501 111.681 193.864 111.593 193.309 111.416C192.755 111.227 192.283 110.985 191.893 110.69C191.516 110.395 191.221 110.059 191.008 109.681C190.808 109.292 190.702 108.897 190.69 108.496C190.69 108.401 190.725 108.319 190.796 108.248C190.867 108.177 190.955 108.142 191.062 108.142H191.415C191.533 108.142 191.622 108.177 191.681 108.248C191.74 108.319 191.781 108.401 191.805 108.496C191.84 108.743 191.929 108.997 192.07 109.257C192.212 109.504 192.418 109.729 192.69 109.929C192.973 110.13 193.321 110.295 193.734 110.425C194.147 110.555 194.643 110.62 195.221 110.62C196.377 110.62 197.221 110.413 197.752 110C198.283 109.575 198.548 109.009 198.548 108.301C198.548 107.947 198.472 107.652 198.318 107.416C198.165 107.168 197.929 106.95 197.61 106.761C197.292 106.561 196.89 106.372 196.407 106.195C195.923 106.018 195.351 105.823 194.69 105.611C194.053 105.41 193.504 105.209 193.044 105.009C192.595 104.797 192.218 104.561 191.911 104.301C191.616 104.03 191.398 103.723 191.256 103.381C191.115 103.027 191.044 102.608 191.044 102.124C191.044 101.676 191.132 101.257 191.309 100.867C191.498 100.478 191.764 100.142 192.106 99.8585C192.448 99.5753 192.873 99.3511 193.38 99.1859C193.887 99.0207 194.472 98.9381 195.132 98.9381Z" fill="black"/>
<path d="M59.1506 74.8427L57.5039 89.1778C57.3756 90.2944 56.4304 91.1377 55.3061 91.1377H51.7606C50.4591 91.1377 49.4388 90.0199 49.5573 88.7241L51.2688 69.9732C51.3347 69.2451 51.7846 68.6172 52.4335 68.3112C56.646 66.3332 58.3245 58.7568 57.4826 51.6001L57.3824 50.7482L67.5389 40.5917C68.4261 39.0323 69.9678 38.0291 71.8358 38.3687C73.9133 38.7465 75.8045 40.7408 77.6376 44.4071C81.0816 51.2952 71.8621 63.6923 59.1506 74.8427Z" fill="black"/>
<path d="M59.1506 74.8427L57.5039 89.1778C57.3756 90.2944 56.4304 91.1377 55.3061 91.1377H51.7606C50.4591 91.1377 49.4388 90.0199 49.5573 88.7241L51.2688 69.9732C51.3347 69.2451 51.7846 68.6172 52.4335 68.3112C56.646 66.3332 58.3245 58.7568 57.4826 51.6001L57.3824 50.7482L67.5389 40.5917C68.4261 39.0323 69.9678 38.0291 71.8358 38.3687C73.9133 38.7465 75.8045 40.7408 77.6376 44.4071C81.0816 51.2952 71.8621 63.6923 59.1506 74.8427ZM54.7203 71.1021L53.2146 87.5979H54.1223L55.6729 74.1C55.7484 73.4433 56.0613 72.8413 56.5619 72.4043C67.9068 62.505 76.7924 50.632 74.4715 45.9901C73.0882 43.2235 71.9089 41.9799 71.2026 41.8515C71.033 41.8206 70.7847 41.9968 70.558 42.4503L70.4295 42.7072L61.0892 52.0475C61.8306 59.9457 60.0019 67.9852 54.7203 71.1021Z" fill="black"/>
<path d="M121.77 76.3701C120.114 76.3701 119.658 75.3993 119.104 73.1808C118.886 72.3068 118.714 71.3281 118.585 70.4059C118.514 69.8963 118.595 69.3876 118.803 68.9285C119.244 67.951 119.703 66.6354 120.041 65.0947C120.357 63.6575 117.512 61.1905 109.776 57.3227L109.586 57.2123C108.288 56.3467 107.969 54.8773 108.754 53.6044C109.194 52.8925 109.929 52.2882 110.93 51.6949C112.396 50.8263 114.523 49.9747 116.031 49.5978L116.777 49.4114L117.422 49.8289C121.694 52.5929 123.992 54.3321 126.104 56.8014C129.233 60.4585 130.33 64.4588 128.739 68.7451C126.651 74.3698 124.432 76.3701 121.77 76.3701Z" fill="black"/>
<path d="M121.77 76.3701C120.114 76.3701 119.658 75.3993 119.104 73.1808C118.886 72.3068 118.714 71.3281 118.585 70.4059C118.514 69.8963 118.595 69.3876 118.803 68.9285C119.244 67.951 119.703 66.6354 120.041 65.0947C120.357 63.6575 117.512 61.1905 109.776 57.3227L109.586 57.2123C108.288 56.3467 107.969 54.8773 108.754 53.6044C109.194 52.8925 109.929 52.2882 110.93 51.6949C112.396 50.8263 114.523 49.9747 116.031 49.5978L116.777 49.4114L117.422 49.8289C121.694 52.5929 123.992 54.3321 126.104 56.8014C129.233 60.4585 130.33 64.4588 128.739 68.7451C126.651 74.3698 124.432 76.3701 121.77 76.3701ZM122.7 72.3981C123.535 71.6455 124.464 70.0891 125.421 67.513C127.328 62.3756 124.208 58.5323 116.17 53.2391C115.053 53.5968 113.68 54.1804 112.735 54.7402C112.7 54.761 112.666 54.7816 112.632 54.8021C121.006 59.1127 124.306 62.1792 123.499 65.8537C123.127 67.5455 122.63 69.0094 122.126 70.1656C122.235 70.9009 122.375 71.6693 122.539 72.3235C122.554 72.3839 122.569 72.4425 122.584 72.4991C122.621 72.4683 122.659 72.4347 122.7 72.3981Z" fill="black"/>
<path d="M50.9165 21.1125C48.8662 16.5079 48.3865 13.951 47.4153 5.75489C47.3058 4.83075 47.2179 4.19069 47.1299 3.69028C46.8119 2.13142 47.422 0.795861 48.7279 0.242934C49.6264 -0.137471 50.7408 -0.0587749 51.5116 0.392608C51.94 0.643506 52.1066 0.889859 52.2782 1.25361C52.3342 1.37228 52.382 1.49605 52.431 1.64017C52.4998 1.84266 52.5751 2.09905 52.6714 2.45122C52.7665 2.79912 53.2081 4.48749 53.3167 4.89454C54.0352 7.5865 54.7134 9.81333 55.53 11.9854C57.4157 17.001 59.5916 20.3134 61.8578 21.2562C71.0669 25.0872 75.5024 25.3613 101.718 24.0306C109.57 24.0306 118.732 23.7313 122.707 23.1634C126.521 22.6185 133.926 19.4496 139.746 16.3182C145.008 13.1611 152.404 12.7105 157.717 17.3596C158.075 17.6573 159.204 18.9417 159.495 19.2099C160.082 19.7525 160.726 20.1489 161.57 20.4303C161.517 20.4125 165.71 20.8723 168.166 21.1301C169.787 21.3003 170.891 22.8872 170.41 24.4742C168.676 30.1825 164.669 34.65 159.24 34.65H140.799C135.363 35.5835 126.837 43.2373 120.069 56.7671C118.32 59.8281 115.804 67.9797 114.09 78.2614L112.512 89.3857C112.358 90.4765 111.424 91.2872 110.322 91.2872H105.731C104.459 91.2872 103.439 90.2198 103.523 88.9369C104.298 77.0372 104.558 65.0464 103.907 61.1548C95.5434 60.6538 85.1799 55.9696 78.2506 47.3063C77.2994 46.1966 73.407 47.7928 67.8156 52.2113C62.9767 56.0352 57.229 61.6347 52.4888 66.9124C52.4292 66.9684 52.4292 66.9684 52.3696 67.0243C46.2964 72.7143 44.7921 74.4872 41.534 81.1771C40.5937 83.092 39.8405 86.3294 39.3646 89.4083C39.1975 90.4886 38.2683 91.2872 37.1735 91.2872H34.0711C32.7524 91.2872 31.7265 90.1411 31.8722 88.8305L34.4557 65.5786C34.5609 64.6329 35.3347 63.8957 36.2964 63.8489C41.966 63.5782 45.6622 60.4144 47.7672 49.3631C50.0954 37.1405 51.5531 33.121 55.3124 28.1583C53.4985 26.0092 52.05 23.6583 50.9165 21.1125Z" fill="white"/>
<mask id="mask0" mask-type="alpha" maskUnits="userSpaceOnUse" x="31" y="0" width="140" height="92">
<path d="M50.9165 21.1125C48.8662 16.5079 48.3865 13.951 47.4153 5.75489C47.3058 4.83075 47.2179 4.19069 47.1299 3.69028C46.8119 2.13142 47.422 0.795861 48.7279 0.242934C49.6264 -0.137471 50.7408 -0.0587749 51.5116 0.392608C51.94 0.643506 52.1066 0.889859 52.2782 1.25361C52.3342 1.37228 52.382 1.49605 52.431 1.64017C52.4998 1.84266 52.5751 2.09905 52.6714 2.45122C52.7665 2.79912 53.2081 4.48749 53.3167 4.89454C54.0352 7.5865 54.7134 9.81333 55.53 11.9854C57.4157 17.001 59.5916 20.3134 61.8578 21.2562C71.0669 25.0872 75.5024 25.3613 101.718 24.0306C109.57 24.0306 118.732 23.7313 122.707 23.1634C126.521 22.6185 133.926 19.4496 139.746 16.3182C145.008 13.1611 152.404 12.7105 157.717 17.3596C158.075 17.6573 159.204 18.9417 159.495 19.2099C160.082 19.7525 160.726 20.1489 161.57 20.4303C161.517 20.4125 165.71 20.8723 168.166 21.1301C169.787 21.3003 170.891 22.8872 170.41 24.4742C168.676 30.1825 164.669 34.65 159.24 34.65H140.799C135.363 35.5835 126.837 43.2373 120.069 56.7671C118.32 59.8281 115.804 67.9797 114.09 78.2614L112.512 89.3857C112.358 90.4765 111.424 91.2872 110.322 91.2872H105.731C104.459 91.2872 103.439 90.2198 103.523 88.9369C104.298 77.0372 104.558 65.0464 103.907 61.1548C95.5434 60.6538 85.1799 55.9696 78.2506 47.3063C77.2994 46.1966 73.407 47.7928 67.8156 52.2113C62.9767 56.0352 57.229 61.6347 52.4888 66.9124C52.4292 66.9684 52.4292 66.9684 52.3696 67.0243C46.2964 72.7143 44.7921 74.4872 41.534 81.1771C40.5937 83.092 39.8405 86.3294 39.3646 89.4083C39.1975 90.4886 38.2683 91.2872 37.1735 91.2872H34.0711C32.7524 91.2872 31.7265 90.1411 31.8722 88.8305L34.4557 65.5786C34.5609 64.6329 35.3347 63.8957 36.2964 63.8489C41.966 63.5782 45.6622 60.4144 47.7672 49.3631C50.0954 37.1405 51.5531 33.121 55.3124 28.1583C53.4985 26.0092 52.05 23.6583 50.9165 21.1125Z" fill="white"/>
</mask>
<g mask="url(#mask0)">
<path d="M129.276 23.0088L140.78 18.5841L147.86 15.9292L156.709 18.5841L169.984 23.0088L164.674 31.8584L139.01 38.938C139.01 38.938 137.241 34.5133 132.816 30.0885C128.391 25.6637 129.276 23.0088 129.276 23.0088Z" fill="black"/>
</g>
<path d="M50.9165 21.1125C48.8662 16.5079 48.3865 13.951 47.4153 5.75489C47.3058 4.83075 47.2179 4.19069 47.1299 3.69028C46.8119 2.13142 47.422 0.795861 48.7279 0.242934C49.6264 -0.137471 50.7408 -0.0587749 51.5116 0.392608C51.94 0.643506 52.1066 0.889859 52.2782 1.25361C52.3342 1.37228 52.382 1.49605 52.431 1.64017C52.4998 1.84266 52.5751 2.09905 52.6714 2.45122C52.7665 2.79912 53.2081 4.48749 53.3167 4.89454C54.0352 7.5865 54.7134 9.81333 55.53 11.9854C57.4157 17.001 59.5916 20.3134 61.8578 21.2562C71.0669 25.0872 75.5024 25.3613 101.718 24.0306C109.57 24.0306 118.732 23.7313 122.707 23.1634C126.521 22.6185 133.926 19.4496 139.746 16.3182C145.008 13.1611 152.404 12.7105 157.717 17.3596C158.075 17.6573 159.204 18.9417 159.495 19.2099C160.082 19.7525 160.726 20.1489 161.57 20.4303C161.517 20.4125 165.71 20.8723 168.166 21.1301C169.787 21.3003 170.891 22.8872 170.41 24.4742C168.676 30.1825 164.669 34.65 159.24 34.65H140.799C135.363 35.5835 126.837 43.2373 120.069 56.7671C118.32 59.8281 115.804 67.9797 114.09 78.2614L112.512 89.3857C112.358 90.4765 111.424 91.2872 110.322 91.2872H105.731C104.459 91.2872 103.439 90.2198 103.523 88.9369C104.298 77.0372 104.558 65.0464 103.907 61.1548C95.5434 60.6538 85.1799 55.9696 78.2506 47.3063C77.2994 46.1966 73.407 47.7928 67.8156 52.2113C62.9767 56.0352 57.229 61.6347 52.4888 66.9124C52.4292 66.9684 52.4292 66.9684 52.3696 67.0243C46.2964 72.7143 44.7921 74.4872 41.534 81.1771C40.5937 83.092 39.8405 86.3294 39.3646 89.4083C39.1975 90.4886 38.2683 91.2872 37.1735 91.2872H34.0711C32.7524 91.2872 31.7265 90.1411 31.8722 88.8305L34.4557 65.5786C34.5609 64.6329 35.3347 63.8957 36.2964 63.8489C41.966 63.5782 45.6622 60.4144 47.7672 49.3631C50.0954 37.1405 51.5531 33.121 55.3124 28.1583C53.4985 26.0092 52.05 23.6583 50.9165 21.1125ZM163.59 24.201C161.189 23.9376 160.738 23.8843 160.451 23.7884C159.108 23.3408 158.035 22.6801 157.093 21.8105C156.594 21.3494 155.548 20.1601 155.42 20.0528C151.422 16.5542 145.646 16.906 141.495 19.3943C135.242 22.7612 127.57 26.0444 123.208 26.6677C119.006 27.2679 109.746 27.5704 101.808 27.5681C75.1624 28.923 70.3576 28.6261 60.4981 24.5245C57.0383 23.0851 54.4266 19.1091 52.2166 13.2311C52.1057 12.9362 51.9974 12.6407 51.8912 12.344C52.4047 15.2355 53.0102 17.1123 54.1502 19.6726C55.3307 22.3239 56.8894 24.7225 58.9063 26.8741C59.5085 27.5164 59.5469 28.5037 58.9965 29.191C54.935 34.2618 53.6534 37.3791 51.2445 50.0255C48.9846 61.8898 44.3925 66.4512 37.8295 67.2688L35.5542 87.7474H36.0494C36.5768 84.6926 37.3298 81.708 38.3541 79.622C41.8441 72.4559 43.586 70.403 49.9494 64.4411C50.0062 64.3878 50.0062 64.3878 49.958 64.442C54.7178 59.133 60.6038 53.3987 65.6209 49.434C72.8187 43.746 78.0296 41.6092 80.9765 45.0488C87.5341 53.2459 97.4856 57.522 105.022 57.6567C105.899 57.6725 106.711 58.199 107.027 59.0746C108.152 62.1901 107.976 74.3633 107.145 87.7474H109.17L110.592 77.7219C112.376 67.0193 115.008 58.4886 116.949 55.0974C124.193 40.6105 133.674 32.1635 140.387 31.1308L140.656 31.1102H159.24C162.456 31.1102 165.191 28.3628 166.652 24.53C165.556 24.4139 164.505 24.3012 163.59 24.201Z" fill="black"/>
<path d="M143.311 29.8243V15.1747L144.29 14.6855C146.519 13.5706 152.749 14.171 154.858 15.4692L155.701 15.9875V29.8243C155.701 30.109 155.681 30.5678 155.623 31.1467C155.526 32.1108 155.35 33.0782 155.072 34.0004C154.181 36.9523 152.396 38.9234 149.506 38.9234C146.616 38.9234 144.831 36.9523 143.94 34.0004C143.661 33.0782 143.486 32.1108 143.389 31.1467C143.331 30.5678 143.311 30.109 143.311 29.8243Z" fill="black"/>
<path d="M143.311 29.8243V15.1747L144.29 14.6855C146.519 13.5706 152.749 14.171 154.858 15.4692L155.701 15.9875V29.8243C155.701 30.109 155.681 30.5678 155.623 31.1467C155.526 32.1108 155.35 33.0782 155.072 34.0004C154.181 36.9523 152.396 38.9234 149.506 38.9234C146.616 38.9234 144.831 36.9523 143.94 34.0004C143.661 33.0782 143.486 32.1108 143.389 31.1467C143.331 30.5678 143.311 30.109 143.311 29.8243ZM146.851 17.6512V29.8243C146.851 29.9976 146.866 30.3405 146.911 30.7923C146.987 31.5459 147.123 32.2963 147.329 32.9774C147.82 34.6062 148.524 35.3836 149.506 35.3836C150.488 35.3836 151.192 34.6062 151.683 32.9774C151.889 32.2963 152.025 31.5459 152.101 30.7923C152.146 30.3405 152.161 29.9976 152.161 29.8243V18.1609C150.759 17.7776 148.307 17.537 146.851 17.6512Z" fill="black"/>
</svg>
