<svg width="48" height="48" viewBox="0 0 48 48" fill="none" xmlns="http://www.w3.org/2000/svg">
<circle cx="24" cy="24" r="16" fill="#00BAB3" fill-opacity="0.1"/>
<path d="M41.9226 6.2421H41.3531C42.4387 4.47467 42.0378 2.1018 40.2955 0.809112C38.4182 -0.583611 35.7504 -0.135308 34.4403 1.82253L31.4829 6.24219H6.07741C3.98917 6.24219 2.29027 7.9411 2.29027 10.0293V34.2421C2.29027 36.3303 3.98917 38.0292 6.07741 38.0292H20.7878L19.6763 42.6976H17.2774C15.714 42.6976 14.442 43.9695 14.442 45.5329V46.1249H11.4847C10.9669 46.1249 10.5472 46.5447 10.5472 47.0624C10.5472 47.5801 10.9669 47.9999 11.4847 47.9999H36.5154C37.0332 47.9999 37.4529 47.5801 37.4529 47.0624C37.4529 46.5447 37.0332 46.1249 36.5154 46.1249H33.5581V45.5329C33.5581 43.9695 32.2861 42.6976 30.7227 42.6976H28.3238L27.2123 38.0292H41.9227C44.0109 38.0292 45.7098 36.3303 45.7098 34.2421V28.9143V10.0292C45.7098 7.941 44.0109 6.2421 41.9226 6.2421ZM28.4902 22.7229C27.0244 23.749 24.2784 22.3543 21.6561 23.7536C21.0163 20.4298 21.4197 17.3037 24.7501 16.6137C25.1805 16.524 25.6439 16.4834 26.0384 16.4913C27.1656 17.3276 28.3058 18.1735 29.4298 19.0076C29.9219 20.4389 29.7372 21.85 28.4902 22.7229ZM29.435 12.6743L32.0887 14.6432L30.0479 17.1313C29.2077 16.508 28.4855 15.9721 27.6453 15.3487C27.8198 15.088 29.2755 12.9125 29.435 12.6743ZM35.9986 2.86529C36.7087 1.80397 38.1568 1.55703 39.1783 2.31499C40.2002 3.07304 40.3832 4.53044 39.5734 5.51771C38.1368 7.2692 34.7211 11.4336 33.279 13.1918L30.4788 11.1142L35.9986 2.86529ZM31.683 45.5329V46.1249H16.317V45.5329C16.317 45.0034 16.7478 44.5725 17.2774 44.5725H30.7226C31.2522 44.5725 31.683 45.0034 31.683 45.5329ZM26.3963 42.6976H21.6037L22.7152 38.0292H25.2848L26.3963 42.6976ZM43.8349 34.2421C43.8349 35.2964 42.9771 36.1542 41.9227 36.1542C40.4345 36.1542 7.75072 36.1542 6.07751 36.1542C5.02312 36.1542 4.16533 35.2964 4.16533 34.2421V29.8518H6.84427C7.36204 29.8518 7.78176 29.432 7.78176 28.9143C7.78176 28.3967 7.36204 27.9769 6.84427 27.9769H4.16514V10.0292C4.16514 8.97486 5.02293 8.11706 6.07732 8.11706H30.2283C29.3301 9.45926 26.71 13.3749 25.88 14.6151C24.0428 14.6317 22.2087 15.2717 21.0079 16.6735C19.374 18.5808 19.0869 21.5777 20.1547 25.5809C20.3373 26.2655 21.1914 26.5107 21.7082 26.0171C24.1323 23.7008 27.1513 26.2273 29.855 24.0391C31.5053 22.7032 31.8958 20.5794 31.2735 18.5934C32.1148 17.5678 39.0231 9.14511 39.8663 8.11706H41.9225C42.9769 8.11706 43.8347 8.97486 43.8347 10.0292V27.9768H14.3439C13.8262 27.9768 13.4065 28.3966 13.4065 28.9142C13.4065 29.4319 13.8262 29.8517 14.3439 29.8517H43.8349V34.2421Z" fill="#3D2D68"/>
<path d="M10.4131 27.9949C9.96178 28.0872 9.65934 28.4773 9.65934 28.9147C9.65934 29.5011 10.1955 29.9502 10.7797 29.8334C11.2987 29.7281 11.615 29.2278 11.5156 28.7309C11.4112 28.2181 10.9138 27.8941 10.4131 27.9949Z" fill="#3D2D68"/>
</svg>
