<svg width="48" height="48" viewBox="0 0 48 48" fill="none" xmlns="http://www.w3.org/2000/svg">
<circle cx="24" cy="24" r="16" fill="#00BAB3" fill-opacity="0.1"/>
<path d="M8.77154 5.18164C7.02273 5.18164 5.59998 6.60392 5.59998 8.35198C5.59998 10.1 7.02273 11.5223 8.77154 11.5223C10.5218 11.5223 11.9457 10.1 11.9457 8.35198C11.9457 6.60392 10.5218 5.18164 8.77154 5.18164ZM8.77154 9.63158C8.06532 9.63158 7.49082 9.05755 7.49082 8.35198C7.49082 7.64642 8.06532 7.07248 8.77154 7.07248C9.47916 7.07248 10.055 7.64652 10.055 8.35208C10.055 9.05764 9.47916 9.63158 8.77154 9.63158Z" fill="#3D2D68"/>
<path d="M36.5029 5.18164H28.1189C26.3701 5.18164 24.9474 6.60392 24.9474 8.35198C24.9474 10.1 26.3701 11.5223 28.1189 11.5223H36.5029C38.2517 11.5223 39.6744 10.1 39.6744 8.35198C39.6744 6.60392 38.2517 5.18164 36.5029 5.18164ZM36.5029 9.63158H28.1189C27.4127 9.63158 26.8382 9.05755 26.8382 8.35198C26.8382 7.64642 27.4128 7.07239 28.1189 7.07239H36.5029C37.2091 7.07239 37.7836 7.64642 37.7836 8.35198C37.7836 9.05755 37.2091 9.63158 36.5029 9.63158Z" fill="#3D2D68"/>
<path d="M16.9908 5.18164C15.242 5.18164 13.8192 6.60392 13.8192 8.35198C13.8192 10.1 15.242 11.5223 16.9908 11.5223C18.741 11.5223 20.165 10.1 20.165 8.35198C20.165 6.60392 18.741 5.18164 16.9908 5.18164ZM16.9908 9.63158C16.2846 9.63158 15.7101 9.05755 15.7101 8.35198C15.7101 7.64642 16.2847 7.07239 16.9908 7.07239C17.6984 7.07239 18.2742 7.64642 18.2742 8.35198C18.2742 9.05755 17.6984 9.63158 16.9908 9.63158Z" fill="#3D2D68"/>
<path d="M15.4493 20.8541C14.9416 20.7325 14.4313 21.0459 14.31 21.5538L12.4345 29.4024C12.3131 29.9102 12.6264 30.4203 13.1342 30.5416C13.2081 30.5593 13.282 30.5678 13.3548 30.5678C13.7822 30.5678 14.1698 30.2759 14.2734 29.8419L16.149 21.9933C16.2704 21.4855 15.9571 20.9755 15.4493 20.8541Z" fill="#3D2D68"/>
<path d="M18.9202 29.6193C19.1003 29.7798 19.325 29.8587 19.5487 29.8587C19.809 29.8587 20.0682 29.7519 20.2551 29.5421L22.9061 26.5661C23.3436 26.0792 23.3436 25.3166 22.9088 24.8328L20.255 21.8537C19.9075 21.4637 19.3099 21.4294 18.9202 21.7765C18.5302 22.1239 18.4957 22.7215 18.843 23.1114L21.1471 25.6978L18.843 28.2844C18.4957 28.6744 18.5302 29.272 18.9202 29.6193Z" fill="#3D2D68"/>
<path d="M9.66338 21.7765C9.27338 21.4292 8.67591 21.464 8.32856 21.8537L5.67778 24.8294C5.23978 25.3164 5.23978 26.0794 5.67478 26.563L8.32866 29.5421C8.5155 29.7519 8.77463 29.8587 9.03506 29.8587C9.25875 29.8587 9.48347 29.7798 9.66356 29.6193C10.0536 29.2719 10.0881 28.6743 9.74072 28.2845L7.43663 25.698L9.74072 23.1114C10.0879 22.7214 10.0534 22.1238 9.66338 21.7765Z" fill="#3D2D68"/>
<path d="M45.8804 31.831H45.5294C45.3456 31.2355 45.1073 30.6606 44.8167 30.1113L45.0672 29.8599C45.4672 29.4623 45.688 28.9314 45.6889 28.365C45.6897 27.7972 45.4697 27.2642 45.0692 26.8638L44.5811 26.376V6.23848C44.5811 3.41857 42.5912 1.12451 40.1451 1.12451H4.43606C1.98994 1.12451 0 3.41857 0 6.23848V32.6622C0 35.4821 1.98994 37.7762 4.43606 37.7762H9.98287C10.505 37.7762 10.9282 37.3529 10.9282 36.8308C10.9282 36.3087 10.505 35.8854 9.98287 35.8854H4.43606C3.05644 35.8854 1.89084 34.4093 1.89084 32.6623V15.5104H42.6902V25.0639C42.5825 25.0474 42.4733 25.0365 42.3622 25.0365C42.3611 25.0365 42.36 25.0365 42.359 25.0365C41.7925 25.0374 41.2616 25.2579 40.8671 25.6546L40.6116 25.909C40.0507 25.6127 39.4665 25.3716 38.8642 25.1876V24.8509C38.8642 23.6824 37.9133 22.7318 36.7446 22.7318H35.0337C33.8664 22.7318 32.9168 23.6824 32.9168 24.8509V25.2107C32.3258 25.3964 31.7552 25.6354 31.2097 25.9256L30.9649 25.6815C30.5672 25.2818 30.0362 25.0611 29.4697 25.0603C29.4687 25.0603 29.4677 25.0603 29.4666 25.0603C28.9 25.0603 28.3681 25.2801 27.9684 25.6795L26.7597 26.8877C26.3592 27.288 26.1392 27.8211 26.14 28.3888C26.1409 28.9552 26.3616 29.4861 26.7586 29.8806L27.0197 30.1425C26.7363 30.6834 26.5035 31.2477 26.3234 31.8308H25.9643C24.797 31.8308 23.8474 32.7801 23.8474 33.9471V35.6597C23.8474 35.7358 23.8516 35.811 23.8595 35.885H18.3587C17.8366 35.885 17.4133 36.3083 17.4133 36.8304C17.4133 37.3525 17.8366 37.7758 18.3587 37.7758H25.9642H26.327C26.5098 38.3644 26.7461 38.9332 27.0344 39.4777L26.7789 39.7321C25.9565 40.5589 25.9572 41.9014 26.7809 42.7244L27.9903 43.9333C28.388 44.3329 28.919 44.5536 29.4854 44.5545H29.4885C30.0551 44.5545 30.5871 44.3346 30.9867 43.9352L31.2399 43.6821C31.7893 43.9717 32.3605 44.2084 32.9485 44.3901V44.756C32.9485 45.9245 33.8981 46.8751 35.0655 46.8751H36.779C37.9462 46.8751 38.8958 45.9245 38.8958 44.756V44.3924C39.4894 44.2093 40.0629 43.9717 40.6117 43.682L40.8637 43.9332C41.2613 44.3329 41.7922 44.5535 42.3587 44.5545H42.362C42.9285 44.5545 43.4604 44.3346 43.8608 43.9345L45.0669 42.7264C45.467 42.3288 45.6877 41.7979 45.6886 41.2314C45.6894 40.6637 45.4694 40.1306 45.0688 39.7302L44.8165 39.478C45.1042 38.933 45.3404 38.3639 45.5229 37.7759H45.8802C47.049 37.7759 47.9998 36.8266 47.9998 35.6597V33.9471C48 32.7803 47.0492 31.831 45.8804 31.831ZM1.89084 13.6195V6.23848C1.89084 4.49145 3.05644 3.01536 4.43606 3.01536H40.1451C41.5247 3.01536 42.6903 4.49145 42.6903 6.23848V13.6196L1.89084 13.6195ZM46.1092 35.6599C46.1092 35.7799 46.0023 35.8852 45.8803 35.8852H44.7992C44.3584 35.8852 43.9761 36.1898 43.8776 36.6195C43.6734 37.5106 43.3227 38.3556 42.8351 39.1314C42.6003 39.505 42.6551 39.9914 42.9673 40.3033L43.7323 41.0678C43.7895 41.125 43.7979 41.1933 43.7979 41.2289C43.7978 41.2714 43.7868 41.3332 43.7316 41.388L42.5237 42.598C42.4664 42.6552 42.3981 42.6638 42.3621 42.6638C42.362 42.6638 42.3619 42.6638 42.3619 42.6638C42.3189 42.6638 42.257 42.6527 42.2016 42.5969L41.4337 41.8323C41.1215 41.5213 40.636 41.4674 40.2632 41.7018C39.4863 42.1905 38.6377 42.5418 37.7407 42.7459C37.3105 42.8439 37.0052 43.2264 37.0052 43.6678V44.7563C37.0052 44.8778 36.8995 44.9845 36.7792 44.9845H35.0657C34.9452 44.9845 34.8396 44.8779 34.8396 44.7563V43.6651C34.8396 43.2233 34.5336 42.8404 34.1027 42.7429C33.2172 42.5427 32.3701 42.192 31.585 41.7007C31.4303 41.6039 31.2565 41.5566 31.0837 41.5566C30.8395 41.5566 30.5975 41.651 30.4151 41.8335L29.6502 42.598C29.5929 42.6552 29.5246 42.6638 29.4886 42.6638C29.4885 42.6638 29.4884 42.6638 29.4883 42.6638C29.4455 42.6638 29.3834 42.6527 29.3291 42.5981L28.1178 41.3873C28.0329 41.3026 28.0339 41.1524 28.1167 41.0691L28.8844 40.3045C29.1981 39.9921 29.2529 39.5041 29.0166 39.1298C28.5282 38.3566 28.177 37.5121 27.9727 36.6198C27.8742 36.1901 27.4919 35.8854 27.051 35.8854H25.9644C25.8419 35.8854 25.7383 35.7822 25.7383 35.66V33.9475C25.7383 33.8254 25.8419 33.722 25.9644 33.722H27.0483C27.4896 33.722 27.8722 33.4167 27.9702 32.9865C28.172 32.0999 28.5187 31.2589 29.0006 30.4865C29.2333 30.1137 29.1784 29.6297 28.868 29.3184L28.0945 28.5427C28.042 28.4906 28.031 28.4288 28.0309 28.3863C28.0309 28.3506 28.0393 28.2824 28.0965 28.2253L29.3051 27.0172C29.3624 26.96 29.4307 26.9514 29.4667 26.9514H29.467C29.5099 26.9515 29.5719 26.9626 29.6273 27.0184L30.3897 27.7777C30.7029 28.0896 31.1902 28.1431 31.5631 27.9064C32.3356 27.4167 33.1817 27.0619 34.0777 26.8522C34.5052 26.7522 34.8076 26.3708 34.8076 25.9317V24.8511C34.8076 24.7275 34.9111 24.6229 35.0336 24.6229H36.7445C36.8685 24.6229 36.9733 24.7275 36.9733 24.8511V25.9158C36.9733 26.3587 37.2808 26.7423 37.7133 26.8385C38.6128 27.0389 39.471 27.3927 40.264 27.8902C40.6367 28.1239 41.1217 28.0699 41.4337 27.7592L42.2046 26.9914C42.2569 26.9388 42.3188 26.9277 42.3617 26.9276H42.362C42.398 26.9276 42.4663 26.9362 42.5235 26.9934L43.7322 28.2014C43.7894 28.2586 43.7978 28.3268 43.7978 28.3624C43.7977 28.405 43.7867 28.4668 43.7311 28.522L42.966 29.2894C42.6545 29.6018 42.6005 30.0882 42.8359 30.4613C43.3253 31.2373 43.6775 32.087 43.8826 32.9869C43.9807 33.417 44.3632 33.7221 44.8044 33.7221H45.8803C46.0022 33.7221 46.1092 33.8276 46.1092 33.9476V35.6599Z" fill="#3D2D68"/>
<path d="M35.9238 29.0298C32.738 29.0298 30.1461 31.6205 30.1461 34.8049C30.1461 37.9878 32.738 40.5773 35.9238 40.5773C39.1082 40.5773 41.6988 37.9879 41.6988 34.8049C41.6988 31.6206 39.1082 29.0298 35.9238 29.0298ZM35.9238 38.6865C33.7807 38.6865 32.037 36.9452 32.037 34.8049C32.037 32.6631 33.7807 30.9206 35.9238 30.9206C38.0655 30.9206 39.8079 32.6631 39.8079 34.8049C39.8079 36.9452 38.0654 38.6865 35.9238 38.6865Z" fill="#3D2D68"/>
<path d="M14.1988 35.8855H14.1802C13.6581 35.8855 13.2349 36.3088 13.2349 36.8309C13.2349 37.353 13.6581 37.7762 14.1802 37.7762H14.1988C14.7209 37.7762 15.1442 37.353 15.1442 36.8309C15.1442 36.3088 14.7209 35.8855 14.1988 35.8855Z" fill="#3D2D68"/>
</svg>
