<svg width="48" height="48" viewBox="0 0 48 48" fill="none" xmlns="http://www.w3.org/2000/svg">
<g clip-path="url(#clip0_473_3013)">
<circle cx="24" cy="24" r="16" fill="#00BAB3" fill-opacity="0.1"/>
<path d="M15.3517 11.3588H18.7575C19.2789 11.3588 19.7017 10.9361 19.7017 10.4146C19.7017 9.89318 19.2789 9.47046 18.7575 9.47046H15.3517C14.8302 9.47046 14.4075 9.89318 14.4075 10.4146C14.4075 10.9361 14.8302 11.3588 15.3517 11.3588Z" fill="#3D2D68"/>
<path d="M15.3517 15.8336H19.8681C20.3895 15.8336 20.8122 15.4109 20.8122 14.8895C20.8122 14.368 20.3895 13.9453 19.8681 13.9453H15.3517C14.8302 13.9453 14.4075 14.368 14.4075 14.8895C14.4075 15.4109 14.8302 15.8336 15.3517 15.8336Z" fill="#3D2D68"/>
<path d="M15.3517 20.3112H21.5125C22.034 20.3112 22.4567 19.8884 22.4567 19.367C22.4567 18.8456 22.034 18.4229 21.5125 18.4229H15.3517C14.8302 18.4229 14.4075 18.8456 14.4075 19.367C14.4075 19.8884 14.8302 20.3112 15.3517 20.3112Z" fill="#3D2D68"/>
<path d="M30.7342 31.2209H15.3517C14.8302 31.2209 14.4075 31.6437 14.4075 32.1651C14.4075 32.6865 14.8302 33.1093 15.3517 33.1093H30.7341C31.2555 33.1093 31.6782 32.6865 31.6782 32.1651C31.6783 31.6437 31.2556 31.2209 30.7342 31.2209Z" fill="#3D2D68"/>
<path d="M16.0132 28.9981H24.8974C25.7828 28.9981 26.5031 28.2767 26.5031 27.39V24.1846C26.5031 23.2993 25.7828 22.5791 24.8974 22.5791H16.0132C15.1278 22.5791 14.4075 23.2993 14.4075 24.1846V27.39C14.4075 28.2767 15.1278 28.9981 16.0132 28.9981ZM16.2959 24.4674H24.6147V27.1097H16.2959V24.4674Z" fill="#3D2D68"/>
<path d="M15.3517 6.88123H25.8962C26.4176 6.88123 26.8403 6.45851 26.8403 5.93708C26.8403 5.41564 26.4176 4.99292 25.8962 4.99292H15.3517C14.8302 4.99292 14.4075 5.41564 14.4075 5.93708C14.4075 6.45851 14.8302 6.88123 15.3517 6.88123Z" fill="#3D2D68"/>
<path d="M47.1056 29.0301L43.331 25.2568C43.3309 25.2568 43.3308 25.2567 43.3307 25.2566C43.3306 25.2565 43.3305 25.2564 43.3304 25.2563L39.0721 20.9996V8.65372C39.0721 8.37707 38.9506 8.11429 38.7399 7.93485L30.6209 1.02201C30.4501 0.8766 30.2332 0.796631 30.0089 0.796631H13.3485C11.7687 0.796631 10.4835 2.08157 10.4835 3.66097V5.93019H7.62853C6.04875 5.93019 4.76353 7.21513 4.76353 8.79454V10.6948H2.865C1.28531 10.6947 0 11.9796 0 13.5589V44.3391C0 45.9185 1.28531 47.2034 2.865 47.2034H25.7235C27.3033 47.2034 28.5885 45.9185 28.5885 44.3391V42.439H30.487C32.0668 42.439 33.3519 41.154 33.3519 39.5746V37.3053H36.2069C37.7867 37.3053 39.0719 36.0204 39.0719 34.4411V32.986L41.1106 35.0238C41.7074 35.6204 42.4912 35.9188 43.2752 35.9188C44.0589 35.9187 44.8431 35.6203 45.4397 35.0239L47.1054 33.3588C47.6822 32.7823 47.9998 32.0137 47.9998 31.1945C47.9998 30.3753 47.6823 29.6067 47.1056 29.0301ZM27.4815 18.7297L30.806 15.4065L41.3274 25.9241L38.0031 29.2472L27.4815 18.7297ZM26.0634 16.8812C25.6875 15.8988 25.3124 14.9163 24.9371 13.9339C24.7166 13.3566 24.4961 12.7791 24.2756 12.2021C24.8361 12.4161 25.3965 12.6299 25.9568 12.8439C26.9569 13.2254 27.957 13.6071 28.9574 13.9896C29.1298 14.0554 29.2658 14.1101 29.3805 14.1613L26.2349 17.3057C26.1838 17.1908 26.1292 17.0544 26.0634 16.8812ZM30.9531 3.78491L35.5626 7.70957H32.3654C31.5866 7.70957 30.9531 7.07516 30.9531 6.29544V3.78491ZM26.7002 44.3391C26.7002 44.8773 26.2621 45.315 25.7235 45.315H2.865C2.3265 45.315 1.88831 44.8772 1.88831 44.3391V13.5589C1.88831 13.0208 2.32641 12.5831 2.865 12.5831H4.76353V39.5747C4.76353 41.1541 6.04875 42.4391 7.62853 42.4391H26.7002V44.3391ZM36.207 35.417H26.215C25.6936 35.417 25.2709 35.8397 25.2709 36.3612C25.2709 36.8826 25.6936 37.3053 26.215 37.3053H31.4637V39.5746C31.4637 40.1128 31.0257 40.5506 30.4871 40.5506H7.62853C7.09003 40.5506 6.65194 40.1128 6.65194 39.5746V8.79454C6.65194 8.25632 7.08994 7.8186 7.62853 7.8186H10.4835V34.4412C10.4835 36.0205 11.7687 37.3054 13.3485 37.3054H17.7986C18.3201 37.3054 18.7428 36.8827 18.7428 36.3613C18.7428 35.8398 18.3201 35.4171 17.7986 35.4171H13.3485C12.81 35.4171 12.3719 34.9793 12.3719 34.4413V3.66097C12.3719 3.12276 12.8099 2.68504 13.3485 2.68504H29.0647V6.29544C29.0647 8.11635 30.5454 9.59788 32.3655 9.59788H37.1838V19.1119L32.0845 14.0145C31.9071 13.8372 31.7648 13.6876 31.6393 13.5558C31.5899 13.5039 31.5432 13.4552 31.4975 13.408C31.493 13.4032 31.489 13.3981 31.4843 13.3935C31.4817 13.3909 31.4789 13.3888 31.4763 13.3862C30.9786 12.8739 30.6457 12.6129 29.6315 12.2257C28.631 11.8433 27.6307 11.4614 26.6302 11.0797C25.6646 10.7112 24.6991 10.3427 23.7331 9.97354C23.2514 9.78941 22.7048 9.90547 22.3411 10.2688C21.9786 10.6309 21.8629 11.1766 22.0469 11.6604C22.4228 12.6428 22.7979 13.6253 23.1732 14.6077C23.5485 15.5905 23.9238 16.5734 24.299 17.554C24.6855 18.5715 24.9469 18.9029 25.4633 19.4033C25.4648 19.4048 25.4661 19.4064 25.4676 19.4079C25.4704 19.4107 25.4735 19.413 25.4763 19.4158C25.5247 19.4625 25.5746 19.5103 25.6279 19.561C25.7606 19.687 25.911 19.8298 26.0895 20.0083L37.1837 31.0983V34.4412C37.1837 34.9793 36.7456 35.417 36.207 35.417ZM45.7706 32.0233L44.1049 33.6884C43.6475 34.1457 42.9032 34.1456 42.4458 33.6883L39.3385 30.5823L42.6629 27.2592L45.7706 30.3657C45.9906 30.5855 46.1118 30.8799 46.1118 31.1944C46.1118 31.5089 45.9906 31.8034 45.7706 32.0233Z" fill="#3D2D68"/>
<path d="M22.0175 35.417H21.9988C21.4774 35.417 21.0547 35.8397 21.0547 36.3611C21.0547 36.8826 21.4774 37.3053 21.9988 37.3053H22.0175C22.5389 37.3053 22.9616 36.8826 22.9616 36.3611C22.9616 35.8398 22.5389 35.417 22.0175 35.417Z" fill="#3D2D68"/>
</g>
<defs>
<clipPath id="clip0_473_3013">
<rect width="48" height="48" fill="white"/>
</clipPath>
</defs>
</svg>
