<svg width="48" height="48" viewBox="0 0 48 48" fill="none" xmlns="http://www.w3.org/2000/svg">
<g clip-path="url(#clip0_473_2927)">
<circle cx="24" cy="24" r="16" fill="#00BAB3" fill-opacity="0.1"/>
<path d="M28.2158 32.5752H28.1996C27.6774 32.5752 27.2542 32.9985 27.2542 33.5206C27.2542 34.0427 27.6775 34.466 28.1996 34.466H28.2157C28.7379 34.466 29.1612 34.0427 29.1612 33.5206C29.1612 32.9985 28.738 32.5752 28.2158 32.5752Z" fill="#3D2D68"/>
<path d="M23.9986 32.5752H19.7814C19.2592 32.5752 18.836 32.9985 18.836 33.5206C18.836 34.0427 19.2593 34.466 19.7814 34.466H23.9986C24.5208 34.466 24.9441 34.0427 24.9441 33.5206C24.9441 32.9985 24.5208 32.5752 23.9986 32.5752Z" fill="#3D2D68"/>
<path d="M16.9288 6.59082C13.7067 6.59082 11.0852 9.21388 11.0852 12.438C11.0852 15.6636 13.7066 18.2879 16.9288 18.2879C20.1524 18.2879 22.775 15.6636 22.775 12.438C22.775 9.21388 20.1524 6.59082 16.9288 6.59082ZM16.9288 16.3971C14.7493 16.3971 12.9761 14.6211 12.9761 12.438C12.9761 10.2566 14.7493 8.48176 16.9288 8.48176C19.1098 8.48176 20.8841 10.2566 20.8841 12.438C20.884 14.621 19.1098 16.3971 16.9288 16.3971Z" fill="#3D2D68"/>
<path d="M43.6958 5.26562H40.3757C39.8117 3.7995 39.2477 2.33423 38.6848 0.872609C38.6426 0.760242 38.5871 0.654997 38.5151 0.550783C38.5073 0.539349 38.4992 0.528197 38.4908 0.517232C38.2052 0.140581 37.7427 -0.0526649 37.2839 0.0124689C36.8101 0.0798518 36.4203 0.398867 36.2416 0.864549L34.5466 5.26562H26.7269C26.6279 4.94417 26.4525 4.64137 26.1988 4.38739L24.9716 3.15932C24.5692 2.75661 24.0329 2.53469 23.4618 2.53469C22.8907 2.53469 22.3546 2.75652 21.952 3.15932L21.6879 3.4236C21.1151 3.11939 20.5168 2.87226 19.8981 2.68426V2.3301C19.8981 1.15236 18.9415 0.194187 17.7659 0.194187H16.0273C14.8516 0.194187 13.895 1.15236 13.895 2.3301V2.7076C13.2893 2.89728 12.7048 3.14236 12.1467 3.44085L11.8915 3.18547C11.491 2.7822 10.9561 2.55971 10.3852 2.55887C10.3841 2.55887 10.3832 2.55887 10.382 2.55887C9.8112 2.55887 9.27514 2.78061 8.87271 3.1835L7.64539 4.41167C7.40247 4.65477 7.22685 4.94698 7.12469 5.26562H4.30417C1.93086 5.26562 0 7.19639 0 9.5696V17.6117C0 18.1339 0.423322 18.5571 0.945423 18.5571C1.46752 18.5571 1.89085 18.1338 1.89085 17.6117V9.5696C1.89085 8.239 2.97338 7.15656 4.30407 7.15656H7.41644C7.48466 7.25206 7.55945 7.34353 7.64408 7.42769L7.91642 7.70115C7.62533 8.2569 7.38692 8.83645 7.20323 9.43484H6.82836C5.65267 9.43484 4.6961 10.393 4.6961 11.5708V13.3078C4.6961 14.4841 5.65267 15.441 6.82836 15.441H7.20698C7.39348 16.0453 7.63583 16.6298 7.93207 17.1895L7.66666 17.455C6.83782 18.2844 6.83689 19.637 7.66666 20.4721L8.89389 21.7002C9.29632 22.103 9.83257 22.3248 10.4037 22.3248C10.9748 22.3248 11.511 22.103 11.9123 21.7014L12.177 21.4374C12.7366 21.7339 13.3216 21.9766 13.927 22.1635V22.5457C13.927 23.7235 14.8848 24.6817 16.062 24.6817H17.7978C18.9751 24.6817 19.9328 23.7235 19.9328 22.5457V22.165C20.5373 21.9791 21.1239 21.7358 21.6878 21.4372L21.9518 21.7004C22.3542 22.1032 22.8904 22.325 23.4615 22.325C24.0327 22.325 24.5688 22.1032 24.9713 21.7004L26.1985 20.4723C26.6016 20.0689 26.8232 19.5317 26.8224 18.9595C26.8215 18.3888 26.5992 17.8539 26.1985 17.4551L25.9331 17.1896C26.2293 16.6299 26.4718 16.0454 26.6582 15.4411H27.0287C28.206 15.4411 29.1637 14.4842 29.1637 13.3079V11.5708C29.1637 10.3931 28.2059 9.43484 27.0287 9.43484H26.6631C26.4769 8.82633 26.2331 8.23712 25.9335 7.67238L26.1985 7.40726C26.2772 7.32844 26.3461 7.24381 26.4099 7.15656H33.8181L33.5928 7.74164C33.1184 8.97824 33.102 9.39754 33.1243 10.4282C33.1291 10.6473 33.1344 10.8955 33.1344 11.1991V28.6809H1.89094V26.0334C1.89094 25.5113 1.46762 25.088 0.945517 25.088C0.423416 25.088 0 25.5113 0 26.0334V34.0567C0 36.4299 1.93086 38.3606 4.30417 38.3606H17.1324V41.4118H14.4366C12.4997 41.4118 10.9237 42.9886 10.9237 44.9266V45.8962C10.9237 47.0561 11.867 47.9998 13.0264 47.9998H34.9708C36.1317 47.9998 37.0762 47.0562 37.0762 45.8962V44.9266C37.0762 42.9885 35.5003 41.4118 33.5633 41.4118H30.8675V38.3606H43.6958C46.0691 38.3606 48 36.4298 48 34.0567V9.5696C48 7.19639 46.0691 5.26562 43.6958 5.26562ZM25.9363 11.3258H27.029C27.1613 11.3258 27.273 11.438 27.273 11.5708V13.3078C27.273 13.4391 27.1613 13.5501 27.029 13.5501H25.9336C25.4925 13.5501 25.11 13.8551 25.0119 14.2852C24.805 15.192 24.4483 16.0521 23.9519 16.8417C23.7171 17.2151 23.7717 17.7012 24.0835 18.0133L24.8632 18.7936C24.9227 18.8528 24.9317 18.9246 24.9317 18.9623C24.9318 19.0006 24.9227 19.0741 24.8612 19.1356L23.634 20.3637C23.5729 20.4248 23.4999 20.434 23.4618 20.434C23.4237 20.434 23.3507 20.4248 23.2885 20.3626L22.5107 19.5869C22.1988 19.2759 21.7134 19.2214 21.3403 19.4556C20.5426 19.9563 19.6812 20.3132 18.7798 20.5164C18.3485 20.6136 18.0421 20.9966 18.0421 21.4387V22.5456C18.0421 22.6784 17.9304 22.7906 17.7981 22.7906H16.0623C15.9299 22.7906 15.8182 22.6784 15.8182 22.5456V21.4387C15.8182 20.9977 15.5134 20.6153 15.0834 20.5171C14.1747 20.3095 13.3145 19.9526 12.5266 19.4564C12.3714 19.3588 12.1967 19.311 12.023 19.311C11.7792 19.311 11.5375 19.4051 11.3551 19.587L10.5761 20.3638C10.515 20.4249 10.442 20.4341 10.404 20.4341C10.3658 20.4341 10.2928 20.4249 10.2317 20.3638L9.00645 19.1377C8.91414 19.0447 8.9132 18.8831 9.00448 18.7917L9.78224 18.0134C10.094 17.7014 10.1487 17.2152 9.91382 16.8418C9.41731 16.0522 9.06062 15.192 8.85369 14.2853C8.75557 13.8552 8.37311 13.5502 7.93198 13.5502H6.82855C6.69772 13.5502 6.58713 13.4392 6.58713 13.3079V11.5708C6.58713 11.438 6.69762 11.3258 6.82855 11.3258H7.92926C8.37086 11.3258 8.75369 11.0201 8.85125 10.5893C9.05546 9.68844 9.40756 8.83186 9.89752 8.04332C10.129 7.67079 10.0739 7.18796 9.76444 6.87719L8.98086 6.09034C8.92135 6.03111 8.91236 5.95932 8.91236 5.92164C8.91226 5.88331 8.92135 5.80984 8.98283 5.74827L10.2101 4.52019C10.2711 4.45909 10.3438 4.4499 10.3819 4.4499H10.3822C10.4278 4.45 10.4938 4.4619 10.5518 4.52019L11.3242 5.29317C11.6374 5.60666 12.1263 5.66055 12.5003 5.4226C13.2849 4.92355 14.1446 4.56255 15.0555 4.34963C15.4832 4.24963 15.7857 3.86829 15.7857 3.42904V2.3301C15.7857 2.19731 15.8962 2.08513 16.0271 2.08513H17.7657C17.8965 2.08513 18.0071 2.19731 18.0071 2.3301V3.41282C18.0071 3.85592 18.3149 4.23951 18.7473 4.33576C19.6656 4.53997 20.5374 4.89984 21.3382 5.40545C21.712 5.64143 22.1993 5.58698 22.5116 5.27424L23.2893 4.49592C23.3504 4.43481 23.4235 4.42563 23.4615 4.42563C23.4996 4.42563 23.5727 4.43481 23.6337 4.49592L24.8609 5.72399C24.9548 5.81799 24.9548 5.97675 24.8609 6.07075L24.0832 6.84907C23.7712 7.16134 23.7167 7.64783 23.9521 8.02129C24.4528 8.81611 24.81 9.67944 25.0137 10.5873C25.1107 11.0189 25.4939 11.3258 25.9363 11.3258ZM43.6958 7.15656C45.0265 7.15656 46.1091 8.239 46.1091 9.5696V28.6809H41.7886V11.1991C41.7886 10.896 41.7939 10.648 41.7986 10.4293C41.8208 9.39791 41.8042 8.97824 41.3275 7.74136C41.2526 7.54633 41.1775 7.35159 41.1027 7.15656H43.6958ZM37.4616 2.95801C38.1627 4.77848 38.8634 6.59894 39.5627 8.42034C39.9095 9.31984 39.9256 9.52677 39.911 10.2536H35.0121C34.9975 9.52546 35.0133 9.31872 35.358 8.42016L36.0624 6.59107C36.0727 6.56773 36.0817 6.54384 36.09 6.51956L37.4616 2.95801ZM35.0255 12.1445H39.8976V28.6809H35.0255V12.1445ZM35.1852 44.9266V45.8962C35.1852 46.0095 35.0851 46.1089 34.9708 46.1089H13.0265C12.9136 46.1089 12.8148 46.0095 12.8148 45.8962V44.9266C12.8148 44.0312 13.5424 43.3027 14.4367 43.3027H18.0779H29.9222H33.5634C34.4577 43.3028 35.1852 44.0313 35.1852 44.9266ZM28.9766 41.4118H19.0234V38.3606H28.9766V41.4118ZM43.6958 36.4697H29.9221H18.0778H4.30417C2.97347 36.4697 1.89094 35.3873 1.89094 34.0567V30.5717H46.1091V34.0567C46.1091 35.3872 45.0265 36.4697 43.6958 36.4697Z" fill="#3D2D68"/>
<path d="M0.945423 22.7776C1.46762 22.7776 1.89085 22.3543 1.89085 21.8322V21.8133C1.89085 21.2911 1.46752 20.8679 0.945423 20.8679C0.423322 20.8679 0 21.2911 0 21.8132V21.8321C0 22.3543 0.423322 22.7776 0.945423 22.7776Z" fill="#3D2D68"/>
</g>
<defs>
<clipPath id="clip0_473_2927">
<rect width="48" height="48" fill="white"/>
</clipPath>
</defs>
</svg>
