<svg width="48" height="48" viewBox="0 0 48 48" fill="none" xmlns="http://www.w3.org/2000/svg">
<g clip-path="url(#clip0_473_2987)">
<circle cx="24" cy="24" r="16" fill="#00BAB3" fill-opacity="0.1"/>
<path d="M43.6968 0.328125H4.30324C1.9304 0.328125 0 2.25712 0 4.62808V33.7518C0 36.1228 1.9304 38.0518 4.30324 38.0518H17.1319V41.0918H14.4379C12.5001 41.0918 10.9237 42.6672 10.9237 44.6036V45.5696C10.9237 46.729 11.8673 47.6722 13.0272 47.6722H34.9701C36.1316 47.6722 37.0764 46.729 37.0764 45.5696V44.6036C37.0764 42.6672 35.5 41.0918 33.5622 41.0918H30.8656V38.0518H43.6969C46.0697 38.0518 48.0001 36.1228 48.0001 33.7518V19.527C48.0001 19.0048 47.5768 18.5815 47.0547 18.5815C46.5326 18.5815 46.1092 19.0048 46.1092 19.527V28.385H1.89085V4.62808C1.89085 3.29973 2.9731 2.21898 4.30324 2.21898H43.6968C45.0269 2.21898 46.1092 3.29963 46.1092 4.62808V11.1062C46.1092 11.6283 46.5325 12.0517 47.0546 12.0517C47.5767 12.0517 48 11.6283 48 11.1062V4.62808C48 2.25712 46.0696 0.328125 43.6968 0.328125ZM35.1855 44.6036V45.5696C35.1855 45.6843 35.0868 45.7813 34.97 45.7813H13.0272C12.912 45.7813 12.8144 45.6843 12.8144 45.5696V44.6036C12.8144 43.7098 13.5427 42.9827 14.4378 42.9827H18.0772H29.92H33.562C34.4573 42.9827 35.1855 43.7098 35.1855 44.6036ZM28.9746 41.0918H19.0227V38.0518H28.9746V41.0918ZM46.1092 30.2759V33.7518C46.1092 35.0802 45.0269 36.1608 43.6968 36.1608H29.9201H18.0773H4.30324C2.9731 36.1608 1.89085 35.0802 1.89085 33.7518V30.2759H46.1092Z" fill="#3D2D68"/>
<path d="M28.1987 34.1638H28.2172C28.7393 34.1638 29.1626 33.7405 29.1626 33.2184C29.1626 32.6963 28.7393 32.2729 28.2172 32.2729H28.1987C27.6766 32.2729 27.2532 32.6963 27.2532 33.2184C27.2532 33.7405 27.6765 34.1638 28.1987 34.1638Z" fill="#3D2D68"/>
<path d="M19.7828 34.1638H23.9986C24.5207 34.1638 24.944 33.7405 24.944 33.2184C24.944 32.6963 24.5207 32.2729 23.9986 32.2729H19.7828C19.2607 32.2729 18.8374 32.6963 18.8374 33.2184C18.8374 33.7405 19.2607 34.1638 19.7828 34.1638Z" fill="#3D2D68"/>
<path d="M47.0546 14.3669C46.5325 14.3669 46.1092 14.7903 46.1092 15.3124V15.3309C46.1092 15.8531 46.5325 16.2764 47.0546 16.2764C47.5767 16.2764 48 15.853 48 15.3309V15.3124C48 14.7902 47.5767 14.3669 47.0546 14.3669Z" fill="#3D2D68"/>
<path d="M31.0581 8.75565C31.0581 8.84146 33.375 24.5022 33.375 24.5022L28.0117 25.8752V7.29684C28.355 7.64009 29.256 8.54112 29.256 8.54112C29.256 8.54112 30.7577 8.58402 30.8435 8.58402C30.9723 8.58402 31.0581 8.62693 31.0581 8.75565ZM26.7674 7.29684C27.1536 7.16812 27.3681 7.12521 27.411 7.12521C27.4539 7.08231 27.5398 7.08231 27.5827 7.08231V25.8752L14.625 23.6441C14.625 23.6441 16.2125 11.5446 16.2554 11.1155C16.2983 10.5577 16.3412 10.5577 16.9419 10.3432C16.9419 10.3432 17.7572 10.0857 18.9585 9.69959C19.0872 8.79856 19.5163 7.64009 20.117 6.69615C20.9322 5.36606 21.962 4.63666 22.9917 4.59375C23.5495 4.59375 23.9785 4.76537 24.3218 5.15153C24.3218 5.19444 24.3647 5.19444 24.4076 5.23734C24.4505 5.23734 24.4934 5.19444 24.5363 5.19444C24.5363 5.19444 24.5363 5.19444 24.5792 5.19444C25.3515 5.19444 26.038 5.6664 26.4671 6.52453C26.5958 6.78197 26.6816 7.0394 26.7674 7.29684ZM24.4076 8.02624C24.4076 7.46846 24.3647 6.61034 24.0644 6.00965C23.764 6.13837 23.5066 6.3529 23.335 6.56743C22.8201 7.08231 22.4339 7.89753 22.2194 8.71274C22.9488 8.49821 23.7211 8.24078 24.4076 8.02624ZM22.9917 5.32316C21.4042 5.36606 20.0312 7.85462 19.645 9.48505C20.2028 9.31343 20.8464 9.1418 21.4471 8.92727C21.6616 7.89753 22.1336 6.78197 22.8201 6.09547C23.0775 5.83803 23.335 5.6235 23.6353 5.45187C23.4637 5.36606 23.2491 5.32316 23.0346 5.32316H22.9917ZM21.018 14.7625C20.9751 14.548 21.018 13.7328 22.2623 13.647C23.1633 13.604 23.8927 13.9473 23.8927 13.9473L24.5363 11.4587C24.5363 11.4587 23.9785 11.2013 22.863 11.2442C19.9883 11.4587 18.6582 13.4753 18.7869 15.449C18.9585 17.8089 21.3184 17.723 21.4042 19.1819C21.4471 19.5251 21.1896 20.04 20.589 20.04C19.6879 20.1258 18.5295 19.2677 18.5295 19.2677L18.1004 21.1555C18.1004 21.1555 19.216 22.3569 21.3184 22.2282C23.0775 22.1424 24.2789 20.7265 24.1502 18.7099C23.9785 16.0926 21.0609 15.8781 21.018 14.7625ZM25.0941 7.81171C25.4803 7.7259 25.8235 7.59718 26.1239 7.51137C25.9522 6.9965 25.5661 6.09547 24.7938 5.96675C25.0083 6.56743 25.0941 7.29684 25.0941 7.81171Z" fill="#3D2D68"/>
</g>
<defs>
<clipPath id="clip0_473_2987">
<rect width="48" height="48" fill="white"/>
</clipPath>
</defs>
</svg>
