<svg width="48" height="48" viewBox="0 0 48 48" fill="none" xmlns="http://www.w3.org/2000/svg">
<g clip-path="url(#clip0_473_3002)">
<circle cx="24" cy="24" r="16" fill="#00BAB3" fill-opacity="0.1"/>
<path d="M45.4444 38.0552H43.6853V32.3394C43.6853 31.818 43.2625 31.3954 42.7411 31.3954C42.2197 31.3954 41.7969 31.8181 41.7969 32.3394V38.0552H39.679H39.6749H32.9248H32.9207H26.1705H26.1672H19.4136H19.4094H13.6613C12.5881 38.0552 11.715 38.9289 11.715 40.003V44.5477H5.1075C3.66844 44.5477 2.49778 43.3786 2.49778 41.9415C2.49778 40.503 3.66844 39.3327 5.1075 39.3327H7.65131C8.84025 39.3327 9.80756 38.3672 9.80756 37.1804V14.1088H25.5179L18.6026 21.018C18.3832 21.2374 18.199 21.4121 18.0366 21.5664C17.9773 21.6227 17.9212 21.6763 17.8672 21.7283C17.8597 21.7354 17.8518 21.7416 17.8445 21.749C17.841 21.7524 17.8381 21.7563 17.8347 21.7597C17.205 22.3703 16.9209 22.7447 16.4664 23.9347C15.5493 26.3302 14.6348 28.7257 13.72 31.1218C13.5248 31.6342 13.6483 32.2144 14.0345 32.5996C14.2995 32.864 14.6452 33.0032 15.0017 33.0032C15.1702 33.0032 15.3412 32.9721 15.5073 32.9083C17.9051 31.9948 20.3031 31.0812 22.7002 30.1652C23.8976 29.7088 24.2724 29.4235 24.888 28.7888C24.8886 28.7883 24.8893 28.7877 24.8899 28.7871C24.8911 28.7859 24.892 28.7846 24.8933 28.7834C24.9522 28.7226 25.0132 28.6587 25.0776 28.591C25.2304 28.4301 25.4036 28.2478 25.6201 28.031L39.2325 14.4345C40.7653 15.0774 41.7968 16.5905 41.7968 18.2791V23.9271C41.7968 24.4486 42.2196 24.8712 42.741 24.8712C43.2624 24.8712 43.6852 24.4485 43.6852 23.9271V18.2791C43.6852 16.0834 42.486 14.0926 40.6396 13.029L42.1832 11.4872C42.1851 11.4853 42.1871 11.4838 42.1891 11.4818C42.1909 11.4801 42.1924 11.4781 42.1942 11.4762L45.6278 8.04646C46.293 7.38196 46.6589 6.49574 46.6582 5.55093C46.6576 4.60743 46.2914 3.72318 45.6282 3.06252L43.5971 1.03068C42.2214 -0.343605 39.9832 -0.343512 38.6077 1.03068L27.4078 12.2206H9.80747V11.282C9.80747 10.0952 8.84016 9.12965 7.65122 9.12965H5.1075C2.62725 9.12965 0.609375 11.1458 0.609375 13.6241V41.9415C0.609375 44.4198 2.62725 46.436 5.1075 46.436H11.7531C11.9309 47.3266 12.7187 48 13.6613 48H21.0269C21.5483 48 21.9711 47.5773 21.9711 47.0559C21.9711 46.5345 21.5483 46.1119 21.0269 46.1119H13.6613C13.6325 46.1119 13.6033 46.0831 13.6033 46.0549V40.0031C13.6033 39.973 13.632 39.9435 13.6613 39.9435H18.4733L18.4825 42.113C18.4848 42.633 18.907 43.053 19.4266 43.053H19.4307C19.9522 43.0507 20.3731 42.6262 20.3708 42.1048L20.3616 39.9435H25.2293L25.2367 42.1121C25.2386 42.6324 25.6609 43.053 26.1808 43.053H26.1841C26.7055 43.0512 27.1268 42.6271 27.1251 42.1056L27.1177 39.9435H31.9844L31.9937 42.1129C31.9959 42.6329 32.4182 43.053 32.9377 43.053H32.9419C33.4633 43.0508 33.8842 42.6262 33.882 42.1049L33.8728 39.9435H38.7386L38.7479 42.1129C38.7502 42.6329 39.1724 43.053 39.692 43.053H39.6961C40.2175 43.0508 40.6385 42.6262 40.6362 42.1049L40.627 39.9435H45.4443C45.4751 39.9435 45.5022 39.9713 45.5022 40.0031V46.0549C45.5022 46.0847 45.4746 46.1119 45.4443 46.1119H29.4504C28.929 46.1119 28.5063 46.5346 28.5063 47.0559C28.5063 47.5774 28.929 48 29.4504 48H45.4444C46.5175 48 47.3906 47.1274 47.3906 46.0548V40.003C47.3906 38.929 46.5174 38.0552 45.4444 38.0552ZM28.4552 13.8434C28.4631 13.8358 28.4708 13.8281 28.4783 13.8203L35.8343 6.47071L37.3414 7.97549L21.3671 23.9336L19.8611 22.4291C19.8865 22.4039 19.9108 22.3802 19.9372 22.3539L28.4552 13.8434ZM16.7557 28.4672L18.1644 29.8745C17.4048 30.1641 16.6456 30.4541 15.8856 30.7437C16.1752 29.9849 16.4658 29.2259 16.7557 28.4672ZM22.0269 28.4012C21.3841 28.6468 20.7409 28.8916 20.098 29.1369L17.4939 26.5355C17.7395 25.8933 17.9843 25.2513 18.2302 24.6091C18.3682 24.2478 18.4704 24.0059 18.5759 23.8143L22.8221 28.0562C22.63 28.1615 22.3878 28.2636 22.0269 28.4012ZM24.2858 26.6953C24.2855 26.6956 24.2852 26.6959 24.2849 26.6961C24.2583 26.7229 24.2345 26.7471 24.2092 26.7727L22.7031 25.2682L38.6776 9.30974L40.1846 10.8145L24.2858 26.6953ZM39.9422 2.36652C40.2621 2.04683 40.6822 1.88708 41.1024 1.88708C41.5224 1.88708 41.9424 2.04683 42.2619 2.36605L44.2941 4.39874C44.6006 4.70418 44.7697 5.11377 44.7699 5.55214C44.7702 5.99174 44.6009 6.40321 44.2933 6.71052L41.5207 9.48008L37.1702 5.13608L39.9422 2.36652ZM2.49769 13.6241C2.49769 12.187 3.66834 11.0179 5.10741 11.0179H7.65122C7.79644 11.0179 7.91916 11.1388 7.91916 11.282V37.1803C7.91916 37.3235 7.79653 37.4444 7.65122 37.4444H5.1075C4.13531 37.4444 3.23419 37.7544 2.49778 38.2806L2.49769 13.6241Z" fill="#3D2D68"/>
<path d="M25.2373 46.1118H25.2214C24.6999 46.1118 24.2772 46.5345 24.2772 47.0559C24.2772 47.5773 24.6999 47.9999 25.2214 47.9999H25.2373C25.7588 47.9999 26.1815 47.5772 26.1815 47.0559C26.1815 46.5345 25.7588 46.1118 25.2373 46.1118Z" fill="#3D2D68"/>
<path d="M42.741 27.1707C42.2196 27.1707 41.7968 27.5934 41.7968 28.1147V28.1333C41.7968 28.6547 42.2196 29.0773 42.741 29.0773C43.2624 29.0773 43.6852 28.6546 43.6852 28.1333V28.1147C43.6853 27.5934 43.2624 27.1707 42.741 27.1707Z" fill="#3D2D68"/>
</g>
<defs>
<clipPath id="clip0_473_3002">
<rect width="48" height="48" fill="white"/>
</clipPath>
</defs>
</svg>
