<svg width="99" height="94" viewBox="0 0 99 94" fill="none" xmlns="http://www.w3.org/2000/svg">
<path fill-rule="evenodd" clip-rule="evenodd" d="M99 0H0V49.6188C0.156799 49.1939 0.350478 48.7857 0.581035 48.394C1.30173 47.1698 2.3027 46.2147 3.58394 45.5288C4.86518 44.8429 6.30655 44.5 7.9081 44.5C9.50965 44.5 10.951 44.8466 12.2323 45.5399C13.5135 46.2331 14.5144 47.1919 15.2351 48.4161C15.9558 49.6404 16.3162 51.0195 16.3162 52.5535C16.3162 54.1023 15.9558 55.4962 15.2351 56.7352C14.5144 57.9742 13.5135 58.944 12.2323 59.6446C10.951 60.3452 9.50965 60.6956 7.9081 60.6956C6.30655 60.6956 4.86518 60.3452 3.58394 59.6446C2.3027 58.944 1.30173 57.9742 0.581035 56.7352C0.350478 56.3388 0.156799 55.9266 0 55.4985V61.7786H4.8251V77.2883H0V78.7955H6.58877C8.26182 78.7955 9.72389 79.1131 10.975 79.7483C12.2262 80.3835 13.1936 81.2883 13.8774 82.4627C14.5611 83.6371 14.903 84.9998 14.903 86.5509C14.903 88.1168 14.5539 89.4832 13.8556 90.6503C13.1573 91.8173 12.1644 92.7221 10.8768 93.3647C10.341 93.6321 9.76935 93.8439 9.16175 94H16.297V78.7955H29.2375V82.6954H21.3597V84.601H28.5174V88.5009H21.3597V90.4287H29.4339V94H34.6828C34.4813 93.9436 34.2796 93.8822 34.0777 93.8161C32.7029 93.3655 31.5136 92.7488 30.5098 91.9658L32.3865 88.0881C33.1576 88.7676 34.125 89.3474 35.2888 89.8275C36.4527 90.3076 37.4274 90.5477 38.213 90.5477C38.5913 90.5477 38.8895 90.4775 39.1078 90.3372C39.326 90.1968 39.4351 89.9789 39.4351 89.6835C39.4351 89.329 39.2277 89.052 38.8131 88.8526C38.3985 88.6531 37.7475 88.4426 36.8601 88.221C35.7835 87.9404 34.8851 87.6486 34.165 87.3458C33.4449 87.0429 32.8229 86.5739 32.2992 85.9387C31.7755 85.3035 31.5136 84.4541 31.5136 83.3905C31.5136 82.3564 31.7827 81.4516 32.321 80.6761C32.8593 79.9005 33.6231 79.3059 34.6124 78.8923C35.6017 78.4787 36.7509 78.2719 38.0603 78.2719C39.2532 78.2719 40.4425 78.4417 41.6282 78.7815C42.8139 79.1213 43.8431 79.5718 44.716 80.1332L42.883 84.0552C42.0537 83.5677 41.1299 83.1394 40.1116 82.77C39.0932 82.4007 38.2639 82.2161 37.6238 82.2161C36.9983 82.2161 36.6855 82.4451 36.6855 82.903C36.6855 83.2575 36.8855 83.5308 37.2856 83.7229C37.6856 83.9149 38.3221 84.1291 39.195 84.3655C40.2862 84.6757 41.1918 84.9859 41.9119 85.2961C42.632 85.6063 43.2612 86.0975 43.7995 86.7697C44.3378 87.4418 44.607 88.3244 44.607 89.4176C44.607 90.5403 44.3196 91.482 43.745 92.2428C43.1703 93.0036 42.3956 93.5686 41.4209 93.9379C41.3647 93.9592 41.3081 93.9799 41.2511 94H45.7563V78.7955H50.819V94H57.7448C57.3139 93.8482 56.8994 93.6614 56.5012 93.4394C55.2428 92.7377 54.2572 91.7701 53.5444 90.5366C52.8315 89.3031 52.475 87.9108 52.475 86.3597C52.475 84.8234 52.846 83.4385 53.588 82.205C54.3299 80.9715 55.3556 80.0076 56.6649 79.3133C57.9743 78.619 59.4509 78.2719 61.0948 78.2719C62.2878 78.2719 63.4844 78.4934 64.6846 78.9366C65.8848 79.3798 66.8922 79.9707 67.7069 80.7093L64.8482 84.2325C64.339 83.7155 63.739 83.3055 63.0479 83.0027C62.3569 82.6999 61.6986 82.5485 61.073 82.5485C60.4329 82.5485 59.851 82.7146 59.3272 83.047C58.8035 83.3794 58.3962 83.8336 58.1052 84.4098C57.8142 84.9859 57.6687 85.6359 57.6687 86.3597C57.6687 87.0983 57.8179 87.7594 58.1161 88.3429C58.4143 88.9264 58.8253 89.3844 59.349 89.7167C59.8728 90.0491 60.462 90.2153 61.1166 90.2153C61.6695 90.2153 62.3387 90.038 63.1243 89.6835V85.9609H67.4669V92.4533C66.6086 93.0442 65.5502 93.5317 64.2918 93.9158C64.1962 93.945 64.101 93.973 64.0064 94H69.272V78.7955H73.5055L79.5503 86.7725V78.7955H84.1329V94H89.4667C89.2653 93.9436 89.0636 93.8822 88.8617 93.8161C87.4869 93.3655 86.2976 92.7488 85.2937 91.9658L87.1705 88.0881C87.9415 88.7676 88.9089 89.3474 90.0728 89.8275C91.2367 90.3076 92.2114 90.5477 92.997 90.5477C93.3752 90.5477 93.6735 90.4775 93.8917 90.3372C94.1099 90.1968 94.219 89.9789 94.219 89.6835C94.219 89.329 94.0117 89.052 93.5971 88.8526C93.1824 88.6531 92.5314 88.4426 91.644 88.221C90.5674 87.9404 89.6691 87.6486 88.949 87.3458C88.2288 87.0429 87.6069 86.5739 87.0831 85.9387C86.5594 85.3035 86.2976 84.4541 86.2976 83.3905C86.2976 82.3564 86.5667 81.4516 87.105 80.6761C87.6433 79.9005 88.407 79.3059 89.3963 78.8923C90.3856 78.4787 91.5349 78.2719 92.8442 78.2719C94.0372 78.2719 95.2265 78.4417 96.4122 78.7815C97.3787 79.0585 98.2413 79.4091 99 79.8333V0ZM99 81.203L97.6669 84.0552C96.8377 83.5677 95.9139 83.1394 94.8955 82.77C93.8771 82.4007 93.0479 82.2161 92.4078 82.2161C91.7822 82.2161 91.4694 82.4451 91.4694 82.903C91.4694 83.2575 91.6694 83.5308 92.0695 83.7229C92.4696 83.9149 93.1061 84.1291 93.979 84.3655C95.0701 84.6757 95.9757 84.9859 96.6958 85.2961C97.416 85.6063 98.0452 86.0975 98.5835 86.7697C98.7472 86.9741 98.8861 87.1981 99 87.4415V81.203ZM99 91.4395C98.8736 91.7266 98.7166 91.9943 98.5289 92.2428C97.9543 93.0036 97.1796 93.5686 96.2048 93.9379C96.1486 93.9592 96.092 93.9799 96.0351 94H99V91.4395ZM79.65 94L73.8765 86.3958V94H79.65ZM74.9859 77.2883C76.5118 73.7576 73.9076 72.5237 73.3004 72.2902C73.173 72.3615 73.0404 72.4195 72.8989 72.4336C72.6897 72.4545 72.4551 72.3509 72.3778 72.1359C72.3622 72.0927 72.3536 72.0471 72.345 72.0014C72.3374 71.9612 72.3298 71.921 72.3174 71.8823C72.2526 71.6798 72.0463 71.5451 71.8539 71.5806C71.8124 71.4522 71.7974 71.3136 71.811 71.1781C71.9179 71.1474 72.0291 71.1356 72.1393 71.1423C72.0323 70.9914 72.1099 70.7571 72.2476 70.6398C72.353 70.55 72.4817 70.5065 72.61 70.4632C72.6495 70.4499 72.6889 70.4366 72.7275 70.422C72.9958 70.3204 73.2411 70.1467 73.4364 69.9198C73.3745 69.8167 73.2286 69.8312 73.1324 69.8954C73.0945 69.9207 73.0596 69.9515 73.0249 69.9821C72.9713 70.0294 72.9179 70.0765 72.8542 70.103C72.7734 70.1365 72.6804 70.136 72.5894 70.1354C72.4551 70.1346 72.3251 70.1339 72.2451 70.2428C72.2405 70.2109 72.2359 70.1789 72.2314 70.1469C72.2268 70.1149 72.2222 70.0829 72.2176 70.051L71.7098 70.0096C71.7035 69.9748 71.6974 69.9401 71.6912 69.9053C71.685 69.8703 71.6788 69.8354 71.6726 69.8005C71.599 69.7811 71.5177 69.7952 71.4384 69.809C71.3226 69.8291 71.211 69.8485 71.1329 69.7623C71.0517 69.6729 71.0728 69.5142 71.1465 69.4177C71.2202 69.3212 71.3317 69.2716 71.4383 69.2251C71.45 69.1287 71.4186 69.0369 71.3869 68.9443C71.3644 68.8787 71.3418 68.8127 71.3343 68.7443C71.3124 68.5501 71.4165 68.3603 71.5546 68.2374C71.6732 68.1315 71.8147 68.064 71.9555 67.9969C71.9785 67.9859 72.0016 67.9749 72.0245 67.9637C72.2144 67.8716 72.4229 67.7302 72.4458 67.503C72.447 67.4906 72.4477 67.4781 72.4484 67.4655C72.45 67.4359 72.4516 67.4062 72.4611 67.3785C72.4962 67.277 72.5971 67.2648 72.703 67.2521C72.7709 67.244 72.8407 67.2356 72.8967 67.2033C72.9544 67.1699 73.0002 67.1091 73.0446 67.0499C73.1109 66.9617 73.1743 66.8773 73.2704 66.8933C73.3283 66.903 73.3708 66.9486 73.4139 66.9949C73.4396 67.0225 73.4655 67.0504 73.495 67.0709C73.6224 67.16 73.766 67.0977 73.9148 67.0331C74.0188 66.988 74.1253 66.9418 74.2307 66.9453C74.2701 66.9468 74.3092 66.9553 74.3482 66.9638C74.3943 66.974 74.4404 66.984 74.4871 66.9823C74.5736 66.9788 74.6698 66.9087 74.6594 66.8142C74.6484 66.7134 74.5293 66.6748 74.4391 66.696C74.4048 66.7041 74.3714 66.7174 74.3381 66.7307C74.2839 66.7522 74.23 66.7737 74.1731 66.7724C74.0694 66.7701 73.9725 66.683 73.9492 66.572C73.926 66.4609 73.9789 66.3365 74.0708 66.2845C74.0945 66.2712 74.1202 66.2623 74.1459 66.2535C74.185 66.24 74.2239 66.2266 74.255 66.1978C74.3023 66.1543 74.32 66.0866 74.3377 66.019C74.3557 65.9502 74.3737 65.8816 74.4227 65.8387C74.4641 65.8025 74.5185 65.7929 74.5724 65.7834C74.6322 65.7729 74.6915 65.7624 74.7313 65.7158C74.7541 65.6889 74.7664 65.6545 74.7787 65.6199C74.7875 65.5953 74.7963 65.5706 74.8089 65.5484C74.9034 65.3846 75.1297 65.4433 75.291 65.5213L75.7906 65.7631C75.8242 65.7796 75.8604 65.7985 75.8768 65.8347C75.8918 65.8678 75.8861 65.9072 75.8804 65.9434C75.8564 66.0923 75.8199 66.2609 75.6991 66.3321C75.6786 66.3442 75.6565 66.3529 75.6345 66.3615C75.6049 66.3732 75.5753 66.3847 75.5499 66.4046C75.4634 66.4723 75.4555 66.618 75.5038 66.7224C75.5521 66.8268 75.6411 66.8992 75.7273 66.9678C75.7424 66.8067 75.8375 66.6574 75.9701 66.5869C75.9874 66.5778 76.0055 66.5697 76.0236 66.5616C76.0733 66.5394 76.123 66.5172 76.1568 66.4727C76.2059 66.4082 76.205 66.3223 76.2041 66.235C76.2036 66.1902 76.2031 66.145 76.2094 66.1021C76.2487 65.832 76.5516 65.7119 76.7984 65.7422C76.9024 65.755 77.0043 65.7844 77.106 65.8137C77.2457 65.8541 77.385 65.8942 77.5287 65.8911C77.6023 65.8894 77.6753 65.8763 77.7483 65.8631C77.8291 65.8486 77.9099 65.8341 77.9915 65.8351C78.1467 65.8371 78.3205 65.9206 78.3602 66.086C78.4649 65.9001 78.6971 65.8158 78.8816 65.897C78.8926 65.9017 78.9036 65.9071 78.9147 65.9124C78.9556 65.9322 78.997 65.9521 79.0404 65.945C79.0863 65.9374 79.123 65.9013 79.1594 65.8656C79.2006 65.8251 79.2412 65.7851 79.2939 65.7883C79.3404 65.7911 79.3764 65.8269 79.4117 65.8622C79.4216 65.872 79.4313 65.8817 79.4413 65.8907C79.5232 65.9643 79.6302 65.9923 79.7362 66.02C79.8598 66.0523 79.9819 66.0842 80.0614 66.1876C80.1222 66.2668 80.144 66.3727 80.1637 66.4739L80.3225 67.2872C80.4888 67.2328 80.6808 67.2899 80.7992 67.4293C80.9175 67.5687 80.9569 67.7838 80.8961 67.9626C81.0484 67.8338 81.2991 67.8869 81.3975 68.0689C81.4958 68.2508 81.4182 68.5186 81.2423 68.6045C81.5234 68.6789 81.7479 68.9621 81.7773 69.2787C81.9114 69.2102 82.0623 69.1503 82.2047 69.1936C82.347 69.237 82.4575 69.4295 82.3795 69.5682C82.3658 69.5924 82.3472 69.6149 82.3287 69.6372C82.2901 69.6837 82.2523 69.7293 82.2622 69.7879C82.2729 69.8508 82.3291 69.8759 82.3871 69.9017C82.4379 69.9243 82.49 69.9475 82.5136 69.9974C82.553 70.0809 82.4807 70.1833 82.3985 70.2097C82.3442 70.2271 82.2876 70.2243 82.2307 70.2215C82.2013 70.22 82.1719 70.2186 82.1428 70.2199C81.8198 70.2357 81.5824 70.6744 81.7236 70.9946C81.5895 71.1537 81.3596 71.2033 81.1808 71.1123C81.1132 71.2051 81.1632 71.3165 81.2152 71.4324C81.2427 71.4936 81.2708 71.556 81.2823 71.6176C81.3134 71.7858 81.2051 71.9563 81.0656 72.0339C80.9261 72.1115 80.7637 72.1162 80.6075 72.1122C80.4138 72.1074 80.2098 72.0865 80.0314 72.0106C79.8005 72.5823 79.5463 72.7593 79.0073 73.1345C78.6744 73.3663 78.2329 73.6737 77.6211 74.1963C76.1616 75.4432 76.8096 76.7886 77.1212 77.27C78.5403 77.1937 79.8052 76.879 80.9159 76.3259C82.2044 75.6842 83.1981 74.7808 83.897 73.6155C84.5958 72.4503 84.9453 71.0859 84.9453 69.5224C84.9453 67.9736 84.6031 66.613 83.9188 65.4403C83.2345 64.2677 82.2663 63.3643 81.0142 62.73C79.7621 62.0958 78.2989 61.7786 76.6245 61.7786H69.7888V77.2883H74.9859ZM73.5154 71.9047L73.5106 71.9423C73.8143 72.1954 74.2139 72.4206 74.2139 72.4206C74.2595 72.384 74.2981 72.3142 74.3308 72.2245C74.3189 72.1692 74.3196 72.1025 74.3203 72.0339C74.3216 71.9204 74.3229 71.8013 74.2671 71.7184C74.1645 71.5656 73.8909 71.7062 73.9313 71.8913C73.7929 71.8771 73.6527 71.8819 73.5154 71.9047ZM74.7492 72.1914C74.7175 72.2157 74.6854 72.245 74.6528 72.2723C74.8573 72.9772 75.2328 73.4452 75.5307 73.7245C75.7353 73.9163 76.0554 73.7986 76.1101 73.5091C76.2199 72.9286 76.2139 72.3653 76.1666 71.8966C76.149 71.8822 76.1314 71.8676 76.1138 71.8531C75.9334 71.7041 75.7498 71.5524 75.5367 71.5243C75.5356 71.5735 75.5347 71.6227 75.5337 71.6719C75.5327 71.7222 75.5317 71.7724 75.5306 71.8228L75.2449 71.8098L75.2299 72.1477C75.0775 72.0685 74.8876 72.0859 74.7492 72.1914ZM76.8034 72.1571C76.7335 72.1719 76.6667 72.1694 76.602 72.1544C76.583 72.5434 76.6336 72.8743 76.6991 73.1279C76.7774 73.4323 77.1311 73.5194 77.3171 73.278C77.6562 72.838 77.805 72.3463 77.8339 72.2424C77.6033 72.3388 77.3381 72.3793 77.1385 72.2292C77.1266 72.2203 77.1149 72.2106 77.1031 72.201C77.0678 72.1719 77.0324 72.1427 76.9897 72.1323C76.9435 72.1208 76.8964 72.1333 76.8496 72.1457C76.8342 72.1498 76.8188 72.1539 76.8034 72.1571ZM78.6642 71.9082C78.6185 71.9107 78.5737 71.9174 78.5296 71.9276C78.5096 72.0198 78.4896 72.1086 78.4701 72.193C78.3914 72.5328 78.7261 72.8105 78.9986 72.6297C79.3852 72.3729 79.6192 72.0817 79.761 71.8233C79.7536 71.8153 79.746 71.8071 79.7383 71.7988C79.6189 71.6693 79.4664 71.5041 79.3426 71.6145C79.3137 71.64 79.296 71.6761 79.2781 71.7125C79.2676 71.7339 79.257 71.7553 79.2442 71.7747C79.1501 71.9161 78.9775 71.912 78.8089 71.9081C78.7596 71.9069 78.7107 71.9058 78.6642 71.9082ZM9.83672 86.5337C9.83672 87.6712 9.56394 88.5797 9.01838 89.2592C8.47282 89.9387 7.74177 90.2785 6.82523 90.2785H4.92671V82.7224H6.58521C7.57449 82.7224 8.36369 83.0696 8.9529 83.7639C9.5421 84.4582 9.83672 85.3814 9.83672 86.5337ZM13.08 65.1933C13.7206 65.1933 14.5505 65.3777 15.5696 65.7464C16.5888 66.1152 17.5133 66.5429 18.3432 67.0297L20.1777 63.1135C19.3041 62.553 18.274 62.1032 17.0874 61.7639C15.9008 61.4247 14.7106 61.255 13.5167 61.255C12.2064 61.255 11.0562 61.4615 10.0661 61.8745C9.07609 62.2875 8.31173 62.8812 7.77303 63.6556C7.23432 64.43 6.96497 65.3334 6.96497 66.3659C6.96497 67.4279 7.22705 68.2761 7.7512 68.9103C8.27534 69.5446 8.89773 70.0129 9.61843 70.3153C10.3391 70.6176 11.2382 70.9089 12.3156 71.1892C13.2037 71.4104 13.8552 71.6206 14.2702 71.8198C14.6851 72.0189 14.8926 72.2954 14.8926 72.6494C14.8926 72.9445 14.7834 73.162 14.565 73.3021C14.3466 73.4423 14.0481 73.5123 13.6696 73.5123C12.8834 73.5123 11.9079 73.2726 10.7432 72.7933C9.57839 72.3139 8.6102 71.7349 7.83854 71.0564L5.96037 74.9283C6.96498 75.7101 8.1552 76.3259 9.53108 76.7758C10.907 77.2257 12.2719 77.4506 13.6259 77.4506C14.8198 77.4506 15.9045 77.2662 16.88 76.8975C17.8555 76.5287 18.6307 75.9645 19.2058 75.2049C19.7809 74.4453 20.0685 73.505 20.0685 72.3839C20.0685 71.2924 19.7991 70.4111 19.2604 69.74C18.7217 69.0689 18.092 68.5784 17.3713 68.2687C16.6507 67.9589 15.7443 67.6492 14.6524 67.3394C13.7788 67.1034 13.1418 66.8896 12.7415 66.6978C12.3411 66.5061 12.1409 66.2332 12.1409 65.8792C12.1409 65.4219 12.4539 65.1933 13.08 65.1933ZM26.7904 61.7786H21.7237V77.2883H33.1674V73.0182H26.7904V61.7786ZM46.1137 75.0979L46.878 77.2883H52.2723L46.0481 61.7786H40.8504L34.386 77.2883H39.5837L40.37 75.0979H46.1137ZM44.8101 71.5502H41.6216L43.2377 67.0146L44.8101 71.5502ZM68.3812 61.7786H63.795V69.7437L57.7455 61.7786H53.5087V77.2883H58.1168V69.3675L64.1444 77.2883H68.3812V61.7786ZM5.37442 50.5473C5.67289 49.972 6.07325 49.5185 6.57555 49.1866C7.07786 48.8547 7.62022 48.6888 8.2026 48.6888C8.78498 48.6888 9.31638 48.851 9.79684 49.1755C10.2773 49.5 10.6559 49.9536 10.9325 50.5362C11.2091 51.1188 11.3474 51.7715 11.3474 52.4943C11.3474 53.217 11.2091 53.8734 10.9325 54.4634C10.6559 55.0534 10.2773 55.5144 9.79684 55.8462C9.31638 56.1781 8.78498 56.344 8.2026 56.344C7.62022 56.344 7.07786 56.1744 6.57555 55.8352C6.07325 55.4959 5.67289 55.035 5.37442 54.4524C5.07595 53.8697 4.92671 53.217 4.92671 52.4943C4.92671 51.7715 5.07595 51.1225 5.37442 50.5473ZM26.991 58.0811L27.7553 60.2715H33.1496L26.9254 44.7618H21.7277L15.2633 60.2715H20.461L21.2473 58.0811H26.991ZM25.6874 54.5334H22.4989L24.115 49.9978L25.6874 54.5334ZM44.3847 60.2715H50.4342L44.6249 50.9568L50.1066 44.7618H44.2755L39.7111 50.4258V44.7618H34.6444V60.2715H39.7111V56.5102L41.1525 54.873L44.3847 60.2715Z" fill="#22FFCE"/>
</svg>
