<?xml version="1.0" encoding="UTF-8" standalone="no"?>
<svg width="100px" height="183px" viewBox="0 0 100 183" version="1.1" xmlns="http://www.w3.org/2000/svg" xmlns:xlink="http://www.w3.org/1999/xlink">
    <!-- Generator: Sketch 50 (54983) - http://www.bohemiancoding.com/sketch -->
    <title>Combined Shape Copy</title>
    <desc>Created with Sketch.</desc>
    <defs></defs>
    <g id="Page-1" stroke="none" stroke-width="1" fill="none" fill-rule="evenodd">
        <g id="mockup-2" transform="translate(-208.000000, -4.000000)" fill="#32BDB4">
            <g id="logo-+-nav" transform="translate(208.000000, 4.000000)">
                <path d="M0,144.217336 C0.180458097,144.863428 0.441026826,145.475534 0.781707317,146.053659 C1.50610118,147.282933 2.51218868,148.245118 3.8,148.940244 C5.08781132,149.635369 6.53657732,149.982927 8.14634146,149.982927 C9.75610561,149.982927 11.2048716,149.635369 12.4926829,148.940244 C13.7804942,148.245118 14.7865817,147.282933 15.5109756,146.053659 C16.2353695,144.824384 16.597561,143.441471 16.597561,141.904878 C16.597561,140.382919 16.2353695,139.01464 15.5109756,137.8 C14.7865817,136.58536 13.7804942,135.63415 12.4926829,134.946341 C11.2048716,134.258533 9.75610561,133.914634 8.14634146,133.914634 C6.53657732,133.914634 5.08781132,134.254875 3.8,134.935366 C2.51218868,135.615857 1.50610118,136.563409 0.781707317,137.778049 C0.441026826,138.349291 0.180458097,138.956133 -1.29452005e-13,139.59858 L0,0.0244140625 L100,0.0244140625 L100,169.112485 C99.1905941,168.640894 98.2576665,168.255689 97.2011955,167.956861 C96.0094339,167.619765 94.8140346,167.451219 93.6149616,167.451219 C92.2989059,167.451219 91.1437188,167.656405 90.1493656,168.066783 C89.1550124,168.47716 88.3873247,169.067069 87.8462796,169.836527 C87.3052345,170.605985 87.034716,171.503673 87.034716,172.529617 C87.034716,173.584873 87.2979232,174.4276 87.8243454,175.057823 C88.3507677,175.688046 88.9758848,176.153378 89.6997155,176.453833 C90.4235461,176.754288 91.326493,177.043746 92.4085833,177.322217 C93.3005766,177.542062 93.9549389,177.750912 94.3716899,177.948772 C94.7884409,178.146633 94.9968132,178.421435 94.9968132,178.773187 C94.9968132,179.066314 94.8871436,179.282492 94.6678009,179.421727 C94.4484583,179.560962 94.1486946,179.630579 93.7685007,179.630579 C92.9788673,179.630579 91.9991516,179.392417 90.8293243,178.916086 C89.659497,178.439755 88.6870926,177.864502 87.9120821,177.19031 L86.025745,181.037581 C87.034721,181.814367 88.2301203,182.42626 89.6119788,182.873279 C89.7493878,182.917729 89.8866882,182.95997 90.0238799,183 L84.7535641,183 L84.7535641,167.846939 L80.1473922,167.846939 L80.1473922,175.761324 L74.071632,167.846939 L69.8164065,167.846939 L69.8164065,183 L64.863542,183 C66.0737012,182.624979 67.0958673,182.154047 67.9300694,181.587191 L67.9300694,175.145761 L63.5651731,175.145761 L63.5651731,178.839141 C62.7755397,179.190893 62.1028991,179.366766 61.5472311,179.366766 C60.8892032,179.366766 60.2969871,179.201885 59.7705648,178.872117 C59.2441425,178.542349 58.8310534,178.08801 58.5312852,177.509084 C58.2315169,176.930159 58.081635,176.274297 58.081635,175.54148 C58.081635,174.823319 58.2278613,174.17845 58.5203181,173.606852 C58.8127749,173.035255 59.2222083,172.584579 59.7486306,172.254812 C60.2750529,171.925044 60.8599578,171.760163 61.5033628,171.760163 C62.132145,171.760163 62.7938186,171.910388 63.4884036,172.210843 C64.1829885,172.511298 64.7861717,172.918005 65.2979711,173.430977 L68.1713451,169.935457 C67.352466,169.20264 66.3398494,168.616395 65.133465,168.176705 C63.9270806,167.737015 62.7243699,167.517173 61.5252969,167.517173 C59.8729159,167.517173 58.3887198,167.861592 57.072664,168.55044 C55.7566083,169.239288 54.7257135,170.1956 53.9799486,171.419404 C53.2341837,172.643209 52.8613068,174.01722 52.8613068,175.54148 C52.8613068,177.080396 53.2195611,178.461735 53.9360803,179.68554 C54.6525995,180.909345 55.6432821,181.869321 56.9081579,182.565497 C57.2064882,182.729695 57.5139685,182.87453 57.8305996,183 L51.4355869,183 L51.4355869,167.846939 L46.3468636,167.846939 L46.3468636,183 L41.8128584,183 C41.8180458,182.998069 41.8232386,182.996134 41.8284283,182.994193 C42.8081586,182.627784 43.5868132,182.067188 44.1644155,181.312386 C44.7420177,180.557584 45.0308145,179.623256 45.0308145,178.509374 C45.0308145,177.424805 44.760296,176.549102 44.2192509,175.882238 C43.6782057,175.215375 43.0457773,174.728059 42.3219467,174.420275 C41.598116,174.112492 40.6878578,173.804714 39.5911447,173.49693 C38.7137743,173.262429 38.0740346,173.049915 37.6719064,172.859383 C37.2697783,172.66885 37.0687172,172.397712 37.0687172,172.04596 C37.0687172,171.591613 37.3831036,171.364443 38.0118858,171.364443 C38.6552908,171.364443 39.4887802,171.547645 40.5123791,171.914053 C41.535978,172.280462 42.4645145,172.70549 43.2980165,173.189149 L45.1404852,169.297909 C44.2631148,168.740968 43.2285643,168.293957 42.0368027,167.956861 C40.8450411,167.619765 39.6496418,167.451219 38.4505688,167.451219 C37.1345131,167.451219 35.979326,167.656405 34.9849728,168.066783 C33.9906196,168.47716 33.2229319,169.067069 32.6818868,169.836527 C32.1408417,170.605985 31.8703232,171.503673 31.8703232,172.529617 C31.8703232,173.584873 32.1335304,174.4276 32.6599526,175.057823 C33.1863749,175.688046 33.811492,176.153378 34.5353227,176.453833 C35.2591533,176.754288 36.1621002,177.043746 37.2441904,177.322217 C38.1361838,177.542062 38.7905461,177.750912 39.2072971,177.948772 C39.624048,178.146633 39.8324204,178.421435 39.8324204,178.773187 C39.8324204,179.066314 39.7227507,179.282492 39.5034081,179.421727 C39.2840655,179.560962 38.9843018,179.630579 38.6041079,179.630579 C37.8144745,179.630579 36.8347588,179.392417 35.6649315,178.916086 C34.4951042,178.439755 33.5226998,177.864502 32.7476892,177.19031 L30.8613522,181.037581 C31.8703282,181.814367 33.0657275,182.42626 34.447586,182.873279 C34.584995,182.917729 34.7222954,182.95997 34.8594871,183 L29.8523812,183 L29.8523812,179.388751 L21.7367448,179.388751 L21.7367448,177.476107 L28.9311468,177.476107 L28.9311468,173.606852 L21.7367448,173.606852 L21.7367448,171.716194 L29.6549738,171.716194 L29.6549738,167.846939 L16.6480215,167.846939 L16.6480215,183 L9.1652703,183 C9.88345552,182.840854 10.5535139,182.608082 11.1754506,182.301684 C12.469572,181.664133 13.4675659,180.766446 14.1694623,179.608595 C14.8713587,178.450744 15.2223016,177.095052 15.2223016,175.54148 C15.2223016,174.002564 14.87867,172.650537 14.1913965,171.485358 C13.5041229,170.320178 12.5317186,169.422491 11.2741542,168.792268 C10.0165899,168.162045 8.54701639,167.846939 6.86538964,167.846939 L0,167.846939 L0,166.465854 L5.00243902,166.465854 L5.00243902,151.078049 L0,151.078049 L0,144.217336 Z M73.7189681,161.516329 C73.6398439,161.549132 73.5583335,161.572886 73.4736142,161.581229 C73.2633303,161.601937 73.0275248,161.499176 72.9498815,161.28584 C72.9204059,161.20535 72.9157329,161.116265 72.8891329,161.034212 C72.8240707,160.833379 72.6166625,160.69975 72.4232732,160.734916 C72.3815759,160.607539 72.3664786,160.470003 72.3801381,160.335594 C72.4876165,160.305117 72.5994084,160.293395 72.710122,160.300037 C72.6026436,160.150389 72.6806463,159.917907 72.8190382,159.801471 C72.9574302,159.685034 73.1360816,159.647134 73.301433,159.585399 C73.5710277,159.484592 73.817617,159.312281 74.0138819,159.087223 C73.9516954,158.984853 73.8050359,158.99931 73.7083413,159.062998 C73.6116466,159.126686 73.5343628,159.22554 73.4286817,159.268911 C73.2277438,159.351354 72.9513194,159.226322 72.816522,159.407619 C72.8071761,159.344321 72.7981896,159.280633 72.7888436,159.217335 C72.6188193,159.20366 72.4484354,159.189984 72.278411,159.176309 C72.2658299,159.10715 72.2536083,159.037992 72.2410272,158.968833 C72.0591407,158.921555 71.8308838,159.075111 71.6986027,158.930933 C71.6170054,158.842238 71.6382135,158.684775 71.7122622,158.589047 C71.7863109,158.493319 71.8984622,158.444088 72.0055812,158.397982 C72.0257109,158.234658 71.9193109,158.084619 71.9009785,157.920905 C71.8790514,157.728277 71.9836542,157.539947 72.1224056,157.41804 C72.261157,157.295743 72.4311814,157.225022 72.5947355,157.146486 C72.7856085,157.055056 72.9951734,156.914785 73.0181789,156.689336 C73.0224924,156.647919 73.0199762,156.604939 73.0336356,156.565866 C73.0915086,156.400589 73.3273141,156.474046 73.4714574,156.391993 C73.6159602,156.30955 73.6856953,156.057922 73.8470927,156.084492 C73.9398332,156.09973 73.9933927,156.206007 74.0728333,156.260709 C74.2903063,156.410748 74.5548686,156.127472 74.8122417,156.136067 C74.8988714,156.139193 74.9833444,156.175922 75.0699742,156.172796 C75.1569634,156.169279 75.253658,156.09973 75.2432337,156.005956 C75.2320905,155.90593 75.1123904,155.867639 75.0218066,155.888738 C74.9312228,155.909837 74.8467498,155.966492 74.7543687,155.964539 C74.6501254,155.962194 74.5527118,155.875844 74.529347,155.765659 C74.5059821,155.655474 74.5591821,155.532005 74.6515632,155.480429 C74.711593,155.447217 74.7849227,155.441747 74.8366849,155.394469 C74.9326606,155.307337 74.9074984,155.122524 75.0052715,155.038127 C75.0929796,154.962326 75.2392796,155.004133 75.3154851,154.91622 C75.3546662,154.870505 75.3629337,154.802909 75.3934878,154.750161 C75.4883851,154.587619 75.7159231,154.645837 75.8780393,154.723201 C76.0455475,154.8033 76.2126962,154.883008 76.3802044,154.963107 C76.4139936,154.979518 76.450299,154.998273 76.4668341,155.034219 C76.4819314,155.06704 76.4761801,155.106113 76.4704287,155.14206 C76.4463449,155.289754 76.4096801,155.456985 76.2881827,155.527707 C76.2400151,155.555839 76.1828611,155.565216 76.1382881,155.5996 C76.0512989,155.666805 76.0433907,155.811374 76.0919178,155.914916 C76.1404448,156.018459 76.2299503,156.090353 76.31658,156.158339 C76.3316773,155.998532 76.4272936,155.850447 76.5606531,155.780507 C76.6257153,155.746513 76.7019207,155.727368 76.748291,155.667196 C76.8230586,155.570296 76.7824397,155.424555 76.8011316,155.299523 C76.8406721,155.031484 77.1451344,154.912313 77.3931615,154.942399 C77.6411886,154.972485 77.877713,155.095563 78.127178,155.090093 C78.2831834,155.086577 78.4363132,155.032656 78.5923187,155.03461 C78.7483241,155.036564 78.9230215,155.119398 78.9629215,155.283503 C79.0682432,155.09908 79.3015324,155.015464 79.4870136,155.095954 C79.5391352,155.118226 79.5912569,155.152609 79.6466136,155.143623 C79.7451056,155.127603 79.8019002,154.982253 79.9014705,154.988114 C79.9611408,154.99163 80.003557,155.048676 80.0495678,155.089702 C80.2278598,155.247947 80.524414,155.193636 80.6728708,155.38431 C80.7339789,155.462846 80.7559059,155.567951 80.7756762,155.668368 C80.8288762,155.937188 80.8820762,156.206398 80.9352763,156.475218 C81.102425,156.421298 81.2954548,156.477953 81.4144359,156.61627 C81.533417,156.754587 81.5729576,156.967924 81.5118494,157.145313 C81.6649792,157.017546 81.9169604,157.070294 82.0158118,157.25081 C82.1146632,157.431325 82.0366604,157.697019 81.8598063,157.782197 C82.1423416,157.856045 82.3680822,158.136977 82.3975579,158.451121 C82.5323552,158.383134 82.6840472,158.323744 82.8271121,158.366724 C82.970177,158.409704 83.08125,158.600769 83.0028878,158.738305 C82.9604716,158.812543 82.8702472,158.87037 82.8849851,158.95633 C82.9051148,159.073548 83.0870014,159.058309 83.1376852,159.164196 C83.1772257,159.24703 83.1046149,159.348619 83.0219392,159.374798 C82.9392635,159.400976 82.8508364,159.381049 82.7649256,159.384957 C82.4403336,159.400586 82.2016524,159.835855 82.3436389,160.153515 C82.2088416,160.311369 81.9777091,160.3606 81.7979793,160.270342 C81.6940955,160.411004 81.8666361,160.595036 81.9000658,160.771644 C81.9313388,160.938484 81.8224225,161.107669 81.6822333,161.184642 C81.5420441,161.261615 81.3788494,161.266304 81.2217656,161.262396 C81.0212923,161.257479 80.8097798,161.235591 80.6267125,161.154609 C80.239003,162.202169 79.8348314,162.027634 78.157815,163.441888 C76.7239339,164.651102 77.3139402,165.953755 77.6337805,166.457834 C79.1543468,166.404841 80.5028314,166.089224 81.6792683,165.510976 C82.9743967,164.874387 83.9731672,163.978055 84.6756098,162.821951 C85.3780523,161.665848 85.7292683,160.312203 85.7292683,158.760976 C85.7292683,157.224383 85.3853693,155.874396 84.697561,154.710976 C84.0097527,153.547555 83.0365917,152.651223 81.7780488,152.021951 C80.5195059,151.39268 79.0487889,151.078049 77.3658537,151.078049 L70.495122,151.078049 L70.495122,166.465854 L75.5281559,166.465854 C77.1252379,162.754329 74.040366,161.622855 73.7189681,161.516329 Z M74.0695236,161.240441 C74.3680744,161.477018 74.7332435,161.680103 74.7332435,161.680103 C74.8065841,161.621829 74.8620847,161.479211 74.903942,161.305538 C74.8947475,161.164669 74.9257211,160.984425 74.8489065,160.87167 C74.7457416,160.720068 74.4707551,160.859558 74.511374,161.043199 C74.3722631,161.029133 74.231355,161.033821 74.0933225,161.056484 L74.0695236,161.240441 Z M75.158628,161.477821 C75.3602223,162.208058 75.7494479,162.689426 76.0567737,162.973798 C76.2623845,163.164082 76.5841009,163.047254 76.6390982,162.760071 C76.7640497,162.107924 76.7398386,161.477809 76.675027,160.980846 C76.5033358,160.841247 76.327372,160.705374 76.1249881,160.679042 C76.1228313,160.777896 76.121034,160.876359 76.1188773,160.975213 C76.023261,160.970915 75.9272853,160.966617 75.831669,160.962319 C75.8266366,161.074066 75.8216042,161.185814 75.8165717,161.297562 C75.663442,161.219026 75.4725689,161.236218 75.3334581,161.340932 C75.2767202,161.383797 75.2189688,161.442331 75.158628,161.477821 Z M77.1422346,161.288962 C77.103661,161.730142 77.1581827,162.10313 77.2311281,162.381848 C77.3098498,162.683879 77.6653553,162.770229 77.8522743,162.530714 C78.2358177,162.039571 78.3770853,161.483568 78.3770853,161.483568 L78.3684454,161.416689 C78.1531863,161.493011 77.9169832,161.513497 77.7350076,161.378442 C77.68684,161.342886 77.6426264,161.295999 77.5854724,161.282323 C77.5236453,161.267085 77.4603804,161.294045 77.3981939,161.306939 C77.3084121,161.32562 77.2237578,161.316449 77.1422346,161.288962 Z M79.0929942,161.089369 C79.0656922,161.217344 79.0380126,161.339934 79.011172,161.454263 C78.9320909,161.79146 79.2685451,162.066922 79.5424533,161.887579 C79.9903966,161.593836 80.2346144,161.254752 80.3677614,160.97233 C80.245139,160.841911 80.0817766,160.652932 79.950357,160.768518 C79.9043462,160.808763 79.8863732,160.875577 79.8515056,160.927544 C79.7292894,161.108841 79.4751514,161.04906 79.2684622,161.06 C79.2086286,161.063114 79.1502744,161.073617 79.0929942,161.089369 Z M100,169.941803 L100,177.064334 C99.8647892,176.616074 99.6593374,176.222044 99.3836437,175.882238 C98.8425985,175.215375 98.2101701,174.728059 97.4863395,174.420275 C96.7625088,174.112492 95.8522506,173.804714 94.7555375,173.49693 C93.8781671,173.262429 93.2384274,173.049915 92.8362992,172.859383 C92.4341711,172.66885 92.23311,172.397712 92.23311,172.04596 C92.23311,171.591613 92.5474964,171.364443 93.1762786,171.364443 C93.8196836,171.364443 94.653173,171.547645 95.6767719,171.914053 C96.7003708,172.280462 97.6289073,172.70549 98.4624093,173.189149 L100,169.941803 Z M100,179.974185 L100,183 L96.9772429,183 C96.9824387,182.998069 96.9876314,182.996134 96.9928211,182.994193 C97.9725514,182.627784 98.751206,182.067188 99.3288083,181.312386 C99.6322411,180.915865 99.8559712,180.469799 100,179.974185 Z M74.4445126,183 L74.4445126,175.387589 L80.2998839,183 L74.4445126,183 Z M9.20137685,178.28953 C8.6530203,178.963722 7.91823355,179.300813 6.99699455,179.300813 L5.08872331,179.300813 L5.08872331,171.804131 L6.75571888,171.804131 C7.75007209,171.804131 8.54334932,172.14855 9.13557439,172.837398 C9.72779947,173.526246 10.0239076,174.442254 10.0239076,175.585449 C10.0239076,176.713987 9.7497334,177.615339 9.20137685,178.28953 Z M15.9341463,155.139024 C16.9585417,155.50488 17.8878007,155.929266 18.7219512,156.412195 L20.5658537,152.526829 C19.6878005,151.970729 18.652445,151.524392 17.4597561,151.187805 C16.2670672,150.851218 15.0707377,150.682927 13.8707317,150.682927 C12.553652,150.682927 11.397566,150.887803 10.402439,151.297561 C9.4073121,151.707319 8.6390271,152.296338 8.09756098,153.064634 C7.55609485,153.832931 7.28536585,154.729263 7.28536585,155.753659 C7.28536585,156.807322 7.54877785,157.648777 8.07560976,158.278049 C8.60244166,158.90732 9.22804516,159.37195 9.95243902,159.671951 C10.6768329,159.971953 11.5804824,160.260974 12.6634146,160.539024 C13.556102,160.758538 14.2109735,160.967072 14.6280488,161.164634 C15.045124,161.362196 15.2536585,161.636584 15.2536585,161.987805 C15.2536585,162.280489 15.1439035,162.496341 14.9243902,162.635366 C14.704877,162.774391 14.40488,162.843902 14.0243902,162.843902 C13.2341424,162.843902 12.2536644,162.6061 11.0829268,162.130488 C9.91218927,161.654876 8.93902827,161.080491 8.16341463,160.407317 L6.27560976,164.24878 C7.2853709,165.024394 8.4817004,165.635364 9.86463415,166.081707 C11.2475679,166.528051 12.6195054,166.751219 13.9804878,166.751219 C15.1804938,166.751219 16.2707268,166.568294 17.2512195,166.202439 C18.2317122,165.836584 19.0109727,165.276833 19.5890244,164.523171 C20.1670761,163.769508 20.4560976,162.836591 20.4560976,161.72439 C20.4560976,160.641458 20.1853686,159.767076 19.6439024,159.101219 C19.1024363,158.435363 18.4695158,157.948782 17.745122,157.641463 C17.0207281,157.334145 16.1097616,157.026831 15.0121951,156.719512 C14.134142,156.485365 13.4939045,156.273172 13.0914634,156.082927 C12.6890224,155.892682 12.4878049,155.621953 12.4878049,155.270732 C12.4878049,154.817071 12.8024359,154.590244 13.4317073,154.590244 C14.075613,154.590244 14.909751,154.773169 15.9341463,155.139024 Z M22.0780488,151.078049 L22.0780488,166.465854 L33.5804878,166.465854 L33.5804878,162.229268 L27.1707317,162.229268 L27.1707317,151.078049 L22.0780488,151.078049 Z M47.3560976,166.465854 L52.7780488,166.465854 L46.5219512,151.078049 L41.297561,151.078049 L34.8,166.465854 L40.0243902,166.465854 L40.8146341,164.292683 L46.5878049,164.292683 L47.3560976,166.465854 Z M42.1317073,160.64878 L43.7560976,156.14878 L45.3365854,160.64878 L42.1317073,160.64878 Z M64.3,151.078049 L64.3,158.980488 L58.2195122,151.078049 L53.9609756,151.078049 L53.9609756,166.465854 L58.5926829,166.465854 L58.5926829,158.607317 L64.6512195,166.465854 L68.9097561,166.465854 L68.9097561,151.078049 L64.3,151.078049 Z M6.8402439,138.676829 C7.34512448,138.347559 7.89024098,138.182927 8.47560976,138.182927 C9.06097854,138.182927 9.59511954,138.343901 10.0780488,138.665854 C10.560978,138.987806 10.941462,139.437802 11.2195122,140.015854 C11.4975624,140.593905 11.6365854,141.24146 11.6365854,141.958537 C11.6365854,142.675613 11.4975624,143.326826 11.2195122,143.912195 C10.941462,144.497564 10.560978,144.954876 10.0780488,145.284146 C9.59511954,145.613416 9.06097854,145.778049 8.47560976,145.778049 C7.89024098,145.778049 7.34512448,145.609758 6.8402439,145.273171 C6.33536333,144.936584 5.93292833,144.479271 5.63292683,143.901219 C5.33292533,143.323168 5.18292683,142.675613 5.18292683,141.958537 C5.18292683,141.24146 5.33292533,140.597564 5.63292683,140.026829 C5.93292833,139.456095 6.33536333,139.006099 6.8402439,138.676829 Z M28.104878,149.607317 L33.5268293,149.607317 L27.2707317,134.219512 L22.0463415,134.219512 L15.5487805,149.607317 L20.7731707,149.607317 L21.5634146,147.434146 L27.3365854,147.434146 L28.104878,149.607317 Z M22.8658537,143.902439 L24.4902439,139.402439 L26.0707317,143.902439 L22.8658537,143.902439 Z M50.9317073,149.607317 L45.0926829,140.365854 L50.602439,134.219512 L44.7414634,134.219512 L40.1536585,139.839024 L40.1536585,134.219512 L35.0609756,134.219512 L35.0609756,149.607317 L40.1536585,149.607317 L40.1536585,145.87561 L41.602439,144.251219 L44.8512195,149.607317 L50.9317073,149.607317 Z" id="Combined-Shape-Copy"></path>
            </g>
        </g>
    </g>
</svg>