<?xml version="1.0" encoding="UTF-8" standalone="no"?>
<svg width="385px" height="385px" viewBox="0 0 385 385" version="1.1" xmlns="http://www.w3.org/2000/svg" xmlns:xlink="http://www.w3.org/1999/xlink">
    <!-- Generator: Sketch 50.2 (55047) - http://www.bohemiancoding.com/sketch -->
    <title>Combined Shape Copy 2</title>
    <desc>Created with Sketch.</desc>
    <defs></defs>
    <g id="Logos" stroke="none" stroke-width="1" fill="none" fill-rule="evenodd">
        <g id="logo-ideas-copy" transform="translate(-155.000000, -146.000000)" fill="#32BDB4">
            <path d="M155,381.686742 C155.694764,384.174197 156.697953,386.530806 158.009573,388.756585 C160.79849,393.489292 164.671926,397.193706 169.63,399.869939 C174.588074,402.546172 180.165823,403.884268 186.363415,403.884268 C192.561007,403.884268 198.138756,402.546172 203.096829,399.869939 C208.054903,397.193706 211.92834,393.489292 214.717256,388.756585 C217.506172,384.023879 218.90061,378.699664 218.90061,372.78378 C218.90061,366.924239 217.506172,361.656365 214.717256,356.98 C211.92834,352.303635 208.054903,348.641477 203.096829,345.993415 C198.138756,343.345353 192.561007,342.021341 186.363415,342.021341 C180.165823,342.021341 174.588074,343.331267 169.63,345.951159 C164.671926,348.57105 160.79849,352.219123 158.009573,356.895488 C156.697953,359.09477 155.694764,361.431112 155,363.904531 L155,146 L540,146 L540,477.533068 C536.883787,475.717442 533.292016,474.234403 529.224603,473.083914 C524.636321,471.786095 520.034033,471.137195 515.417602,471.137195 C510.350788,471.137195 505.903317,471.92716 502.075057,473.507114 C498.246798,475.087068 495.2912,477.358217 493.208176,480.32063 C491.125153,483.283043 490.083656,486.73914 490.083656,490.689024 C490.083656,494.751762 491.097004,497.996262 493.12373,500.422619 C495.150456,502.848977 497.557157,504.640504 500.343905,505.797256 C503.130652,506.954008 506.606998,508.068423 510.773046,509.140534 C514.20722,509.986938 516.726515,510.79101 518.331006,511.552773 C519.935497,512.314536 520.737731,513.372525 520.737731,514.726771 C520.737731,515.85531 520.315503,516.687594 519.471034,517.22365 C518.626565,517.759706 517.472474,518.027729 516.008728,518.027729 C512.968639,518.027729 509.196734,517.110806 504.692899,515.276931 C500.189063,513.443056 496.445307,511.228333 493.461516,508.632695 L486.199118,523.444686 C490.083676,526.435313 494.685963,528.791102 500.006119,530.512123 C500.535143,530.683257 501.063749,530.845883 501.591938,531 L481.301222,531 L481.301222,472.660714 L463.56746,472.660714 L463.56746,503.131098 L440.175783,472.660714 L423.793165,472.660714 L423.793165,531 L404.724637,531 C409.38375,529.556171 413.319089,527.743082 416.530767,525.560685 L416.530767,500.761179 L399.725916,500.761179 L399.725916,514.980691 C396.685828,516.334937 394.096161,517.01205 391.95684,517.01205 C389.423432,517.01205 387.1434,516.377257 385.116674,515.107651 C383.089949,513.838045 381.499556,512.088837 380.345448,509.859974 C379.19134,507.631111 378.614295,505.106044 378.614295,502.284698 C378.614295,499.519779 379.177266,497.037032 380.303225,494.836382 C381.429183,492.635732 383.005502,490.900631 385.032228,489.631025 C387.058954,488.361419 389.310837,487.726626 391.787947,487.726626 C394.208758,487.726626 396.756202,488.304993 399.430354,489.461745 C402.104506,490.618497 404.426761,492.18432 406.397189,494.159262 L417.459678,480.70151 C414.306994,477.880164 410.40842,475.623121 405.76384,473.930314 C401.11926,472.237506 396.488824,471.391115 391.872393,471.391115 C385.510726,471.391115 379.796571,472.717128 374.729757,475.369193 C369.662942,478.021258 365.693997,481.703059 362.822802,486.414707 C359.951607,491.126354 358.516031,496.416299 358.516031,502.284698 C358.516031,508.209524 359.89531,513.527682 362.653909,518.239329 C365.412508,522.950977 369.226636,526.646885 374.096408,529.327163 C375.244979,529.959327 376.428779,530.516939 377.647808,531 L353.02701,531 L353.02701,472.660714 L333.435425,472.660714 L333.435425,531 L315.979505,531 C315.999476,530.992567 316.019469,530.985115 316.039449,530.977642 C319.811411,529.566969 322.809231,527.408672 325.033,524.502686 C327.256768,521.5967 328.368636,517.999538 328.368636,513.711092 C328.368636,509.5355 327.32714,506.164042 325.244116,503.596617 C323.161092,501.029193 320.726243,499.153026 317.939495,497.96806 C315.152747,496.783095 311.648253,495.598148 307.425907,494.413182 C304.048031,493.510352 301.585033,492.692174 300.03684,491.958624 C298.488646,491.225074 297.714561,490.181191 297.714561,488.826945 C297.714561,487.077711 298.924949,486.203107 301.34576,486.203107 C303.82287,486.203107 307.031804,486.908433 310.97266,488.319106 C314.913515,489.729779 318.488381,491.366135 321.697363,493.228223 L328.790868,478.246951 C325.412992,476.102728 321.429972,474.381733 316.84169,473.083914 C312.253408,471.786095 307.651121,471.137195 303.03469,471.137195 C297.967875,471.137195 293.520405,471.92716 289.692145,473.507114 C285.863885,475.087068 282.908288,477.358217 280.825264,480.32063 C278.74224,483.283043 277.700744,486.73914 277.700744,490.689024 C277.700744,494.751762 278.714092,497.996262 280.740818,500.422619 C282.767543,502.848977 285.174244,504.640504 287.960992,505.797256 C290.74774,506.954008 294.224086,508.068423 298.390133,509.140534 C301.824307,509.986938 304.343602,510.79101 305.948094,511.552773 C307.552585,512.314536 308.354819,513.372525 308.354819,514.726771 C308.354819,515.85531 307.93259,516.687594 307.088121,517.22365 C306.243652,517.759706 305.089562,518.027729 303.625815,518.027729 C300.585727,518.027729 296.813821,517.110806 292.309986,515.276931 C287.806151,513.443056 284.062394,511.228333 281.078604,508.632695 L273.816206,523.444686 C277.700764,526.435313 282.303051,528.791102 287.623206,530.512123 C288.152231,530.683257 288.680837,530.845883 289.209025,531 L269.931667,531 L269.931667,517.09669 L238.686468,517.09669 L238.686468,509.733014 L266.384915,509.733014 L266.384915,494.836382 L238.686468,494.836382 L238.686468,487.557346 L269.171649,487.557346 L269.171649,472.660714 L219.094883,472.660714 L219.094883,531 L190.286291,531 C193.051304,530.387287 195.631029,529.491116 198.025485,528.311484 C203.007852,525.856913 206.850129,522.400816 209.55243,517.943089 C212.254731,513.485363 213.605861,508.265951 213.605861,502.284698 C213.605861,496.359872 212.28288,491.154567 209.636876,486.668627 C206.990873,482.182687 203.247117,478.72659 198.405494,476.300232 C193.563871,473.873875 187.906013,472.660714 181.43175,472.660714 L155,472.660714 L155,467.343537 L174.25939,467.343537 L174.25939,408.100488 L155,408.100488 L155,381.686742 Z M438.818027,448.287866 C438.513399,448.414157 438.199584,448.505611 437.873414,448.537732 C437.063822,448.617459 436.155971,448.221829 435.857044,447.400484 C435.743563,447.090599 435.725572,446.747619 435.623162,446.431717 C435.372672,445.658509 434.574151,445.144039 433.829602,445.279426 C433.669067,444.789026 433.610943,444.259513 433.663532,443.742035 C434.077324,443.6247 434.507722,443.579571 434.93397,443.605144 C434.520178,443.028999 434.820488,442.133943 435.353297,441.685662 C435.886106,441.237382 436.573914,441.091465 437.210517,440.853787 C438.248457,440.465678 439.197825,439.802284 439.953445,438.935809 C439.714027,438.541683 439.149388,438.597342 438.777114,438.842543 C438.40484,439.087743 438.107297,439.46833 437.700425,439.635307 C436.926814,439.952713 435.86258,439.471338 435.34361,440.169332 C435.307628,439.925636 435.27303,439.680436 435.237048,439.43674 C434.582454,439.384089 433.926476,439.331439 433.271882,439.278789 C433.223445,439.012528 433.176392,438.746268 433.127955,438.480007 C432.427692,438.297987 431.548903,438.889176 431.03962,438.334091 C430.725471,437.992615 430.807122,437.386384 431.092209,437.017831 C431.377297,436.649279 431.80908,436.459737 432.221488,436.282231 C432.298987,435.653435 431.889347,435.075785 431.818767,434.445485 C431.734348,433.703867 432.137069,432.978796 432.671261,432.509456 C433.205454,432.038611 433.860048,431.766333 434.489732,431.46397 C435.224593,431.111965 436.031418,430.571922 436.119989,429.703943 C436.136596,429.544488 436.126908,429.379015 436.179497,429.228586 C436.402308,428.592268 437.310159,428.875076 437.865111,428.559174 C438.421447,428.241767 438.689927,427.273001 439.311307,427.375293 C439.668358,427.43396 439.874562,427.843129 440.180408,428.05373 C441.017679,428.63138 442.036244,427.540765 443.02713,427.57386 C443.360655,427.585894 443.685876,427.727298 444.019401,427.715264 C444.354309,427.701725 444.726583,427.43396 444.68645,427.072929 C444.643548,426.687829 444.182703,426.540408 443.833955,426.62164 C443.485208,426.702872 443.159987,426.920995 442.804319,426.913474 C442.402983,426.904448 442.027941,426.571999 441.937986,426.147787 C441.848031,425.723576 442.052851,425.248218 442.408518,425.049651 C442.639633,424.921786 442.921953,424.900726 443.121237,424.718706 C443.490743,424.383248 443.393869,423.671716 443.770295,423.346788 C444.107971,423.054954 444.671227,423.215914 444.964618,422.877447 C445.115465,422.701444 445.147295,422.441201 445.264928,422.238121 C445.630283,421.612334 446.506304,421.836474 447.130451,422.134325 C447.775358,422.442706 448.41888,422.749582 449.063787,423.057963 C449.193875,423.121143 449.333651,423.193349 449.397311,423.331745 C449.455436,423.458105 449.433293,423.608535 449.411151,423.74693 C449.318428,424.315554 449.177268,424.959393 448.709503,425.231671 C448.524058,425.33998 448.304015,425.376083 448.132409,425.508461 C447.797501,425.7672 447.767054,426.32379 447.953883,426.722428 C448.140713,427.121067 448.485309,427.397857 448.818833,427.659605 C448.876958,427.044348 449.24508,426.474219 449.758514,426.20495 C450.009004,426.074077 450.302395,426.000366 450.48092,425.768704 C450.768776,425.395639 450.612393,424.834536 450.684356,424.353162 C450.836588,423.321215 452.008767,422.862404 452.963672,422.978235 C453.918576,423.094066 454.829195,423.567919 455.789635,423.546859 C456.390256,423.53332 456.979806,423.325727 457.580427,423.333249 C458.181048,423.34077 458.853633,423.659681 459.007248,424.291486 C459.412736,423.581458 460.3109,423.259538 461.025002,423.569423 C461.225671,423.655168 461.426339,423.787546 461.639463,423.752948 C462.018656,423.691271 462.237316,423.131673 462.620661,423.154238 C462.850392,423.167776 463.013695,423.387404 463.190836,423.545355 C463.87726,424.154595 465.018994,423.945497 465.590552,424.679594 C465.825819,424.981958 465.910238,425.386613 465.986353,425.773217 C466.191173,426.808173 466.395994,427.844633 466.600814,428.879589 C467.244336,428.671996 467.987501,428.890119 468.445578,429.42264 C468.903656,429.955161 469.055887,430.776506 468.82062,431.459457 C469.41017,430.967552 470.380298,431.170632 470.760875,431.865617 C471.141453,432.560602 470.841143,433.583523 470.160254,433.91146 C471.248015,434.195772 472.117116,435.277361 472.230598,436.486815 C472.749568,436.225067 473.333582,435.996414 473.884381,436.161887 C474.435181,436.327359 474.862813,437.06296 474.561118,437.592473 C474.397816,437.878289 474.050452,438.100925 474.107193,438.43187 C474.184692,438.883159 474.884955,438.824491 475.080088,439.232155 C475.232319,439.551066 474.952767,439.942183 474.634466,440.042971 C474.316164,440.143759 473.97572,440.06704 473.644963,440.082083 C472.395284,440.142255 471.476362,441.818041 472.02301,443.041033 C471.50404,443.648769 470.61418,443.83831 469.92222,443.490818 C469.522268,444.032365 470.186549,444.740888 470.315253,445.42083 C470.435654,446.063164 470.016327,446.714525 469.476598,447.010871 C468.93687,447.307217 468.30857,447.325269 467.703797,447.310226 C466.931975,447.291295 466.117652,447.207027 465.412843,446.895244 C463.920161,450.92835 462.364101,450.256392 455.907588,455.701269 C450.387146,460.356742 452.65867,465.371958 453.890055,467.312661 C459.744235,467.108639 464.935901,465.893513 469.465183,463.667256 C474.451427,461.21639 478.296694,457.76551 481.001098,453.314512 C483.705501,448.863514 485.057683,443.651981 485.057683,437.679756 C485.057683,431.763873 483.733672,426.566425 481.08561,422.087256 C478.437548,417.608087 474.690878,414.157207 469.845488,411.734512 C465.000098,409.311817 459.337837,408.100488 452.858537,408.100488 L426.40622,408.100488 L426.40622,467.343537 L445.7834,467.343537 C451.932166,453.054167 440.055409,448.69799 438.818027,448.287866 Z M440.167666,447.225698 C441.317087,448.13652 442.722987,448.918397 442.722987,448.918397 C443.005349,448.694041 443.219026,448.144964 443.380177,447.476319 C443.344778,446.933977 443.464026,446.240038 443.16829,445.80593 C442.771105,445.222263 441.712407,445.759297 441.86879,446.466316 C441.333213,446.412161 440.790717,446.430213 440.259292,446.517462 L440.167666,447.225698 Z M444.360718,448.139612 C445.136856,450.951023 446.635374,452.80429 447.818579,453.899122 C448.610181,454.631714 449.848788,454.181929 450.060528,453.076272 C450.541591,450.565507 450.448379,448.139563 450.198854,446.226257 C449.537843,445.688802 448.860382,445.165689 448.081204,445.064312 C448.072901,445.444899 448.065981,445.823981 448.057677,446.204568 C447.689555,446.188021 447.320048,446.171474 446.951926,446.154926 C446.932551,446.585155 446.913176,447.015384 446.893801,447.445613 C446.304252,447.143249 445.56939,447.209438 445.033814,447.612589 C444.815373,447.77762 444.59303,448.002974 444.360718,448.139612 Z M451.997603,447.412504 C451.849095,449.111048 452.059003,450.54705 452.339843,451.620113 C452.642922,452.782934 454.011618,453.115383 454.731256,452.19325 C456.207898,450.30235 456.751778,448.161736 456.751778,448.161736 L456.718515,447.904252 C455.889767,448.198094 454.980385,448.276963 454.279779,447.757002 C454.094334,447.620111 453.924112,447.439595 453.704069,447.386945 C453.466035,447.328277 453.222465,447.432074 452.983047,447.481716 C452.637387,447.553639 452.311468,447.518327 451.997603,447.412504 Z M459.508028,446.644072 C459.402915,447.136773 459.296349,447.608744 459.193012,448.048914 C458.88855,449.347122 460.183899,450.40765 461.238445,449.717178 C462.963027,448.586267 463.903265,447.280797 464.415881,446.193471 C463.943785,445.691358 463.31484,444.963788 462.808874,445.408796 C462.631733,445.563738 462.562537,445.820973 462.428297,446.021044 C461.957764,446.719038 460.979333,446.48888 460.183579,446.531 C459.95322,446.542988 459.728557,446.583424 459.508028,446.644072 Z M540,480.725941 L540,508.147684 C539.479438,506.421886 538.688449,504.904869 537.627028,503.596617 C535.544004,501.029193 533.109155,499.153026 530.322407,497.96806 C527.535659,496.783095 524.031165,495.598148 519.80882,494.413182 C516.430943,493.510352 513.967945,492.692174 512.419752,491.958624 C510.871559,491.225074 510.097474,490.181191 510.097474,488.826945 C510.097474,487.077711 511.307861,486.203107 513.728673,486.203107 C516.205782,486.203107 519.414716,486.908433 523.355572,488.319106 C527.296428,489.729779 530.871293,491.366135 534.080276,493.228223 L540,480.725941 Z M540,519.350611 L540,531 L528.362385,531 C528.382389,530.992567 528.402381,530.985115 528.422361,530.977642 C532.194323,529.566969 535.192143,527.408672 537.415912,524.502686 C538.584128,522.976079 539.445489,521.258726 540,519.350611 Z M441.611373,531 L441.611373,501.692218 L464.154553,531 L441.611373,531 Z M190.425301,512.864692 C188.314128,515.46033 185.485199,516.75813 181.938429,516.75813 L174.591585,516.75813 L174.591585,487.895906 L181.009518,487.895906 C184.837778,487.895906 187.891895,489.221919 190.171961,491.873984 C192.452028,494.526049 193.592044,498.052678 193.592044,502.453978 C193.592044,506.798851 192.536474,510.269054 190.425301,512.864692 Z M216.346463,423.735244 C220.290386,425.143788 223.868033,426.777674 227.079512,428.636951 L234.178537,413.678293 C230.798032,411.537306 226.811913,409.818909 222.220061,408.523049 C217.628209,407.227189 213.02234,406.579268 208.402317,406.579268 C203.33156,406.579268 198.880629,407.368041 195.04939,408.94561 C191.218152,410.523179 188.260254,412.7909 186.17561,415.748841 C184.090965,418.706783 183.048659,422.157663 183.048659,426.101585 C183.048659,430.158191 184.062795,433.397793 186.091098,435.820488 C188.1194,438.243183 190.527974,440.032006 193.31689,441.187012 C196.105807,442.342018 199.584857,443.454751 203.754146,444.525244 C207.190993,445.37037 209.712248,446.173228 211.317988,446.933841 C212.923728,447.694455 213.726585,448.750847 213.726585,450.103049 C213.726585,451.229884 213.304029,452.060912 212.458902,452.596159 C211.613776,453.131405 210.458788,453.399024 208.993902,453.399024 C205.951448,453.399024 202.176608,452.483485 197.669268,450.652378 C193.161929,448.821271 189.415259,446.609891 186.429146,444.018171 L179.161098,458.807805 C183.048678,461.793917 187.654547,464.14615 192.978841,465.864573 C198.303136,467.582996 203.585096,468.442195 208.824878,468.442195 C213.444901,468.442195 217.642298,467.737934 221.417195,466.32939 C225.192092,464.920847 228.192245,462.765807 230.417744,459.864207 C232.643243,456.962607 233.755976,453.370875 233.755976,449.088902 C233.755976,444.919613 232.713669,441.553245 230.629024,438.989695 C228.54438,436.426146 226.107636,434.552811 223.31872,433.369634 C220.529803,432.186457 217.022582,431.003299 212.796951,429.820122 C209.416447,428.918654 206.951532,428.101711 205.402134,427.369268 C203.852736,426.636826 203.078049,425.594519 203.078049,424.242317 C203.078049,422.495723 204.289378,421.622439 206.712073,421.622439 C209.19111,421.622439 212.402541,422.3267 216.346463,423.735244 Z M240.000488,408.100488 L240.000488,467.343537 L284.284878,467.343537 L284.284878,451.032683 L259.607317,451.032683 L259.607317,408.100488 L240.000488,408.100488 Z M337.320976,467.343537 L358.195488,467.343537 L334.109512,408.100488 L313.99561,408.100488 L288.98,467.343537 L309.093902,467.343537 L312.136341,458.976829 L334.363049,458.976829 L337.320976,467.343537 Z M317.207073,444.947805 L323.460976,427.622805 L329.545854,444.947805 L317.207073,444.947805 Z M402.555,408.100488 L402.555,438.524878 L379.145122,408.100488 L362.749756,408.100488 L362.749756,467.343537 L380.581829,467.343537 L380.581829,437.088171 L403.907195,467.343537 L420.302561,467.343537 L420.302561,408.100488 L402.555,408.100488 Z M181.334939,360.355793 C183.278729,359.088103 185.377428,358.454268 187.631098,358.454268 C189.884767,358.454268 191.94121,359.074018 193.800488,360.313537 C195.659765,361.553055 197.124629,363.285538 198.195122,365.511037 C199.265615,367.736536 199.800854,370.22962 199.800854,372.990366 C199.800854,375.751111 199.265615,378.258281 198.195122,380.511951 C197.124629,382.765621 195.659765,384.526274 193.800488,385.793963 C191.94121,387.061653 189.884767,387.695488 187.631098,387.695488 C185.377428,387.695488 183.278729,387.047567 181.334939,385.751707 C179.391149,384.455847 177.841774,382.695194 176.686768,380.469695 C175.531763,378.244196 174.954268,375.751111 174.954268,372.990366 C174.954268,370.22962 175.531763,367.750621 176.686768,365.553293 C177.841774,363.355965 179.391149,361.623482 181.334939,360.355793 Z M263.20378,402.438171 L284.078293,402.438171 L259.992317,343.195122 L239.878415,343.195122 L214.862805,402.438171 L234.976707,402.438171 L238.019146,394.071463 L260.245854,394.071463 L263.20378,402.438171 Z M243.033537,380.47439 L249.287439,363.14939 L255.372317,380.47439 L243.033537,380.47439 Z M351.087073,402.438171 L328.606829,366.858537 L349.81939,343.195122 L327.254634,343.195122 L309.591585,364.830244 L309.591585,343.195122 L289.984756,343.195122 L289.984756,402.438171 L309.591585,402.438171 L309.591585,388.071098 L315.16939,381.817195 L327.677195,402.438171 L351.087073,402.438171 Z" id="Combined-Shape-Copy-2"></path>
        </g>
    </g>
</svg>