<svg width="100" height="50" viewBox="0 0 100 50" fill="none" xmlns="http://www.w3.org/2000/svg">
<path d="M73.8004 27.3314C74.4076 27.5611 77.0118 28.7746 75.4859 32.2471H70.2888V16.9934H77.1245C78.7989 16.9934 80.2621 17.3053 81.5142 17.9291C82.7663 18.5529 83.7345 19.4414 84.4188 20.5947C85.1031 21.7479 85.4452 23.0862 85.4452 24.6094C85.4452 26.1471 85.0958 27.4889 84.397 28.6349C83.6981 29.7809 82.7044 30.6695 81.4159 31.3005C80.3052 31.8445 79.0403 32.154 77.6212 32.229C77.3096 31.7556 76.6616 30.4324 78.121 29.2061C79.7235 27.8596 80.1578 27.966 80.5314 27.0565C80.7098 27.1311 80.9138 27.1517 81.1075 27.1564C81.2638 27.1603 81.4261 27.1557 81.5656 27.0794C81.7051 27.0031 81.8134 26.8354 81.7823 26.67C81.749 26.4949 81.5774 26.3125 81.6807 26.173C81.8596 26.2625 82.0895 26.2137 82.2236 26.0572C82.0824 25.7423 82.3198 25.3109 82.6428 25.2954C82.7282 25.2915 82.8162 25.3113 82.8985 25.2853C82.9807 25.2593 83.0529 25.1586 83.0136 25.0765C82.9632 24.9716 82.7822 24.9867 82.7622 24.8705C82.7475 24.7853 82.8373 24.7279 82.8795 24.6544C82.9575 24.518 82.847 24.3286 82.7046 24.286C82.5623 24.2434 82.4114 24.3023 82.2773 24.3697C82.2479 24.0583 82.0233 23.7798 81.7423 23.7066C81.9182 23.6221 81.9958 23.3588 81.8975 23.1798C81.7991 23.0009 81.5484 22.9486 81.3961 23.0753C81.4569 22.8994 81.4175 22.6879 81.2992 22.5508C81.1808 22.4137 80.9887 22.3575 80.8224 22.411C80.7695 22.1445 80.7166 21.8777 80.6637 21.6112C80.644 21.5116 80.6222 21.4075 80.5614 21.3296C80.4137 21.1406 80.1186 21.1944 79.9413 21.0376C79.8955 20.9969 79.8533 20.9403 79.7939 20.9369C79.6949 20.931 79.6383 21.0751 79.5404 21.091C79.4853 21.0999 79.4334 21.0658 79.3816 21.0438C79.197 20.964 78.9649 21.0469 78.8602 21.2297C78.8205 21.067 78.6467 20.9849 78.4914 20.983C78.3362 20.981 78.1839 21.0345 78.0287 21.0379C77.7805 21.0434 77.5452 20.9214 77.2984 20.8915C77.0516 20.8617 76.7487 20.9799 76.7094 21.2456C76.6908 21.3695 76.7312 21.514 76.6568 21.61C76.6107 21.6697 76.5349 21.6886 76.4701 21.7223C76.3375 21.7917 76.2423 21.9385 76.2273 22.0969C76.1411 22.0295 76.0521 21.9582 76.0038 21.8556C75.9555 21.7529 75.9634 21.6096 76.0499 21.543C76.0943 21.5089 76.1511 21.4996 76.1991 21.4717C76.3199 21.4016 76.3564 21.2359 76.3804 21.0895C76.3861 21.0538 76.3918 21.0151 76.3768 20.9826C76.3604 20.9469 76.3242 20.9283 76.2906 20.9121C76.124 20.8327 75.9577 20.7537 75.791 20.6743C75.6297 20.5976 75.4034 20.5399 75.3089 20.701C75.2785 20.7533 75.2703 20.8203 75.2313 20.8656C75.1555 20.9527 75.01 20.9113 74.9227 20.9864C74.8254 21.0701 74.8505 21.2533 74.755 21.3397C74.7035 21.3865 74.6305 21.392 74.5708 21.4249C74.4789 21.476 74.426 21.5984 74.4492 21.7076C74.4725 21.8168 74.5694 21.9024 74.6731 21.9048C74.765 21.9067 74.849 21.8505 74.9391 21.8296C75.0293 21.8087 75.1484 21.8467 75.1595 21.9458C75.1698 22.0388 75.0736 22.1077 74.9871 22.1112C74.9009 22.1143 74.8168 22.0779 74.7307 22.0748C74.4746 22.0663 74.2114 22.3471 73.995 22.1984C73.916 22.1441 73.8627 22.0388 73.7704 22.0237C73.6099 21.9973 73.5405 22.2468 73.3967 22.3285C73.2533 22.4098 73.0187 22.337 72.9611 22.5009C72.9475 22.5396 72.95 22.5822 72.9457 22.6233C72.9229 22.8467 72.7144 22.9858 72.5245 23.0764C72.3617 23.1543 72.1926 23.2244 72.0545 23.3456C71.9165 23.4664 71.8124 23.6531 71.8342 23.8441C71.8525 24.0064 71.9583 24.1551 71.9383 24.317C71.8317 24.3627 71.7202 24.4115 71.6465 24.5064C71.5728 24.6013 71.5517 24.7574 71.6329 24.8453C71.7645 24.9882 71.9916 24.836 72.1726 24.8829C72.1851 24.9514 72.1972 25.02 72.2098 25.0885C72.3789 25.1021 72.5484 25.1157 72.7176 25.1292C72.7269 25.192 72.7358 25.2551 72.7451 25.3178C72.8792 25.1381 73.1542 25.2621 73.3541 25.1803C73.4593 25.1373 73.5362 25.0394 73.6324 24.9762C73.7286 24.9131 73.8745 24.8988 73.9364 25.0002C73.7411 25.2233 73.4958 25.3941 73.2276 25.4941C73.063 25.5553 72.8853 25.5928 72.7476 25.7083C72.6099 25.8237 72.5323 26.0541 72.6393 26.2025C72.5291 26.1959 72.4179 26.2075 72.311 26.2377C72.2974 26.371 72.3124 26.5073 72.3539 26.6336C72.5463 26.5987 72.7526 26.7312 72.8174 26.9302C72.8438 27.0116 72.8485 27.0999 72.8778 27.1797C72.955 27.3912 73.1897 27.493 73.3989 27.4725C73.5404 27.4586 73.673 27.4016 73.8004 27.3314ZM74.0106 26.9893L74.0154 26.9523C74.1527 26.9299 74.2929 26.9252 74.4313 26.9392C74.3909 26.7571 74.6645 26.6188 74.7671 26.7691C74.8566 26.9 74.7991 27.1225 74.8308 27.2668C74.7981 27.3551 74.7595 27.4237 74.714 27.4597C74.714 27.4597 74.3143 27.2382 74.0106 26.9893ZM75.1528 27.3138C75.1854 27.287 75.2175 27.2582 75.2492 27.2343C75.3876 27.1305 75.5775 27.1134 75.7299 27.1913C75.7349 27.0805 75.7399 26.9698 75.7449 26.859C75.84 26.8632 75.9355 26.8675 76.0306 26.8718C76.0328 26.7738 76.0346 26.6762 76.0367 26.5782C76.2706 26.6085 76.4691 26.7854 76.6666 26.9443C76.7139 27.4054 76.7199 27.9593 76.6101 28.5303C76.5554 28.8149 76.2353 28.9307 76.0307 28.7421C75.7327 28.4674 75.3573 28.0072 75.1528 27.3138ZM77.102 27.1978C77.1666 27.2127 77.2335 27.2151 77.3034 27.2006C77.3653 27.1878 77.4282 27.1611 77.4897 27.1762C77.5466 27.1898 77.5906 27.2362 77.6385 27.2715C77.8381 27.4191 78.1033 27.3793 78.3338 27.2845C78.305 27.3867 78.1562 27.8702 77.8171 28.3029C77.6311 28.5403 77.2774 28.4547 77.1991 28.1553C77.1336 27.906 77.083 27.5805 77.102 27.1978ZM79.0296 26.9749C79.0737 26.9649 79.1185 26.9582 79.1641 26.9558C79.3698 26.945 79.6226 27.0042 79.7442 26.8245C79.7789 26.773 79.7968 26.7068 79.8426 26.6669C79.9744 26.5513 80.1386 26.7429 80.261 26.8722C80.1192 27.1264 79.8852 27.4128 79.4986 27.6654C79.2261 27.8431 78.8914 27.5701 78.97 27.2358C78.9896 27.1529 79.0096 27.0655 79.0296 26.9749ZM11.475 34.6664C12.7262 35.2911 13.6936 36.181 14.3774 37.336C15.0612 38.4911 15.403 39.8313 15.403 41.3568C15.403 42.8968 15.0539 44.2407 14.3556 45.3885C13.6573 46.5362 12.6644 47.4261 11.3768 48.0581C10.0893 48.6901 8.59451 49.006 6.89237 49.006H0.258415V33.7293H7.08877C8.76182 33.7293 10.2239 34.0417 11.475 34.6664ZM9.51838 44.0203C10.0639 43.352 10.3367 42.4585 10.3367 41.3398C10.3367 40.2066 10.0421 39.2986 9.45291 38.6157C8.86371 37.9329 8.07448 37.5915 7.0852 37.5915H5.42671V45.0228H7.32524C8.24178 45.0228 8.97282 44.6886 9.51838 44.0203ZM16.797 33.7293H29.7375V37.5649H21.8597V39.439H29.0174V43.2746H21.8597V45.1705H29.9339V49.006H16.797V33.7293ZM40.6116 37.6383C39.5932 37.2751 38.7639 37.0935 38.1238 37.0935C37.4983 37.0935 37.1855 37.3187 37.1855 37.7691C37.1855 38.1177 37.3855 38.3865 37.7856 38.5754C38.1857 38.7643 38.8221 38.9749 39.695 39.2074C40.7861 39.5125 41.6918 39.8176 42.4119 40.1227C43.132 40.4278 43.7612 40.9109 44.2995 41.5719C44.8378 42.2329 45.1069 43.101 45.1069 44.1761C45.1069 45.2803 44.8196 46.2065 44.245 46.9547C43.6703 47.7029 42.8956 48.2586 41.9209 48.6219C40.9462 48.9851 39.8623 49.1667 38.6694 49.1667C37.3164 49.1667 35.9525 48.9451 34.5777 48.502C33.2029 48.0589 32.0136 47.4523 31.0098 46.6823L32.8865 42.8686C33.6575 43.5369 34.625 44.1071 35.7888 44.5793C36.9527 45.0515 37.9274 45.2876 38.713 45.2876C39.0913 45.2876 39.3895 45.2186 39.6077 45.0805C39.826 44.9425 39.9351 44.7282 39.9351 44.4376C39.9351 44.089 39.7278 43.8166 39.3131 43.6204C38.8985 43.4243 38.2475 43.2173 37.36 42.9993C36.2835 42.7233 35.3851 42.4363 34.665 42.1385C33.9449 41.8407 33.3229 41.3794 32.7992 40.7547C32.2755 40.1299 32.0136 39.2946 32.0136 38.2485C32.0136 37.2315 32.2827 36.3416 32.821 35.5789C33.3593 34.8161 34.1231 34.2314 35.1124 33.8246C36.1016 33.4178 37.2509 33.2144 38.5603 33.2144C39.7532 33.2144 40.9425 33.3815 42.1282 33.7156C43.3139 34.0498 44.3432 34.4929 45.216 35.045L43.383 38.9023C42.5537 38.4228 41.6299 38.0015 40.6116 37.6383ZM46.2563 33.7293H51.319V49.006H46.2563V33.7293ZM63.6243 40.7765H67.9669V47.1617C67.1086 47.7429 66.0502 48.2223 64.7918 48.6001C63.5334 48.9778 62.3586 49.1667 61.2675 49.1667C59.6817 49.1667 58.2597 48.8216 57.0012 48.1315C55.7428 47.4414 54.7572 46.4898 54.0443 45.2767C53.3315 44.0635 52.975 42.6942 52.975 41.1687C52.975 39.6578 53.346 38.2957 54.088 37.0826C54.8299 35.8695 55.8556 34.9215 57.1649 34.2386C58.4742 33.5558 59.9509 33.2144 61.5948 33.2144C62.7878 33.2144 63.9843 33.4323 65.1846 33.8682C66.3848 34.304 67.3923 34.8852 68.207 35.6116L65.3482 39.0766C64.8391 38.5681 64.239 38.165 63.5479 37.8671C62.8569 37.5693 62.1986 37.4204 61.573 37.4204C60.9329 37.4204 60.351 37.5838 59.8272 37.9107C59.3035 38.2376 58.8961 38.6844 58.6052 39.251C58.3142 39.8176 58.1687 40.4568 58.1687 41.1687C58.1687 41.8952 58.3178 42.5453 58.6161 43.1192C58.9143 43.6931 59.3253 44.1434 59.849 44.4703C60.3728 44.7972 60.962 44.9607 61.6166 44.9607C62.1695 44.9607 62.8387 44.7863 63.6243 44.4376V40.7765ZM80.0503 33.7293H84.6329V49.006H80.3994L74.3765 41.2042V49.006H69.772V33.7293H74.0055L80.0503 41.5747V33.7293ZM95.3955 37.6383C94.3771 37.2751 93.5479 37.0935 92.9078 37.0935C92.2822 37.0935 91.9694 37.3187 91.9694 37.7691C91.9694 38.1177 92.1695 38.3865 92.5695 38.5754C92.9696 38.7643 93.6061 38.9749 94.479 39.2074C95.5701 39.5125 96.4757 39.8176 97.1958 40.1227C97.916 40.4278 98.5452 40.9109 99.0835 41.5719C99.6217 42.2329 99.8909 43.101 99.8909 44.1761C99.8909 45.2803 99.6036 46.2065 99.0289 46.9547C98.4543 47.7029 97.6796 48.2586 96.7048 48.6219C95.7301 48.9851 94.6463 49.1667 93.4533 49.1667C92.1003 49.1667 90.7365 48.9451 89.3617 48.502C87.9869 48.0589 86.7976 47.4523 85.7937 46.6823L87.6704 42.8686C88.4415 43.5369 89.4089 44.1071 90.5728 44.5793C91.7366 45.0515 92.7114 45.2876 93.497 45.2876C93.8752 45.2876 94.1735 45.2186 94.3917 45.0805C94.6099 44.9425 94.719 44.7282 94.719 44.4376C94.719 44.089 94.5117 43.8166 94.0971 43.6204C93.6825 43.4243 93.0314 43.2173 92.144 42.9993C91.0674 42.7233 90.1691 42.4363 89.4489 42.1385C88.7288 41.8407 88.1069 41.3794 87.5832 40.7547C87.0594 40.1299 86.7976 39.2946 86.7976 38.2485C86.7976 37.2315 87.0667 36.3416 87.605 35.5789C88.1433 34.8161 88.907 34.2314 89.8963 33.8246C90.8856 33.4178 92.0349 33.2144 93.3442 33.2144C94.5372 33.2144 95.7265 33.3815 96.9121 33.7156C98.0978 34.0498 99.1271 34.4929 100 35.045L98.1669 38.9023C97.3377 38.4228 96.4139 38.0015 95.3955 37.6383ZM0.258415 16.9934H5.32511V32.2471H0.258415V16.9934ZM16.0696 20.8957C15.0505 20.533 14.2206 20.3517 13.58 20.3517C12.9539 20.3517 12.6409 20.5766 12.6409 21.0263C12.6409 21.3744 12.8411 21.6428 13.2414 21.8314C13.6418 22.02 14.2788 22.2303 15.1524 22.4624C16.2443 22.767 17.1507 23.0717 17.8714 23.3763C18.5921 23.681 19.2217 24.1633 19.7604 24.8234C20.2992 25.4834 20.5685 26.3502 20.5685 27.4237C20.5685 28.5262 20.281 29.4509 19.7059 30.198C19.1307 30.9451 18.3555 31.5 17.38 31.8627C16.4045 32.2253 15.3198 32.4067 14.1259 32.4067C12.7719 32.4067 11.407 32.1854 10.0311 31.743C8.6552 31.3005 7.46498 30.6949 6.46037 29.926L8.33854 26.1181C9.1102 26.7854 10.0784 27.3547 11.2432 27.8262C12.4079 28.2977 13.3834 28.5334 14.1696 28.5334C14.5482 28.5334 14.8466 28.4645 15.065 28.3267C15.2834 28.1889 15.3926 27.9749 15.3926 27.6848C15.3926 27.3366 15.1851 27.0646 14.7702 26.8688C14.3552 26.6729 13.7037 26.4662 12.8156 26.2486C11.7382 25.973 10.8391 25.6865 10.1184 25.3891C9.39774 25.0917 8.77533 24.6311 8.25119 24.0074C7.72704 23.3836 7.46497 22.5495 7.46497 21.505C7.46497 20.4895 7.73432 19.601 8.27302 18.8394C8.81173 18.0778 9.57609 17.4939 10.5661 17.0877C11.5562 16.6815 12.7064 16.4785 14.0167 16.4785C15.2106 16.4785 16.4008 16.6453 17.5874 16.9789C18.774 17.3126 19.8041 17.755 20.6777 18.3063L18.8432 22.1578C18.0133 21.6791 17.0888 21.2584 16.0696 20.8957ZM22.2237 16.9934H27.2904V28.0474H33.6674V32.2471H22.2237V16.9934ZM47.378 32.2471L46.6137 30.0928H40.8699L40.0837 32.2471H34.886L41.3504 16.9934H46.5481L52.7723 32.2471H47.378ZM42.1216 26.6037H45.3101L43.7377 22.1429L42.1216 26.6037ZM64.295 16.9934H68.8812V32.2471H64.6444L58.6168 24.457V32.2471H54.0087V16.9934H58.2455L64.295 24.827V16.9934ZM12.7323 1.02271C14.0135 1.70452 15.0145 2.64744 15.7351 3.85149C16.4558 5.05554 16.8162 6.41189 16.8162 7.92058C16.8162 9.44378 16.4558 10.8146 15.7351 12.0332C15.0145 13.2518 14.0135 14.2056 12.7323 14.8946C11.451 15.5837 10.0096 15.9282 8.4081 15.9282C6.80654 15.9282 5.36517 15.5837 4.08393 14.8946C2.80269 14.2056 1.80174 13.2518 1.08104 12.0332C0.360344 10.8146 0 9.44378 0 7.92058C0 6.39739 0.360344 5.03378 1.08104 3.82973C1.80174 2.62568 2.80269 1.68639 4.08393 1.01183C5.36517 0.337274 6.80654 0 8.4081 0C10.0096 0 11.451 0.340901 12.7323 1.02271ZM7.07557 4.60921C6.57327 4.93561 6.17289 5.38168 5.87442 5.94744C5.57594 6.5132 5.42671 7.15148 5.42671 7.86231C5.42671 8.57313 5.57594 9.21504 5.87442 9.78805C6.17289 10.3611 6.57327 10.8144 7.07557 11.148C7.57788 11.4817 8.12021 11.6485 8.70259 11.6485C9.28497 11.6485 9.81639 11.4853 10.2969 11.1589C10.7773 10.8325 11.1559 10.3792 11.4325 9.79893C11.7091 9.21867 11.8474 8.57313 11.8474 7.86231C11.8474 7.15148 11.7091 6.50957 11.4325 5.93656C11.1559 5.36355 10.7773 4.91748 10.2969 4.59833C9.81639 4.27918 9.28497 4.11961 8.70259 4.11961C8.12021 4.11961 7.57788 4.28281 7.07557 4.60921ZM28.2553 15.5111L27.491 13.3569H21.7472L20.961 15.5111H15.7633L22.2277 0.257476H27.4254L33.6496 15.5111H28.2553ZM22.9989 9.86776H26.1874L24.615 5.40699L22.9989 9.86776ZM50.9342 15.5111H44.8847L41.6525 10.2017L40.2111 11.812V15.5111H35.1444V0.257476H40.2111V5.828L44.7755 0.257476H50.6066L45.1249 6.35023L50.9342 15.5111Z" fill="#00BAB3"/>
</svg>
