<svg width="64" height="64" viewBox="0 0 64 64" fill="none" xmlns="http://www.w3.org/2000/svg">
<path d="M34.7228 64C51.1215 62.6159 64 48.8431 64 32.0572C64 14.3525 49.6732 0 32 0C14.3269 0 0 14.3525 0 32.0572C0 47.2939 10.6108 60.0476 24.8337 63.3075C30.8446 49.5008 22.1297 43.7926 18.4047 42.0621C17.6817 42.5028 16.929 42.915 16.1073 42.9961C15.1866 43.0867 14.1542 42.6366 13.8142 41.7018C13.7456 41.5142 13.7076 41.3158 13.6696 41.1172C13.6362 40.9425 13.6027 40.7674 13.5482 40.5993C13.2633 39.7193 12.3552 39.1337 11.5085 39.2877C11.3259 38.7296 11.2598 38.1269 11.3196 37.5379C11.7902 37.4044 12.2797 37.3532 12.7644 37.3822C12.2938 36.7264 12.6353 35.7077 13.2413 35.1977C13.7048 34.8075 14.2714 34.6185 14.8362 34.4301C15.0098 34.3723 15.1832 34.3145 15.3535 34.2509C16.5339 33.8091 17.6137 33.0541 18.473 32.0681C18.2005 31.6194 17.5584 31.6828 17.1351 31.9618C16.9684 32.0717 16.815 32.2054 16.6619 32.3388C16.4261 32.5442 16.1912 32.7488 15.9106 32.864C15.5552 33.0099 15.1459 33.0076 14.7453 33.0052C14.1542 33.0018 13.5821 32.9984 13.2303 33.4718C13.2042 33.2949 13.1787 33.1174 13.1531 32.9402C13.1385 32.8393 13.1239 32.7386 13.1091 32.6381C12.7346 32.608 12.3598 32.5777 11.9849 32.5476C11.6145 32.518 11.2442 32.4881 10.8742 32.4582C10.8191 32.1553 10.7656 31.8522 10.7105 31.5492C10.3865 31.465 10.029 31.5262 9.67977 31.5861C9.17054 31.6736 8.67908 31.7579 8.33549 31.383C7.97822 30.9946 8.07108 30.3046 8.39531 29.885C8.71951 29.4656 9.21058 29.2499 9.67959 29.0479C9.73122 28.6289 9.59285 28.2298 9.45318 27.8268C9.35435 27.5418 9.25485 27.2548 9.22159 26.9574C9.12559 26.1135 9.58357 25.2881 10.1911 24.7541C10.7131 24.2935 11.3362 24 11.9556 23.7082C12.057 23.6604 12.1584 23.6126 12.2592 23.5642C13.0949 23.1635 14.0125 22.5489 14.1132 21.561C14.1188 21.5072 14.1218 21.4528 14.1248 21.3984C14.1318 21.2693 14.1388 21.1405 14.1809 21.0199C14.3354 20.5786 14.7794 20.5259 15.2455 20.4704C15.544 20.435 15.8515 20.3985 16.0979 20.2581C16.3519 20.1131 16.5532 19.8485 16.7488 19.5915C17.0405 19.2081 17.3197 18.8412 17.7425 18.9107C17.997 18.9525 18.1841 19.1511 18.374 19.3523C18.487 19.4724 18.6012 19.5934 18.7311 19.683C19.2915 20.0698 19.9234 19.799 20.5781 19.5185C21.0359 19.3222 21.5049 19.1213 21.9684 19.1369C22.1423 19.143 22.314 19.1802 22.4855 19.2173C22.6886 19.2612 22.8913 19.3052 23.097 19.2977C23.4778 19.2823 23.9012 18.9775 23.8556 18.5666C23.8067 18.1284 23.2828 17.9605 22.886 18.0531C22.7349 18.0883 22.5879 18.1461 22.4412 18.2037C22.2027 18.2974 21.9657 18.3904 21.7152 18.3851C21.2587 18.3748 20.8322 17.9966 20.7298 17.5138C20.6276 17.0309 20.8606 16.4899 21.2651 16.2639C21.3692 16.2063 21.4825 16.1677 21.5955 16.1292C21.7675 16.0706 21.9388 16.0123 22.0755 15.8873C22.2839 15.698 22.3618 15.4035 22.4397 15.1097C22.5188 14.8107 22.5978 14.5123 22.8137 14.3259C22.9956 14.1685 23.2352 14.1268 23.4724 14.0855C23.7359 14.0397 23.9964 13.9944 24.1719 13.7917C24.2722 13.6747 24.3262 13.5251 24.3804 13.3747C24.419 13.2676 24.4578 13.1602 24.5135 13.0641C24.9291 12.3519 25.9253 12.607 26.6351 12.9459C27.0018 13.1214 27.3681 13.2965 27.7344 13.4716C28.1007 13.6466 28.467 13.8217 28.8337 13.9971C28.9818 14.0691 29.1407 14.1512 29.213 14.3088C29.2791 14.4526 29.254 14.6238 29.2288 14.7813C29.1234 15.4284 28.9628 16.1612 28.4309 16.4711C28.3409 16.5237 28.2438 16.5613 28.1468 16.5989C28.0164 16.6494 27.8865 16.6997 27.7745 16.7861C27.3937 17.0805 27.3591 17.7141 27.5716 18.1677C27.7841 18.6214 28.176 18.9365 28.5553 19.2343C28.6212 18.5342 29.04 17.8852 29.6239 17.5789C29.7001 17.539 29.7796 17.5038 29.8594 17.4686C30.0779 17.3722 30.2967 17.2755 30.4454 17.0822C30.6615 16.8019 30.6575 16.4283 30.6532 16.049C30.6511 15.8539 30.649 15.6573 30.6769 15.4712C30.8499 14.2968 32.183 13.7746 33.2689 13.9064C33.7265 13.962 34.1751 14.0898 34.6227 14.2174C35.2378 14.3927 35.8509 14.5674 36.4828 14.5536C36.807 14.5463 37.1283 14.4892 37.4494 14.4322C37.805 14.3691 38.1606 14.306 38.5195 14.3105C39.2026 14.319 39.9674 14.682 40.1421 15.401C40.6033 14.5929 41.6247 14.2266 42.4369 14.5792C42.4853 14.6 42.5338 14.6231 42.5824 14.6463C42.7627 14.7323 42.9449 14.8191 43.1358 14.7881C43.3376 14.7552 43.4995 14.5981 43.6595 14.4428C43.8411 14.2667 44.0198 14.0931 44.2515 14.1067C44.4561 14.1188 44.6144 14.2746 44.7701 14.428C44.8132 14.4705 44.8563 14.5128 44.9001 14.5519C45.2606 14.8721 45.7316 14.9937 46.1982 15.1141C46.7418 15.2544 47.2794 15.3932 47.6292 15.8428C47.8967 16.1869 47.9927 16.6474 48.0794 17.0874C48.1956 17.6764 48.3121 18.2658 48.4286 18.855C48.5451 19.4445 48.6615 20.0339 48.778 20.6229C49.51 20.3866 50.3552 20.6349 50.8762 21.241C51.3971 21.847 51.5701 22.7817 51.3026 23.559C51.9731 22.9993 53.0763 23.2303 53.5091 24.0213C53.942 24.8122 53.6004 25.9765 52.826 26.3497C54.0631 26.6733 55.0515 27.9042 55.1806 29.2806C55.7709 28.9828 56.435 28.7226 57.0616 28.9109C57.6879 29.0993 58.1741 29.9364 57.831 30.5391C57.7709 30.6445 57.6888 30.7422 57.6075 30.839C57.4377 31.0415 57.2713 31.2397 57.3148 31.4944C57.3617 31.7679 57.6094 31.8769 57.8643 31.9889C58.0881 32.0875 58.3174 32.1884 58.4213 32.4053C58.5944 32.7682 58.2765 33.2132 57.9145 33.328C57.6759 33.4037 57.4263 33.3916 57.1763 33.3794C57.047 33.373 56.9173 33.3666 56.7891 33.3726C55.3679 33.4411 54.3228 35.3483 54.9446 36.7403C54.3544 37.4319 53.3423 37.6476 52.5553 37.2521C52.2579 37.6553 52.4783 38.1397 52.7072 38.6432C52.8282 38.9094 52.9517 39.181 53.0025 39.4487C53.1394 40.1796 52.6624 40.921 52.0486 41.2582C51.4349 41.5955 50.7202 41.6162 50.0324 41.5989C48.934 41.5721 47.7598 41.4287 46.8489 40.807C45.8737 42.9894 44.7514 43.7611 42.5075 45.3043C41.0426 46.3117 39.0993 47.648 36.4068 49.9202C28.9024 56.2537 34.0591 63.1718 34.7228 64Z" fill="#00BAB3"/>
<path d="M21.4125 42.1116C21.4125 42.1116 20.1997 41.4366 19.0229 40.5775C19.5622 40.505 20.1099 40.4947 20.6511 40.5495C20.4734 39.7449 21.6772 39.1337 22.1291 39.798C22.1809 39.8741 22.2217 39.9575 22.2534 40.0461C22.0619 40.9937 21.7916 41.8101 21.4125 42.1116Z" fill="#00BAB3"/>
<path d="M27.2075 47.7803C26.0271 46.6874 24.5709 44.9299 23.6352 42.3552C23.7495 42.2726 23.862 42.1766 23.9731 42.0819C24.0663 42.0023 24.1587 41.9236 24.2507 41.8541C24.8597 41.3954 25.6954 41.3201 26.3659 41.6642L26.432 40.1952L27.6896 40.2517C27.6943 40.0352 27.6986 39.8189 27.703 39.6028C27.7073 39.3867 27.7116 39.1706 27.7163 38.954C28.5698 39.0652 29.3161 39.6215 30.0418 40.2091C30.2155 42.1688 30.2112 44.4732 29.7572 46.8437C29.5164 48.1022 28.1077 48.614 27.2075 47.7803Z" fill="#00BAB3"/>
<path d="M32.3494 45.1866C32.0939 44.2097 31.8901 42.9685 31.9051 41.5217C32.3435 41.7193 32.7996 41.8076 33.2911 41.7052C33.3585 41.6913 33.4263 41.6734 33.4942 41.6557C33.7003 41.6015 33.9074 41.5471 34.1109 41.5974C34.2989 41.6422 34.4546 41.7692 34.6099 41.8957C34.6615 41.9377 34.7132 41.9797 34.7659 42.0186C35.414 42.4998 36.2191 42.5303 37.0044 42.345C36.6573 43.2533 36.0407 44.5937 35.069 45.8387C34.2507 46.8883 32.694 46.5099 32.3494 45.1866Z" fill="#00BAB3"/>
<path d="M40.1434 41.1221C40.1583 41.0581 40.1732 40.9937 40.1884 40.9286C40.6061 40.7637 41.0336 40.6464 41.4799 40.6231C41.6847 40.6123 41.9002 40.6174 42.1171 40.6225C42.8591 40.6398 43.6188 40.6575 44.0329 40.0429C44.0894 39.9584 44.1357 39.8652 44.182 39.7722C44.2607 39.6141 44.3388 39.4571 44.4657 39.3459C44.8582 39.0005 45.3158 39.2762 45.7376 39.6676C45.1066 40.7524 44.0939 41.9548 42.4695 43.0208C41.2702 43.8065 39.7971 42.5997 40.1434 41.1221Z" fill="#00BAB3"/>
</svg>
