<?xml version="1.0" encoding="UTF-8" standalone="no"?>
<svg width="281px" height="267px" viewBox="0 0 281 267" version="1.1" xmlns="http://www.w3.org/2000/svg" xmlns:xlink="http://www.w3.org/1999/xlink">
    <!-- Generator: Sketch 50 (54983) - http://www.bohemiancoding.com/sketch -->
    <title>Combined Shape</title>
    <desc>Created with Sketch.</desc>
    <defs></defs>
    <g id="Page-1" stroke="none" stroke-width="1" fill="none" fill-rule="evenodd">
        <g id="mockup-2" transform="translate(-951.000000, -228.000000)" fill="#32BDB4">
            <path d="M1031.58196,402.490783 C1047.32614,409.632745 1085.72571,433.780902 1062.10478,492.621227 C1046.79082,489.896866 1032.50357,484.955821 1019.24286,477.798052 C997.833226,466.241717 981.107203,450.245557 969.064286,429.809091 C957.021368,409.372625 951,386.381946 951,360.836364 C951,335.290781 957.021368,312.421746 969.064286,292.228571 C981.107203,272.035397 997.833226,256.282524 1019.24286,244.969481 C1040.65249,233.656437 1064.73796,228 1091.5,228 C1118.26204,228 1142.34751,233.717259 1163.75714,245.151948 C1185.16677,256.586637 1201.8928,272.400332 1213.93571,292.593506 C1225.97863,312.786681 1232,335.534073 1232,360.836364 C1232,386.381946 1225.97863,409.372625 1213.93571,429.809091 C1201.8928,450.245557 1185.16677,466.241717 1163.75714,477.798052 C1144.90644,487.973146 1123.98132,493.668702 1100.98128,494.884837 C1094.73204,484.656435 1084.56475,460.166865 1111.56936,437.393466 C1141.55707,412.104375 1150.46984,413.1214 1157.56951,397.350396 C1161.50063,399.778786 1166.42356,400.358681 1171.04297,400.471987 C1174.07653,400.547443 1177.2281,400.456896 1179.9354,398.970413 C1182.64269,397.48393 1184.74605,394.216685 1184.14212,390.994714 C1183.49653,387.584104 1180.16448,384.030126 1182.17065,381.313711 C1185.64154,383.056744 1190.10511,382.105999 1192.70828,379.057577 C1189.96628,372.923005 1194.57562,364.517207 1200.84405,364.215383 C1202.50314,364.139927 1204.21082,364.524753 1205.80743,364.019198 C1207.40404,363.513643 1208.80628,361.551787 1208.04268,359.95212 C1207.06389,357.907262 1203.55135,358.201541 1203.16261,355.937861 C1202.878,354.277829 1204.62038,353.161081 1205.43952,351.727417 C1206.95282,349.071366 1204.80781,345.381568 1202.04498,344.551552 C1199.28215,343.721536 1196.35272,344.868467 1193.74955,346.181401 C1193.18032,340.11474 1188.82088,334.689454 1183.36464,333.263336 C1186.78,331.618395 1188.28636,326.487388 1186.37737,323.001321 C1184.46838,319.515254 1179.60219,318.496598 1176.64499,320.964009 C1177.82509,317.538307 1177.0615,313.41841 1174.76377,310.747268 C1172.46604,308.076126 1168.7383,306.982014 1165.51037,308.023307 C1164.48298,302.831935 1163.4556,297.633017 1162.42821,292.441645 C1162.04642,290.502426 1161.62297,288.47266 1160.44286,286.955994 C1157.57591,283.273742 1151.84893,284.32258 1148.40581,281.266613 C1147.51726,280.474325 1146.69813,279.372667 1145.54579,279.304757 C1143.62292,279.191573 1142.52612,281.998536 1140.62407,282.307905 C1139.55503,282.481454 1138.54847,281.817441 1137.54191,281.387342 C1133.95995,279.832949 1129.45473,281.447707 1127.42079,285.00923 C1126.65025,281.840078 1123.27655,280.240411 1120.26381,280.202683 C1117.25108,280.164955 1114.29388,281.206248 1111.28114,281.274158 C1106.46354,281.379797 1101.89585,279.002933 1097.10602,278.421922 C1092.31618,277.840911 1086.43649,280.142318 1085.6729,285.318599 C1085.31192,287.733191 1086.09634,290.547699 1084.65245,292.419008 C1083.75696,293.58103 1082.2853,293.950765 1081.02884,294.607232 C1078.45344,295.957894 1076.60692,298.817676 1076.31537,301.903826 C1074.6424,300.590892 1072.91389,299.202502 1071.97675,297.202918 C1071.03961,295.203334 1071.19233,292.411462 1072.87224,291.113619 C1073.73303,290.449607 1074.83677,290.268512 1075.76697,289.725229 C1078.11329,288.359476 1078.82135,285.129959 1079.28645,282.277723 C1079.39752,281.583528 1079.50859,280.828968 1079.21704,280.195138 C1078.89771,279.500942 1078.19659,279.138754 1077.54407,278.821839 C1074.30919,277.274991 1071.08126,275.735689 1067.84639,274.188841 C1064.71565,272.694812 1060.3215,271.570518 1058.48886,274.709487 C1057.89881,275.728143 1057.73915,277.033532 1056.9825,277.916367 C1055.51084,279.614126 1052.68553,278.806747 1050.99174,280.270594 C1049.10357,281.900443 1049.5895,285.469511 1047.73604,287.15218 C1046.73642,288.065197 1045.3203,288.170836 1044.16102,288.812212 C1042.37698,289.808231 1041.3496,292.19264 1041.80081,294.320499 C1042.25203,296.448358 1044.13325,298.115935 1046.14637,298.161209 C1047.93041,298.198937 1049.56173,297.104825 1051.31106,296.697363 C1053.06039,296.2899 1055.372,297.029369 1055.5872,298.961042 C1055.78851,300.771986 1053.92117,302.115103 1052.24126,302.183013 C1050.56829,302.243378 1048.93697,301.534092 1047.264,301.473727 C1042.29368,301.307724 1037.18453,306.778283 1032.98475,303.880773 C1031.45061,302.824389 1030.41629,300.771986 1028.62531,300.477708 C1025.50844,299.964607 1024.16174,304.823973 1021.37114,306.416094 C1018.58748,308.00067 1014.03367,306.582098 1012.91605,309.773886 C1012.65226,310.528446 1012.70085,311.358462 1012.61755,312.158295 C1012.17327,316.512106 1008.12621,319.220976 1004.44013,320.986646 C1001.28161,322.503312 997.998149,323.869065 995.31862,326.230838 C992.639091,328.585064 990.619031,332.222043 991.04248,335.942024 C991.396511,339.10363 993.451279,342.00114 993.06254,345.1552 C990.993888,346.045581 988.828051,346.996326 987.398043,348.844998 C985.968035,350.69367 985.55847,353.734546 987.134255,355.447397 C989.688832,358.231723 994.096865,355.266303 997.609409,356.17932 C997.852371,357.514891 998.088392,358.850462 998.331354,360.186033 C1001.61482,360.450129 1004.90523,360.714225 1008.18869,360.978321 C1008.36918,362.200708 1008.54272,363.430641 1008.72321,364.653028 C1011.32638,361.15187 1016.66461,363.566462 1020.54507,361.97434 C1022.58595,361.136779 1024.07844,359.227742 1025.94578,357.99781 C1027.81312,356.767877 1030.64536,356.48869 1031.84629,358.465637 C1028.05608,362.811902 1023.29401,366.139511 1018.08768,368.086276 C1014.89445,369.27848 1011.44439,370.010403 1008.7718,372.258992 C1006.09921,374.50758 1004.59284,378.997212 1006.66844,381.887176 C1004.53037,381.758901 1002.37147,381.985269 1000.29588,382.573826 C1000.03209,385.169512 1000.32365,387.825563 1001.12889,390.285428 C1004.86357,389.606324 1008.86898,392.186919 1010.12545,396.065357 C1010.63914,397.649933 1010.72938,399.370329 1011.29861,400.924723 C1012.79803,405.04462 1017.35185,407.029112 1021.41279,406.629196 C1025.05069,406.27094 1028.38219,404.441233 1031.58196,402.490783 Z M1034.51615,396.330431 C1036.8162,396.039428 1039.14775,396.005738 1041.45372,396.238906 C1040.6693,392.692474 1045.97977,389.998695 1047.97206,392.926388 C1048.47667,393.667095 1048.74041,394.558612 1048.87576,395.519707 C1048.05197,399.150436 1046.93728,402.176675 1045.43497,403.37036 C1045.43497,403.37036 1039.82124,400.24834 1034.51615,396.330431 Z M1055.03604,403.878989 C1055.81633,403.267472 1056.57757,402.556795 1057.32959,401.988652 C1060.01606,399.966432 1063.70215,399.634425 1066.65935,401.151091 C1066.75653,398.993049 1066.85372,396.835008 1066.9509,394.676967 C1068.79742,394.759968 1070.65087,394.84297 1072.49739,394.925972 C1072.53904,393.016935 1072.57375,391.115444 1072.6154,389.206407 C1076.6347,389.729353 1080.11441,392.489514 1083.5197,395.264418 C1084.26085,403.841009 1084.22069,413.890418 1082.24032,424.226396 C1081.17822,429.772411 1074.96533,432.028545 1070.99463,428.353838 C1065.70256,423.457032 1059.15298,415.535477 1055.03604,403.878989 Z M1091.7138,400.78596 C1093.45598,401.467408 1095.2679,401.734871 1097.2032,401.332185 C1098.40413,401.08318 1099.62588,400.562534 1100.81987,400.856812 C1101.92361,401.120908 1102.77745,402.02638 1103.70765,402.71303 C1106.78522,404.99707 1110.66591,404.977501 1114.37476,403.947467 C1112.87921,407.950046 1110.11817,414.099578 1105.66884,419.797129 C1102.05911,424.422581 1095.19369,422.755004 1093.67344,416.922256 C1092.54761,412.620582 1091.64904,407.15613 1091.7138,400.78596 Z M1128.37062,397.627864 C1129.97546,397.051046 1131.61732,396.652036 1133.32131,396.563367 C1137.31284,396.35209 1142.22068,397.506566 1144.58088,394.005408 C1145.25424,393.001844 1145.60133,391.711546 1146.48988,390.93435 C1148.37537,389.276017 1150.60134,390.863995 1152.59223,392.822801 C1149.80011,397.5445 1145.36237,402.751833 1138.30912,407.377073 C1133.01948,410.840503 1126.52197,405.520855 1128.04916,399.009003 C1128.15569,398.555201 1128.26292,398.094661 1128.37062,397.627864 Z" id="Combined-Shape"></path>
        </g>
    </g>
</svg>