<?xml version="1.0" encoding="UTF-8"?>
<svg width="387px" height="191px" viewBox="0 0 387 191" version="1.1" xmlns="http://www.w3.org/2000/svg" xmlns:xlink="http://www.w3.org/1999/xlink">
    <!-- Generator: Sketch 53.2 (72643) - https://sketchapp.com -->
    <title>Combined Shape Copy 4</title>
    <desc>Created with Sketch.</desc>
    <g id="Logos" stroke="none" stroke-width="1" fill="none" fill-rule="evenodd">
        <g id="logo-ideas-copy" transform="translate(-720.000000, -553.000000)" fill="#12BAB2">
            <path d="M1005.58901,659.151352 C1007.93875,660.043379 1018.01618,664.756544 1012.11145,678.243049 L992,678.243049 L992,619 L1018.45232,619 C1024.93162,619 1030.59388,620.211329 1035.43927,622.634024 C1040.28466,625.056719 1044.03133,628.5076 1046.67939,632.986768 C1049.32745,637.465937 1050.65146,642.663385 1050.65146,648.579268 C1050.65146,654.551493 1049.29928,659.763027 1046.59488,664.214024 C1043.89047,668.665022 1040.04521,672.115902 1035.05896,674.566768 C1030.76071,676.679472 1025.86591,677.881562 1020.37447,678.173062 C1019.16854,676.334416 1016.66109,671.195207 1022.30868,666.432505 C1028.5099,661.202921 1030.19054,661.61601 1031.63628,658.083492 C1032.32663,658.373464 1033.11604,658.453431 1033.86538,658.471811 C1034.47016,658.486854 1035.09845,658.468803 1035.63818,658.172456 C1036.17791,657.87611 1036.59724,657.22475 1036.47684,656.582415 C1036.34813,655.902473 1035.68385,655.19395 1036.08381,654.652403 C1036.77577,654.999896 1037.66563,654.810354 1038.1846,654.202619 C1037.63795,652.979626 1038.55687,651.30384 1039.80655,651.243668 C1040.13731,651.228625 1040.47775,651.305344 1040.79605,651.204556 C1041.11435,651.103769 1041.3939,650.712652 1041.24167,650.393741 C1041.04654,649.986076 1040.34628,650.044744 1040.26878,649.593455 C1040.21204,649.26251 1040.5594,649.039874 1040.7227,648.754058 C1041.0244,648.224546 1040.59677,647.488945 1040.04597,647.323472 C1039.49517,647.158 1038.91115,647.386653 1038.39218,647.6484 C1038.2787,646.438946 1037.4096,645.357357 1036.32184,645.073045 C1037.00273,644.745109 1037.30304,643.722187 1036.92246,643.027202 C1036.54188,642.332217 1035.57176,642.129137 1034.98221,642.621042 C1035.21747,641.938092 1035.06524,641.116746 1034.60716,640.584225 C1034.14909,640.051704 1033.40592,639.833581 1032.7624,640.041174 C1032.55758,639.006219 1032.35276,637.969758 1032.14794,636.934803 C1032.07182,636.548199 1031.9874,636.143543 1031.75214,635.841179 C1031.18058,635.107083 1030.03885,635.31618 1029.35242,634.70694 C1029.17528,634.548989 1029.01198,634.329362 1028.78225,634.315823 C1028.3989,634.293259 1028.18024,634.852857 1027.80105,634.914533 C1027.58792,634.949132 1027.38726,634.816754 1027.18659,634.731009 C1026.47249,634.421124 1025.57432,634.743043 1025.16883,635.453071 C1025.01522,634.821267 1024.34263,634.502356 1023.74201,634.494834 C1023.14139,634.487313 1022.55184,634.694906 1021.95122,634.708444 C1020.99078,634.729504 1020.08016,634.255651 1019.12526,634.13982 C1018.17035,634.02399 1016.99817,634.4828 1016.84594,635.514747 C1016.77398,635.996122 1016.93036,636.557224 1016.64251,636.93029 C1016.46398,637.161951 1016.17059,637.235662 1015.9201,637.366536 C1015.40667,637.635805 1015.03854,638.205933 1014.98042,638.82119 C1014.64689,638.559443 1014.3023,638.282652 1014.11547,637.884014 C1013.92864,637.485375 1013.95909,636.928786 1014.29399,636.670047 C1014.4656,636.537668 1014.68564,636.501565 1014.87109,636.393256 C1015.33885,636.120978 1015.48001,635.47714 1015.57274,634.908516 C1015.59488,634.77012 1015.61702,634.619691 1015.5589,634.49333 C1015.49524,634.354935 1015.35546,634.282728 1015.22537,634.219548 C1014.58047,633.911167 1013.93694,633.604291 1013.29204,633.29591 C1012.66789,632.99806 1011.79187,632.773919 1011.42651,633.399707 C1011.30888,633.602787 1011.27705,633.86303 1011.1262,634.039033 C1010.83281,634.377499 1010.26956,634.216539 1009.93188,634.508373 C1009.55545,634.833301 1009.65233,635.544833 1009.28282,635.880291 C1009.08354,636.062311 1008.80122,636.083371 1008.5701,636.211236 C1008.21444,636.409803 1008.00962,636.885161 1008.09957,637.309372 C1008.18953,637.733584 1008.56457,638.066033 1008.9659,638.075059 C1009.32157,638.082581 1009.64679,637.864458 1009.99554,637.783226 C1010.34429,637.701994 1010.80513,637.849415 1010.84804,638.234515 C1010.88817,638.595546 1010.51589,638.86331 1010.18099,638.876849 C1009.84746,638.888883 1009.52224,638.74748 1009.18872,638.735445 C1008.19783,638.702351 1007.17926,639.792965 1006.34199,639.215316 C1006.03615,639.004714 1005.82994,638.595546 1005.47289,638.536878 C1004.85151,638.434586 1004.58303,639.403353 1004.0267,639.720759 C1003.47174,640.036661 1002.56389,639.753854 1002.34108,640.390171 C1002.28849,640.540601 1002.29818,640.706073 1002.28157,640.865529 C1002.193,641.733508 1001.38618,642.27355 1000.65132,642.625555 C1000.02163,642.927919 999.36704,643.200196 998.832847,643.671041 C998.298654,644.140381 997.895933,644.865452 997.980352,645.60707 C998.050932,646.23737 998.460572,646.81502 998.383073,647.443816 C997.970665,647.621323 997.538882,647.810864 997.253795,648.179417 C996.968707,648.547969 996.887056,649.154201 997.201206,649.495676 C997.710488,650.050761 998.589277,649.459573 999.28954,649.641593 C999.337977,649.907853 999.385031,650.174113 999.433468,650.440374 C1000.08806,650.493024 1000.74404,650.545675 1001.39863,650.598325 C1001.43462,650.842021 1001.46921,651.087221 1001.5052,651.330917 C1002.02416,650.632924 1003.0884,651.114299 1003.86201,650.796892 C1004.26888,650.629915 1004.56642,650.249328 1004.9387,650.004128 C1005.31097,649.758928 1005.87561,649.703269 1006.11503,650.097394 C1005.35941,650.963869 1004.41004,651.627264 1003.3721,652.015372 C1002.7355,652.253051 1002.04769,652.398968 1001.51488,652.847248 C1000.98207,653.295528 1000.68176,654.190584 1001.09556,654.76673 C1000.66931,654.741157 1000.23891,654.786286 999.825117,654.903621 C999.772528,655.421099 999.830653,655.950611 999.991187,656.441011 C1000.73574,656.305625 1001.53426,656.820094 1001.78475,657.593302 C1001.88716,657.909205 1001.90515,658.252184 1002.01863,658.562069 C1002.31756,659.383415 1003.22541,659.779045 1004.035,659.699317 C1004.58286,659.645365 1005.09586,659.424018 1005.58901,659.151352 Z M1006.40231,657.822579 L1006.42088,657.679047 C1006.9523,657.591798 1007.4948,657.573746 1008.03038,657.627901 C1007.87399,656.920882 1008.93269,656.383848 1009.32988,656.967515 C1009.67611,657.475751 1009.45354,658.340131 1009.57626,658.900424 C1009.44965,659.24333 1009.30023,659.50967 1009.12408,659.649633 C1009.12408,659.649633 1007.57744,658.789484 1006.40231,657.822579 Z M1010.82231,659.08314 C1010.94862,658.978737 1011.07263,658.866928 1011.1954,658.774175 C1011.73098,658.371023 1012.46584,658.304834 1013.05539,658.607198 C1013.07476,658.176969 1013.09414,657.746741 1013.11351,657.316512 C1013.48163,657.333059 1013.85114,657.349606 1014.21926,657.366154 C1014.22757,656.985567 1014.23449,656.606484 1014.24279,656.225897 C1015.14801,656.343675 1015.91595,657.030671 1016.6803,657.648074 C1016.86341,659.438544 1016.88651,661.589942 1016.46162,663.807508 C1016.24988,664.913165 1015.01127,665.36295 1014.21967,664.630358 C1013.06651,663.563323 1011.61384,661.775877 1010.82231,659.08314 Z M1018.36523,658.632629 C1018.61539,658.690187 1018.87396,658.699622 1019.14463,658.643301 C1019.38405,658.593659 1019.62762,658.489863 1019.86565,658.54853 C1020.0857,658.601181 1020.25592,658.781696 1020.44136,658.918587 C1021.2138,659.49186 1022.24003,659.337211 1023.13216,658.969088 C1023.02038,659.365939 1022.44479,661.243846 1021.13235,662.924486 C1020.41271,663.846619 1019.04401,663.51417 1018.74094,662.351349 C1018.48746,661.382832 1018.29176,660.118653 1018.36523,658.632629 Z M1025.82441,657.766672 C1025.99511,657.727716 1026.16846,657.701781 1026.34516,657.692586 C1027.14092,657.650466 1028.11935,657.880623 1028.58988,657.182629 C1028.72412,656.982558 1028.79332,656.725323 1028.97046,656.570381 C1029.48077,656.121549 1030.11619,656.865536 1030.5896,657.367951 C1030.04115,658.35526 1029.13538,659.4675 1027.63954,660.448414 C1026.58499,661.138886 1025.28964,660.078357 1025.5941,658.78015 C1025.66975,658.457919 1025.74713,658.118645 1025.82441,657.766672 Z M764.405494,687.639518 C769.247117,690.065875 772.990873,693.521972 775.636876,698.007912 C778.28288,702.493852 779.605861,707.699157 779.605861,713.623984 C779.605861,719.605237 778.254731,724.824649 775.55243,729.282375 C772.850129,733.740102 769.007852,737.196199 764.025485,739.650769 C759.043117,742.10534 753.258591,743.332607 746.671732,743.332607 L721,743.332607 L721,684 L747.43175,684 C753.906013,684 759.563871,685.213161 764.405494,687.639518 Z M756.833716,723.968786 C758.944889,721.373148 760.000459,717.902945 760.000459,713.558072 C760.000459,709.156772 758.860443,705.630143 756.580377,702.978078 C754.30031,700.326013 751.246193,699 747.417933,699 L741,699 L741,727.862224 L748.346844,727.862224 C751.893614,727.862224 754.722543,726.564425 756.833716,723.968786 Z M785,684 L835.076766,684 L835.076766,698.896632 L804.591585,698.896632 L804.591585,706.175668 L832.290032,706.175668 L832.290032,721.0723 L804.591585,721.0723 L804.591585,728.435976 L835.836785,728.435976 L835.836785,743.332607 L785,743.332607 L785,684 Z M877.156454,699.181911 C873.215598,697.771238 870.006664,697.065912 867.529554,697.065912 C865.108743,697.065912 863.898356,697.940516 863.898356,699.68975 C863.898356,701.043996 864.672441,702.087879 866.220634,702.821429 C867.768827,703.554979 870.231825,704.373157 873.609701,705.275987 C877.832047,706.460952 881.336541,707.6459 884.123289,708.830865 C886.910037,710.015831 889.344886,711.891997 891.42791,714.459422 C893.510934,717.026847 894.55243,720.398305 894.55243,724.573897 C894.55243,728.862342 893.440562,732.459504 891.216794,735.365491 C888.993025,738.271477 885.995205,740.429774 882.223243,741.840447 C878.451281,743.25112 874.257148,743.956446 869.640717,743.956446 C864.405008,743.956446 859.127156,743.095948 853.807,741.374927 C848.486845,739.653906 843.884558,737.298118 840,734.307491 L847.262398,719.495499 C850.246189,722.091138 853.989945,724.305861 858.49378,726.139736 C862.997616,727.973611 866.769521,728.890534 869.80961,728.890534 C871.273356,728.890534 872.427446,728.62251 873.271915,728.086455 C874.116385,727.550399 874.538613,726.718114 874.538613,725.589576 C874.538613,724.23533 873.736379,723.177341 872.131888,722.415578 C870.527397,721.653814 868.008102,720.849743 864.573927,720.003339 C860.40788,718.931228 856.931534,717.816813 854.144786,716.660061 C851.358038,715.503309 848.951338,713.711781 846.924612,711.285424 C844.897886,708.859066 843.884538,705.614567 843.884538,701.551829 C843.884538,697.601945 844.926035,694.145848 847.009058,691.183435 C849.092082,688.221022 852.04768,685.949872 855.875939,684.369919 C859.704199,682.789965 864.15167,682 869.218484,682 C873.834915,682 878.437203,682.6489 883.025485,683.946719 C887.613767,685.244538 891.596786,686.965533 894.974662,689.109756 L887.881158,704.091028 C884.672175,702.22894 881.09731,700.592584 877.156454,699.181911 Z M899,684 L918.591585,684 L918.591585,743.332607 L899,743.332607 L899,684 Z M966.209885,711.370064 L983.014736,711.370064 L983.014736,736.16957 C979.693157,738.426647 975.597544,740.288707 970.727772,741.755807 C965.858,743.222907 961.31201,743.956446 957.089665,743.956446 C950.953189,743.956446 945.450148,742.616327 940.580377,739.936048 C935.710605,737.25577 931.896477,733.559862 929.137878,728.848214 C926.379279,724.136567 925,718.818409 925,712.893583 C925,707.025184 926.435576,701.735239 929.306771,697.023592 C932.177966,692.311944 936.146911,688.630143 941.213725,685.978078 C946.28054,683.326013 951.994695,682 958.356362,682 C962.972793,682 967.603229,682.846391 972.247809,684.539199 C976.892389,686.232006 980.790963,688.489049 983.943647,691.310395 L972.881158,704.768148 C970.91073,702.793205 968.588475,701.227382 965.914322,700.07063 C963.24017,698.913878 960.692727,698.335511 958.271915,698.335511 C955.794806,698.335511 953.542922,698.970304 951.516197,700.23991 C949.489471,701.509516 947.913152,703.244617 946.787193,705.445267 C945.661235,707.645917 945.098264,710.128664 945.098264,712.893583 C945.098264,715.714929 945.675309,718.239996 946.829417,720.468859 C947.983524,722.697722 949.573917,724.44693 951.600643,725.716536 C953.627369,726.986142 955.907401,727.620935 958.440808,727.620935 C960.58013,727.620935 963.169796,726.943822 966.209885,725.589576 L966.209885,711.370064 Z M1029.77429,684 L1047.50806,684 L1047.50806,743.332607 L1031.12544,743.332607 L1007.81821,713.031504 L1007.81821,743.332607 L990,743.332607 L990,684 L1006.38262,684 L1029.77429,714.470383 L1029.77429,684 Z M1089.15645,699.181911 C1085.2156,697.771238 1082.00666,697.065912 1079.52955,697.065912 C1077.10874,697.065912 1075.89836,697.940516 1075.89836,699.68975 C1075.89836,701.043996 1076.67244,702.087879 1078.22063,702.821429 C1079.76883,703.554979 1082.23183,704.373157 1085.6097,705.275987 C1089.83205,706.460952 1093.33654,707.6459 1096.12329,708.830865 C1098.91004,710.015831 1101.34489,711.891997 1103.42791,714.459422 C1105.51093,717.026847 1106.55243,720.398305 1106.55243,724.573897 C1106.55243,728.862342 1105.44056,732.459504 1103.21679,735.365491 C1100.99303,738.271477 1097.9952,740.429774 1094.22324,741.840447 C1090.45128,743.25112 1086.25715,743.956446 1081.64072,743.956446 C1076.40501,743.956446 1071.12716,743.095948 1065.807,741.374927 C1060.48685,739.653906 1055.88456,737.298118 1052,734.307491 L1059.2624,719.495499 C1062.24619,722.091138 1065.98995,724.305861 1070.49378,726.139736 C1074.99762,727.973611 1078.76952,728.890534 1081.80961,728.890534 C1083.27336,728.890534 1084.42745,728.62251 1085.27192,728.086455 C1086.11638,727.550399 1086.53861,726.718114 1086.53861,725.589576 C1086.53861,724.23533 1085.73638,723.177341 1084.13189,722.415578 C1082.5274,721.653814 1080.0081,720.849743 1076.57393,720.003339 C1072.40788,718.931228 1068.93153,717.816813 1066.14479,716.660061 C1063.35804,715.503309 1060.95134,713.711781 1058.92461,711.285424 C1056.89789,708.859066 1055.88454,705.614567 1055.88454,701.551829 C1055.88454,697.601945 1056.92603,694.145848 1059.00906,691.183435 C1061.09208,688.221022 1064.04768,685.949872 1067.87594,684.369919 C1071.7042,682.789965 1076.15167,682 1081.21848,682 C1085.83492,682 1090.4372,682.6489 1095.02548,683.946719 C1099.61377,685.244538 1103.59679,686.965533 1106.97466,689.109756 L1099.88116,704.091028 C1096.67218,702.22894 1093.09731,700.592584 1089.15645,699.181911 Z M721,619 L740.606829,619 L740.606829,678.243049 L721,678.243049 L721,619 Z M782.185366,634.155976 C778.241444,632.747432 775.030012,632.043171 772.550976,632.043171 C770.128281,632.043171 768.916951,632.916455 768.916951,634.663049 C768.916951,636.015251 769.691639,637.057557 771.241037,637.79 C772.790435,638.522443 775.255349,639.339386 778.635854,640.240854 C782.861485,641.42403 786.368706,642.607189 789.157622,643.790366 C791.946538,644.973543 794.383282,646.846877 796.467927,649.410427 C798.552571,651.973976 799.594878,655.340345 799.594878,659.509634 C799.594878,663.791607 798.482145,667.383339 796.256646,670.284939 C794.031147,673.186539 791.030994,675.341578 787.256098,676.750122 C783.481201,678.158666 779.283804,678.862927 774.66378,678.862927 C769.423998,678.862927 764.142039,678.003728 758.817744,676.285305 C753.493449,674.566882 748.88758,672.214649 745,669.228537 L752.268049,654.438902 C755.254161,657.030623 759.000831,659.242003 763.508171,661.07311 C768.01551,662.904216 771.790351,663.819756 774.832805,663.819756 C776.29769,663.819756 777.452679,663.552137 778.297805,663.01689 C779.142931,662.481644 779.565488,661.650615 779.565488,660.52378 C779.565488,659.171579 778.76263,658.115187 777.15689,657.354573 C775.551151,656.59396 773.029895,655.791102 769.593049,654.945976 C765.42376,653.875482 761.944709,652.76275 759.155793,651.607744 C756.366876,650.452738 753.958303,648.663915 751.93,646.24122 C749.901697,643.818524 748.887561,640.578923 748.887561,636.522317 C748.887561,632.578395 749.929868,629.127515 752.014512,626.169573 C754.099157,623.211632 757.057054,620.94391 760.888293,619.366341 C764.719531,617.788773 769.170462,617 774.24122,617 C778.861243,617 783.467111,617.64792 788.058963,618.94378 C792.650816,620.239641 796.636934,621.958038 800.017439,624.099024 L792.918415,639.057683 C789.706935,637.198405 786.129288,635.564519 782.185366,634.155976 Z M806,619 L825.606829,619 L825.606829,661.932195 L850.28439,661.932195 L850.28439,678.243049 L806,678.243049 L806,619 Z M903.340976,678.243049 L900.383049,669.876341 L878.156341,669.876341 L875.113902,678.243049 L855,678.243049 L880.01561,619 L900.129512,619 L924.215488,678.243049 L903.340976,678.243049 Z M883,656.325 L895.33878,656.325 L889.253902,639 L883,656.325 Z M968.805244,619 L986.552805,619 L986.552805,678.243049 L970.157439,678.243049 L946.832073,647.987683 L946.832073,678.243049 L929,678.243049 L929,619 L945.395366,619 L968.805244,649.42439 L968.805244,619 Z M769.27061,556.972073 C774.228683,559.620135 778.10212,563.282294 780.891037,567.958659 C783.679953,572.635023 785.07439,577.902898 785.07439,583.762439 C785.07439,589.678322 783.679953,595.002537 780.891037,599.735244 C778.10212,604.46795 774.228683,608.172365 769.27061,610.848598 C764.312536,613.52483 758.734787,614.862927 752.537195,614.862927 C746.339603,614.862927 740.761854,613.52483 735.80378,610.848598 C730.845707,608.172365 726.97227,604.46795 724.183354,599.735244 C721.394437,595.002537 720,589.678322 720,583.762439 C720,577.846556 721.394437,572.550511 724.183354,567.874146 C726.97227,563.197781 730.845707,559.549708 735.80378,556.929817 C740.761854,554.309926 746.339603,553 752.537195,553 C758.734787,553 764.312536,554.324011 769.27061,556.972073 Z M747.380671,570.901524 C745.436881,572.169214 743.887506,573.901696 742.7325,576.099024 C741.577494,578.296352 741,580.775352 741,583.536098 C741,586.296843 741.577494,588.789928 742.7325,591.015427 C743.887506,593.240926 745.436881,595.001579 747.380671,596.297439 C749.324461,597.593299 751.423159,598.24122 753.676829,598.24122 C755.930499,598.24122 757.986942,597.607384 759.84622,596.339695 C761.705497,595.072006 763.170361,593.311353 764.240854,591.057683 C765.311347,588.804013 765.846585,586.296843 765.846585,583.536098 C765.846585,580.775352 765.311347,578.282267 764.240854,576.056768 C763.170361,573.831269 761.705497,572.098787 759.84622,570.859268 C757.986942,569.61975 755.930499,569 753.676829,569 C751.423159,569 749.324461,569.633835 747.380671,570.901524 Z M829.340976,613.243049 L826.383049,604.876341 L804.156341,604.876341 L801.113902,613.243049 L781,613.243049 L806.01561,554 L826.129512,554 L850.215488,613.243049 L829.340976,613.243049 Z M809,591.325 L821.33878,591.325 L815.253902,574 L809,591.325 Z M917.102317,613.243049 L893.692439,613.243049 L881.184634,592.622073 L875.606829,598.875976 L875.606829,613.243049 L856,613.243049 L856,554 L875.606829,554 L875.606829,575.635122 L893.269878,554 L915.834634,554 L894.622073,577.663415 L917.102317,613.243049 Z" id="Combined-Shape-Copy-4"></path>
        </g>
    </g>
</svg>