<svg width="340" height="341" viewBox="0 0 340 341" fill="none" xmlns="http://www.w3.org/2000/svg">
<path d="M170 340.583C263.888 340.583 340 264.471 340 170.583C340 76.6946 263.888 0.583008 170 0.583008C76.1116 0.583008 0 76.6946 0 170.583C0 264.471 76.1116 340.583 170 340.583Z" fill="#3D2D68"/>
<path d="M182.763 321C259.632 314.512 320 249.952 320 171.268C320 88.2773 252.843 21 170 21C87.1573 21 20 88.2773 20 171.268C20 242.69 69.7383 302.473 136.408 317.754C164.584 253.035 123.733 226.278 106.272 218.166C102.883 220.232 99.3547 222.164 95.5032 222.544C91.1873 222.969 86.3476 220.859 84.754 216.477C84.4323 215.598 84.2545 214.668 84.0764 213.737C83.9197 212.918 83.7628 212.097 83.5072 211.309C82.1719 207.184 77.915 204.439 73.9459 205.161C73.09 202.545 72.7802 199.72 73.0605 196.959C75.2664 196.333 77.5609 196.093 79.8331 196.229C77.6273 193.155 79.2282 188.38 82.0685 185.989C84.2411 184.16 86.897 183.274 89.5445 182.391C90.3583 182.12 91.1714 181.849 91.9693 181.551C97.5025 179.48 102.564 175.941 106.592 171.319C105.315 169.216 102.305 169.513 100.321 170.821C99.5396 171.336 98.8201 171.963 98.1026 172.588C96.9972 173.551 95.8962 174.51 94.581 175.05C92.9151 175.734 90.9964 175.723 89.1186 175.712C86.3477 175.696 83.666 175.68 82.0169 177.899C81.8947 177.07 81.7753 176.238 81.6552 175.407C81.5869 174.934 81.5184 174.462 81.4489 173.991C79.6935 173.85 77.9364 173.708 76.1793 173.567C74.4431 173.428 72.707 173.288 70.9727 173.148C70.7145 171.728 70.4636 170.307 70.2054 168.887C68.6868 168.492 67.0108 168.779 65.3739 169.06C62.9869 169.47 60.6832 169.865 59.0726 168.108C57.3979 166.287 57.8332 163.053 59.353 161.086C60.8727 159.12 63.1746 158.109 65.3731 157.162C65.6151 155.198 64.9665 153.327 64.3118 151.438C63.8485 150.102 63.3821 148.757 63.2262 147.363C62.7762 143.407 64.923 139.538 67.7708 137.035C70.2177 134.876 73.1385 133.5 76.0418 132.132C76.5174 131.908 76.9925 131.684 77.465 131.457C81.3824 129.579 85.6836 126.698 86.1558 122.067C86.182 121.815 86.1959 121.56 86.2098 121.305C86.2429 120.7 86.2758 120.096 86.473 119.531C87.1971 117.462 89.2785 117.215 91.4635 116.955C92.8625 116.789 94.3041 116.618 95.4589 115.96C96.6497 115.28 97.593 114.04 98.5101 112.835C99.8773 111.038 101.186 109.318 103.168 109.644C104.361 109.84 105.238 110.771 106.128 111.714C106.658 112.277 107.193 112.844 107.802 113.264C110.429 115.077 113.391 113.808 116.46 112.493C118.606 111.573 120.804 110.631 122.977 110.704C123.792 110.733 124.597 110.907 125.401 111.081C126.353 111.287 127.303 111.493 128.267 111.458C130.052 111.386 132.037 109.957 131.823 108.031C131.594 105.977 129.138 105.19 127.278 105.624C126.57 105.789 125.881 106.06 125.193 106.33C124.075 106.769 122.964 107.205 121.79 107.18C119.65 107.132 117.651 105.359 117.171 103.096C116.692 100.833 117.784 98.2965 119.68 97.2371C120.168 96.9668 120.699 96.7859 121.229 96.6056C122.035 96.331 122.838 96.0578 123.479 95.4716C124.456 94.5844 124.821 93.2041 125.186 91.8265C125.557 90.4252 125.927 89.0266 126.939 88.1525C127.792 87.4148 128.915 87.2194 130.027 87.026C131.262 86.8112 132.483 86.5987 133.306 85.6486C133.776 85.1003 134.029 84.3987 134.283 83.6941C134.464 83.1921 134.646 82.6886 134.907 82.2379C136.855 78.8993 141.525 80.0951 144.852 81.6841C146.571 82.5067 148.288 83.3273 150.005 84.1479C151.722 84.9685 153.439 85.7891 155.158 86.6116C155.852 86.9487 156.597 87.3339 156.936 88.0723C157.246 88.7464 157.128 89.5489 157.01 90.2872C156.516 93.3208 155.763 96.7556 153.27 98.2082C152.848 98.4547 152.393 98.6312 151.938 98.8073C151.327 99.0439 150.718 99.2799 150.193 99.6848C148.408 101.065 148.246 104.035 149.242 106.161C150.238 108.288 152.075 109.765 153.853 111.161C154.162 107.879 156.125 104.837 158.862 103.401C159.219 103.214 159.592 103.049 159.966 102.884C160.99 102.432 162.016 101.979 162.713 101.073C163.726 99.759 163.707 98.0075 163.687 96.2298C163.677 95.3153 163.667 94.3938 163.798 93.5214C164.609 88.0161 170.858 85.5684 175.948 86.1863C178.093 86.4467 180.196 87.046 182.294 87.6441C185.177 88.4657 188.051 89.2849 191.013 89.2199C192.533 89.1856 194.039 88.9182 195.544 88.651C197.211 88.355 198.878 88.0592 200.56 88.0803C203.762 88.1204 207.347 89.8218 208.166 93.1924C210.328 89.4044 215.116 87.6871 218.923 89.3402C219.15 89.4374 219.377 89.5458 219.605 89.6545C220.45 90.0575 221.304 90.4647 222.199 90.3193C223.145 90.1652 223.904 89.4284 224.654 88.7008C225.505 87.875 226.343 87.0613 227.429 87.1253C228.388 87.1818 229.13 87.9123 229.86 88.6311C230.062 88.8305 230.264 89.0289 230.469 89.2118C232.159 90.7131 234.367 91.2829 236.554 91.8474C239.102 92.5051 241.622 93.1554 243.262 95.2629C244.516 96.876 244.966 99.0348 245.372 101.097C245.917 103.858 246.463 106.621 247.009 109.383C247.555 112.146 248.101 114.909 248.647 117.67C252.078 116.562 256.04 117.726 258.482 120.567C260.924 123.408 261.735 127.789 260.481 131.433C263.624 128.809 268.795 129.892 270.824 133.6C272.853 137.307 271.252 142.765 267.622 144.514C273.421 146.031 278.054 151.801 278.659 158.253C281.426 156.857 284.539 155.637 287.476 156.52C290.412 157.403 292.691 161.327 291.083 164.152C290.801 164.646 290.416 165.104 290.035 165.558C289.239 166.507 288.459 167.436 288.663 168.63C288.883 169.912 290.044 170.423 291.239 170.948C292.288 171.41 293.363 171.883 293.85 172.9C294.661 174.601 293.171 176.687 291.474 177.225C290.356 177.58 289.186 177.523 288.014 177.466C287.408 177.436 286.8 177.406 286.199 177.434C279.537 177.755 274.638 186.695 277.553 193.22C274.786 196.462 270.042 197.473 266.353 195.619C264.959 197.509 265.992 199.78 267.065 202.14C267.632 203.388 268.211 204.661 268.449 205.916C269.091 209.342 266.855 212.817 263.978 214.398C261.101 215.979 257.751 216.076 254.527 215.995C249.378 215.869 243.874 215.197 239.604 212.283C235.033 222.513 229.772 226.13 219.254 233.364C212.387 238.086 203.278 244.35 190.657 255.001C155.48 284.689 179.652 317.118 182.763 321Z" fill="#00BAB3"/>
<path d="M120.371 218.398C120.371 218.398 114.686 215.234 109.17 211.207C111.698 210.867 114.265 210.819 116.802 211.076C115.969 207.304 121.612 204.439 123.73 207.553C123.973 207.91 124.164 208.301 124.313 208.716C123.415 213.158 122.148 216.985 120.371 218.398Z" fill="#00BAB3"/>
<path d="M147.535 244.97C142.002 239.847 135.176 231.609 130.79 219.54C131.326 219.153 131.853 218.703 132.374 218.259C132.811 217.886 133.244 217.517 133.675 217.191C136.53 215.041 140.447 214.688 143.59 216.301L143.9 209.415L149.795 209.68C149.817 208.665 149.837 207.651 149.858 206.638C149.878 205.625 149.898 204.612 149.92 203.597C153.921 204.118 157.419 206.726 160.821 209.48C161.635 218.666 161.615 229.468 159.487 240.58C158.358 246.479 151.755 248.878 147.535 244.97Z" fill="#00BAB3"/>
<path d="M171.638 232.812C170.44 228.233 169.485 222.415 169.555 215.633C171.61 216.559 173.748 216.973 176.052 216.493C176.368 216.428 176.686 216.344 177.004 216.261C177.97 216.007 178.941 215.752 179.895 215.988C180.776 216.198 181.506 216.793 182.234 217.386C182.476 217.583 182.718 217.78 182.965 217.962C186.003 220.218 189.777 220.361 193.458 219.492C191.831 223.75 188.941 230.033 184.386 235.869C180.55 240.789 173.253 239.015 171.638 232.812Z" fill="#00BAB3"/>
<path d="M208.172 213.76C208.242 213.46 208.312 213.158 208.383 212.853C210.341 212.08 212.345 211.53 214.437 211.421C215.397 211.37 216.407 211.394 217.424 211.418C220.902 211.499 224.463 211.582 226.404 208.701C226.669 208.305 226.886 207.868 227.103 207.432C227.472 206.691 227.838 205.955 228.433 205.434C230.273 203.815 232.418 205.107 234.395 206.942C231.437 212.027 226.69 217.663 219.076 222.66C213.454 226.343 206.549 220.686 208.172 213.76Z" fill="#00BAB3"/>
</svg>
