<svg width="504" height="86" viewBox="0 0 504 86" fill="none" xmlns="http://www.w3.org/2000/svg">
<rect width="503.311" height="86" fill="#00237D"/>
<path d="M57.4536 34.0616V50.8782L43.2425 33.6894H42.2951V56.3934H44.9343V39.6107L59.1454 56.7656H60.0928V34.0616H57.4536Z" fill="white"/>
<path d="M90.7147 34.0616H76.4021V56.3934H91.1208V54.0249H79.0413V45.6336H87.974V43.265H79.0413V36.4302H90.7147V34.0616Z" fill="white"/>
<path d="M120.031 34.0616H105.718V56.3934H120.437V54.0249H108.357V45.6336H117.29V43.265H108.357V36.4302H120.031V34.0616Z" fill="white"/>
<path d="M142.884 34.0616H135.034V56.3934H137.673V47.0547H142.884C147.282 47.0547 150.023 44.314 150.023 40.5243C150.023 36.7685 147.282 34.0616 142.884 34.0616ZM142.816 36.4302C145.76 36.4302 147.282 38.1896 147.282 40.5582C147.282 42.9605 145.76 44.6862 142.816 44.6862H137.673V36.4302H142.816Z" fill="white"/>
<path d="M177.368 56.3934H180.177L170.499 33.6894H169.518L159.841 56.3934H162.616L164.544 51.8594H175.439L177.368 56.3934ZM174.458 49.4909H165.526L169.992 38.528L174.458 49.4909Z" fill="white"/>
<path d="M256.189 56.3934H258.997L249.32 33.6894H248.339L238.662 56.3934H241.436L243.365 51.8594H254.26L256.189 56.3934ZM253.279 49.4909H244.346L248.813 38.528L253.279 49.4909Z" fill="white"/>
<path d="M297.86 34.0616H291.228V56.3934H297.86C305.439 56.3934 310.007 51.5887 310.007 45.1937C310.007 38.6972 305.439 34.0616 297.86 34.0616ZM297.826 36.4302C303.815 36.4302 307.266 40.0845 307.266 45.1937C307.266 50.2014 303.815 54.0249 297.826 54.0249H293.867V36.4302H297.826Z" fill="white"/>
<path d="M339.185 34.0616H324.872V56.3934H339.591V54.0249H327.512V45.6336H336.444V43.265H327.512V36.4302H339.185V34.0616Z" fill="white"/>
<path d="M369.347 34.0616V50.8782L355.136 33.6894H354.188V56.3934H356.827V39.6107L371.039 56.7656H371.986V34.0616H369.347Z" fill="white"/>
<path d="M404.232 34.0616H385.859V36.4302H393.709V56.3934H396.348V36.4302H404.232V34.0616Z" fill="white"/>
<path d="M431.059 56.3934H433.868L424.191 33.6894H423.209L413.532 56.3934H416.307L418.235 51.8594H429.131L431.059 56.3934ZM428.149 49.4909H419.217L423.683 38.528L428.149 49.4909Z" fill="white"/>
<path d="M450.789 34.0616H448.149V56.3934H461.379V54.0249H450.789V34.0616Z" fill="white"/>
<path d="M222.517 32.7644C220.937 30.6358 219.277 29.6444 217.293 29.6444C216.009 29.6444 214.763 30.0564 213.56 30.4539L213.52 30.467C212.236 30.8885 211.024 31.2868 209.716 31.2868C208.405 31.2868 207.12 30.8556 205.87 30.4362C204.643 30.0282 203.375 29.6066 202.105 29.6066C200.111 29.6066 198.491 30.618 197.005 32.7885C194.668 36.1922 195.995 39.8371 197.065 42.7765C197.542 44.0844 197.992 45.3195 197.992 46.2521C197.992 51.0406 199.002 59.1443 202.787 59.1443C205.377 59.1443 206.174 56.1346 206.879 53.4717C207.628 50.6685 208.276 48.6843 209.808 48.6843C211.129 48.6843 211.635 49.969 212.336 53.0486C212.943 55.7394 213.697 59.0877 216.881 59.0877C221.323 59.0877 221.668 49.2584 221.668 46.246C221.668 45.3617 222.104 44.137 222.565 42.8402L222.583 42.7884C223.643 39.7883 224.963 36.0549 222.517 32.7644ZM220.294 41.9791L220.277 42.027C219.744 43.5266 219.241 44.943 219.241 46.2458C219.241 49.105 218.94 51.8765 218.415 53.8497C217.803 56.1548 217.1 56.6597 216.881 56.6597C215.906 56.6597 215.438 55.7687 214.702 52.503C214.102 49.8667 213.28 46.2562 209.808 46.2562C206.293 46.2562 205.276 50.0643 204.53 52.8577C204.123 54.3942 203.509 56.7162 202.787 56.7162C202.675 56.7162 201.97 56.2293 201.324 53.9156C200.749 51.8567 200.42 49.0634 200.42 46.2518C200.42 44.8906 199.899 43.4597 199.343 41.9351C198.376 39.2808 197.377 36.536 199.008 34.1612C200.29 32.2871 201.293 32.0344 202.105 32.0344C202.982 32.0344 204.012 32.3771 205.105 32.7404C206.466 33.197 208.008 33.7147 209.716 33.7147C211.412 33.7147 212.934 33.2148 214.277 32.7738L214.319 32.76C215.389 32.4064 216.4 32.0725 217.293 32.0725C218.127 32.0725 219.168 32.3266 220.568 34.2124C222.243 36.4654 221.252 39.2685 220.294 41.9791Z" fill="white"/>
</svg>
