<?xml version="1.0" encoding="UTF-8"?>
<svg width="454px" height="256px" viewBox="0 0 454 256" version="1.1" xmlns="http://www.w3.org/2000/svg" xmlns:xlink="http://www.w3.org/1999/xlink">
    <!-- Generator: Sketch 54.1 (76490) - https://sketchapp.com -->
    <title>Group 4 Copy 2</title>
    <desc>Created with Sketch.</desc>
    <g id="Page-1" stroke="none" stroke-width="1" fill="none" fill-rule="evenodd">
        <g id="Group-4-Copy-2" fill="#000000" fill-rule="nonzero">
            <path d="M176.083067,106 L165.685528,106 L227,0.0135561277 L288.314472,106 L277.916933,106 L227,17.9864439 L176.083067,106 Z M126.909513,191 L94.802075,246.5 L359.197925,246.5 L327.090487,191 L337.488025,191 L374.802075,255.5 L79.197925,255.5 L116.511975,191 L126.909513,191 Z M-5.68434189e-14,133.95 L-5.68434189e-14,126 L35.85,126 L35.85,133.95 L22.425,133.95 L22.425,171 L13.35,171 L13.35,133.95 L-5.68434189e-14,133.95 Z M51.825,126 L51.825,171 L42.75,171 L42.75,126 L51.825,126 Z M97.5,171 L97.5,142.8 L86.1,157.8 L82.5,157.8 L71.1,142.8 L71.1,171 L62.1,171 L62.1,126 L69.3,126 L84.3,146.175 L99.3,126 L106.425,126 L106.5,171 L97.5,171 Z M153.9,157.875 C153.9,166.35 147.75,171 137.55,171 L116.7,171 L116.7,126 L137.025,126 C147.3,126 152.625,130.5 152.625,138.225 C152.625,142.35 150.375,145.8 146.85,147.6 L146.85,148.05 C151.275,149.4 153.9,153 153.9,157.875 Z M137.55,151.8 L125.775,151.8 L125.775,163.05 L137.625,163.05 C141.45,163.05 144.225,160.8 144.225,157.425 C144.225,154.2 141.375,151.8 137.55,151.8 Z M143.1,139.425 C143.1,135.975 140.7,133.95 136.875,133.95 L125.775,133.95 L125.775,144.75 L136.725,144.75 C140.55,144.75 143.1,142.425 143.1,139.425 Z M190.5,144.525 L190.5,151.875 L170.85,151.875 L170.85,163.05 L194.175,163.05 L194.175,171 L161.775,171 L161.775,126 L194.175,126 L194.175,133.95 L170.85,133.95 L170.85,144.525 L190.5,144.525 Z M202.05,126 L221.25,126 C231.675,126 238.5,132 238.5,141.075 C238.5,147.675 235.05,152.475 229.575,154.725 L229.575,155.325 L240,170.1 L240,171 L229.8,171 L219.675,156.15 L211.125,156.15 L211.125,171 L202.05,171 L202.05,126 Z M229.125,141.15 C229.125,136.275 225.675,133.95 220.725,133.95 L211.125,133.95 L211.125,148.35 L220.95,148.35 C225.675,148.35 229.125,145.95 229.125,141.15 Z M277.275,159.45 L282.525,166.425 C282.525,166.425 277.725,172.05 267.3,172.05 C253.125,172.05 244.35,161.475 244.35,148.5 C244.35,135.525 253.125,125.025 267.3,125.025 C277.725,125.025 282.525,130.575 282.525,130.575 L277.275,137.55 C277.275,137.55 273.825,133.725 267.375,133.725 C259.35,133.725 253.725,139.95 253.725,148.5 C253.725,157.05 259.35,163.35 267.375,163.35 C273.825,163.35 277.275,159.45 277.275,159.45 Z M288.675,126 L307.875,126 C318.3,126 325.125,132 325.125,141.075 C325.125,147.675 321.675,152.475 316.2,154.725 L316.2,155.325 L326.625,170.1 L326.625,171 L316.425,171 L306.3,156.15 L297.75,156.15 L297.75,171 L288.675,171 L288.675,126 Z M315.75,141.15 C315.75,136.275 312.3,133.95 307.35,133.95 L297.75,133.95 L297.75,148.35 L307.575,148.35 C312.3,148.35 315.75,145.95 315.75,141.15 Z M362.325,144.525 L362.325,151.875 L342.675,151.875 L342.675,163.05 L366,163.05 L366,171 L333.6,171 L333.6,126 L366,126 L366,133.95 L342.675,133.95 L342.675,144.525 L362.325,144.525 Z M402.6,144.525 L402.6,151.875 L382.95,151.875 L382.95,163.05 L406.275,163.05 L406.275,171 L373.875,171 L373.875,126 L406.275,126 L406.275,133.95 L382.95,133.95 L382.95,144.525 L402.6,144.525 Z M423.225,126 L423.225,146.85 L442.425,126 L453.375,126 L453.375,126.975 L436.65,145.125 L453.45,170.025 L453.45,171 L443.325,171 C443.325,171 435.15,158.85 430.5,151.875 L423.225,159.75 L423.225,171 L414.15,171 L414.15,126 L423.225,126 Z M179.12,201.2 L179.12,204.56 L167.96,204.56 L167.96,215 L164,215 L164,191 L181.16,191 L181.16,194.52 L167.96,194.52 L167.96,201.2 L179.12,201.2 Z M206.04,191 L215.88,215 L211.72,215 L209.76,210.08 L198.32,210.08 L196.4,215 L192.2,215 L202.04,191 L206.04,191 Z M204.04,195.6 L199.64,206.72 L208.44,206.72 L204.04,195.6 Z M230.92,191 L240.8,191 C246.44,191 250,194.04 250,199.04 C250,202.76 248,205.28 244.92,206.44 L244.92,206.64 L250.68,214.44 L250.68,215 L246.32,215 L240.6,207.08 L234.88,207.08 L234.88,215 L230.92,215 L230.92,191 Z M245.88,199.08 C245.88,196 243.8,194.52 240.6,194.52 L234.88,194.52 L234.88,203.56 L240.84,203.56 C243.76,203.56 245.88,202.12 245.88,199.08 Z M286.08,215 L286.08,198.28 L279.16,207.32 L277.72,207.32 L270.84,198.4 L270.84,215 L266.88,215 L266.88,191 L269.92,191 L278.44,202.2 L287,191 L289.96,191 L290,215 L286.08,215 Z" id="Combined-Shape"></path>
        </g>
    </g>
</svg>