<?xml version="1.0" encoding="UTF-8"?>
<svg width="1262px" height="377px" viewBox="0 0 1262 377" version="1.1" xmlns="http://www.w3.org/2000/svg" xmlns:xlink="http://www.w3.org/1999/xlink">
    <!-- Generator: Sketch 54.1 (76490) - https://sketchapp.com -->
    <title>Group 5 Copy</title>
    <desc>Created with Sketch.</desc>
    <g id="Page-1" stroke="none" stroke-width="1" fill="none" fill-rule="evenodd">
        <g id="Artboard" transform="translate(-3920.000000, -1860.000000)">
            <g id="Group-5-Copy" transform="translate(3920.000000, 1860.000000)">
                <path d="M327.350724,62 L1255.99614,62 C1258.75756,62 1260.99614,64.2385763 1260.99614,67 L1260.99614,288 C1260.99614,290.761424 1258.75756,293 1255.99614,293 L340.960614,293 C353.12073,265.056165 361.001547,231.673676 361.001547,194.983986 C361.001547,143.203128 347.981619,96.7121244 327.350724,62 Z M424.528412,249.986111 L451.799979,249.986111 C456.917632,249.986111 461.02516,247.300953 464.122687,241.930556 L532.200599,116.0625 C533.008649,114.585641 533.345332,113.041675 533.210657,111.430556 C533.075981,109.819436 531.93126,109.013889 529.776459,109.013889 L502.706904,109.013889 C500.013402,109.013889 497.993307,109.584485 496.646556,110.725694 C495.299805,111.866904 494.357094,112.974532 493.818393,114.048611 L446.749689,202.659722 L437.659167,114.048611 C437.524492,112.974532 437.019468,111.866904 436.14408,110.725694 C435.268692,109.584485 433.484274,109.013889 430.790772,109.013889 L406.347368,109.013889 C402.307115,109.013889 400.556365,111.363402 401.095066,116.0625 L415.43789,241.930556 C416.111265,247.300953 419.141409,249.986111 424.528412,249.986111 Z M528.160366,249.986111 L554.623887,249.986111 C556.105313,249.986111 557.485712,249.449079 558.765125,248.375 C560.044538,247.300921 560.818908,246.02547 561.088258,244.548611 L588.96586,114.451389 C589.23521,112.97453 588.932196,111.699079 588.056808,110.625 C587.18142,109.550921 586.003031,109.013889 584.521605,109.013889 L558.058084,109.013889 C556.576658,109.013889 555.196259,109.550921 553.916846,110.625 C552.637433,111.699079 551.863063,112.97453 551.593713,114.451389 L523.716111,244.548611 C523.446761,246.02547 523.749775,247.300921 524.625163,248.375 C525.500551,249.449079 526.678941,249.986111 528.160366,249.986111 Z M684.315338,249.986111 L701.284313,249.986111 C702.765739,249.986111 704.146138,249.449079 705.425551,248.375 C706.704964,247.300921 707.479335,246.02547 707.748685,244.548611 L735.626286,114.451389 C735.895637,112.97453 735.592622,111.699079 734.717234,110.625 C733.841846,109.550921 732.663457,109.013889 731.182031,109.013889 L704.718511,109.013889 C703.237085,109.013889 701.856686,109.550921 700.577273,110.625 C699.297859,111.699079 698.523489,112.97453 698.254139,114.451389 L683.709304,182.520833 L647.953249,113.645833 C647.683899,112.974534 646.976865,112.034728 645.832127,110.826389 C644.687389,109.61805 642.970308,109.013889 640.680831,109.013889 L623.711856,109.013889 C622.23043,109.013889 620.850032,109.550921 619.570618,110.625 C618.291205,111.699079 617.516835,112.97453 617.247485,114.451389 L589.369883,244.548611 C589.100533,246.02547 589.403547,247.300921 590.278935,248.375 C591.154323,249.449079 592.332713,249.986111 593.814139,249.986111 L620.277659,249.986111 C621.759085,249.986111 623.139484,249.449079 624.418897,248.375 C625.69831,247.300921 626.47268,246.02547 626.74203,244.548611 L641.286866,176.479167 L676.638897,244.951389 C677.312273,246.025468 678.187648,247.133096 679.265048,248.274306 C680.342449,249.415515 682.025862,249.986111 684.315338,249.986111 Z M830.975765,249.986111 L847.94474,249.986111 C849.426166,249.986111 850.806564,249.449079 852.085978,248.375 C853.365391,247.300921 854.139761,246.02547 854.409111,244.548611 L882.286713,114.451389 C882.556063,112.97453 882.253049,111.699079 881.377661,110.625 C880.502273,109.550921 879.323883,109.013889 877.842458,109.013889 L851.378937,109.013889 C849.897511,109.013889 848.517112,109.550921 847.237699,110.625 C845.958286,111.699079 845.183916,112.97453 844.914566,114.451389 L830.36973,182.520833 L794.613676,113.645833 C794.344325,112.974534 793.637292,112.034728 792.492554,110.826389 C791.347816,109.61805 789.630734,109.013889 787.341258,109.013889 L770.372283,109.013889 C768.890857,109.013889 767.510458,109.550921 766.231045,110.625 C764.951632,111.699079 764.177262,112.97453 763.907911,114.451389 L736.03031,244.548611 C735.76096,246.02547 736.063974,247.300921 736.939362,248.375 C737.81475,249.449079 738.993139,249.986111 740.474565,249.986111 L766.938085,249.986111 C768.419511,249.986111 769.79991,249.449079 771.079323,248.375 C772.358737,247.300921 773.133107,246.02547 773.402457,244.548611 L787.947293,176.479167 L823.299324,244.951389 C823.972699,246.025468 824.848074,247.133096 825.925475,248.274306 C827.002875,249.415515 828.686288,249.986111 830.975765,249.986111 Z M957.031007,244.548611 L966.323541,201.652778 L1031.16927,116.0625 C1032.24667,114.585641 1032.65069,113.041675 1032.38134,111.430556 C1032.11199,109.819436 1030.89993,109.013889 1028.74513,109.013889 L998.443387,109.013889 C995.749885,109.013889 993.595116,109.685178 991.979015,111.027778 C990.362914,112.370377 989.352866,113.377311 988.948841,114.048611 L953.394798,162.986111 L937.839905,114.048611 C937.570555,113.377311 936.930858,112.370377 935.920795,111.027778 C934.910731,109.685178 933.058977,109.013889 930.365475,109.013889 L904.912013,109.013889 C903.161237,109.013889 901.713501,109.752307 900.568763,111.229167 C899.424025,112.706026 899.188347,114.317121 899.861723,116.0625 L928.345359,201.652778 L919.052825,244.548611 C918.783475,246.02547 919.08649,247.300921 919.961878,248.375 C920.837266,249.449079 922.015655,249.986111 923.497081,249.986111 L950.566636,249.986111 C952.048062,249.986111 953.428461,249.449079 954.707874,248.375 C955.987287,247.300921 956.761657,246.02547 957.031007,244.548611 Z M1052.55232,116.854167 L1037.80548,156.527778 C1037.26678,157.870377 1037.40145,159.011569 1038.2095,159.951389 C1039.01755,160.891208 1040.0276,161.361111 1041.23967,161.361111 L1056.39054,161.361111 C1059.08405,161.361111 1061.23881,160.622693 1062.85492,159.145833 C1064.47102,157.668974 1065.68307,156.259266 1066.49112,154.916667 L1090.73252,114.840278 C1091.54057,113.363419 1091.6079,112.020839 1090.93453,110.8125 C1090.26115,109.604161 1089.18377,109 1087.70234,109 L1062.85492,109 C1060.16141,109 1057.93931,109.839112 1056.18853,111.517361 C1054.43776,113.19561 1053.2257,114.974528 1052.55232,116.854167 Z M1157.83054,107 C1147.99926,107 1139.38019,108.074063 1131.97306,110.222222 C1124.56593,112.370381 1118.2363,115.324055 1112.98397,119.083333 C1107.73164,122.842611 1103.52311,127.239558 1100.35824,132.274306 C1097.19338,137.309053 1095.00494,142.712934 1093.79287,148.486111 C1091.23404,160.032465 1092.41243,169.497648 1097.32807,176.881944 C1102.24371,184.266241 1111.30047,189.43517 1124.49863,192.388889 C1131.50173,194.000008 1137.59569,195.376152 1142.78068,196.517361 C1147.96567,197.658571 1152.24154,198.833327 1155.60842,200.041667 C1158.97529,201.250006 1161.36574,202.559021 1162.77983,203.96875 C1164.19392,205.378479 1164.69894,207.090268 1164.29492,209.104167 C1163.35219,213.131965 1160.32205,215.917816 1155.20439,217.461806 C1150.08674,219.005795 1143.95912,219.777778 1136.82134,219.777778 C1132.78109,219.777778 1129.4816,219.307875 1126.92277,218.368056 C1124.36394,217.428236 1122.31018,216.320608 1120.76141,215.045139 C1119.21265,213.76967 1118.06793,212.527784 1117.32722,211.319444 C1116.5865,210.111105 1115.94681,209.238429 1115.40811,208.701389 C1114.60006,207.761569 1113.69101,207.056715 1112.68095,206.586806 C1111.67089,206.116896 1110.22315,205.881944 1108.3377,205.881944 L1081.87418,205.881944 C1080.79678,205.881944 1079.7194,206.318283 1078.64199,207.190972 C1077.56459,208.063662 1076.89123,209.104161 1076.62188,210.3125 C1076.21785,215.414377 1077.36257,220.482614 1080.05608,225.517361 C1082.74958,230.552109 1086.58776,235.016184 1091.57074,238.909722 C1096.55372,242.80326 1102.513,245.958321 1109.44876,248.375 C1116.38453,250.791679 1123.89255,252 1131.97306,252 C1152.17432,252 1168.09941,248.442165 1179.7488,241.326389 C1191.3982,234.210613 1198.70421,223.805624 1201.66706,210.111111 C1204.36056,197.490678 1202.74449,187.756979 1196.81878,180.909722 C1190.89308,174.062466 1180.85994,169.094923 1166.71906,166.006944 C1159.58128,164.530085 1153.62199,163.221071 1148.84103,162.079861 C1144.06006,160.938652 1140.28922,159.763895 1137.52838,158.555556 C1134.76754,157.347216 1132.91578,156.038201 1131.97306,154.628472 C1131.03033,153.218743 1130.76099,151.506955 1131.16501,149.493056 C1131.56904,147.479157 1132.44441,145.800933 1133.79116,144.458333 C1135.13791,143.115734 1136.82133,142.075235 1138.84145,141.336806 C1140.86158,140.598376 1143.08369,140.061344 1145.50784,139.725694 C1147.93199,139.390045 1150.42344,139.222222 1152.98227,139.222222 C1156.48382,139.222222 1159.37929,139.591431 1161.66876,140.329861 C1163.95824,141.068291 1165.77633,141.940967 1167.12308,142.947917 C1168.46983,143.954866 1169.47988,144.928236 1170.15325,145.868056 C1170.82663,146.807875 1171.36532,147.479165 1171.76935,147.881944 C1172.84675,148.956024 1173.89046,149.761571 1174.90053,150.298611 C1175.91059,150.835651 1177.35832,151.104167 1179.24377,151.104167 L1205.7073,151.104167 C1206.7847,151.104167 1207.86208,150.667828 1208.93948,149.795139 C1210.01688,148.922449 1210.69025,147.88195 1210.9596,146.673611 C1211.22895,142.243033 1210.15156,137.711829 1207.72741,133.079861 C1205.30326,128.447894 1201.73442,124.185205 1197.0208,120.291667 C1192.30717,116.398129 1186.61723,113.209503 1179.95082,110.725694 C1173.2844,108.241886 1165.91105,107 1157.83054,107 Z" id="Combined-Shape" fill="#D0021B"></path>
                <path d="M112.51418,0.229469446 C112.912598,0.145484496 113.308617,0.0625981337 113.716404,0 C113.586474,0.128 113.461184,0.256 113.317332,0.392 L112.371169,0.392 C110.99726,1.95446789 109.636976,3.53145932 108.298288,5.13917526 C107.527274,6.05154639 106.786694,7 106.030897,7.92783505 C105.249737,8.91237113 104.433071,9.88659794 103.667129,10.8814433 C102.769303,12.0257732 101.881621,13.1958763 101.009158,14.3556701 C100.380172,15.1907216 99.7461141,16.0154639 99.1222011,16.8556701 C98.290317,17.9845361 97.458433,19.1443299 96.6366939,20.3041237 C96.2308967,20.871134 95.8149547,21.4329897 95.4142301,22 C92.8830707,18.5154639 89.1395924,13.8865979 84.716404,10.0154639 C85.3656794,9.65979381 86.0098823,9.30412371 86.6591576,8.95876289 C87.7953895,8.36082474 88.916404,7.77319588 90.0526359,7.21649485 C90.9606069,6.77835052 91.8635054,6.3556701 92.766404,5.94845361 C94.4048098,5.22164948 96.058433,4.52061856 97.7171286,3.89175258 C98.3714765,3.6443299 99.0308967,3.41237113 99.6852446,3.17525773 C101.582346,2.5 103.494665,1.86082474 105.442491,1.30927835 C105.797563,1.21134021 106.162781,1.12886598 106.512781,1.03608247 C107.983795,0.634020619 109.485245,0.324742268 110.966404,0 L112.716404,0 C112.648964,0.076457588 112.581556,0.1529468 112.51418,0.229469543 Z M331.001547,188.018051 C331.001547,288.2542 294.269106,370.256795 247.776024,377.002038 L214.337926,377.002038 C213.588284,376.079916 212.808045,375.203646 212.068602,374.266241 C174.688511,327.034254 153.249779,263.840903 151.684201,196.322241 C149.889141,118.629673 174.979188,48.3548351 215.893305,0.552254054 L254.568695,0.552254054 C297.792931,13.8797135 331.001547,92.7236595 331.001547,188.018051 Z M1.22548821,173.434625 C16.9364356,175.859375 36.6241198,193.981458 45.5885408,203.741458 C45.6246461,204.544625 45.7020145,205.332542 45.7535935,206.125542 C45.9650672,209.277208 46.2229619,212.418708 46.5272777,215.534792 C46.6407514,216.597208 46.7284356,217.664708 46.8419093,218.722042 C47.0069619,220.135208 47.1823303,221.533125 47.3525408,222.936125 C47.538225,224.313708 47.7032777,225.681125 47.9044356,227.043458 C48.0849619,228.405792 48.2912777,229.752875 48.4924356,231.105042 C48.616225,231.786208 48.6987514,232.477542 48.812225,233.163792 C38.4035935,225.060958 19.8196987,212.439042 1.42148821,209.287375 C1.25127768,206.837208 1.09138294,204.392125 0.977909259,201.921625 C0.962435574,201.687792 0.94696189,201.459042 0.941803995,201.235375 C0.792225048,197.605875 0.714856627,193.961125 0.714856627,190.280792 C0.714856627,187.784875 0.766435574,185.304208 0.828330311,182.823542 C0.895382943,180.896958 0.972751364,178.985625 1.06043557,177.069208 C1.11717242,175.859375 1.15327768,174.639375 1.22548821,173.434625 Z M2.49058002,223.189838 C2.20671548,220.806661 1.93833446,218.413407 1.716404,216 C22.0307828,220.020666 43.1451436,236.576943 50.3088524,242.61298 C51.4546329,248.507942 52.8171827,254.312212 54.3345677,260.040905 C54.4429523,260.494364 54.5719817,260.942784 54.6958498,261.386166 C55.4029306,263.975918 56.1254949,266.540478 56.8945098,269.1 C57.1474073,269.951494 57.4157883,270.802989 57.673847,271.654483 C58.0299679,272.773015 58.3499607,273.891546 58.716404,275 C46.3141041,266.676516 24.6371755,253.652178 7.29563254,251.269001 C7.26982667,251.138002 7.23885963,251.007003 7.21305376,250.876003 C6.61435764,248.266097 6.05178973,245.630999 5.54083355,242.975747 C5.47373829,242.623057 5.40148187,242.255252 5.33954778,241.897523 C4.86471982,239.403501 4.4208589,236.894364 4.0131262,234.349957 C3.9150639,233.740307 3.82732395,233.115542 3.739584,232.510931 C3.38346303,230.1731 3.03250323,227.835269 2.73831635,225.467208 C2.64025405,224.711443 2.57831997,223.95064 2.49058002,223.189838 Z M19.5017082,92 C38.4858644,94.5621553 49.1246704,111.73636 52.716404,118.749936 C52.0495842,121.674417 51.4181262,124.624777 50.8422364,127.601018 C50.7715131,127.9944 50.6957381,128.403309 50.6149115,128.801867 C50.1501583,131.281205 49.6904568,133.765719 49.281272,136.265762 C48.9327071,138.279253 48.6447622,140.308273 48.3366107,142.332117 C48.225474,143.191345 48.0840274,144.050573 47.9728908,144.909801 C47.6394809,147.218328 47.3616394,149.537208 47.0989528,151.861264 C47.0383328,152.239118 46.9928678,152.611795 46.9575062,153 C40.0114671,143.67272 26.3871273,128.977853 8.716404,127.32151 C8.84774728,126.721086 9.00434889,126.115486 9.14074383,125.509885 C9.63580698,123.408401 10.1409735,121.32762 10.6916049,119.262367 C10.9542915,118.273738 11.2220297,117.290284 11.4897679,116.306831 C12.0302961,114.365804 12.5708242,112.440305 13.1416623,110.530335 C13.4700205,109.458888 13.8084821,108.382266 14.1418919,107.310819 C14.7076784,105.535426 15.2734648,103.775562 15.8645096,102.031226 C16.2534878,100.897667 16.6525693,99.7744591 17.0465992,98.6512516 C17.8447622,96.4100127 18.6530286,94.179126 19.5017082,92 Z M114.572895,374.752542 C115.285713,375.515254 116.013697,376.237288 116.716404,377 L98.2893003,377 C98.0870824,376.928814 97.8696982,376.862712 97.6674803,376.776271 C96.8990524,376.486441 96.1306245,376.191525 95.367252,375.886441 C94.7150994,375.616949 94.0629467,375.342373 93.4057386,375.057627 C92.6575325,374.732203 91.9143818,374.401695 91.1661757,374.061017 C90.5089676,373.761017 89.8669258,373.445763 89.2147732,373.125424 C88.4867889,372.769492 87.7537491,372.40339 87.0308202,372.032203 C86.3786675,371.691525 85.7366258,371.350847 85.094584,370.994915 C84.3716551,370.60339 83.6537817,370.19661 82.9409637,369.784746 C82.2989219,369.423729 81.6720465,369.047458 81.0451711,368.666102 C80.3272977,368.233898 79.6245906,367.791525 78.916828,367.338983 C78.2899526,366.942373 77.6681326,366.545763 77.0513681,366.128814 C76.348661,365.661017 75.6712311,365.183051 74.968524,364.7 C74.3669258,364.272881 73.7451059,363.845763 73.1435077,363.413559 C72.4357452,362.9 71.7482044,362.366102 71.0657191,361.837288 C70.4691763,361.394915 69.8928554,360.962712 69.311479,360.5 C68.5885501,359.935593 67.9010093,359.350847 67.1932468,358.766102 C66.6422031,358.313559 66.0911594,357.876271 65.5502266,357.40339 C64.8171868,356.777966 64.084147,356.116949 63.3561626,355.461017 C62.8607288,355.018644 62.3551842,354.581356 61.8698613,354.133898 C61.0104353,353.335593 60.1611202,352.50678 59.3219161,351.688136 C58.9781457,351.347458 58.6242644,351.027119 58.2754386,350.686441 C57.0772977,349.481356 55.8842122,348.255932 54.716404,347 C87.0409311,356.177966 114.183625,374.325424 114.572895,374.752542 Z M69.9216498,67 C65.3616753,60.1509013 56.9223961,50.0654154 44.716404,45.6900204 C45.0081195,45.3136963 45.2895994,44.9373722 45.5761972,44.5710834 C46.3489874,43.5976584 47.1217777,42.6292511 47.894568,41.685932 C48.4933525,40.9433191 49.1177261,40.2257945 49.7267462,39.5082698 C50.4688296,38.6301803 51.2313843,37.762126 51.9939389,36.904107 C52.6848441,36.1364059 53.3962206,35.3687047 54.1075971,34.6060212 C54.7933845,33.8634083 55.4894075,33.1308307 56.1956662,32.3982531 C57.0247524,31.5502695 57.8640743,30.7173388 58.7136318,29.8944434 C59.3175342,29.3023602 59.9112009,28.7203122 60.520221,28.1432819 C61.5181952,27.2049805 62.5366407,26.2867497 63.5499683,25.3835718 C64.0361609,24.9671065 64.4967644,24.5406058 64.9778391,24.1241405 C66.1856438,23.0905036 67.3985663,22.0919903 68.6268422,21.1135477 C68.939029,20.8576473 69.2563336,20.5967292 69.5787561,20.3558818 C70.9963912,19.2369448 72.4498511,18.1631667 73.8981931,17.1245122 C74.041492,17.0291767 74.179673,16.923806 74.3127362,16.8234529 C75.935084,15.6794276 77.5727853,14.5805612 79.2360756,13.5368891 C79.5073199,13.3662888 79.783682,13.1706003 80.0549262,13 C85.0806219,16.8836647 89.7838952,22.5536146 92.716404,26.6430032 C88.3457888,32.9602304 84.2413,39.5283405 80.4131734,46.3222449 C78.9085354,48.9816019 77.4909002,51.7112061 76.0630294,54.4408103 C75.6945467,55.1583349 75.295357,55.8658242 74.9268742,56.5933841 C73.3812936,59.6240476 71.9278338,62.7099052 70.4846096,65.8158335 C70.3106038,66.2122282 70.111009,66.5985876 69.9216498,67 Z M40.7621105,52 C54.5232826,56.2056824 63.4326615,69.4394283 66.716404,75.1059787 C66.0036537,76.8195921 65.331632,78.5635349 64.6494281,80.3074778 C63.9112224,82.1727384 63.18829,84.0531637 62.5060861,85.9487537 C61.6202393,88.3245599 60.7649389,90.700366 59.9605493,93.1065017 C59.7110867,93.8192435 59.5023526,94.5471501 59.2477989,95.2649468 C58.4077718,97.8378944 57.5982911,100.441171 56.8193568,103.054558 C56.6411692,103.666202 56.4731638,104.272791 56.2898852,104.894544 C55.8062332,106.587938 55.2920347,108.281332 54.8389292,110 C49.1165624,101.431933 38.2623934,89.1940038 21.716404,86.2924874 C21.9709577,85.7212829 22.2153292,85.1601883 22.4647918,84.5990936 C23.4524601,82.3951543 24.4503105,80.2215444 25.4888896,78.0833188 C25.9470862,77.1431062 26.4256471,76.2231131 26.8889348,75.2980652 C27.871512,73.356981 28.8693625,71.4361164 29.9028504,69.5556911 C30.493415,68.4739411 31.0890706,67.4225205 31.7050905,66.3609901 C32.6469391,64.7029807 33.6193342,63.0500261 34.6070025,61.432456 C35.3299349,60.2698274 36.0528674,59.1173087 36.7961641,57.9799547 C38.0892969,55.957992 39.3875206,53.9360293 40.7621105,52 Z M18.104404,302.003556 C18.148404,302.071556 18.180404,302.131556 18.212404,302.207556 L17.716404,302.003556 C17.852404,302.003556 17.972404,301.995556 18.104404,302.003556 Z M124.86193,336.112245 C134.112302,350.903061 144.742339,364.647959 156.716404,377 L125.701947,377 C111.30456,362.244898 89.0975576,329.045918 87.7942581,327.397959 C79.7148191,313.484694 72.9183155,298.658163 67.3843834,283.188776 C67.3843834,283.188776 67.3029272,282.841837 66.7174606,281.352041 C62.1660942,268.346939 58.5260193,254.897959 55.8939651,241.107143 C55.8939651,241.107143 51.8669731,214.678571 51.1847773,202.05102 C51.1847773,202.05102 50.716404,191.30102 50.716404,186.234694 C50.716404,163.418367 53.4757335,140.867347 58.6431126,119.163265 C58.6431126,119.163265 67.1909249,88.8265306 72.9335886,75.1632653 L73.3408697,74.9846939 C73.3103236,74.9183673 73.2441404,74.7908163 73.1881393,74.6326531 C84.3578237,48.244898 99.4628619,24.0867347 118.019607,3.56122449 L121.242219,0 L152.582501,0 C143.276127,10.1122449 134.763952,21.0561224 127.183432,32.7295918 C125.259029,35.2244898 123.095348,39.3469388 123.095348,39.3469388 C115.896655,51.2295918 102.838204,80.1938776 102.838204,80.1938776 C97.1159045,94.7755102 90.2735818,122.653061 88.5324551,129.515306 C86.7964194,136.382653 83.5228974,169.872449 83.5228974,169.872449 C83.2123456,175.306122 83.0188871,180.755102 83.0188871,186.234694 C83.0188871,195.887755 84.6174654,216.734694 84.6174654,216.734694 C85.9869482,230.05102 91.7245208,257.484694 91.7245208,257.484694 C95.3085946,271.903061 100.012691,285.867347 105.704445,299.270408 L106.452824,301.005102 C111.574384,312.826531 117.469778,324.183673 124.144097,334.964286 C124.607379,335.658163 124.86193,336.112245 124.86193,336.112245 Z M6.66487196,133 C26.89282,134.421057 42.080378,155.915822 45.716404,161.543821 C45.7112972,161.697172 45.7061904,161.860747 45.6806565,162.01921 C45.3640363,165.970566 45.0882703,169.937258 44.9197466,173.939731 C44.7410094,178.141562 44.6439806,182.363839 44.6439806,186.621898 C44.6439806,189.42823 44.6848348,192.219227 44.7665433,195 C35.3904987,185.548438 17.7670075,169.952593 1.716404,167.682991 C1.762365,167.059362 1.81343278,166.435733 1.86960734,165.812103 C2.04834457,163.752082 2.23729536,161.686949 2.45178004,159.637151 C2.54880882,158.773271 2.66626472,157.914502 2.75818673,157.060846 C2.9982053,154.985489 3.26375776,152.920356 3.54463055,150.87567 C3.66719322,150.006678 3.80507623,149.137687 3.94295924,148.263583 C4.23404559,146.264902 4.54555906,144.286668 4.88260641,142.313546 C5.05623686,141.383214 5.22476054,140.452882 5.40349777,139.522549 C5.79161291,137.339847 6.20526193,135.152032 6.66487196,133 Z M30.2363936,311.584364 C28.6904855,308.781821 27.165053,305.933832 25.716404,303 C46.4735478,307.58506 74.5865524,325.177956 83.9541413,331.32335 C87.4503507,337.150618 91.1666729,342.79105 95.0672755,348.259795 C95.6303546,349.067735 96.2190282,349.855476 96.802583,350.658367 C98.4150368,352.865053 100.063323,355.046491 101.742322,357.192582 C102.458969,358.111614 103.15002,359.030646 103.882023,359.934529 C104.168682,360.282953 104.434864,360.651576 104.716404,361 C92.2723555,353.728539 71.8786537,343.533345 48.4187302,338.453422 C48.4033735,338.423124 48.3726601,338.392826 48.3419467,338.357479 C46.4018832,336.014452 44.5283654,333.570434 42.685561,331.065819 C42.4398537,330.732544 42.1839087,330.409368 41.9433203,330.065993 C40.2489641,327.733066 38.6160347,325.314296 37.0138186,322.839979 C36.6350199,322.259272 36.2511024,321.688664 35.8825415,321.102908 C34.4031791,318.77503 32.9698868,316.381508 31.5877835,313.942539 C31.1322013,313.154797 30.681738,312.377155 30.2363936,311.584364 Z M10.6481354,265.012494 C9.98184303,262.681811 9.31555064,260.371572 8.716404,258 C26.2982589,261.470469 50.119503,276.752799 61.9784745,285.487749 C62.8100487,287.782655 63.6932735,290.041782 64.5816634,292.30602 C64.8605765,293.02158 65.1188293,293.757586 65.4080725,294.473146 C66.7664826,297.846503 68.1868733,301.17386 69.6589147,304.465439 C70.1289349,305.518335 70.6196153,306.540565 71.0999656,307.573016 C72.1639674,309.893477 73.2589596,312.188382 74.3901071,314.457732 C74.9685935,315.643518 75.5677402,316.803748 76.182382,317.96909 C76.6937227,318.975986 77.1844031,320.008437 77.716404,321 C63.3885351,312.270161 40.1302823,299.56896 22.2230287,296.911163 C21.7116881,295.771378 21.2055125,294.641814 20.7045019,293.491806 C20.1415107,292.147574 19.5630243,290.813565 19.0051981,289.454 C18.3182455,287.741765 17.6416229,285.998864 16.9908257,284.255963 C16.4175044,282.743063 15.8493481,281.230164 15.296687,279.691709 C14.7336957,278.09192 14.1965298,276.456352 13.6541987,274.825896 C13.0912075,273.093218 12.5127211,271.370761 11.9807202,269.607415 C11.5210301,268.089405 11.0820002,266.545838 10.6481354,265.012494 Z M175.782731,48.982316 C171.532731,48.3970337 145.410282,45.9429549 114.716404,69 C118.144975,61.5196805 121.859261,54.2395893 125.90518,47.236737 C125.997016,47.0775813 126.083751,46.9184256 126.170486,46.7592698 C127.879669,43.8277239 129.629669,40.9269823 131.445996,38.0878494 L131.440894,38.0878494 C131.593955,37.8414147 131.73171,37.589846 131.889873,37.3434113 C150.298037,21.3970337 181.308241,16.473474 195.716404,15 C188.400077,25.5915573 181.7062,36.9224187 175.782731,48.982316 Z M158.6084,90.7840337 C129.470867,89.6932537 109.075103,104.49816 97.716404,116 C98.0422475,114.729984 98.3324518,113.465089 98.6684779,112.220678 C98.8619474,111.462765 99.0655996,110.704852 99.2794343,109.957181 C100.139865,106.77702 101.061391,103.622463 102.03383,100.508875 C102.105108,100.278429 102.166204,100.053103 102.247665,99.8175359 C104.330008,93.2114033 106.666917,86.7486598 109.207477,80.419063 C138.273732,54.1891322 164.962348,53.6104555 172.716404,54.0867116 C167.304348,65.7575457 162.574526,78.0070565 158.6084,90.7840337 Z M150.504991,132.460716 C123.484309,129.96886 102.519545,147.366272 91.716404,159 C92.6812451,148.586876 94.1849601,138.356084 96.2532098,128.373464 C103.294497,119.403794 124.685228,96.5263233 158.716404,97.0074744 C155.33946,108.469001 152.578373,120.300254 150.504991,132.460716 Z M206.716404,0 C204.576906,2.62624474 202.498536,5.32883381 200.440542,8.07213985 C191.39352,8.65744634 163.809272,11.3396769 141.716404,23 C142.006764,22.5979199 142.292031,22.1856605 142.587486,21.7886701 C143.28537,20.8776278 143.988348,19.9716751 144.686232,19.0809914 C145.878238,17.5490153 147.075338,16.032308 148.292815,14.5410489 C149.107862,13.5485727 149.928003,12.5510069 150.758332,11.5636203 C152.036937,10.046913 153.335918,8.55565391 154.639993,7.08475326 C155.368442,6.26532419 156.076514,5.43571587 156.81515,4.6417349 C158.256764,3.05886258 159.744225,1.5319761 161.21131,0 L206.716404,0 Z M144.296929,174.294782 C122.492026,168.365141 100.140211,192.405583 89.5597723,206 C89.4013213,203.963101 89.2428703,201.931231 89.1406438,199.879243 C89.1048645,199.004131 89.033306,198.129019 89.0077494,197.248877 C88.8186305,193.270636 88.716404,189.267249 88.716404,185.243744 C88.716404,182.301556 88.7828512,179.379486 88.8850777,176.462445 C88.890189,176.321622 88.9004116,176.1808 88.9004116,176.050036 C89.0077494,173.635933 89.1201985,171.226859 89.2633155,168.832874 C96.0869316,160.287955 118.387633,135.769722 147.716404,138.163708 C145.92233,149.942518 144.772282,162.002974 144.296929,174.294782 Z M147.716404,218.061812 C124.018487,214.452272 105.554946,236.313154 96.9924457,249 C96.7111957,247.747607 96.419529,246.505395 96.1591123,245.247911 C96.0028623,244.575895 95.8674457,243.914061 95.7372373,243.247136 C95.278904,241.001992 94.857029,238.741575 94.450779,236.476067 C94.3153623,235.692048 94.1747373,234.918212 94.028904,234.144375 C93.6591123,231.965414 93.341404,229.77118 93.0236957,227.571856 C92.732029,225.560899 92.4716123,223.534669 92.2268207,221.503348 C92.044529,220.072769 91.8518207,218.632007 91.716404,217.191246 C98.8361957,207.248465 124.315362,174.54878 146.487237,182.129323 C146.398696,187.026894 146.372654,191.94992 146.487237,196.908583 C146.653904,204.020752 147.101821,211.056555 147.716404,218.061812 Z M181.716404,341.095129 C170.305657,342.296954 160.947638,358.016615 156.495031,367 C155.534074,365.924418 154.573116,364.848835 153.62222,363.758104 C152.580763,362.576478 151.544337,361.404952 150.528036,360.193028 C149.149489,358.546832 147.801129,356.840039 146.462832,355.148396 C145.582373,354.042515 144.696883,352.966933 143.846611,351.845903 C141.864321,349.255416 139.932343,346.604333 138.045645,343.912852 C137.864522,343.655318 137.673337,343.412934 137.497245,343.16045 C135.514955,340.29728 133.603102,337.378563 131.716404,334.40935 C134.800526,326.264212 144.737133,305.272683 165.284526,305 C169.993723,317.543411 175.472693,329.607102 181.716404,341.095129 Z M184.910395,346 C191.18253,356.905321 198.112725,367.283047 205.716404,377 L165.739253,377 C164.03241,375.350628 162.371836,373.650033 160.716404,371.928949 C165.307401,362.35542 175.584449,345.25727 184.74588,346.932254 L184.910395,346 Z M161.716404,298.597736 C141.702274,300.014465 130.998802,317.38993 126.305625,328 C125.639496,326.850191 124.963275,325.705515 124.312286,324.540306 C123.959036,323.92947 123.610833,323.323767 123.267676,322.712931 C122.076719,320.546772 120.900901,318.344682 119.765455,316.132326 C119.558552,315.731946 119.346602,315.336699 119.139698,314.941453 C116.515556,309.772444 114.03776,304.475109 111.716404,299.069979 C115.264042,289.070745 127.804414,259.796808 151.6942,263.2873 C154.399085,275.375696 157.744866,287.166374 161.716404,298.597736 Z M150.716404,257.158989 C127.874279,255.291688 114.597736,277.653387 108.763337,291 C108.389208,290.045942 108.015078,289.102087 107.640948,288.142927 C107.105033,286.745002 106.574174,285.341975 106.058482,283.923642 C105.466953,282.306335 104.905758,280.663518 104.34962,279.025802 C103.854151,277.58196 103.34857,276.153423 102.883436,274.704479 C102.317186,272.980031 101.796438,271.235176 101.280746,269.490321 C100.507208,266.949566 99.7741165,264.398608 99.0814712,261.832344 C98.621393,260.1181 98.1512032,258.41406 97.716404,256.689613 C103.212064,247.261271 122.034824,218.629317 145.569595,223.567972 C146.742542,234.955449 148.451404,246.169461 150.716404,257.158989 Z M168.27831,187.264051 C168.27831,273.989335 200.426208,344.289646 240.070523,344.289646 C279.719938,344.289646 311.862737,273.989335 311.862737,187.264051 C311.862737,100.538768 279.719938,30.2435514 240.070523,30.2435514 C200.426208,30.2435514 168.27831,100.538768 168.27831,187.264051 Z M239.216404,59 C268.761867,59 292.716404,115.638599 292.716404,185.505092 C292.716404,255.366492 268.761867,312 239.216404,312 C209.676056,312 185.716404,255.366492 185.716404,185.505092 C185.716404,115.638599 209.676056,59 239.216404,59 Z" id="Fill-40" fill="#000000" transform="translate(165.858202, 188.501019) scale(-1, 1) translate(-165.858202, -188.501019) "></path>
                <path d="M368.789992,318 C369.643329,318 370.283323,318.226664 370.709992,318.68 C371.13666,319.133336 371.50999,319.813329 371.829992,320.72 L391.429992,371.28 C391.483325,371.440001 391.509992,371.626666 391.509992,371.84 C391.509992,372.42667 391.29666,372.933331 390.869992,373.36 C390.443323,373.786669 389.936661,374 389.349992,374 L383.589992,374 C382.52332,374 381.77666,373.773336 381.349992,373.32 C380.923323,372.866664 380.629992,372.426669 380.469992,372 L377.029992,363.12 L351.749992,363.12 L348.309992,372 C348.149991,372.426669 347.85666,372.866664 347.429992,373.32 C347.003323,373.773336 346.256664,374 345.189992,374 L339.429992,374 C338.843322,374 338.33666,373.786669 337.909992,373.36 C337.483323,372.933331 337.269992,372.42667 337.269992,371.84 C337.269992,371.626666 337.296658,371.440001 337.349992,371.28 L356.949992,320.72 C357.269993,319.813329 357.643323,319.133336 358.069992,318.68 C358.49666,318.226664 359.136654,318 359.989992,318 L368.789992,318 Z M473.819992,318 C474.406662,318 474.913324,318.213331 475.339992,318.64 C475.766661,319.066669 475.979992,319.57333 475.979992,320.16 L475.979992,352.96 C475.979992,356.266683 475.499997,359.25332 474.539992,361.92 C473.579988,364.58668 472.140002,366.87999 470.219992,368.8 C468.299983,370.72001 465.900007,372.199995 463.019992,373.24 C460.139978,374.280005 456.806678,374.8 453.019992,374.8 C449.179973,374.8 445.83334,374.280005 442.979992,373.24 C440.126645,372.199995 437.740002,370.72001 435.819992,368.8 C433.899983,366.87999 432.47333,364.58668 431.539992,361.92 C430.606654,359.25332 430.139992,356.266683 430.139992,352.96 L430.139992,320.16 C430.139992,319.57333 430.353324,319.066669 430.779992,318.64 C431.206661,318.213331 431.713323,318 432.299992,318 L438.779992,318 C439.366662,318 439.873324,318.213331 440.299992,318.64 C440.726661,319.066669 440.939992,319.57333 440.939992,320.16 L440.939992,352.56 C440.939992,354.746678 441.233323,356.613326 441.819992,358.16 C442.406662,359.706674 443.23332,360.973328 444.299992,361.96 C445.366664,362.946672 446.646652,363.666664 448.139992,364.12 C449.633333,364.573336 451.259984,364.8 453.019992,364.8 C454.780001,364.8 456.419985,364.573336 457.939992,364.12 C459.46,363.666664 460.75332,362.946672 461.819992,361.96 C462.886664,360.973328 463.726656,359.706674 464.339992,358.16 C464.953329,356.613326 465.259992,354.746678 465.259992,352.56 L465.259992,320.16 C465.259992,319.57333 465.473324,319.066669 465.899992,318.64 C466.326661,318.213331 466.833323,318 467.419992,318 L473.819992,318 Z M558.289993,318 C558.876663,318 559.383324,318.213331 559.809993,318.64 C560.236662,319.066669 560.449993,319.57333 560.449993,320.16 L560.449993,325.84 C560.449993,326.42667 560.236662,326.933331 559.809993,327.36 C559.383324,327.786669 558.876663,328 558.289993,328 L543.889993,328 L543.889993,371.84 C543.889993,372.42667 543.676662,372.933331 543.249993,373.36 C542.823324,373.786669 542.316663,374 541.729993,374 L535.249993,374 C534.663324,374 534.156662,373.786669 533.729993,373.36 C533.303324,372.933331 533.089993,372.42667 533.089993,371.84 L533.089993,328 L518.689993,328 C518.103324,328 517.596662,327.786669 517.169993,327.36 C516.743324,326.933331 516.529993,326.42667 516.529993,325.84 L516.529993,320.16 C516.529993,319.57333 516.743324,319.066669 517.169993,318.64 C517.596662,318.213331 518.103324,318 518.689993,318 L558.289993,318 Z M598.359994,338.88 C598.519995,335.893318 599.093322,333.080013 600.079994,330.44 C601.066665,327.799987 602.519984,325.506676 604.439994,323.56 C606.360003,321.613324 608.759979,320.066672 611.639994,318.92 C614.520008,317.773328 617.933307,317.2 621.879994,317.2 C625.773347,317.2 629.159979,317.759994 632.039994,318.88 C634.920008,320.000006 637.319984,321.546657 639.239994,323.52 C641.160003,325.493343 642.626655,327.786654 643.639994,330.4 C644.653332,333.013346 645.239993,335.839985 645.399994,338.88 C645.453327,339.893338 645.493327,341.013327 645.519994,342.24 C645.546661,343.466673 645.559994,344.733327 645.559994,346.04 C645.559994,347.346673 645.546661,348.613327 645.519994,349.84 C645.493327,351.066673 645.453327,352.186662 645.399994,353.2 C645.239993,356.186682 644.666665,358.999987 643.679994,361.64 C642.693322,364.280013 641.240003,366.573324 639.319994,368.52 C637.399984,370.466676 634.986675,371.999994 632.079994,373.12 C629.173313,374.240006 625.773347,374.8 621.879994,374.8 C617.933307,374.8 614.520008,374.240006 611.639994,373.12 C608.759979,371.999994 606.360003,370.466676 604.439994,368.52 C602.519984,366.573324 601.066665,364.280013 600.079994,361.64 C599.093322,358.999987 598.519995,356.186682 598.359994,353.2 C598.30666,352.186662 598.266661,351.066673 598.239994,349.84 C598.213327,348.613327 598.199994,347.346673 598.199994,346.04 C598.199994,344.733327 598.213327,343.466673 598.239994,342.24 C598.266661,341.013327 598.30666,339.893338 598.359994,338.88 Z M759.299995,317.2 C762.873347,317.2 766.019982,317.679995 768.739995,318.64 C771.460009,319.600005 773.726653,320.799993 775.539995,322.24 C777.353338,323.680007 778.726657,325.266658 779.659995,327 C780.593333,328.733342 781.113328,330.373326 781.219995,331.92 C781.273329,332.560003 781.073331,333.079998 780.619995,333.48 C780.16666,333.880002 779.646665,334.08 779.059995,334.08 L773.459995,334.08 C772.553324,334.08 771.873331,333.906668 771.419995,333.56 C770.96666,333.213332 770.553331,332.74667 770.179995,332.16 C769.379991,330.82666 768.16667,329.666672 766.539995,328.68 C764.913321,327.693328 762.500011,327.2 759.299995,327.2 C757.913322,327.2 756.593335,327.346665 755.339995,327.64 C754.086656,327.933335 752.993333,328.359997 752.059995,328.92 C751.126657,329.480003 750.393331,330.159996 749.859995,330.96 C749.326659,331.760004 749.059995,332.666662 749.059995,333.68 C749.059995,334.906673 749.313326,335.906663 749.819995,336.68 C750.326665,337.453337 751.179989,338.119997 752.379995,338.68 C753.580001,339.240003 755.166652,339.759998 757.139995,340.24 C759.113339,340.720002 761.566647,341.279997 764.499995,341.92 C767.700011,342.613337 770.459984,343.426662 772.779995,344.36 C775.100007,345.293338 776.993321,346.413327 778.459995,347.72 C779.926669,349.026673 781.019992,350.533325 781.739995,352.24 C782.459999,353.946675 782.819995,355.893322 782.819995,358.08 C782.819995,360.480012 782.286667,362.706656 781.219995,364.76 C780.153323,366.813344 778.633339,368.573326 776.659995,370.04 C774.686652,371.506674 772.26001,372.666662 769.379995,373.52 C766.499981,374.373338 763.273347,374.8 759.699995,374.8 C756.713314,374.8 753.860009,374.440004 751.139995,373.72 C748.419982,372.999996 746.006673,371.960007 743.899995,370.6 C741.793318,369.239993 740.100002,367.60001 738.819995,365.68 C737.539989,363.75999 736.819996,361.626678 736.659995,359.28 C736.606662,358.639997 736.80666,358.120002 737.259995,357.72 C737.713331,357.319998 738.233326,357.12 738.819995,357.12 L744.419995,357.12 C745.326667,357.12 746.019993,357.279998 746.499995,357.6 C746.979998,357.920002 747.379994,358.399997 747.699995,359.04 C748.073331,359.733337 748.526659,360.426663 749.059995,361.12 C749.593331,361.813337 750.313324,362.426664 751.219995,362.96 C752.126667,363.493336 753.259989,363.933332 754.619995,364.28 C755.980002,364.626668 757.673319,364.8 759.699995,364.8 C761.300003,364.8 762.846655,364.680001 764.339995,364.44 C765.833336,364.199999 767.13999,363.800003 768.259995,363.24 C769.380001,362.679997 770.286659,361.986671 770.979995,361.16 C771.673332,360.333329 772.019995,359.306673 772.019995,358.08 C772.019995,356.906661 771.646666,355.94667 770.899995,355.2 C770.153325,354.45333 769.020003,353.813336 767.499995,353.28 C765.979988,352.746664 764.100007,352.240002 761.859995,351.76 C759.619984,351.279998 757.033343,350.66667 754.099995,349.92 C751.433315,349.279997 749.100005,348.520004 747.099995,347.64 C745.099985,346.759996 743.446669,345.680006 742.139995,344.4 C740.833322,343.119994 739.859999,341.613342 739.219995,339.88 C738.579992,338.146658 738.259995,336.080012 738.259995,333.68 C738.259995,331.279988 738.793323,329.066677 739.859995,327.04 C740.926667,325.013323 742.393319,323.280007 744.259995,321.84 C746.126671,320.399993 748.353316,319.266671 750.939995,318.44 C753.526675,317.613329 756.313314,317.2 759.299995,317.2 Z M862.169996,364 C862.756666,364 863.263327,364.213331 863.689996,364.64 C864.116665,365.066669 864.329996,365.57333 864.329996,366.16 L864.329996,371.84 C864.329996,372.42667 864.116665,372.933331 863.689996,373.36 C863.263327,373.786669 862.756666,374 862.169996,374 L827.049996,374 C826.463327,374 825.956665,373.786669 825.529996,373.36 C825.103327,372.933331 824.889996,372.42667 824.889996,371.84 L824.889996,320.16 C824.889996,319.57333 825.103327,319.066669 825.529996,318.64 C825.956665,318.213331 826.463327,318 827.049996,318 L861.529996,318 C862.116666,318 862.623327,318.213331 863.049996,318.64 C863.476665,319.066669 863.689996,319.57333 863.689996,320.16 L863.689996,325.84 C863.689996,326.42667 863.476665,326.933331 863.049996,327.36 C862.623327,327.786669 862.116666,328 861.529996,328 L835.689996,328 L835.689996,340.72 L859.769996,340.72 C860.356666,340.72 860.863327,340.933331 861.289996,341.36 C861.716665,341.786669 861.929996,342.29333 861.929996,342.88 L861.929996,348.56 C861.929996,349.14667 861.716665,349.653331 861.289996,350.08 C860.863327,350.506669 860.356666,350.72 859.769996,350.72 L835.689996,350.72 L835.689996,364 L862.169996,364 Z M929.999997,318 C936.666697,318 941.733313,319.546651 945.199997,322.64 C948.666681,325.733349 950.399997,330.026639 950.399997,335.52 C950.399997,339.413353 949.506673,342.73332 947.719997,345.48 C945.933321,348.22668 943.306681,350.26666 939.839997,351.6 L950.879997,371.36 C951.039998,371.680002 951.119997,371.973332 951.119997,372.24 C951.119997,372.720002 950.946665,373.133332 950.599997,373.48 C950.253329,373.826668 949.839999,374 949.359997,374 L942.559997,374 C941.493325,374 940.706666,373.746669 940.199997,373.24 C939.693328,372.733331 939.333331,372.266669 939.119997,371.84 L928.639997,353.2 L917.999997,353.2 L917.999997,371.84 C917.999997,372.42667 917.786666,372.933331 917.359997,373.36 C916.933328,373.786669 916.426667,374 915.839997,374 L909.359997,374 C908.773327,374 908.266666,373.786669 907.839997,373.36 C907.413328,372.933331 907.199997,372.42667 907.199997,371.84 L907.199997,320.16 C907.199997,319.57333 907.413328,319.066669 907.839997,318.64 C908.266666,318.213331 908.773327,318 909.359997,318 L929.999997,318 Z M1012.23,358.16 L1025.67,320 C1025.83,319.573331 1026.11,319.133336 1026.51,318.68 C1026.91,318.226664 1027.50999,318 1028.31,318 L1034.39,318 C1034.97667,318 1035.48333,318.213331 1035.91,318.64 C1036.33667,319.066669 1036.55,319.57333 1036.55,320.16 L1036.55,320.44 C1036.55,320.52 1036.49666,320.693332 1036.39,320.96 L1018.47,371.28 C1018.15,372.186671 1017.77667,372.866664 1017.35,373.32 C1016.92333,373.773336 1016.28334,374 1015.43,374 L1009.03,374 C1008.17666,374 1007.53667,373.773336 1007.11,373.32 C1006.68333,372.866664 1006.31,372.186671 1005.99,371.28 L988.069998,320.96 C987.963331,320.693332 987.909998,320.52 987.909998,320.44 L987.909998,320.16 C987.909998,319.57333 988.123329,319.066669 988.549998,318.64 C988.976667,318.213331 989.483328,318 990.069998,318 L996.149998,318 C996.950002,318 997.549996,318.226664 997.949998,318.68 C998.35,319.133336 998.629997,319.573331 998.789998,320 L1012.23,358.16 Z M1080.14,374 C1079.55333,374 1079.04667,373.786669 1078.62,373.36 C1078.19333,372.933331 1077.98,372.42667 1077.98,371.84 L1077.98,320.16 C1077.98,319.57333 1078.19333,319.066669 1078.62,318.64 C1079.04667,318.213331 1079.55333,318 1080.14,318 L1086.62,318 C1087.20667,318 1087.71333,318.213331 1088.14,318.64 C1088.56667,319.066669 1088.78,319.57333 1088.78,320.16 L1088.78,371.84 C1088.78,372.42667 1088.56667,372.933331 1088.14,373.36 C1087.71333,373.786669 1087.20667,374 1086.62,374 L1080.14,374 Z M1168.61,356.24 C1168.71667,355.546663 1168.99666,355.026668 1169.45,354.68 C1169.90333,354.333332 1170.39666,354.16 1170.93,354.16 L1177.41,354.16 C1177.99667,354.16 1178.51666,354.359998 1178.97,354.76 C1179.42333,355.160002 1179.62333,355.679997 1179.57,356.32 C1179.41,358.506678 1178.86334,360.693322 1177.93,362.88 C1176.99666,365.066678 1175.57001,367.039991 1173.65,368.8 C1171.72999,370.560009 1169.30335,371.999994 1166.37,373.12 C1163.43665,374.240006 1159.89002,374.8 1155.73,374.8 C1152.04998,374.8 1148.79668,374.253339 1145.97,373.16 C1143.14332,372.066661 1140.74334,370.546676 1138.77,368.6 C1136.79666,366.653324 1135.26334,364.320014 1134.17,361.6 C1133.07666,358.879986 1132.42333,355.920016 1132.21,352.72 C1132.10333,350.693323 1132.05,348.453346 1132.05,346 C1132.05,343.546654 1132.10333,341.306677 1132.21,339.28 C1132.42333,336.079984 1133.07666,333.120014 1134.17,330.4 C1135.26334,327.679986 1136.79666,325.346676 1138.77,323.4 C1140.74334,321.453324 1143.14332,319.933339 1145.97,318.84 C1148.79668,317.746661 1152.04998,317.2 1155.73,317.2 C1159.89002,317.2 1163.43665,317.759994 1166.37,318.88 C1169.30335,320.000006 1171.72999,321.439991 1173.65,323.2 C1175.57001,324.960009 1176.99666,326.946656 1177.93,329.16 C1178.86334,331.373344 1179.41,333.546656 1179.57,335.68 C1179.62333,336.320003 1179.42333,336.839998 1178.97,337.24 C1178.51666,337.640002 1177.99667,337.84 1177.41,337.84 L1170.93,337.84 C1170.39666,337.84 1169.89,337.666668 1169.41,337.32 C1168.93,336.973332 1168.63667,336.453337 1168.53,335.76 C1168.37,334.693328 1167.99667,333.653338 1167.41,332.64 C1166.82333,331.626662 1166.02334,330.720004 1165.01,329.92 C1163.99666,329.119996 1162.71667,328.466669 1161.17,327.96 C1159.62332,327.453331 1157.81001,327.2 1155.73,327.2 C1153.64999,327.2 1151.83667,327.519997 1150.29,328.16 C1148.74332,328.800003 1147.45,329.653328 1146.41,330.72 C1145.36999,331.786672 1144.57,333.066659 1144.01,334.56 C1143.45,336.053341 1143.11667,337.626658 1143.01,339.28 C1142.90333,341.306677 1142.85,343.546654 1142.85,346 C1142.85,348.453346 1142.90333,350.693323 1143.01,352.72 C1143.11667,354.426675 1143.45,356.013326 1144.01,357.48 C1144.57,358.946674 1145.36999,360.213328 1146.41,361.28 C1147.45,362.346672 1148.74332,363.199997 1150.29,363.84 C1151.83667,364.480003 1153.64999,364.8 1155.73,364.8 C1157.81001,364.8 1159.62332,364.546669 1161.17,364.04 C1162.71667,363.533331 1164.00999,362.880004 1165.05,362.08 C1166.09,361.279996 1166.90333,360.373338 1167.49,359.36 C1168.07667,358.346662 1168.45,357.306672 1168.61,356.24 Z M1259.16,364 C1259.74667,364 1260.25333,364.213331 1260.68,364.64 C1261.10667,365.066669 1261.32,365.57333 1261.32,366.16 L1261.32,371.84 C1261.32,372.42667 1261.10667,372.933331 1260.68,373.36 C1260.25333,373.786669 1259.74667,374 1259.16,374 L1224.04,374 C1223.45333,374 1222.94667,373.786669 1222.52,373.36 C1222.09333,372.933331 1221.88,372.42667 1221.88,371.84 L1221.88,320.16 C1221.88,319.57333 1222.09333,319.066669 1222.52,318.64 C1222.94667,318.213331 1223.45333,318 1224.04,318 L1258.52,318 C1259.10667,318 1259.61333,318.213331 1260.04,318.64 C1260.46667,319.066669 1260.68,319.57333 1260.68,320.16 L1260.68,325.84 C1260.68,326.42667 1260.46667,326.933331 1260.04,327.36 C1259.61333,327.786669 1259.10667,328 1258.52,328 L1232.68,328 L1232.68,340.72 L1256.76,340.72 C1257.34667,340.72 1257.85333,340.933331 1258.28,341.36 C1258.70667,341.786669 1258.92,342.29333 1258.92,342.88 L1258.92,348.56 C1258.92,349.14667 1258.70667,349.653331 1258.28,350.08 C1257.85333,350.506669 1257.34667,350.72 1256.76,350.72 L1232.68,350.72 L1232.68,364 L1259.16,364 Z M373.189992,353.12 L364.389992,330.32 L355.589992,353.12 L373.189992,353.12 Z M634.599994,339.28 C634.386659,335.439981 633.146672,332.466677 630.879994,330.36 C628.613316,328.253323 625.613346,327.2 621.879994,327.2 C618.146642,327.2 615.146672,328.253323 612.879994,330.36 C610.613316,332.466677 609.373328,335.439981 609.159994,339.28 C609.053327,341.306677 608.999994,343.559988 608.999994,346.04 C608.999994,348.520012 609.053327,350.773323 609.159994,352.8 C609.373328,356.640019 610.613316,359.59999 612.879994,361.68 C615.146672,363.76001 618.146642,364.8 621.879994,364.8 C625.613346,364.8 628.613316,363.76001 630.879994,361.68 C633.146672,359.59999 634.386659,356.640019 634.599994,352.8 C634.706661,350.773323 634.759994,348.520012 634.759994,346.04 C634.759994,343.559988 634.706661,341.306677 634.599994,339.28 Z M917.999997,343.2 L929.599997,343.2 C932.640012,343.2 935.066655,342.666672 936.879997,341.6 C938.693339,340.533328 939.599997,338.506682 939.599997,335.52 C939.599997,332.533318 938.693339,330.533338 936.879997,329.52 C935.066655,328.506662 932.640012,328 929.599997,328 L917.999997,328 L917.999997,343.2 Z" id="AUTO-SERVICE" fill="#000000"></path>
            </g>
        </g>
    </g>
</svg>